<svg version="1.2" baseProfile="tiny-ps" xmlns="http://www.w3.org/2000/svg" viewBox="0 0 48 48" width="48" height="48">
	<title>popcorn-svg</title>
	<style>
		tspan { white-space:pre }
		.shp0 { fill: #ffffff;stroke: #111827 } 
	</style>
	<path id="Layer" class="shp0" d="M42.27 24.02L42.27 25.17L42.8 24.68C44.18 26.06 45.23 27.73 45.89 29.57C46.6 31.57 46.81 33.71 46.52 35.81C46.22 37.91 45.42 39.91 44.18 41.64C42.94 43.36 41.3 44.76 39.41 45.72C37.51 46.68 35.4 47.17 33.28 47.15C31.15 47.12 29.05 46.59 27.18 45.59C25.3 44.58 23.7 43.15 22.5 41.39C21.3 39.64 20.54 37.62 20.29 35.52L20.21 34.86L19.6 35.12C17.97 35.81 16.22 36.16 14.46 36.16L14.45 36.16C12.48 36.16 10.53 35.71 8.75 34.86C6.97 34.02 5.4 32.78 4.16 31.25C2.93 29.72 2.05 27.93 1.59 26.01C1.14 24.1 1.12 22.11 1.54 20.19C1.96 18.26 2.8 16.46 4.01 14.9C5.22 13.35 6.76 12.08 8.53 11.2C10.29 10.32 12.23 9.84 14.21 9.8C16.18 9.77 18.14 10.17 19.93 10.98L20.47 11.23L20.62 10.66C21.15 8.68 22.12 6.86 23.48 5.32C24.83 3.79 26.52 2.59 28.42 1.82C30.32 1.05 32.37 0.73 34.41 0.89C36.46 1.04 38.44 1.67 40.2 2.72C41.95 3.77 43.44 5.21 44.55 6.93C45.65 8.65 46.34 10.6 46.56 12.63C46.77 14.66 46.51 16.71 45.8 18.63C45.14 20.38 44.12 21.97 42.8 23.3L42.27 22.81L42.27 23.96L42.27 24.02Z" />
</svg>