<svg width="48" height="48" viewBox="0 0 48 48" fill="none" xmlns="http://www.w3.org/2000/svg">
<path d="M42.2736 24.0215V25.1701L42.8 24.6801C44.178 26.0612 45.2332 27.7311 45.8872 29.5707C46.5981 31.5702 46.8141 33.7112 46.5169 35.8116C46.2197 37.912 45.4181 39.9101 44.1801 41.6358C42.9421 43.3615 41.3043 44.764 39.4057 45.7238C37.5071 46.6837 35.404 47.1725 33.2751 47.1487C31.1462 47.1249 29.0546 46.5891 27.1781 45.5869C25.3016 44.5848 23.6958 43.1461 22.497 41.3931C21.2982 39.6401 20.5418 37.6248 20.292 35.5182L20.2135 34.8564L19.6001 35.1168C17.9737 35.8074 16.2233 36.1612 14.4553 36.1566L14.4543 36.1566C12.48 36.1557 10.5311 35.7143 8.7505 34.8649C6.96991 34.0154 5.4029 32.7794 4.1643 31.2477C2.9257 29.716 2.04695 27.9275 1.59244 26.0134C1.13793 24.0993 1.11915 22.108 1.53748 20.1858C1.9558 18.2635 2.80064 16.4588 4.0101 14.9042C5.21958 13.3495 6.76301 12.0845 8.52726 11.2018C10.2915 10.3191 12.2317 9.84125 14.2056 9.8034C16.1794 9.76556 18.1367 10.1686 19.9337 10.9831L20.4718 11.2269L20.6234 10.6559C21.1473 8.68197 22.1243 6.85625 23.4775 5.32288C24.8307 3.78949 26.523 2.59041 28.421 1.82038C30.319 1.05034 32.3707 0.730421 34.414 0.886013C36.4574 1.0416 38.4364 1.66839 40.195 2.71681C41.9535 3.76522 43.4434 5.20659 44.5471 6.92697C45.6508 8.64734 46.3382 10.5997 46.5552 12.63C46.7722 14.6603 46.5128 16.7131 45.7974 18.6265C45.1415 20.381 44.1186 21.9742 42.7988 23.3015L42.2736 22.8142V23.9602V24.0215Z" fill="white" stroke="#111827"/>
</svg>
