<svg width="672" height="400" viewBox="0 0 672 400" fill="none" xmlns="http://www.w3.org/2000/svg">
<rect width="672" height="400" rx="8" fill="#D7D5BC"/>
<path d="M261 200L277.667 183.333M277.667 183.333L336 125L394.333 183.333M277.667 183.333V266.667C277.667 271.269 281.398 275 286 275H311M394.333 183.333L411 200M394.333 183.333V266.667C394.333 271.269 390.602 275 386 275H361M311 275C315.602 275 319.333 271.269 319.333 266.667V233.333C319.333 228.731 323.064 225 327.667 225H344.333C348.936 225 352.667 228.731 352.667 233.333V266.667C352.667 271.269 356.398 275 361 275M311 275H361" stroke="black" stroke-width="12" stroke-linecap="round" stroke-linejoin="round"/>
</svg>
