<svg width="660" height="660" viewBox="0 0 660 660" fill="none" xmlns="http://www.w3.org/2000/svg">
<g filter="url(#filter0_d_3035_29681)">
<rect x="80" y="56" width="500" height="500" rx="120" fill="white"/>
</g>
<path d="M255 306L271.667 289.333M271.667 289.333L330 231L388.333 289.333M271.667 289.333V372.667C271.667 377.269 275.398 381 280 381H305M388.333 289.333L405 306M388.333 289.333V372.667C388.333 377.269 384.602 381 380 381H355M305 381C309.602 381 313.333 377.269 313.333 372.667V339.333C313.333 334.731 317.064 331 321.667 331H338.333C342.936 331 346.667 334.731 346.667 339.333V372.667C346.667 377.269 350.398 381 355 381M305 381H355" stroke="#73B7EA" stroke-width="12" stroke-linecap="round" stroke-linejoin="round"/>
<defs>
<filter id="filter0_d_3035_29681" x="0" y="0" width="660" height="660" filterUnits="userSpaceOnUse" color-interpolation-filters="sRGB">
<feFlood flood-opacity="0" result="BackgroundImageFix"/>
<feColorMatrix in="SourceAlpha" type="matrix" values="0 0 0 0 0 0 0 0 0 0 0 0 0 0 0 0 0 0 127 0" result="hardAlpha"/>
<feOffset dy="24"/>
<feGaussianBlur stdDeviation="40"/>
<feColorMatrix type="matrix" values="0 0 0 0 0.0425347 0 0 0 0 0.187031 0 0 0 0 0.291667 0 0 0 0.1 0"/>
<feBlend mode="normal" in2="BackgroundImageFix" result="effect1_dropShadow_3035_29681"/>
<feBlend mode="normal" in="SourceGraphic" in2="effect1_dropShadow_3035_29681" result="shape"/>
</filter>
</defs>
</svg>
