<svg width="660" height="660" viewBox="0 0 660 660" fill="none" xmlns="http://www.w3.org/2000/svg">
<g filter="url(#filter0_d_3035_29664)">
<rect x="80" y="56" width="500" height="500" rx="120" fill="white"/>
</g>
<path d="M371.667 372.667H413.333V356C413.333 342.193 402.141 331 388.333 331C380.37 331 373.276 334.723 368.698 340.524M371.667 372.667H288.333M371.667 372.667V356C371.667 350.531 370.613 345.309 368.698 340.524M288.333 372.667H246.667V356C246.667 342.193 257.86 331 271.667 331C279.63 331 286.724 334.723 291.302 340.524M288.333 372.667V356C288.333 350.531 289.387 345.309 291.302 340.524M291.302 340.524C297.446 325.175 312.457 314.333 330 314.333C347.543 314.333 362.554 325.175 368.698 340.524M355 264.333C355 278.141 343.807 289.333 330 289.333C316.193 289.333 305 278.141 305 264.333C305 250.526 316.193 239.333 330 239.333C343.807 239.333 355 250.526 355 264.333ZM405 289.333C405 298.538 397.538 306 388.333 306C379.129 306 371.667 298.538 371.667 289.333C371.667 280.129 379.129 272.667 388.333 272.667C397.538 272.667 405 280.129 405 289.333ZM288.333 289.333C288.333 298.538 280.871 306 271.667 306C262.462 306 255 298.538 255 289.333C255 280.129 262.462 272.667 271.667 272.667C280.871 272.667 288.333 280.129 288.333 289.333Z" stroke="#FA6456" stroke-width="12" stroke-linecap="round" stroke-linejoin="round"/>
<defs>
<filter id="filter0_d_3035_29664" x="0" y="0" width="660" height="660" filterUnits="userSpaceOnUse" color-interpolation-filters="sRGB">
<feFlood flood-opacity="0" result="BackgroundImageFix"/>
<feColorMatrix in="SourceAlpha" type="matrix" values="0 0 0 0 0 0 0 0 0 0 0 0 0 0 0 0 0 0 127 0" result="hardAlpha"/>
<feOffset dy="24"/>
<feGaussianBlur stdDeviation="40"/>
<feColorMatrix type="matrix" values="0 0 0 0 0.366565 0 0 0 0 0.0635923 0 0 0 0 0.0353149 0 0 0 0.1 0"/>
<feBlend mode="normal" in2="BackgroundImageFix" result="effect1_dropShadow_3035_29664"/>
<feBlend mode="normal" in="SourceGraphic" in2="effect1_dropShadow_3035_29664" result="shape"/>
</filter>
</defs>
</svg>
