<svg width="672" height="400" viewBox="0 0 672 400" fill="none" xmlns="http://www.w3.org/2000/svg">
<rect width="672" height="400" rx="8" fill="#EBE7D4"/>
<path d="M375.286 212.5L410.426 265.21C412.198 267.868 410.292 271.428 407.097 271.428H348.5" stroke="black" stroke-width="12" stroke-linejoin="round"/>
<circle cx="323.5" cy="135.714" r="21.4286" stroke="black" stroke-width="12"/>
<path d="M307.429 150L268.18 185.044C262.174 190.406 261.473 199.553 266.591 205.768L276.45 217.74C279.778 221.782 285.719 222.44 289.853 219.226V219.226C294.444 215.654 294.867 208.867 290.754 204.753L287.786 201.785L298.5 191.071" stroke="black" stroke-width="12" stroke-linecap="round" stroke-linejoin="round"/>
<path d="M341.357 150L380.606 185.044C386.612 190.406 387.313 199.553 382.195 205.768L372.336 217.74C369.008 221.782 363.067 222.44 358.933 219.226V219.226C354.342 215.654 353.919 208.867 358.032 204.753L361 201.785L350.286 191.071" stroke="black" stroke-width="12" stroke-linecap="round" stroke-linejoin="round"/>
<path d="M298.5 192.857V284.643C298.5 290.166 302.977 294.643 308.5 294.643H323.5M323.5 294.643V241.072M323.5 294.643H340.286C345.809 294.643 350.286 290.166 350.286 284.643V192.857" stroke="black" stroke-width="12" stroke-linecap="round" stroke-linejoin="round"/>
<path d="M300.286 216.072H348.5" stroke="black" stroke-width="12" stroke-linejoin="round"/>
</svg>
