<svg width="309" height="338" viewBox="0 0 309 338" fill="none" xmlns="http://www.w3.org/2000/svg">
<path d="M33.8628 186.835C33.9641 186.806 33.9923 186.676 33.9124 186.607C19.306 174.02 9.51482 156.75 6.21577 137.743C2.90269 118.655 6.34456 99.0121 15.9482 82.1962C25.5519 65.3803 40.7163 52.4443 58.8297 45.6166C67.1572 42.4776 75.8684 40.7199 84.6296 40.3485C102.25 39.6015 120.372 31.7502 133.522 19.9969C141.265 13.0754 150.347 7.81803 160.204 4.54993C170.06 1.28184 180.483 0.0726143 190.828 0.996891C201.172 1.92117 211.218 4.95944 220.344 9.92365C229.47 14.8879 237.482 21.6724 243.884 29.8578C250.286 38.0432 254.943 47.4553 257.565 57.5119C260.188 67.5685 260.721 78.0557 259.131 88.3248C256.748 103.719 263.507 121.73 275.822 131.269C277.589 132.638 279.303 134.081 280.961 135.593C290.304 144.121 297.583 154.666 302.245 166.429C306.907 178.191 308.83 190.861 307.866 203.475C306.903 216.09 303.079 228.317 296.685 239.229C290.292 250.141 281.496 259.45 270.967 266.45C260.438 273.449 248.452 277.954 235.92 279.623C223.388 281.293 210.64 280.081 198.643 276.082C184.935 271.512 163.828 279.971 157.077 292.747C156.408 294.013 155.705 295.263 154.97 296.496C147.748 308.606 137.571 318.681 125.393 325.778C113.215 332.875 99.4349 336.762 85.3432 337.074C71.2516 337.386 57.31 334.114 44.8244 327.563C32.3388 321.012 21.7181 311.398 13.9571 299.62C6.19623 287.843 1.54922 274.287 0.451491 260.225C-0.646235 246.162 1.84127 232.053 7.68097 219.218C13.5173 206.391 22.5111 195.256 33.8205 186.856C33.8332 186.847 33.8476 186.84 33.8628 186.835Z" fill="#FFF7D9"/>
</svg>
