<svg width="1920" height="1000" viewBox="0 0 1920 1000" fill="none" xmlns="http://www.w3.org/2000/svg">
<path d="M443.655 336.356C443.514 336.356 443.43 336.199 443.507 336.081C457.602 314.514 463.78 288.716 460.981 263.092C458.17 237.358 446.48 213.412 427.925 195.376C409.371 177.341 385.113 166.345 359.329 164.283C347.476 163.335 335.641 164.303 324.254 167.069C301.354 172.632 275.181 169.259 253.948 159.036C241.444 153.015 227.838 149.627 213.973 149.079C200.108 148.531 186.278 150.837 173.339 155.852C160.4 160.868 148.626 168.487 138.746 178.239C128.867 187.99 121.092 199.666 115.902 212.546C110.711 225.425 108.217 239.233 108.572 253.115C108.927 266.998 112.124 280.66 117.966 293.256C126.723 312.138 124.712 337.765 112.432 354.571C110.67 356.983 109.002 359.469 107.434 362.025C98.5947 376.432 93.1521 392.666 91.52 409.493C89.888 426.321 92.1094 443.299 98.0155 459.139C103.922 474.978 113.357 489.262 125.605 500.906C137.853 512.549 152.591 521.246 168.7 526.335C184.81 531.424 201.866 532.773 218.574 530.277C235.282 527.782 251.201 521.508 265.124 511.933C281.032 500.991 311.263 504.04 324.66 517.944C325.987 519.322 327.352 520.667 328.753 521.978C342.508 534.852 359.303 544.021 377.566 548.626C395.828 553.231 414.959 553.12 433.167 548.305C451.375 543.49 468.064 534.129 481.67 521.096C495.276 508.064 505.353 491.789 510.958 473.795C516.564 455.801 517.513 436.677 513.717 418.215C509.921 399.754 501.505 382.56 489.257 368.242C477.016 353.933 461.347 342.966 443.717 336.367C443.698 336.36 443.677 336.356 443.655 336.356Z" fill="#FFF7D9"/>
<path d="M1585.5 197L-154 391.5L-93 939L1100 1188L1585.5 197Z" fill="#DBEAFE"/>
<path d="M-72.7086 787.182C-74.3559 751.077 -51.5903 718.352 -17.1659 707.34L1566.1 200.876C1625.85 181.763 1690.23 211.894 1713.84 270.013L1988 945.002C1992.28 955.546 1994.27 966.882 1993.82 978.253L1933.02 2523.15C1931.34 2566.07 1896.05 2600 1853.09 2600H86.4333C43.6683 2600 8.46551 2566.37 6.5164 2523.65L-72.7086 787.182Z" fill="#73B7EA"/>
<path d="M466.996 62.982C466.98 62.9913 466.982 63.0158 467.001 63.0213C470.271 64.0252 473.732 64.2598 477.113 63.7065C480.511 63.1506 483.734 61.8143 486.53 59.8031C489.326 57.7919 491.617 55.1609 493.222 52.1177C494.828 49.0744 495.704 45.7022 495.782 42.2671C495.859 38.8321 495.137 35.4282 493.67 32.3241C492.204 29.22 490.033 26.5007 487.331 24.3806C484.629 22.2606 481.469 20.7978 478.099 20.1079C477.97 20.0814 477.84 20.056 477.711 20.0318C472.634 19.0863 467.537 15.519 464.895 11.0824C463.202 8.24097 460.893 5.81557 458.137 3.98421C455.381 2.15284 452.247 0.961933 448.966 0.498913C445.684 0.0358916 442.339 0.312514 439.175 1.30842C436.01 2.30433 433.108 3.99427 430.679 6.25427C428.251 8.51428 426.359 11.287 425.142 14.369C423.925 17.451 423.413 20.764 423.645 24.065C423.878 27.366 424.847 30.5712 426.483 33.4455C428.663 37.2961 428.628 42.7884 426.361 46.5887C426.051 47.1078 425.762 47.6404 425.495 48.1853C423.92 51.3942 423.144 54.933 423.232 58.501C423.32 62.069 424.27 65.5608 426 68.6794C427.731 71.798 430.191 74.4513 433.172 76.4138C436.153 78.3763 439.566 79.59 443.122 79.9517C446.677 80.3134 450.27 79.8124 453.595 78.4914C456.92 77.1703 459.879 75.0682 462.219 72.3637C464.549 69.6718 466.198 66.4623 467.028 63.0057C467.032 62.9874 467.013 62.9726 466.996 62.982Z" fill="#FFFBEF"/>
</svg>
