<svg width="82" height="84" viewBox="0 0 82 84" fill="none" xmlns="http://www.w3.org/2000/svg">
<path d="M74.2738 42.0406C77.0197 39.4714 79.132 36.298 80.444 32.7709C81.756 29.2439 82.2318 25.4596 81.8338 21.7168C81.4359 17.9741 80.175 14.3752 78.1509 11.2042C76.1267 8.03311 73.3945 5.3766 70.17 3.44445C66.9455 1.5123 63.3169 0.357284 59.5704 0.070569C55.824 -0.216146 52.0623 0.373368 48.5822 1.79241C45.1021 3.21145 41.9989 5.42129 39.5173 8.24752C37.0358 11.0738 35.2439 14.4391 34.283 18.0778C30.988 16.577 27.3994 15.8342 23.7804 15.9039C20.1615 15.9737 16.604 16.8541 13.3691 18.4809C10.1342 20.1076 7.30387 22.4391 5.08582 25.3045C2.86777 28.17 1.31826 31.4966 0.551003 35.0402C-0.216256 38.5838 -0.181826 42.2545 0.651809 45.783C1.48544 49.3115 3.09715 52.6083 5.36859 55.4314C7.64003 58.2546 10.5136 60.5325 13.7784 62.098C17.0433 63.6635 20.6167 64.4768 24.2363 64.4784C27.4794 64.4869 30.6904 63.8346 33.6741 62.5613C34.1322 66.4447 35.5195 70.1597 37.7181 73.3909C39.9166 76.622 42.8614 79.2736 46.3021 81.1204C49.7428 82.9672 53.5778 83.9546 57.481 83.9985C61.3843 84.0424 65.2404 83.1415 68.7216 81.3726C72.2029 79.6037 75.2063 77.019 77.4767 73.8381C79.7472 70.6573 81.2174 66.9743 81.7624 63.1022C82.3075 59.2302 81.9113 55.2835 80.6076 51.5977C79.3038 47.9119 77.131 44.596 74.2738 41.9317V42.0406Z" fill="#FFFBEF"/>
</svg>
