<svg width="561" height="403" viewBox="0 0 561 403" fill="none" xmlns="http://www.w3.org/2000/svg">
<path d="M331.655 187.356C331.514 187.356 331.43 187.199 331.507 187.081C345.602 165.514 351.78 139.716 348.981 114.092C346.17 88.3584 334.48 64.412 315.925 46.3764C297.371 28.3407 273.113 17.3449 247.329 15.2831C235.476 14.3351 223.641 15.3028 212.254 18.0688C189.354 23.6318 163.181 20.2588 141.948 10.0356C129.444 4.01525 115.838 0.626515 101.973 0.0789484C88.1079 -0.468618 74.2782 1.83673 61.3389 6.85229C48.3995 11.8678 36.6259 19.4871 26.7465 29.2386C16.867 38.9901 9.09168 50.6664 3.9015 63.5455C-1.28867 76.4246 -3.78342 90.2325 -3.42831 104.115C-3.07319 117.998 0.124281 131.66 5.96612 144.256C14.7232 163.138 12.7121 188.765 0.43235 205.571C-1.32984 207.983 -2.99753 210.469 -4.56563 213.025C-13.4053 227.432 -18.8479 243.666 -20.48 260.493C-22.112 277.321 -19.8906 294.299 -13.9845 310.139C-8.07847 325.978 1.35696 340.262 13.6049 351.906C25.8529 363.549 40.5913 372.246 56.7005 377.335C72.8097 382.424 89.8661 383.773 106.574 381.277C123.282 378.782 139.201 372.508 153.124 362.933C169.032 351.991 199.263 355.04 212.66 368.944C213.987 370.322 215.352 371.667 216.753 372.978C230.508 385.852 247.303 395.021 265.566 399.626C283.828 404.231 302.959 404.12 321.167 399.305C339.375 394.49 356.064 385.129 369.67 372.096C383.276 359.064 393.353 342.789 398.958 324.795C404.564 306.801 405.513 287.677 401.717 269.215C397.921 250.754 389.505 233.56 377.257 219.242C365.016 204.933 349.347 193.966 331.717 187.367C331.698 187.36 331.677 187.356 331.655 187.356Z" fill="#FFF7D9"/>
<path d="M550.07 105.48C550.07 105.51 550.105 105.525 550.127 105.505C553.984 101.874 556.952 97.398 558.799 92.4255C560.655 87.4289 561.328 82.0678 560.765 76.7655C560.202 71.4633 558.418 66.3649 555.555 61.8726C552.691 57.3802 548.826 53.6168 544.265 50.8796C539.703 48.1424 534.57 46.5062 529.27 46.1C523.971 45.6938 518.649 46.5289 513.726 48.5392C508.803 50.5496 504.413 53.6802 500.903 57.684C500.768 57.8378 500.634 57.9927 500.502 58.1487C495.34 64.2533 486.634 68.3763 478.641 68.5306C473.521 68.6294 468.489 69.8767 463.912 72.1812C459.336 74.4857 455.332 77.7887 452.195 81.8481C449.057 85.9074 446.865 90.6202 445.779 95.6403C444.694 100.66 444.743 105.861 445.922 110.859C447.101 115.858 449.381 120.528 452.595 124.528C455.808 128.527 459.873 131.754 464.491 133.972C469.11 136.19 474.165 137.342 479.286 137.344C486.137 137.362 493.498 141.619 496.873 147.582C497.334 148.396 497.829 149.193 498.357 149.97C501.467 154.548 505.633 158.304 510.501 160.921C515.368 163.537 520.793 164.936 526.315 164.998C531.836 165.06 537.291 163.784 542.216 161.278C547.141 158.772 551.389 155.11 554.601 150.604C557.813 146.098 559.893 140.88 560.664 135.395C561.435 129.909 560.875 124.318 559.03 119.097C557.194 113.899 554.141 109.221 550.127 105.456C550.105 105.436 550.07 105.451 550.07 105.48Z" fill="#FFF7D9"/>
</svg>
