<svg width="364" height="411" viewBox="0 0 364 411" fill="none" xmlns="http://www.w3.org/2000/svg">
<path d="M326.217 205.699C339.645 193.128 349.975 177.601 356.391 160.344C362.807 143.086 365.134 124.57 363.187 106.257C361.241 87.9445 355.076 70.336 345.177 54.8204C335.278 39.3049 321.917 26.3069 306.148 16.8532C290.38 7.39947 272.635 1.74814 254.314 0.345284C235.993 -1.05757 217.597 1.82684 200.579 8.77001C183.56 15.7132 168.385 26.5256 156.249 40.354C144.114 54.1823 135.351 70.6482 130.652 88.4523C114.539 81.1088 96.9895 77.4745 79.292 77.8157C61.5945 78.1569 44.1978 82.4649 28.3782 90.4242C12.5586 98.3834 -1.2823 109.791 -12.1291 123.811C-22.9759 137.832 -30.5534 154.108 -34.3055 171.447C-38.0575 188.785 -37.8892 206.745 -33.8125 224.01C-29.7358 241.274 -21.8542 257.405 -10.7463 271.218C0.361629 285.031 14.4138 296.177 30.3799 303.836C46.346 311.496 63.8208 315.476 81.5215 315.483C97.3812 315.525 113.084 312.334 127.674 306.104C129.915 325.104 136.699 343.281 147.451 359.091C158.202 374.901 172.603 387.875 189.429 396.911C206.255 405.946 225.009 410.778 244.096 410.993C263.184 411.207 282.041 406.8 299.065 398.145C316.09 389.49 330.777 376.843 341.88 361.279C352.983 345.716 360.173 327.696 362.838 308.75C365.504 289.805 363.566 270.494 357.191 252.46C350.815 234.426 340.189 218.202 326.217 205.166V205.699Z" fill="#FFF7D9"/>
</svg>
