<svg width="73" height="80" viewBox="0 0 73 80" fill="none" xmlns="http://www.w3.org/2000/svg">
<g clip-path="url(#clip0)">
<path d="M20.6788 44.4242C20.9627 41.5958 21.7113 26.6493 9.52734 11.9883L19.672 15.2059C19.672 15.2059 24.3701 9.34152 31.5204 9.52316L29.4553 0.25946C29.4553 0.25946 39.6258 6.69475 48.2733 22.5754C48.2733 22.5754 48.3508 22.783 48.5057 23.1722C44.995 24.314 41.2005 27.1164 40.5293 31.0087C40.1937 33.0587 41.2005 35.1346 43.1106 35.9649C45.0467 36.7953 47.3699 36.3542 49.3059 35.7314C50.2868 35.42 51.3193 35.0308 52.3519 34.7194C53.1521 37.7814 53.849 41.1287 54.1846 44.3983H20.6788V44.4242Z" fill="#F9A058"/>
<path d="M54.2092 44.6838H20.6775C20.6001 44.6838 20.5227 44.6578 20.4968 44.6059C20.4452 44.554 20.4194 44.4762 20.4194 44.3983C20.7033 41.5699 21.4261 26.7013 9.31961 12.17C9.24217 12.0921 9.24217 11.9624 9.29379 11.8586C9.34542 11.7548 9.47449 11.7289 9.57774 11.7548L19.6192 14.8946C20.3678 14.0124 24.8335 9.26373 31.2352 9.26373L29.2476 0.311411C29.2218 0.207616 29.2734 0.103821 29.3509 0.0519236C29.4283 2.61124e-05 29.5574 2.61124e-05 29.6348 0.0519236C29.7381 0.103821 39.9602 6.6948 48.5303 22.4716C48.5303 22.4976 48.6335 22.7052 48.7884 23.0944C48.8142 23.1723 48.8142 23.2242 48.7884 23.302C48.7626 23.3799 48.7109 23.4058 48.6335 23.4318C45.2003 24.5475 41.4832 27.3241 40.8378 31.0607C40.5023 33.0328 41.509 34.9789 43.2643 35.7315C44.7873 36.3802 46.7491 36.3283 49.2788 35.4979C49.6402 35.3682 50.0274 35.2384 50.3888 35.1087C51.0084 34.9011 51.6795 34.6676 52.3248 34.4859C52.4023 34.46 52.4539 34.4859 52.5313 34.5119C52.583 34.5378 52.6346 34.6157 52.6604 34.6676C53.5897 38.1966 54.2092 41.4661 54.4932 44.3724C54.4932 44.4502 54.4674 44.5281 54.4157 44.58C54.3641 44.6319 54.2867 44.6838 54.2092 44.6838ZM20.9615 44.1648H53.9253C53.6413 41.4142 53.0476 38.3523 52.1958 35.0827C51.6279 35.2384 51.0858 35.446 50.5437 35.6277C50.1565 35.7574 49.7951 35.8872 49.4079 36.0169C46.7491 36.8732 44.6841 36.9511 43.032 36.2245C41.0444 35.3682 39.9086 33.2144 40.2958 30.9828C40.7346 28.388 43.0578 24.7811 48.1689 23.0166C48.0914 22.809 48.0398 22.6792 48.0398 22.6792C43.5999 14.5313 38.747 8.9264 35.4686 5.65685C32.8615 3.06198 30.7964 1.50505 29.8671 0.830386L31.8031 9.44537C31.8289 9.52322 31.8031 9.60106 31.7515 9.67891C31.6999 9.73081 31.6224 9.78271 31.545 9.78271C24.6012 9.60107 19.9289 15.3098 19.9031 15.3617C19.8257 15.4395 19.7224 15.4655 19.6192 15.4395L10.2747 12.5073C21.6068 26.5456 21.2454 40.7396 20.9615 44.1648Z" fill="black"/>
<path d="M30.4088 66.844C29.1439 69.5686 25.2461 70.3211 22.5873 70.6325C19.8511 70.9698 17.089 70.9439 14.3528 70.8401C7.25408 70.5546 -0.36089 68.7382 0.284447 62.0694C1.13629 53.3506 11.0745 49.4324 14.3528 48.3944V60.0713C15.0756 60.0194 15.8242 60.0194 16.5469 60.0194C19.9801 59.9935 23.5682 60.227 26.8207 61.3169C28.2921 61.8099 30.099 62.5365 30.5895 64.1712C30.8476 65.0535 30.7701 66.0136 30.4088 66.844Z" fill="#F9A058"/>
<path d="M17.4011 71.1774C16.446 71.1774 15.4393 71.1515 14.3293 71.0996C7.95341 70.8401 3.64256 69.4908 1.50004 67.0256C0.338435 65.6763 -0.15202 64.0156 0.0286738 62.0435C0.906332 53.1171 11.1543 49.147 14.2519 48.135C14.3293 48.109 14.4068 48.135 14.4842 48.1609C14.5617 48.2128 14.5875 48.2906 14.5875 48.3685V59.76C15.2586 59.734 15.904 59.7081 16.5235 59.7081C19.492 59.7081 23.364 59.8378 26.8747 61.0315C28.0621 61.4207 30.2562 62.1732 30.7983 64.0675C31.0565 65.0016 30.979 66.0396 30.5918 66.8959C29.2753 69.7243 25.3775 70.5028 22.5896 70.8401C21.0408 71.0736 19.363 71.1774 17.4011 71.1774ZM14.097 48.7577C10.7154 49.8995 1.37097 53.7918 0.544943 62.0954C0.364249 63.9118 0.828891 65.4428 1.88724 66.6883C3.90069 68.9977 8.21154 70.3471 14.3551 70.5806C17.6851 70.7104 20.2148 70.6585 22.538 70.373C25.2226 70.0616 28.9398 69.3351 30.153 66.7143C30.4886 65.9617 30.566 65.0535 30.3337 64.2491C29.8948 62.7441 28.2428 62.0694 26.7456 61.5505C23.3124 60.3828 19.492 60.253 16.5493 60.253C15.8523 60.253 15.1037 60.253 14.3551 60.3049C14.2777 60.3049 14.2261 60.279 14.1745 60.2271C14.1228 60.1752 14.097 60.0973 14.097 60.0454V48.7577Z" fill="black"/>
<path d="M61.4869 44.4243V79.7405H14.3516V70.8401C17.0878 70.9439 19.8498 70.9439 22.5861 70.6325C25.2448 70.3211 29.1427 69.5686 30.4075 66.844C30.7947 66.0136 30.8464 65.0535 30.614 64.1972C30.1494 62.5365 28.3166 61.8359 26.8453 61.3428C23.5928 60.227 20.0047 60.0195 16.5715 60.0454C15.8487 60.0454 15.1002 60.0454 14.3774 60.0973V44.4502H61.4869V44.4243Z" fill="#73B7EA"/>
<path d="M61.4873 80H14.3519C14.197 80 14.0938 79.8962 14.0938 79.7405V70.8401C14.0938 70.7623 14.1196 70.7104 14.1712 70.6585C14.2228 70.6066 14.3003 70.5806 14.3519 70.5806C17.6818 70.7104 20.2115 70.6585 22.5348 70.373C25.2194 70.0617 28.9365 69.3351 30.1497 66.7143C30.4853 65.9618 30.5627 65.0535 30.3304 64.2491C29.8916 62.7441 28.2395 62.0694 26.7423 61.5505C23.3092 60.3828 19.4888 60.253 16.546 60.253C15.8491 60.253 15.1005 60.253 14.3519 60.3049C14.2744 60.3049 14.2228 60.279 14.1712 60.2271C14.1196 60.1752 14.0938 60.0973 14.0938 60.0454V44.3983C14.0938 44.2426 14.197 44.1389 14.3519 44.1389H61.4873C61.6422 44.1389 61.7454 44.2426 61.7454 44.3983V79.7146C61.7454 79.8703 61.6422 80 61.4873 80ZM14.61 79.481H61.2291V44.6838H14.61V59.8119C15.2812 59.786 15.9265 59.76 16.546 59.76C19.5146 59.76 23.3866 59.8897 26.8972 61.0834C28.0846 61.4726 30.2788 62.2251 30.8209 64.1194C31.079 65.0535 31.0016 66.0915 30.6144 66.9478C29.2979 69.7762 25.4259 70.5547 22.6122 70.892C20.3148 71.1775 17.8367 71.2294 14.61 71.1256V79.481Z" fill="black"/>
<path d="M45.4335 50.133H28.887C28.7322 50.133 28.6289 50.0292 28.6289 49.8735C28.6289 49.7178 28.7322 49.614 28.887 49.614H45.4335C45.5883 49.614 45.6916 49.7178 45.6916 49.8735C45.6916 50.0032 45.5625 50.133 45.4335 50.133Z" fill="black"/>
<path d="M11.5395 60.746C11.4104 60.746 11.3071 60.6422 11.2813 60.5125C11.2555 60.3827 11.3588 60.227 11.4878 60.227L14.3015 59.8119C14.4306 59.7859 14.5854 59.8897 14.5854 60.0195C14.6113 60.1492 14.508 60.3049 14.3789 60.3049L11.5653 60.7201C11.5653 60.746 11.5653 60.746 11.5395 60.746Z" fill="black"/>
<path d="M37.2746 35.7314C36.6551 36.1725 36.1905 36.8731 36.0872 37.7295C35.8807 39.3123 36.9907 40.7914 38.5911 40.999C39.9334 41.1806 41.1725 40.4022 41.6371 39.2085C41.9727 39.4161 42.3599 39.5718 42.7987 39.6237C44.3733 39.8313 45.8447 38.7155 46.0512 37.1067C46.2577 35.4979 45.1477 34.0447 43.5473 33.8371C43.1601 33.7852 42.7729 33.8112 42.4115 33.915C42.4373 32.4619 41.3532 31.1904 39.9076 31.0087C38.333 30.8011 36.8616 31.9169 36.6551 33.5258C36.5519 34.3302 36.7842 35.1346 37.2746 35.7314Z" fill="#FEFFFA"/>
<path d="M38.9801 41.2585C38.851 41.2585 38.6961 41.2585 38.567 41.2325C36.8375 40.999 35.6243 39.4161 35.8566 37.6776C35.9599 36.8991 36.3471 36.1985 36.9408 35.6795C36.502 35.0308 36.2955 34.2523 36.3987 33.4739C36.631 31.7353 38.2057 30.5157 39.9352 30.7492C41.4065 30.9309 42.5423 32.1505 42.6714 33.6036C42.9811 33.5517 43.2909 33.5517 43.6007 33.5776C44.4267 33.6814 45.1753 34.1226 45.6916 34.7972C46.2078 35.4719 46.4143 36.3023 46.3111 37.1326C46.0788 38.8712 44.5041 40.0908 42.7746 39.8572C42.4132 39.8054 42.0777 39.7016 41.7679 39.5459C41.2258 40.5838 40.1417 41.2585 38.9801 41.2585ZM39.5221 31.2423C38.2315 31.2423 37.0957 32.2283 36.915 33.5517C36.8117 34.2783 37.0182 35.0048 37.5087 35.5757C37.5603 35.6276 37.5861 35.7054 37.5603 35.7833C37.5603 35.8611 37.5087 35.913 37.4571 35.9649C36.8634 36.4061 36.4762 37.0288 36.3729 37.7813C36.1922 39.2345 37.1989 40.5579 38.6445 40.7395C39.8319 40.8952 40.9677 40.2205 41.4323 39.1047C41.4582 39.0269 41.5098 38.975 41.5872 38.949C41.6647 38.9231 41.7421 38.9231 41.7937 38.975C42.1293 39.1826 42.4649 39.3123 42.8521 39.3642C44.2976 39.5459 45.6141 38.5339 45.7948 37.0807C45.8981 36.3801 45.6916 35.6795 45.2785 35.1346C44.8397 34.5637 44.2202 34.2264 43.5232 34.1226C43.1618 34.0707 42.8263 34.0966 42.4907 34.2004C42.4132 34.2264 42.3358 34.2004 42.2584 34.1485C42.2067 34.0966 42.1551 34.0188 42.1551 33.9409C42.1809 32.5916 41.1742 31.4758 39.8577 31.2942C39.7545 31.2423 39.6254 31.2423 39.5221 31.2423Z" fill="black"/>
<path d="M61.4866 61.4466V44.4242H58.9053C59.7571 42.6338 60.5831 40.2205 60.3508 37.8852C60.1443 35.7574 58.1825 34.5897 56.2465 34.3302C54.93 34.1485 53.6393 34.3821 52.3745 34.7454C51.3419 35.0567 50.3094 35.42 49.3285 35.7574C47.3925 36.3801 45.0693 36.8213 43.1333 35.9909C41.2231 35.1605 40.1905 33.0846 40.5519 31.0347C41.2231 27.1424 45.0176 24.3399 48.5283 23.1982C48.5799 23.1722 48.6057 23.1722 48.6573 23.1463C52.1938 22.0564 56.1174 22.1083 59.6539 23.1722C66.5202 25.2222 70.6762 31.1904 71.7862 38.1187C73.9803 51.638 64.6359 59.2929 61.4866 61.4466Z" fill="#F9A058"/>
<path d="M61.4892 61.7061C61.4376 61.7061 61.4118 61.7061 61.3602 61.6802C61.2827 61.6283 61.2311 61.5504 61.2311 61.4467V44.6838H58.9079C58.8305 44.6838 58.7272 44.6319 58.7014 44.554C58.6498 44.4762 58.6498 44.3724 58.6756 44.2945C59.45 42.6598 60.3276 40.2206 60.0953 37.9111C59.9662 36.5358 58.8821 34.953 56.1975 34.5897C55.1133 34.434 53.9259 34.5637 52.4287 35.0049C51.7834 35.1865 51.138 35.4201 50.5185 35.6276C50.1313 35.7574 49.7699 35.8871 49.3827 36.0169C46.7239 36.8732 44.6589 36.951 43.0068 36.2245C41.0192 35.3682 39.8834 33.2144 40.2706 30.9828C40.7094 28.336 43.1359 24.6513 48.4276 22.9387C48.4793 22.9128 48.5309 22.9128 48.5567 22.8868C52.0415 21.797 56.0168 21.797 59.6823 22.9128C66.1615 24.8589 70.7821 30.5157 71.9953 38.0668C74.2153 51.8197 64.5869 59.6043 61.5925 61.6802C61.5925 61.6802 61.5409 61.7061 61.4892 61.7061ZM59.3209 44.1648H61.5151C61.6699 44.1648 61.7732 44.2686 61.7732 44.4243V60.9536C65.0773 58.5663 73.6474 51.0412 71.5565 38.1447C70.3691 30.8012 65.9033 25.2741 59.6049 23.4058C56.0168 22.3419 52.1706 22.3159 48.7632 23.3798C48.7116 23.4058 48.6858 23.4058 48.6341 23.4317C45.201 24.5475 41.458 27.324 40.8385 31.0607C40.5029 33.0328 41.5096 34.9789 43.2908 35.7314C44.8138 36.3802 46.7756 36.3283 49.3053 35.4979C49.6667 35.3682 50.0539 35.2384 50.4153 35.1087C51.0348 34.9011 51.7059 34.6675 52.3513 34.4859C53.3322 34.2005 54.8036 33.8631 56.3265 34.0707C58.1851 34.3302 60.4309 35.4719 60.6632 37.8592C60.8439 40.1168 60.0695 42.4781 59.3209 44.1648Z" fill="black"/>
<path d="M33.8155 24.4438C33.8155 25.3001 33.1186 25.9747 32.2925 25.9747C31.4407 25.9747 30.7695 25.2741 30.7695 24.4438C30.7695 23.5874 31.4665 22.9128 32.2925 22.9128C33.1444 22.9128 33.8155 23.5874 33.8155 24.4438Z" fill="black"/>
<path d="M26.5103 23.5874C26.5103 23.9507 26.2005 24.2621 25.8391 24.2621C25.4777 24.2621 25.168 23.9507 25.168 23.5874C25.168 23.2242 25.4777 22.9128 25.8391 22.9128C26.2005 22.9128 26.5103 23.1982 26.5103 23.5874Z" fill="black"/>
<path d="M35.4165 18.8647C35.4165 19.228 35.1068 19.5394 34.7454 19.5394C34.384 19.5394 34.0742 19.228 34.0742 18.8647C34.0742 18.5014 34.384 18.1901 34.7454 18.1901C35.1068 18.1901 35.4165 18.4755 35.4165 18.8647Z" fill="black"/>
<path d="M36.061 26.9088C35.9577 26.9088 35.8545 26.831 35.8287 26.7272C35.777 26.5975 35.8545 26.4418 35.9835 26.3899C36.0094 26.3899 36.9903 26.0266 37.3775 25.1184C37.6356 24.5216 37.584 23.8209 37.2484 22.9906C37.1968 22.8608 37.2484 22.7051 37.3775 22.6532C37.5065 22.6014 37.6614 22.6532 37.7131 22.783C38.1261 23.7431 38.1777 24.5994 37.8421 25.326C37.3517 26.4418 36.1901 26.8569 36.1384 26.8569C36.1126 26.8829 36.0868 26.9088 36.061 26.9088Z" fill="black"/>
<path d="M25.2461 20.1881C25.6074 20.4995 25.3751 21.3818 24.7298 22.1343C24.0845 22.8868 23.2584 23.2501 22.897 22.9387C22.5356 22.6273 22.768 21.745 23.4133 20.9925C24.0586 20.24 24.8847 19.8767 25.2461 20.1881Z" fill="black"/>
<path d="M33.6348 15.4655C33.5316 15.9326 34.2543 16.4775 35.2353 16.6851C36.2162 16.8927 37.0938 16.6591 37.1713 16.192C37.2745 15.725 36.5517 15.18 35.5708 14.9725C34.5899 14.7649 33.7123 14.9725 33.6348 15.4655Z" fill="black"/>
<path d="M42.7715 13.8307L39.3125 18.8648L44.8366 16.8148" fill="black"/>
<path d="M39.3154 19.1242C39.2379 19.1242 39.1605 19.0983 39.1089 19.0204C39.0314 18.9426 39.0314 18.8128 39.1089 18.709L42.542 13.675C42.6195 13.5452 42.7744 13.5193 42.9034 13.5971C43.0325 13.675 43.0583 13.8307 42.9809 13.9604L40.0123 18.3198L44.762 16.5553C44.8911 16.5034 45.0459 16.5812 45.0976 16.711C45.1492 16.8407 45.0718 16.9964 44.9427 17.0483L39.4444 19.0983C39.3928 19.1242 39.367 19.1242 39.3154 19.1242Z" fill="black"/>
<path d="M46.0742 18.8647L41.0664 22.3159L48.036 22.1083" fill="black"/>
<path d="M41.0721 22.5754C40.9689 22.5754 40.8656 22.4976 40.814 22.3938C40.7882 22.29 40.814 22.1602 40.9173 22.1083L45.9251 18.6571C46.0541 18.5793 46.209 18.6052 46.2864 18.735C46.3639 18.8647 46.3381 19.0204 46.209 19.0983L41.924 22.0564L47.9901 21.8748C48.145 21.8748 48.2483 21.9786 48.2483 22.1343C48.2483 22.29 48.145 22.3938 47.9901 22.3938L41.0721 22.5754Z" fill="black"/>
<path d="M17.9648 26.4158L24.3408 26.6494L19.2555 30.4638" fill="black"/>
<path d="M19.2582 30.7234C19.1808 30.7234 19.1033 30.6974 19.0517 30.6196C18.9743 30.5158 19.0001 30.3341 19.1033 30.2563L23.5949 26.8829L17.9417 26.6753C17.7868 26.6753 17.6836 26.5456 17.6836 26.4159C17.6836 26.2602 17.8127 26.1564 17.9417 26.1564L24.3177 26.3899C24.4209 26.3899 24.5242 26.4678 24.55 26.5716C24.5758 26.6753 24.55 26.7791 24.4467 26.857L19.3615 30.6715C19.3615 30.6974 19.3098 30.7234 19.2582 30.7234Z" fill="black"/>
<path d="M19.6953 32.1764L26.5101 29.9448L20.573 37.4181" fill="black"/>
<path d="M20.5738 37.6776C20.5222 37.6776 20.4706 37.6516 20.419 37.6257C20.3157 37.5478 20.2899 37.3662 20.3673 37.2624L25.7623 30.4898L19.7736 32.4359C19.6446 32.4878 19.4897 32.41 19.438 32.2802C19.3864 32.1505 19.4639 31.9948 19.5929 31.9429L26.4077 29.7113C26.5109 29.6854 26.64 29.7113 26.6916 29.8151C26.7691 29.9189 26.7433 30.0227 26.6916 30.1265L20.7545 37.5738C20.7287 37.6516 20.6513 37.6776 20.5738 37.6776Z" fill="black"/>
<path d="M49.2522 73.6945H49.1231C47.0064 72.423 42.8504 69.9319 43.4442 66.8959C44.0637 63.7561 47.342 63.9637 49.1747 65.7022C51.0075 63.9637 54.2858 63.7561 54.9053 66.8959C55.5507 69.9319 51.3689 72.423 49.2522 73.6945Z" fill="#FDEBA7"/>
<path d="M49.2521 73.9539H49.1231C49.0715 73.9539 49.0198 73.9539 48.994 73.9279L48.9424 73.902C46.7224 72.5527 42.5665 70.0356 43.2118 66.8699C43.4699 65.5984 44.1927 64.7162 45.2511 64.3788C46.4901 63.9896 48.0647 64.3788 49.2263 65.3908C50.3879 64.3788 51.9626 63.9896 53.1758 64.3788C54.2341 64.7162 54.9569 65.5984 55.2151 66.8699C55.8604 70.0616 51.7044 72.5527 49.4845 73.902L49.4328 73.9279C49.3554 73.9539 49.3038 73.9539 49.2521 73.9539ZM46.232 64.7162C45.948 64.7162 45.6641 64.7681 45.4059 64.8459C44.5283 65.1313 43.9604 65.8579 43.7281 66.9478C43.1602 69.7762 47.0838 72.1375 49.2005 73.4349C51.3172 72.1375 55.2409 69.7762 54.673 66.9478C54.4407 65.8579 53.8728 65.1313 52.9951 64.8459C51.8851 64.4826 50.3879 64.9238 49.3554 65.9098C49.2521 66.0136 49.0973 66.0136 48.994 65.9098C48.2454 65.1573 47.1613 64.7162 46.232 64.7162Z" fill="black"/>
</g>
<defs>
<clipPath id="clip0">
<rect width="72.381" height="80" fill="white"/>
</clipPath>
</defs>
</svg>
