<svg width="174" height="91" viewBox="0 0 174 91" fill="none" xmlns="http://www.w3.org/2000/svg">
<path d="M50.8094 46.2215L37.9025 41.2575L37.3159 37.3593L53.254 38.2687L50.8094 46.2215Z" fill="#FFDC38"/>
<path d="M50.8094 46.2215L37.9025 41.2575L37.3159 37.3593L53.254 38.2687L50.8094 46.2215Z" stroke="#2E1E00" stroke-miterlimit="10" stroke-linecap="round" stroke-linejoin="round"/>
<path d="M52.6814 32.7959V39.963L40.753 40.5031L40.6768 32.7959H52.6814Z" fill="#FA6456"/>
<path d="M52.6814 32.7959V39.963L40.753 40.5031L40.6768 32.7959H52.6814Z" stroke="#2E1E00" stroke-miterlimit="10" stroke-linecap="round" stroke-linejoin="round"/>
<path d="M77.744 46.2215L64.8371 41.2575L64.2505 37.3593L80.1884 38.2687L77.744 46.2215Z" fill="#73B7EA"/>
<path d="M77.744 46.2215L64.8371 41.2575L64.2505 37.3593L80.1884 38.2687L77.744 46.2215Z" stroke="#2E1E00" stroke-miterlimit="10" stroke-linecap="round" stroke-linejoin="round"/>
<path d="M66.8563 32.7959H79.6157V39.9631L65.6963 40.5931L66.8563 32.7959Z" fill="#FFDC38"/>
<path d="M66.8563 32.7959H79.6157V39.9631L65.6963 40.5931L66.8563 32.7959Z" stroke="#2E1E00" stroke-miterlimit="10" stroke-linecap="round" stroke-linejoin="round"/>
<path d="M107.818 46.1532L94.9108 41.1893L94.3242 37.291L110.262 38.2005L107.818 46.1532Z" fill="#ADF0E7"/>
<path d="M107.818 46.1532L94.9108 41.1893L94.3242 37.291L110.262 38.2005L107.818 46.1532Z" stroke="#2E1E00" stroke-miterlimit="10" stroke-linecap="round" stroke-linejoin="round"/>
<path d="M96.9303 32.7277H109.69V39.8949L95.77 40.525L96.9303 32.7277Z" fill="#73B7EA"/>
<path d="M96.9303 32.7277H109.69V39.8949L95.77 40.525L96.9303 32.7277Z" stroke="#2E1E00" stroke-miterlimit="10" stroke-linecap="round" stroke-linejoin="round"/>
<path d="M135.287 45.9876L122.38 41.0235L121.793 37.1254L137.731 38.0349L135.287 45.9876Z" fill="#FFDC38"/>
<path d="M135.287 45.9876L122.38 41.0235L121.793 37.1254L137.731 38.0349L135.287 45.9876Z" stroke="#2E1E00" stroke-miterlimit="10" stroke-linecap="round" stroke-linejoin="round"/>
<path d="M124.399 32.562H137.158V39.7292L123.239 40.3594L124.399 32.562Z" fill="#ADF0E7"/>
<path d="M124.399 32.562H137.158V39.7292L123.239 40.3594L124.399 32.562Z" stroke="#2E1E00" stroke-miterlimit="10" stroke-linecap="round" stroke-linejoin="round"/>
<path d="M40.7531 40.5031L40.779 43.0777L39.8659 85.755C39.8659 88.0491 38.0058 89.9092 35.7115 89.9092H35.4652C33.171 89.9092 31.3122 88.0491 31.3122 85.755L30.2331 57.2172C30.2291 57.0865 30.0345 57.088 30.0304 57.2187L29.3051 85.755C29.3051 88.0491 27.445 89.9092 25.1507 89.9092C22.8579 89.9092 20.9977 88.0491 20.9977 85.755C20.9501 84.3316 20.9038 82.9068 20.8576 81.4835C20.746 78.102 20.6358 74.722 20.5242 71.3404C20.3922 67.3316 20.2616 63.3215 20.1296 59.3127C20.0207 56.002 19.7826 52.694 19.803 49.3833C19.8166 47.2483 19.8084 45.1704 19.8044 43.1184C19.7962 39.1668 19.8044 35.3159 20.0153 31.3615C20.0153 31.2678 20.0153 31.1724 20.0166 31.0785C20.0316 29.0972 20.2058 27.0969 20.2779 25.1171C20.3908 22.0173 20.5024 18.9175 20.6154 15.8177C20.7256 12.771 20.8358 9.72287 20.946 6.67479C21.0059 5.01876 21.0658 3.36272 21.1256 1.70669C21.127 1.65906 21.1284 1.6128 21.1297 1.56653C21.1338 1.47672 21.2413 1.4359 21.3039 1.49849L25.5086 5.70321C25.5413 5.73587 25.593 5.74131 25.6338 5.71682C31.5463 2.21016 36.1293 5.79847 36.796 6.18084C36.8355 6.20261 36.8845 6.1958 36.9158 6.16587L41.1096 2.18975C41.1749 2.12716 41.2824 2.17615 41.2797 2.26596L40.6606 31.0799L40.6769 32.7958L40.7531 40.5031Z" fill="#FA6456"/>
<path d="M40.7531 40.5031L40.779 43.0777L39.8659 85.755C39.8659 88.0491 38.0058 89.9092 35.7115 89.9092H35.4652C33.171 89.9092 31.3122 88.0491 31.3122 85.755L30.2331 57.2172C30.2291 57.0865 30.0345 57.088 30.0304 57.2187L29.3051 85.755C29.3051 88.0491 27.445 89.9092 25.1507 89.9092C22.8579 89.9092 20.9977 88.0491 20.9977 85.755C20.9501 84.3316 20.9038 82.9068 20.8576 81.4834C20.746 78.102 20.6358 74.722 20.5242 71.3404C20.3922 67.3316 20.2616 63.3215 20.1296 59.3127C20.0207 56.002 19.7826 52.694 19.803 49.3833C19.8166 47.2483 19.8084 45.1704 19.8044 43.1184C19.7962 39.1668 19.8044 35.3159 20.0153 31.3615C20.0153 31.2678 20.0153 31.1724 20.0166 31.0785C20.0316 29.0972 20.2058 27.0969 20.2779 25.1171C20.3908 22.0173 20.5024 18.9175 20.6154 15.8177C20.7256 12.771 20.8358 9.72287 20.946 6.67479C21.0059 5.01876 21.0658 3.36272 21.1256 1.70669C21.127 1.65906 21.1284 1.6128 21.1297 1.56653C21.1338 1.47672 21.2413 1.4359 21.3039 1.49849L25.5086 5.70321C25.5413 5.73587 25.593 5.74131 25.6338 5.71682C31.5463 2.21016 36.1293 5.79847 36.796 6.18084C36.8355 6.20261 36.8845 6.1958 36.9158 6.16587L41.1096 2.18975C41.1749 2.12716 41.2824 2.17615 41.2797 2.26596L40.6606 31.0799L40.6769 32.7958L40.7531 40.5031Z" stroke="#2E1E00" stroke-miterlimit="10" stroke-linecap="round" stroke-linejoin="round"/>
<path d="M20.2637 25.5231C20.2637 25.5231 31.5066 30.9171 40.5417 25.5231" stroke="#FEFFFA" stroke-miterlimit="10" stroke-linecap="round" stroke-linejoin="round"/>
<path d="M30.4834 30.2821V27.9205" stroke="#FEFFFA" stroke-miterlimit="10" stroke-linecap="round" stroke-linejoin="round"/>
<path d="M32.1906 33.0219C32.4413 33.4633 32.2868 34.0246 31.8453 34.2754C31.4494 34.4998 30.958 34.3993 30.6793 34.0587C30.6094 34.1464 30.5205 34.2228 30.417 34.2818C29.9755 34.5326 29.4141 34.378 29.1633 33.9366C29.0154 33.6762 29.0087 33.3738 29.1189 33.1184C29.0525 33.1162 28.985 33.1053 28.9181 33.0869C28.4285 32.9521 28.1406 32.4454 28.2754 31.9558C28.4103 31.466 28.9167 31.1789 29.4063 31.3137C29.4931 31.3377 29.574 31.3735 29.6464 31.4189C29.4282 30.9847 29.5874 30.4501 30.0147 30.2073C30.4561 29.9565 31.0176 30.1111 31.2684 30.5525C31.3776 30.7436 31.4103 30.9579 31.3759 31.1598C31.8127 30.9289 32.3582 31.086 32.6044 31.5194C32.855 31.9615 32.7004 32.5229 32.259 32.7738C32.1976 32.8087 32.1333 32.8359 32.0677 32.8552C32.1144 32.9043 32.1557 32.9607 32.1906 33.0219Z" fill="#FEFFFA"/>
<path d="M32.1906 33.0219C32.4413 33.4633 32.2868 34.0246 31.8453 34.2754C31.4494 34.4998 30.958 34.3993 30.6793 34.0587C30.6094 34.1464 30.5205 34.2228 30.417 34.2818C29.9755 34.5326 29.4141 34.378 29.1633 33.9366C29.0154 33.6762 29.0087 33.3738 29.1189 33.1184C29.0525 33.1162 28.985 33.1053 28.9181 33.0869C28.4285 32.9521 28.1406 32.4454 28.2754 31.9558C28.4103 31.466 28.9167 31.1789 29.4063 31.3137C29.4931 31.3377 29.574 31.3735 29.6464 31.4189C29.4282 30.9847 29.5874 30.4501 30.0147 30.2073C30.4561 29.9565 31.0176 30.1111 31.2684 30.5525C31.3776 30.7436 31.4103 30.9579 31.3759 31.1598C31.8127 30.9289 32.3582 31.086 32.6044 31.5194C32.855 31.9615 32.7004 32.5229 32.259 32.7738C32.1976 32.8087 32.1333 32.8359 32.0677 32.8552C32.1144 32.9043 32.1557 32.9607 32.1906 33.0219Z" stroke="#2E1E00" stroke-miterlimit="10" stroke-linecap="round" stroke-linejoin="round"/>
<path d="M29.1504 56.9532C29.1504 56.9532 30.1973 57.3603 31.099 56.9532" stroke="#2E1E00" stroke-miterlimit="10" stroke-linecap="round" stroke-linejoin="round"/>
<path d="M20.0151 31.3617C19.8042 35.3161 19.796 39.1669 19.8042 43.1185C19.2313 42.3633 18.6584 41.6108 18.0855 40.857C15.8253 37.881 13.5651 34.9051 11.3049 31.9305C8.98484 28.8742 6.73143 25.7403 4.32018 22.7644C3.6956 21.9929 3.07101 21.1887 2.52535 20.3423C1.61229 18.9244 0.741406 17.1377 0.967291 15.4014C1.37688 12.2553 4.99103 12.0077 6.9995 13.8134C8.22826 14.9183 9.11683 16.4315 10.0993 17.7528C13.4059 22.1956 16.7112 26.6371 20.0164 31.0786C20.0151 31.1725 20.0151 31.2678 20.0151 31.3617Z" fill="#FA6456"/>
<path d="M20.0151 31.3617C19.8042 35.3161 19.796 39.1669 19.8042 43.1185C19.2313 42.3633 18.6584 41.6108 18.0855 40.857C15.8253 37.881 13.5651 34.9051 11.3049 31.9305C8.98484 28.8742 6.73143 25.7403 4.32018 22.7644C3.6956 21.9929 3.07101 21.1887 2.52535 20.3423C1.61229 18.9244 0.741406 17.1377 0.967291 15.4014C1.37688 12.2553 4.99103 12.0077 6.9995 13.8134C8.22826 14.9183 9.11683 16.4315 10.0993 17.7528C13.4059 22.1956 16.7112 26.6371 20.0164 31.0786C20.0151 31.1725 20.0151 31.2678 20.0151 31.3617Z" stroke="#2E1E00" stroke-miterlimit="10" stroke-linecap="round" stroke-linejoin="round"/>
<path d="M70.2493 45.5733L69.3359 85.9766C69.3359 88.1484 67.4762 89.9091 65.1821 89.9091H64.9355C62.6415 89.9091 60.7817 88.1484 60.7817 85.9766L59.7036 58.9588C59.6987 58.835 59.5042 58.836 59.501 58.96L58.7753 85.9766C58.7753 88.1484 56.9155 89.9091 54.6215 89.9091C52.3274 89.9091 50.4676 88.1484 50.4676 85.9766C50.4208 84.6284 50.3741 83.2804 50.3273 81.9321C50.2164 78.7315 50.1054 75.5308 49.9945 72.3301C49.8629 68.5343 49.7313 64.7384 49.5997 60.9426C49.491 57.8091 49.2533 54.6772 49.2737 51.542C49.3122 45.6305 49.1662 40.1684 49.485 34.4813C49.485 32.5184 49.6735 30.5326 49.7485 28.5693L50.085 19.766C50.1952 16.8804 50.3054 13.9949 50.4156 11.1095C50.4757 9.54161 50.5355 7.97389 50.5954 6.40604C50.5972 6.36167 50.5988 6.31731 50.6006 6.27295C50.6037 6.18913 50.7109 6.14926 50.7735 6.20845L54.9785 10.1895C55.012 10.2212 55.0633 10.2253 55.104 10.2025C61.017 6.88298 65.5994 10.2794 66.2666 10.6414C66.3055 10.6625 66.354 10.6567 66.3865 10.6276L70.5791 6.86366C70.6448 6.8046 70.7532 6.85059 70.7503 6.93632L70.1302 34.2142L70.2493 45.5733Z" fill="#FFDC38"/>
<path d="M70.2493 45.5733L69.3359 85.9766C69.3359 88.1484 67.4762 89.9091 65.1821 89.9091H64.9355C62.6415 89.9091 60.7817 88.1484 60.7817 85.9766L59.7036 58.9588C59.6987 58.835 59.5042 58.836 59.501 58.96L58.7753 85.9766C58.7753 88.1484 56.9155 89.9091 54.6215 89.9091C52.3274 89.9091 50.4676 88.1484 50.4676 85.9766C50.4208 84.6284 50.3741 83.2804 50.3273 81.9321C50.2164 78.7315 50.1054 75.5308 49.9945 72.3301C49.8629 68.5343 49.7313 64.7384 49.5997 60.9426C49.491 57.8091 49.2533 54.6772 49.2737 51.542C49.3122 45.6305 49.1662 40.1684 49.485 34.4813C49.485 32.5184 49.6735 30.5326 49.7485 28.5693L50.085 19.766C50.1952 16.8804 50.3054 13.9949 50.4156 11.1095C50.4757 9.54161 50.5355 7.97389 50.5954 6.40604C50.5972 6.36167 50.5988 6.31731 50.6006 6.27295C50.6037 6.18913 50.7109 6.14926 50.7735 6.20845L54.9785 10.1895C55.012 10.2212 55.0633 10.2253 55.104 10.2025C61.017 6.88298 65.5994 10.2794 66.2666 10.6414C66.3055 10.6625 66.354 10.6567 66.3865 10.6276L70.5791 6.86366C70.6448 6.8046 70.7532 6.85059 70.7503 6.93632L70.1302 34.2142L70.2493 45.5733Z" stroke="#2E1E00" stroke-miterlimit="10" stroke-linecap="round" stroke-linejoin="round"/>
<path d="M61.659 21.5237C61.659 22.2148 61.0672 22.7749 60.3373 22.7749C59.6074 22.7749 59.0156 22.2148 59.0156 21.5237C59.0156 20.8327 59.6074 20.2725 60.3373 20.2725C61.0671 20.2725 61.659 20.8327 61.659 21.5237Z" fill="#2E1E00"/>
<path d="M50.0067 21.8128L53.9776 23.8033C54.1318 23.8806 54.1153 24.0945 53.9509 24.1498L49.7949 25.547L50.0067 21.8128Z" fill="#2E1E00"/>
<path d="M70.1946 21.8128L66.4304 23.6998C66.1972 23.8167 66.2221 24.1403 66.4708 24.2238L70.1946 25.4758V21.8128Z" fill="#2E1E00"/>
<path d="M49.7339 28.9536C49.7339 28.9536 60.9768 34.0602 70.0119 28.9536" stroke="#FEFFFA" stroke-miterlimit="10" stroke-linecap="round" stroke-linejoin="round"/>
<path d="M59.9536 33.4591V31.2231" stroke="#FEFFFA" stroke-miterlimit="10" stroke-linecap="round" stroke-linejoin="round"/>
<path d="M61.6608 36.0528C61.9116 36.4707 61.757 37.0022 61.3155 37.2397C60.9196 37.4521 60.4282 37.3569 60.1495 37.0345C60.0796 37.1174 59.9907 37.1899 59.8872 37.2454C59.4457 37.4829 58.8843 37.3366 58.6335 36.9188C58.4856 36.6723 58.4789 36.3862 58.5891 36.1443C58.5227 36.1423 58.4553 36.1319 58.3883 36.1145C57.8987 35.9867 57.6108 35.507 57.7456 35.0434C57.8805 34.58 58.3869 34.3081 58.8765 34.4357C58.9634 34.4583 59.0442 34.4923 59.1166 34.5351C58.8984 34.1241 59.0577 33.6181 59.4849 33.3881C59.9264 33.1506 60.4878 33.2971 60.7386 33.7149C60.8479 33.8961 60.8805 34.0987 60.8461 34.2899C61.283 34.0713 61.8284 34.2199 62.0746 34.6302C62.3252 35.0489 62.1706 35.5803 61.7292 35.8178C61.6678 35.8508 61.6035 35.8766 61.538 35.8947C61.5846 35.9414 61.6259 35.9947 61.6608 36.0528Z" fill="#FEFFFA"/>
<path d="M61.6608 36.0528C61.9116 36.4707 61.757 37.0022 61.3155 37.2397C60.9196 37.4521 60.4282 37.3569 60.1495 37.0345C60.0796 37.1174 59.9907 37.1899 59.8872 37.2454C59.4457 37.4829 58.8843 37.3366 58.6335 36.9188C58.4856 36.6723 58.4789 36.3862 58.5891 36.1443C58.5227 36.1423 58.4553 36.1319 58.3883 36.1145C57.8987 35.9867 57.6108 35.507 57.7456 35.0434C57.8805 34.58 58.3869 34.3081 58.8765 34.4357C58.9634 34.4583 59.0442 34.4923 59.1166 34.5351C58.8984 34.1241 59.0577 33.6181 59.4849 33.3881C59.9264 33.1506 60.4878 33.2971 60.7386 33.7149C60.8479 33.8961 60.8805 34.0987 60.8461 34.2899C61.283 34.0713 61.8284 34.2199 62.0746 34.6302C62.3252 35.0489 62.1706 35.5803 61.7292 35.8178C61.6678 35.8508 61.6035 35.8766 61.538 35.8947C61.5846 35.9414 61.6259 35.9947 61.6608 36.0528Z" stroke="#2E1E00" stroke-miterlimit="10" stroke-linecap="round" stroke-linejoin="round"/>
<path d="M58.6206 58.709C58.6206 58.709 59.6676 59.0945 60.5691 58.709" stroke="#2E1E00" stroke-miterlimit="10" stroke-linecap="round" stroke-linejoin="round"/>
<path d="M98.448 42.9629L97.5347 85.64C97.5347 87.9341 95.6749 89.7938 93.3808 89.7938H93.1343C90.8402 89.7938 88.9804 87.9341 88.9804 85.64L87.9023 57.1018C87.8974 56.9709 87.703 56.9721 87.6997 57.103L86.974 85.64C86.974 87.9341 85.1143 89.7938 82.8202 89.7938C80.5261 89.7938 78.6663 87.9341 78.6663 85.64C78.6195 84.216 78.5729 82.7919 78.5261 81.3679C78.4153 77.987 78.3041 74.6063 78.1932 71.2254C78.0616 67.2161 77.93 63.2065 77.7985 59.1971C77.6897 55.8873 77.452 52.579 77.4724 49.2674C77.5109 43.0232 77.3649 37.2537 77.6837 31.2464C77.6837 29.173 77.8722 27.0757 77.9472 25.0016C78.0595 21.902 78.1714 18.8025 78.2837 15.7028C78.3939 12.6549 78.5042 9.60706 78.6144 6.55911C78.6744 4.90308 78.7343 3.24705 78.7941 1.59101C78.7959 1.54407 78.7975 1.49726 78.7993 1.45045C78.8024 1.36186 78.9096 1.31981 78.9722 1.38241L83.1772 5.5874C83.2107 5.62088 83.262 5.62523 83.3027 5.60115C89.2157 2.0949 93.7982 5.68238 94.4654 6.06462C94.5041 6.08693 94.5527 6.08095 94.5852 6.05006L98.7778 2.07435C98.8436 2.01203 98.9519 2.06061 98.949 2.1511L98.3289 30.9642L98.448 42.9629Z" fill="#73B7EA"/>
<path d="M98.448 42.9629L97.5347 85.64C97.5347 87.9341 95.6749 89.7938 93.3808 89.7938H93.1343C90.8402 89.7938 88.9804 87.9341 88.9804 85.64L87.9023 57.1018C87.8974 56.9709 87.703 56.9721 87.6997 57.103L86.974 85.64C86.974 87.9341 85.1143 89.7938 82.8202 89.7938C80.5261 89.7938 78.6663 87.9341 78.6663 85.64C78.6195 84.216 78.5729 82.7919 78.5261 81.3679C78.4153 77.987 78.3041 74.6063 78.1932 71.2254C78.0616 67.2161 77.93 63.2065 77.7985 59.1971C77.6897 55.8873 77.452 52.579 77.4724 49.2674C77.5109 43.0232 77.3649 37.2537 77.6837 31.2464C77.6837 29.173 77.8722 27.0757 77.9472 25.0017C78.0595 21.902 78.1714 18.8025 78.2837 15.7028C78.3939 12.6549 78.5042 9.60706 78.6144 6.55912C78.6744 4.90308 78.7343 3.24705 78.7941 1.59101C78.7959 1.54407 78.7975 1.49726 78.7993 1.45045C78.8024 1.36186 78.9096 1.31981 78.9722 1.38241L83.1772 5.5874C83.2107 5.62088 83.262 5.62523 83.3027 5.60115C89.2157 2.0949 93.7982 5.68238 94.4654 6.06462C94.5041 6.08693 94.5527 6.08095 94.5852 6.05006L98.7778 2.07435C98.8436 2.01203 98.9519 2.06061 98.949 2.1511L98.3289 30.9642L98.448 42.9629Z" stroke="#2E1E00" stroke-miterlimit="10" stroke-linecap="round" stroke-linejoin="round"/>
<path d="M84.9261 18.1229C84.9261 18.8528 84.3343 19.4446 83.6044 19.4446C82.8745 19.4446 82.2827 18.8528 82.2827 18.1229C82.2827 17.393 82.8745 16.8012 83.6044 16.8012C84.3343 16.8012 84.9261 17.3929 84.9261 18.1229Z" fill="#2E1E00"/>
<path d="M78.2054 19.5891L82.1763 21.3125C82.3305 21.3794 82.314 21.5646 82.1497 21.6124L77.9937 22.8223L78.2054 19.5891Z" fill="#2E1E00"/>
<path d="M98.3929 19.5891L91.6939 21.5822C91.2789 21.7058 91.3231 22.0476 91.7658 22.1359L98.3929 23.4583V19.5891Z" fill="#2E1E00"/>
<path d="M77.9326 25.4078C77.9326 25.4078 89.1756 30.8019 98.2107 25.4078" stroke="#FEFFFA" stroke-miterlimit="10" stroke-linecap="round" stroke-linejoin="round"/>
<path d="M88.1519 30.1668V27.8051" stroke="#FEFFFA" stroke-miterlimit="10" stroke-linecap="round" stroke-linejoin="round"/>
<path d="M89.8595 32.9066C90.1103 33.3481 89.9557 33.9094 89.5143 34.1603C89.1183 34.3846 88.6269 34.284 88.3483 33.9435C88.2783 34.031 88.1895 34.1075 88.0859 34.1664C87.6445 34.4172 87.083 34.2626 86.8322 33.8212C86.6843 33.5608 86.6777 33.2585 86.7879 33.0031C86.7215 33.001 86.654 32.9901 86.587 32.9716C86.0974 32.8368 85.8095 32.33 85.9443 31.8405C86.0792 31.3508 86.5857 31.0636 87.0753 31.1985C87.1621 31.2224 87.2429 31.2581 87.3153 31.3036C87.0972 30.8695 87.2564 30.3347 87.6837 30.0919C88.1251 29.8411 88.6865 29.9957 88.9373 30.4372C89.0466 30.6285 89.0793 30.8427 89.0448 31.0446C89.4818 30.8137 90.0272 30.9707 90.2733 31.4041C90.524 31.8462 90.3694 32.4077 89.928 32.6585C89.8666 32.6933 89.8022 32.7205 89.7368 32.74C89.7833 32.7889 89.8247 32.8453 89.8595 32.9066Z" fill="#FEFFFA"/>
<path d="M89.8595 32.9066C90.1103 33.3481 89.9557 33.9094 89.5143 34.1603C89.1183 34.3846 88.6269 34.284 88.3483 33.9435C88.2783 34.031 88.1895 34.1075 88.0859 34.1664C87.6445 34.4172 87.083 34.2626 86.8322 33.8212C86.6843 33.5608 86.6777 33.2585 86.7879 33.0031C86.7215 33.001 86.654 32.9901 86.587 32.9716C86.0974 32.8368 85.8095 32.33 85.9443 31.8405C86.0792 31.3508 86.5857 31.0636 87.0753 31.1985C87.1621 31.2224 87.2429 31.2581 87.3153 31.3036C87.0972 30.8695 87.2564 30.3347 87.6837 30.0919C88.1251 29.8411 88.6865 29.9957 88.9373 30.4372C89.0466 30.6285 89.0793 30.8427 89.0448 31.0446C89.4818 30.8137 90.0272 30.9707 90.2733 31.4041C90.524 31.8462 90.3694 32.4077 89.928 32.6585C89.8666 32.6933 89.8022 32.7205 89.7368 32.74C89.7833 32.7889 89.8247 32.8453 89.8595 32.9066Z" stroke="#2E1E00" stroke-miterlimit="10" stroke-linecap="round" stroke-linejoin="round"/>
<path d="M86.8188 56.8379C86.8188 56.8379 87.8658 57.2449 88.7674 56.8379" stroke="#2E1E00" stroke-miterlimit="10" stroke-linecap="round" stroke-linejoin="round"/>
<path d="M127.544 46.2215L126.631 85.3383C126.631 87.4411 124.771 89.1456 122.477 89.1456H122.231C119.937 89.1456 118.077 87.4411 118.077 85.3383L116.999 59.1807C116.994 59.0607 116.799 59.0618 116.796 59.1818L116.07 85.3383C116.07 87.4411 114.211 89.1456 111.917 89.1456C109.623 89.1456 107.763 87.4411 107.763 85.3383C107.716 84.033 107.669 82.7277 107.623 81.4226C107.512 78.3241 107.401 75.2251 107.29 72.1264C107.158 68.4514 107.027 64.7764 106.895 61.1014C106.786 58.0676 106.549 55.0355 106.569 52.0002C106.608 46.2767 106.462 40.9887 106.78 35.4826C106.78 33.582 106.969 31.6597 107.044 29.7588C107.156 26.9177 107.268 24.0768 107.381 21.2358C107.491 18.4422 107.601 15.6485 107.711 12.8549C107.771 11.337 107.831 9.81907 107.891 8.30116C107.893 8.25816 107.894 8.21529 107.896 8.17229C107.899 8.09119 108.007 8.05255 108.069 8.10997L112.274 11.9643C112.307 11.9949 112.359 11.9989 112.399 11.9768C118.312 8.76299 122.895 12.0513 123.562 12.4016C123.601 12.4221 123.65 12.4166 123.682 12.3883L127.875 8.74421C127.94 8.68706 128.049 8.73156 128.046 8.81457L127.426 35.224L127.544 46.2215Z" fill="#ADF0E7"/>
<path d="M127.544 46.2215L126.631 85.3383C126.631 87.4411 124.771 89.1456 122.477 89.1456H122.231C119.937 89.1456 118.077 87.4411 118.077 85.3383L116.999 59.1807C116.994 59.0607 116.799 59.0618 116.796 59.1818L116.07 85.3383C116.07 87.4411 114.211 89.1456 111.917 89.1456C109.623 89.1456 107.763 87.4411 107.763 85.3383C107.716 84.0329 107.669 82.7277 107.623 81.4226C107.512 78.3241 107.401 75.2251 107.29 72.1264C107.158 68.4514 107.027 64.7764 106.895 61.1014C106.786 58.0676 106.549 55.0355 106.569 52.0002C106.608 46.2767 106.462 40.9887 106.78 35.4826C106.78 33.582 106.969 31.6597 107.044 29.7588C107.156 26.9177 107.268 24.0768 107.381 21.2358C107.491 18.4422 107.601 15.6485 107.711 12.8549C107.771 11.337 107.831 9.81907 107.891 8.30116C107.893 8.25816 107.894 8.21529 107.896 8.17229C107.899 8.09119 108.007 8.05255 108.069 8.10997L112.274 11.9643C112.307 11.9949 112.359 11.9989 112.399 11.9768C118.312 8.76299 122.895 12.0513 123.562 12.4016C123.601 12.4221 123.65 12.4166 123.682 12.3883L127.875 8.74421C127.94 8.68706 128.049 8.73156 128.046 8.81457L127.426 35.224L127.544 46.2215Z" stroke="#2E1E00" stroke-miterlimit="10" stroke-linecap="round" stroke-linejoin="round"/>
<path d="M107.301 23.2174L111.272 25.1445C111.427 25.2193 111.41 25.4265 111.246 25.4799L107.09 26.8328L107.301 23.2174Z" fill="#2E1E00"/>
<path d="M127.489 23.2174L123.725 25.0442C123.492 25.1574 123.517 25.4707 123.765 25.5516L127.489 26.7638V23.2174Z" fill="#2E1E00"/>
<path d="M107.029 30.1309C107.029 30.1309 118.272 35.0749 127.307 30.1309" stroke="#FEFFFA" stroke-miterlimit="10" stroke-linecap="round" stroke-linejoin="round"/>
<path d="M117.249 34.4927V32.3281" stroke="#FEFFFA" stroke-miterlimit="10" stroke-linecap="round" stroke-linejoin="round"/>
<path d="M118.956 37.004C119.207 37.4085 119.052 37.9232 118.611 38.1529C118.215 38.3586 117.723 38.2664 117.445 37.9542C117.375 38.0345 117.286 38.1046 117.182 38.1585C116.741 38.3884 116.179 38.2466 115.929 37.8422C115.781 37.6034 115.774 37.3266 115.884 37.0923C115.818 37.0903 115.75 37.0802 115.683 37.0633C115.194 36.9398 114.906 36.4752 115.041 36.0264C115.175 35.5776 115.682 35.3146 116.171 35.438C116.258 35.4599 116.339 35.4929 116.412 35.5345C116.193 35.1365 116.353 34.6466 116.78 34.424C117.221 34.1942 117.783 34.3358 118.034 34.7404C118.143 34.9156 118.176 35.112 118.141 35.2971C118.578 35.0853 119.123 35.2294 119.369 35.6266C119.62 36.032 119.466 36.5465 119.024 36.7763C118.963 36.8082 118.899 36.8332 118.833 36.8509C118.879 36.8961 118.921 36.9478 118.956 37.004Z" fill="#FEFFFA"/>
<path d="M118.956 37.004C119.207 37.4085 119.052 37.9232 118.611 38.1529C118.215 38.3586 117.723 38.2664 117.445 37.9542C117.375 38.0345 117.286 38.1046 117.182 38.1585C116.741 38.3884 116.179 38.2466 115.929 37.8422C115.781 37.6034 115.774 37.3266 115.884 37.0923C115.818 37.0903 115.75 37.0802 115.683 37.0633C115.194 36.9398 114.906 36.4752 115.041 36.0264C115.175 35.5776 115.682 35.3146 116.171 35.438C116.258 35.4599 116.339 35.4929 116.412 35.5345C116.193 35.1365 116.353 34.6466 116.78 34.424C117.221 34.1942 117.783 34.3358 118.034 34.7404C118.143 34.9156 118.176 35.112 118.141 35.2971C118.578 35.0853 119.123 35.2294 119.369 35.6266C119.62 36.032 119.466 36.5465 119.024 36.7763C118.963 36.8082 118.899 36.8332 118.833 36.8509C118.879 36.8961 118.921 36.9478 118.956 37.004Z" stroke="#2E1E00" stroke-miterlimit="10" stroke-linecap="round" stroke-linejoin="round"/>
<path d="M115.916 58.9389C115.916 58.9389 116.962 59.3122 117.864 58.9389" stroke="#2E1E00" stroke-miterlimit="10" stroke-linecap="round" stroke-linejoin="round"/>
<path d="M134.298 25.4078C134.298 25.4078 145.541 30.8019 154.576 25.4078" stroke="#FEFFFA" stroke-miterlimit="10" stroke-linecap="round" stroke-linejoin="round"/>
<path d="M144.518 30.1668V27.8051" stroke="#FEFFFA" stroke-miterlimit="10" stroke-linecap="round" stroke-linejoin="round"/>
<path d="M146.225 32.9066C146.476 33.3481 146.321 33.9094 145.88 34.1603C145.484 34.3846 144.992 34.284 144.714 33.9435C144.644 34.031 144.555 34.1075 144.451 34.1664C144.01 34.4172 143.448 34.2626 143.198 33.8212C143.05 33.5608 143.043 33.2585 143.153 33.0031C143.087 33.001 143.019 32.9901 142.952 32.9716C142.463 32.8368 142.175 32.33 142.31 31.8405C142.444 31.3508 142.951 31.0636 143.441 31.1985C143.527 31.2224 143.608 31.2581 143.681 31.3036C143.462 30.8695 143.622 30.3347 144.049 30.0919C144.49 29.8411 145.052 29.9957 145.303 30.4372C145.412 30.6285 145.445 30.8427 145.41 31.0446C145.847 30.8137 146.393 30.9707 146.639 31.4041C146.889 31.8462 146.735 32.4077 146.293 32.6585C146.232 32.6933 146.168 32.7205 146.102 32.74C146.148 32.7889 146.19 32.8453 146.225 32.9066Z" fill="#FEFFFA"/>
<path d="M146.225 32.9066C146.476 33.3481 146.321 33.9094 145.88 34.1603C145.484 34.3846 144.992 34.284 144.714 33.9435C144.644 34.031 144.555 34.1075 144.451 34.1664C144.01 34.4172 143.448 34.2626 143.198 33.8212C143.05 33.5608 143.043 33.2585 143.153 33.0031C143.087 33.001 143.019 32.9901 142.952 32.9716C142.463 32.8368 142.175 32.33 142.31 31.8405C142.444 31.3508 142.951 31.0636 143.441 31.1985C143.527 31.2224 143.608 31.2581 143.681 31.3036C143.462 30.8695 143.622 30.3347 144.049 30.0919C144.49 29.8411 145.052 29.9957 145.303 30.4372C145.412 30.6285 145.445 30.8427 145.41 31.0446C145.847 30.8137 146.393 30.9707 146.639 31.4041C146.889 31.8462 146.735 32.4077 146.293 32.6585C146.232 32.6933 146.168 32.7205 146.102 32.74C146.148 32.7889 146.19 32.8453 146.225 32.9066Z" stroke="#2E1E00" stroke-miterlimit="10" stroke-linecap="round" stroke-linejoin="round"/>
<path d="M143.185 56.8379C143.185 56.8379 144.232 57.2449 145.133 56.8379" stroke="#2E1E00" stroke-miterlimit="10" stroke-linecap="round" stroke-linejoin="round"/>
<path d="M161.789 49.948C158.131 48.3342 156.252 45.1693 154.91 42.9227L153.899 85.6405C153.899 87.9335 152.041 89.7937 149.746 89.7937H149.499C147.206 89.7937 145.345 87.9335 145.345 85.6405L144.268 57.1016C144.262 56.971 144.068 56.9723 144.065 57.103L143.338 85.6406C143.338 87.9336 141.48 89.7938 139.185 89.7938C136.891 89.7938 135.031 87.9336 135.031 85.6406C134.985 84.2159 134.937 82.7926 134.891 81.368C134.781 77.9879 134.669 74.6065 134.558 71.2263C134.427 67.2162 134.295 63.2074 134.163 59.1974C134.055 55.8881 133.817 52.58 133.838 49.2679C133.876 43.0234 133.73 37.2538 134.049 31.2463C134.049 29.1738 134.238 27.0755 134.312 25.0018C134.424 21.902 134.537 18.8035 134.649 15.7037C134.759 12.6557 134.869 9.60758 134.979 6.5595C135.039 4.90346 135.099 3.24743 135.159 1.5914C135.16 1.54513 135.163 1.49751 135.164 1.45124C135.167 1.36279 135.275 1.32061 135.337 1.3832L139.542 5.58792C139.576 5.62194 139.628 5.62603 139.667 5.60153C145.581 2.09488 150.163 5.68317 150.831 6.06555C150.869 6.08732 150.918 6.08188 150.951 6.05058L155.143 2.07446C155.208 2.01323 155.317 2.06086 155.315 2.15203L154.694 30.9646L163.256 43.3243C163.256 43.3243 171.762 44.0822 173.033 47.7005C174.304 51.3171 169.06 53.1562 161.789 49.948Z" fill="#FFDC38"/>
<path d="M161.789 49.948C158.131 48.3342 156.252 45.1693 154.91 42.9227L153.899 85.6405C153.899 87.9335 152.041 89.7937 149.746 89.7937H149.499C147.206 89.7937 145.345 87.9335 145.345 85.6405L144.268 57.1016C144.262 56.971 144.068 56.9723 144.065 57.103L143.338 85.6406C143.338 87.9336 141.48 89.7938 139.185 89.7938C136.891 89.7938 135.031 87.9336 135.031 85.6406C134.985 84.2159 134.937 82.7926 134.891 81.368C134.781 77.9879 134.669 74.6065 134.558 71.2263C134.427 67.2162 134.295 63.2074 134.163 59.1974C134.055 55.8881 133.817 52.58 133.838 49.2679C133.876 43.0234 133.73 37.2538 134.049 31.2462C134.049 29.1738 134.238 27.0755 134.312 25.0018C134.424 21.902 134.537 18.8035 134.649 15.7037C134.759 12.6557 134.869 9.60758 134.979 6.5595C135.039 4.90346 135.099 3.24743 135.159 1.5914C135.16 1.54513 135.163 1.49751 135.164 1.45124C135.167 1.36279 135.275 1.32061 135.337 1.3832L139.542 5.58792C139.576 5.62194 139.628 5.62603 139.667 5.60153C145.581 2.09488 150.163 5.68317 150.831 6.06555C150.869 6.08732 150.918 6.08188 150.951 6.05058L155.143 2.07446C155.208 2.01323 155.317 2.06086 155.315 2.15203L154.694 30.9646L163.256 43.3243C163.256 43.3243 171.762 44.0822 173.033 47.7005C174.304 51.3171 169.06 53.1563 161.789 49.948Z" stroke="#2E1E00" stroke-miterlimit="10" stroke-linecap="round" stroke-linejoin="round"/>
<path d="M29.3821 15.8681C28.9211 16.4244 29.0039 17.2445 29.5673 17.6998C30.1306 18.155 30.961 18.0732 31.422 17.5168C31.883 16.9605 31.8001 16.1406 31.2368 15.6852C30.6734 15.2299 29.8432 15.3119 29.3821 15.8681Z" fill="#2E1E00"/>
<path d="M19.1909 9.16483L42.5492 8.06207L42.9865 17.3265L19.6283 18.4292L19.1909 9.16483Z" fill="url(#paint0_linear_2696_38435)"/>
<path d="M42.6002 16.6864L41.1408 16.7287L38.5387 16.8028L34.4364 16.9223L33.8629 16.9395L33.8341 16.9401C33.815 16.9408 33.796 16.9412 33.777 16.9412C33.7423 16.9412 33.7076 16.9401 33.6725 16.9386C32.9109 16.9012 32.2108 16.4546 31.9217 15.7522C31.7895 15.4288 31.5546 15.1416 31.2244 14.9382C30.9461 14.7663 30.6279 14.682 30.3108 14.682C29.8921 14.682 29.4751 14.8291 29.1537 15.1162C29.1517 15.1185 29.1495 15.1188 29.1474 15.1211C29.0684 15.1924 28.9987 15.2691 28.9371 15.3485C28.8086 15.5108 28.717 15.6891 28.6561 15.8743C28.4133 16.6238 27.6844 17.1173 26.8868 17.1403L24.3654 17.2142L20.8035 17.3173L19.8515 17.3447L19.8106 16.1851L19.5771 9.43438L21.1526 9.41451L24.1061 9.37777L28.7389 9.31966L28.9058 9.31735L33.4183 9.26129L33.5431 9.25884L38.2235 9.20142L40.8034 9.16876L42.568 9.14658L42.6002 16.6864L42.568 9.14658L40.8034 9.16876L38.2235 9.20142L33.5431 9.25884L33.4183 9.26129L28.9058 9.31735L28.7389 9.31966L24.1061 9.37777L21.1526 9.41451L19.5771 9.43438L19.8106 16.1851L19.8515 17.3447L20.8035 17.3173L24.3654 17.2142L26.8868 17.1403C27.6844 17.1173 28.4133 16.6238 28.6561 15.8743C28.717 15.6891 28.8086 15.5108 28.9371 15.3485C28.9987 15.2691 29.0684 15.1924 29.1474 15.1211C29.1495 15.1188 29.1517 15.1185 29.1537 15.1162C29.4753 14.8291 29.8922 14.682 30.3108 14.682C30.6279 14.682 30.9461 14.7665 31.2244 14.9382C31.5546 15.1416 31.7895 15.4288 31.9217 15.7522C32.2108 16.4546 32.9109 16.9012 33.6725 16.9386C33.7076 16.9401 33.7423 16.9412 33.777 16.9412C33.796 16.9412 33.815 16.941 33.8341 16.9401L33.8629 16.9395L34.4364 16.9223L38.5387 16.8028L41.1408 16.7287L42.6002 16.6864Z" fill="url(#paint1_linear_2696_38435)"/>
<path d="M21.3628 11.4786L24.7259 11.4677" stroke="#FEFFFA" stroke-miterlimit="10" stroke-linecap="round" stroke-linejoin="round"/>
<path d="M42.6002 16.6864L41.1408 16.7287L38.5387 16.8028L34.4364 16.9223L33.8629 16.9395L33.8341 16.9401C33.7801 16.9422 33.7269 16.941 33.6725 16.9386C32.9109 16.9012 32.2108 16.4546 31.9217 15.7522C31.7895 15.4288 31.5546 15.1416 31.2244 14.9382C30.579 14.5396 29.7188 14.6114 29.1537 15.1162C29.1517 15.1185 29.1495 15.1188 29.1474 15.1211C29.0684 15.1924 28.9987 15.2691 28.9371 15.3485C28.8086 15.5108 28.717 15.6891 28.6561 15.8743C28.4133 16.6238 27.6844 17.1173 26.8868 17.1403L24.3654 17.2142L20.8035 17.3173L19.8515 17.3447L19.8106 16.1851L19.5771 9.43438L21.1526 9.41451L24.1061 9.37777L28.7389 9.31966L28.9058 9.31735L33.4183 9.26129L33.5431 9.25884L38.2235 9.20142L40.8034 9.16876L42.568 9.14658L42.6002 16.6864Z" stroke="#2E1E00" stroke-miterlimit="10" stroke-linecap="round" stroke-linejoin="round"/>
<path d="M20.5362 17.9942L24.9766 20.2435L20.2637 21.58L20.5362 17.9942Z" fill="#2E1E00"/>
<path d="M20.5362 17.9942L24.9766 20.2435L20.2637 21.58L20.5362 17.9942Z" stroke="#2E1E00" stroke-miterlimit="10" stroke-linecap="round" stroke-linejoin="round"/>
<path d="M40.8893 18.2105L36.2471 20.0066L40.8036 21.8058L40.8893 18.2105Z" fill="#2E1E00"/>
<path d="M40.8893 18.2105L36.2471 20.0066L40.8036 21.8058L40.8893 18.2105Z" stroke="#2E1E00" stroke-miterlimit="10" stroke-linecap="round" stroke-linejoin="round"/>
<path d="M31.7202 18.4714C31.7202 18.4714 33.0758 18.2017 32.9163 16.7568" stroke="#2E1E00" stroke-miterlimit="10" stroke-linecap="round" stroke-linejoin="round"/>
<path d="M49.4668 14.1731L70.9163 13.4497L71.2071 22.0726L49.7576 22.796L49.4668 14.1731Z" fill="url(#paint2_linear_2696_38435)"/>
<path d="M70.9404 21.7486L68.3683 21.7882L64.3137 21.8531L63.7468 21.8628L63.7184 21.8631C63.7071 21.8633 63.6959 21.8635 63.6846 21.8635C63.6427 21.8635 63.6011 21.8618 63.5586 21.8594C62.8067 21.8118 62.121 21.3556 61.8449 20.649C61.7186 20.3237 61.4904 20.0333 61.1668 19.8253C60.8875 19.6455 60.5654 19.5569 60.2443 19.5569C59.8385 19.5569 59.4339 19.6984 59.1185 19.976C59.1166 19.9783 59.1144 19.9784 59.1124 19.9809C59.0333 20.051 58.9634 20.1269 58.9015 20.2054C58.7723 20.3661 58.6795 20.5433 58.6168 20.7278C58.3668 21.4743 57.6399 21.9585 56.8516 21.9707L54.3594 22.0111L50.8389 22.067L49.8979 22.0816L49.8732 20.921L49.7334 14.1642L51.2904 14.1652L54.2088 14.1678L58.7869 14.1713L58.9518 14.1712L63.4109 14.1751L63.5341 14.1743L68.1593 14.1792L70.7087 14.1808L70.9404 21.7486L70.7088 14.1808L68.1595 14.1792L63.5343 14.1743L63.411 14.1751L58.9519 14.1712L58.787 14.1713L54.2089 14.1678L51.2905 14.1652L49.7335 14.1642L49.8733 20.921L49.8981 22.0816L50.839 22.067L54.3595 22.0111L56.8518 21.9707C57.64 21.9585 58.367 21.4743 58.6169 20.7278C58.6797 20.5433 58.7725 20.3661 58.9016 20.2054C58.9635 20.1269 59.0335 20.051 59.1125 19.9809C59.1146 19.9784 59.1167 19.9783 59.1186 19.976C59.4341 19.6983 59.8386 19.5569 60.2444 19.5569C60.5655 19.5569 60.8876 19.6455 61.167 19.8253C61.4906 20.0333 61.7188 20.3237 61.845 20.649C62.1211 21.3556 62.8068 21.8118 63.5588 21.8594C63.6012 21.8618 63.6429 21.8635 63.6848 21.8635C63.6961 21.8635 63.7072 21.8633 63.7185 21.8631L63.747 21.8628L64.3139 21.8531L68.3685 21.7882L70.9404 21.7486Z" fill="url(#paint3_linear_2696_38435)"/>
<path d="M51.4702 16.2331L54.7932 16.267" stroke="#FEFFFA" stroke-miterlimit="10" stroke-linecap="round" stroke-linejoin="round"/>
<path d="M70.9413 21.7486L68.3692 21.7882L64.3146 21.8531L63.7477 21.8628L63.7192 21.8631C63.6659 21.8643 63.6134 21.8624 63.5596 21.8594C62.8077 21.8118 62.122 21.3556 61.8459 20.649C61.7196 20.3237 61.4914 20.0333 61.1678 19.8253C60.5355 19.4182 59.6847 19.4785 59.1195 19.976C59.1176 19.9783 59.1154 19.9784 59.1134 19.9809C59.0343 20.051 58.9644 20.1269 58.9024 20.2054C58.7733 20.3661 58.6805 20.5433 58.6178 20.7278C58.3678 21.4743 57.6409 21.9585 56.8526 21.9707L54.3604 22.0111L50.8398 22.067L49.8989 22.0816L49.8741 20.921L49.7344 14.1642L51.2913 14.1652L54.2097 14.1678L58.7879 14.1713L58.9528 14.1712L63.4118 14.1751L63.5351 14.1743L68.1603 14.1792L70.7097 14.1808L70.9673 14.1642L70.9413 21.7486Z" stroke="#2E1E00" stroke-miterlimit="10" stroke-linecap="round" stroke-linejoin="round"/>
<path d="M77.3184 10.8095L100.441 10.0297L100.733 18.6711L77.6098 19.451L77.3184 10.8095Z" fill="url(#paint4_linear_2696_38435)"/>
<path d="M74.8447 12.9021L78.1677 12.936" stroke="#FEFFFA" stroke-miterlimit="10" stroke-linecap="round" stroke-linejoin="round"/>
<path d="M77.5835 10.8368L82.1616 10.8403L82.3264 10.8402L86.7856 10.8441L86.9089 10.8433L91.5341 10.8482L94.0834 10.8498L100.467 10.8006L100.441 18.3851L94.315 18.4176L91.7429 18.4572L87.6882 18.5222L87.1213 18.5318L87.093 18.5321C87.0396 18.5333 86.987 18.5314 86.9332 18.5283C86.1813 18.4808 85.4956 18.0247 85.2196 17.318C85.0932 16.9927 84.8651 16.7023 84.5414 16.4944C83.9091 16.0871 83.0583 16.1475 82.4932 16.645C82.4912 16.6473 82.489 16.6474 82.4871 16.6499C82.408 16.72 82.3381 16.7959 82.276 16.8744C82.1469 17.0351 82.0541 17.2123 81.9915 17.3968C81.7414 18.1433 81.0146 18.6275 80.2263 18.6397L77.734 18.6801L77.5835 10.8368Z" stroke="#2E1E00" stroke-miterlimit="10" stroke-linecap="round" stroke-linejoin="round"/>
<path d="M61.811 23.217C61.811 23.217 63.2378 23.1721 63.2386 21.8128" stroke="#2E1E00" stroke-miterlimit="10" stroke-linecap="round" stroke-linejoin="round"/>
<path d="M85.3467 20.3916C85.3467 20.3916 86.9709 20.3669 87.1212 18.5318" stroke="#2E1E00" stroke-miterlimit="10" stroke-linecap="round" stroke-linejoin="round"/>
<path d="M105.746 14.3497L128.596 13.8198L128.794 22.3413L105.943 22.871L105.746 14.3497Z" fill="url(#paint5_linear_2696_38435)"/>
<path d="M128.609 22.2327L126.01 22.2453L121.913 22.2678L121.341 22.2714L121.312 22.2713C121.305 22.2713 121.298 22.2714 121.292 22.2714C121.245 22.2714 121.198 22.269 121.151 22.266C120.392 22.2099 119.704 21.7418 119.433 21.0251C119.308 20.6951 119.081 20.3993 118.756 20.1858C118.471 19.9976 118.139 19.9047 117.808 19.9047C117.405 19.9047 117.002 20.0433 116.685 20.3162C116.683 20.3185 116.681 20.3186 116.679 20.3211C116.599 20.391 116.527 20.4669 116.464 20.5456C116.332 20.7066 116.236 20.8846 116.171 21.0703C115.91 21.8217 115.171 22.303 114.374 22.3071L111.856 22.3214L108.299 22.3404L105.931 22.3456L105.935 21.0099L106.054 14.3453L108.84 14.363L111.788 14.3966L116.412 14.4489L116.579 14.4505L121.083 14.502L121.208 14.5025L125.88 14.5567L128.455 14.5854L128.609 22.2327L128.455 14.5854L125.88 14.5567L121.208 14.5025L121.083 14.502L116.579 14.4505L116.412 14.4489L111.788 14.3966L108.839 14.363L106.054 14.3453L105.935 21.0099L105.931 22.3456L108.299 22.3404L111.856 22.3214L114.374 22.3071C115.171 22.303 115.91 21.8217 116.171 21.0703C116.236 20.8846 116.332 20.7066 116.464 20.5456C116.527 20.4669 116.598 20.391 116.679 20.3211C116.681 20.3186 116.683 20.3185 116.685 20.3162C117.002 20.0432 117.405 19.9047 117.808 19.9047C118.139 19.9047 118.47 19.9976 118.756 20.1858C119.081 20.3993 119.308 20.6951 119.432 21.0251C119.704 21.7418 120.392 22.2099 121.151 22.266C121.198 22.269 121.244 22.2714 121.292 22.2714C121.298 22.2714 121.305 22.2714 121.312 22.2713L121.34 22.2714L121.913 22.2678L126.01 22.2453L128.609 22.2327Z" fill="url(#paint6_linear_2696_38435)"/>
<path d="M108.999 16.4538L112.355 16.5235" stroke="#FEFFFA" stroke-miterlimit="10" stroke-linecap="round" stroke-linejoin="round"/>
<path d="M128.609 22.2327L126.01 22.2453L121.913 22.2678L121.341 22.2714L121.312 22.2713C121.258 22.2721 121.205 22.2695 121.151 22.266C120.392 22.2099 119.704 21.7418 119.432 21.0251C119.308 20.6951 119.081 20.3993 118.756 20.1858C118.122 19.7678 117.262 19.8196 116.685 20.3162C116.683 20.3185 116.681 20.3186 116.679 20.3211C116.598 20.391 116.527 20.4669 116.464 20.5456C116.331 20.7066 116.236 20.8846 116.171 21.0703C115.91 21.8217 115.171 22.303 114.374 22.3071L111.856 22.3214L108.299 22.3404L105.931 22.3456V21.2309L106.054 14.3453L108.839 14.363L111.788 14.3966L116.412 14.4489L116.579 14.4505L121.083 14.502L121.208 14.5025L125.88 14.5567L128.455 14.5854L128.716 14.5714L128.609 22.2327Z" stroke="#2E1E00" stroke-miterlimit="10" stroke-linecap="round" stroke-linejoin="round"/>
<path d="M119.043 21.7133C119.043 22.4432 118.451 23.035 117.721 23.035C116.991 23.035 116.399 22.4432 116.399 21.7133C116.399 20.9834 116.991 20.3916 117.721 20.3916C118.451 20.3916 119.043 20.9834 119.043 21.7133Z" fill="#2E1E00"/>
<path d="M118.69 24.1191C118.69 24.1191 120.647 23.9642 120.65 22.1653" stroke="#2E1E00" stroke-miterlimit="10" stroke-linecap="round" stroke-linejoin="round"/>
<path d="M140.622 21.1925C140.622 21.1925 142.579 21.0377 142.582 19.2387" stroke="#2E1E00" stroke-miterlimit="10" stroke-linecap="round" stroke-linejoin="round"/>
<path d="M133.003 11.8081L156.126 11.0282L156.418 19.6695L133.295 20.4494L133.003 11.8081Z" fill="url(#paint7_linear_2696_38435)"/>
<path d="M150.064 13.8666L153.387 13.9005" stroke="#FEFFFA" stroke-miterlimit="10" stroke-linecap="round" stroke-linejoin="round"/>
<path d="M133.269 11.8351L137.847 11.8387L138.011 11.8386L142.471 11.8425L142.594 11.8417L147.219 11.8466L149.768 11.8482L156.152 11.799L156.126 19.3835L150 19.416L147.428 19.4556L143.373 19.5205L142.806 19.5302L142.778 19.5305C142.725 19.5317 142.672 19.5298 142.618 19.5267C141.866 19.4792 141.181 19.023 140.905 18.3164C140.778 17.991 140.55 17.7007 140.226 17.4927C139.594 17.0856 138.743 17.1459 138.178 17.6434C138.176 17.6457 138.174 17.6458 138.172 17.6483C138.093 17.7184 138.023 17.7943 137.961 17.8728C137.832 18.0335 137.739 18.2107 137.676 18.3952C137.426 19.1417 136.7 19.6259 135.911 19.6381L133.419 19.6785L133.269 11.8351Z" stroke="#2E1E00" stroke-miterlimit="10" stroke-linecap="round" stroke-linejoin="round"/>
<path d="M140.622 18.8939C140.622 19.6238 140.03 20.2156 139.3 20.2156C138.57 20.2156 137.979 19.6238 137.979 18.8939C137.979 18.164 138.57 17.5722 139.3 17.5722C140.03 17.5722 140.622 18.164 140.622 18.8939Z" fill="#2E1E00"/>
<path d="M134.509 20.7266L138.48 22.6409C138.634 22.7152 138.618 22.9208 138.453 22.974L134.297 24.3177L134.509 20.7266Z" fill="#2E1E00"/>
<path d="M154.91 21.1288L148.211 23.1219C147.796 23.2454 147.84 23.5873 148.283 23.6756L154.91 24.9979V21.1288Z" fill="#2E1E00"/>
<path d="M20.6706 33.4972C19.5252 36.0221 17.3604 37.5079 15.8351 36.8161C14.3099 36.1241 14.0019 33.5165 15.1471 30.9918C16.2925 28.4669 18.4574 26.981 19.9826 27.6729C21.5078 28.3647 21.8159 30.9722 20.6706 33.4972Z" fill="#FFDC38"/>
<path d="M15.835 36.8175C17.3603 37.5094 19.5252 36.0234 20.6705 33.4986C21.8158 30.9737 21.5077 28.366 19.9825 27.6741C18.4572 26.9823 16.2923 28.4682 15.147 30.9931C14.0017 33.5179 14.3097 36.1256 15.835 36.8175Z" stroke="#2E1E00" stroke-miterlimit="10" stroke-linecap="round" stroke-linejoin="round"/>
<path d="M50.1286 36.1783C48.9832 38.7032 46.8184 40.1891 45.2931 39.4973C43.7679 38.8052 43.4599 36.1978 44.6051 33.6729C45.7505 31.148 47.9155 29.6621 49.4406 30.354C50.966 31.0458 51.2739 33.6534 50.1286 36.1783Z" fill="#73B7EA"/>
<path d="M45.2935 39.4989C46.8188 40.1907 48.9837 38.7048 50.129 36.18C51.2743 33.6551 50.9662 31.0474 49.441 30.3555C47.9157 29.6637 45.7508 31.1496 44.6055 33.6744C43.4602 36.1993 43.7682 38.807 45.2935 39.4989Z" stroke="#2E1E00" stroke-miterlimit="10" stroke-linecap="round" stroke-linejoin="round"/>
<path d="M77.9347 35.7488C76.7894 38.2737 74.6246 39.7595 73.0993 39.0677C71.574 38.3758 71.2661 35.7682 72.4113 33.2434C73.5566 30.7184 75.7216 29.2326 77.2467 29.9246C78.7721 30.6162 79.0801 33.2238 77.9347 35.7488Z" fill="#ADF0E7"/>
<path d="M73.0996 39.0696C74.6249 39.7615 76.7898 38.2756 77.9351 35.7507C79.0804 33.2259 78.7724 30.6182 77.2471 29.9263C75.7218 29.2344 73.5569 30.7204 72.4116 33.2452C71.2663 35.7701 71.5744 38.3778 73.0996 39.0696Z" stroke="#2E1E00" stroke-miterlimit="10" stroke-linecap="round" stroke-linejoin="round"/>
<path d="M107.734 35.7558C106.589 38.2807 104.424 39.7665 102.899 39.0747C101.373 38.3827 101.065 35.7751 102.211 33.2502C103.356 30.7254 105.521 29.2394 107.046 29.9315C108.571 30.6232 108.879 33.2308 107.734 35.7558Z" fill="#FFDC38"/>
<path d="M102.902 39.0746C104.428 39.7665 106.593 38.2806 107.738 35.7557C108.883 33.2309 108.575 30.6232 107.05 29.9313C105.525 29.2394 103.36 30.7254 102.214 33.2502C101.069 35.7751 101.377 38.3828 102.902 39.0746Z" stroke="#2E1E00" stroke-miterlimit="10" stroke-linecap="round" stroke-linejoin="round"/>
<path d="M153.39 36.5695C154.536 39.0944 156.7 40.5802 158.226 39.8884C159.751 39.1964 160.059 36.5888 158.914 34.0641C157.768 31.5392 155.604 30.0533 154.078 30.7452C152.553 31.437 152.245 34.0446 153.39 36.5695Z" fill="#ADF0E7"/>
<path d="M154.076 30.7462C152.55 31.438 152.242 34.0457 153.388 36.5705C154.533 39.0953 156.698 40.5811 158.223 39.8893C159.748 39.1974 160.056 36.5898 158.911 34.065C157.766 31.5402 155.601 30.0543 154.076 30.7462Z" stroke="#2E1E00" stroke-miterlimit="10" stroke-linecap="round" stroke-linejoin="round"/>
<path d="M134.297 26.7901C134.297 26.7901 145.54 32.1842 154.575 26.7901" stroke="#FEFFFA" stroke-miterlimit="10" stroke-linecap="round" stroke-linejoin="round"/>
<path d="M144.517 31.5492V29.1874" stroke="#FEFFFA" stroke-miterlimit="10" stroke-linecap="round" stroke-linejoin="round"/>
<path d="M146.225 34.2889C146.476 34.7303 146.321 35.2916 145.88 35.5425C145.484 35.7668 144.992 35.6662 144.714 35.3258C144.644 35.4133 144.555 35.4897 144.451 35.5487C144.01 35.7995 143.448 35.6449 143.198 35.2034C143.05 34.943 143.043 34.6408 143.153 34.3854C143.087 34.383 143.019 34.3723 142.952 34.3538C142.463 34.2191 142.175 33.7122 142.31 33.2227C142.444 32.7329 142.951 32.4459 143.441 32.5807C143.527 32.6047 143.608 32.6403 143.681 32.6858C143.462 32.2516 143.622 31.7169 144.049 31.4742C144.49 31.2234 145.052 31.378 145.303 31.8194C145.412 32.0106 145.445 32.2249 145.41 32.4267C145.847 32.1959 146.393 32.3528 146.639 32.7863C146.889 33.2285 146.735 33.7899 146.293 34.0407C146.232 34.0755 146.168 34.1027 146.102 34.1221C146.148 34.1712 146.19 34.2275 146.225 34.2889Z" fill="#FEFFFA"/>
<path d="M146.225 34.2889C146.476 34.7303 146.321 35.2916 145.88 35.5425C145.484 35.7668 144.992 35.6662 144.714 35.3258C144.644 35.4133 144.555 35.4897 144.451 35.5487C144.01 35.7995 143.448 35.6449 143.198 35.2034C143.05 34.943 143.043 34.6408 143.153 34.3854C143.087 34.383 143.019 34.3723 142.952 34.3538C142.463 34.2191 142.175 33.7122 142.31 33.2227C142.444 32.7329 142.951 32.4459 143.441 32.5807C143.527 32.6047 143.608 32.6403 143.681 32.6858C143.462 32.2516 143.622 31.7169 144.049 31.4742C144.49 31.2234 145.052 31.378 145.303 31.8194C145.412 32.0106 145.445 32.2249 145.41 32.4267C145.847 32.1959 146.393 32.3528 146.639 32.7863C146.889 33.2285 146.735 33.7899 146.293 34.0407C146.232 34.0755 146.168 34.1027 146.102 34.1221C146.148 34.1712 146.19 34.2275 146.225 34.2889Z" stroke="#2E1E00" stroke-miterlimit="10" stroke-linecap="round" stroke-linejoin="round"/>
<path d="M143.184 56.8379C143.184 56.8379 144.231 57.211 145.133 56.8379" stroke="#2E1E00" stroke-miterlimit="10" stroke-linecap="round" stroke-linejoin="round"/>
<defs>
<linearGradient id="paint0_linear_2696_38435" x1="20.2032" y1="13.7916" x2="43.2985" y2="12.7012" gradientUnits="userSpaceOnUse">
<stop stop-color="#B1E8DF"/>
<stop offset="0.0758" stop-color="#C6E5B2"/>
<stop offset="0.2469" stop-color="#FBDD41"/>
<stop offset="0.2609" stop-color="#FFDC38"/>
<stop offset="0.3566" stop-color="#FDA745"/>
<stop offset="0.4555" stop-color="#FB7751"/>
<stop offset="0.5047" stop-color="#FA6456"/>
<stop offset="0.5629" stop-color="#FB7851"/>
<stop offset="0.6812" stop-color="#FDAB44"/>
<stop offset="0.7832" stop-color="#FFDC38"/>
<stop offset="1" stop-color="#ADF0E7"/>
</linearGradient>
<linearGradient id="paint1_linear_2696_38435" x1="24.4185" y1="21.2046" x2="37.6702" y2="5.01264" gradientUnits="userSpaceOnUse">
<stop stop-color="#B1E8DF"/>
<stop offset="0.2626" stop-color="#B1E9E0"/>
<stop offset="0.2684" stop-color="#C1E6BD"/>
<stop offset="0.2812" stop-color="#E9E066"/>
<stop offset="0.2877" stop-color="#FFDC38"/>
<stop offset="0.2888" stop-color="#FFD939"/>
<stop offset="0.3031" stop-color="#FEBA41"/>
<stop offset="0.319" stop-color="#FC9F47"/>
<stop offset="0.3373" stop-color="#FC894D"/>
<stop offset="0.3587" stop-color="#FB7851"/>
<stop offset="0.3852" stop-color="#FA6D54"/>
<stop offset="0.4223" stop-color="#FA6656"/>
<stop offset="0.5252" stop-color="#FA6456"/>
<stop offset="0.7832" stop-color="#FFDC38"/>
<stop offset="1" stop-color="#ADF0E7"/>
</linearGradient>
<linearGradient id="paint2_linear_2696_38435" x1="50.2615" y1="18.4532" x2="71.3543" y2="17.7418" gradientUnits="userSpaceOnUse">
<stop stop-color="#B1E8DF"/>
<stop offset="0.0758" stop-color="#C6E5B2"/>
<stop offset="0.2469" stop-color="#FBDD41"/>
<stop offset="0.2609" stop-color="#FFDC38"/>
<stop offset="0.3566" stop-color="#FDA745"/>
<stop offset="0.4555" stop-color="#FB7751"/>
<stop offset="0.5047" stop-color="#FA6456"/>
<stop offset="0.5629" stop-color="#FB7851"/>
<stop offset="0.6812" stop-color="#FDAB44"/>
<stop offset="0.7832" stop-color="#FFDC38"/>
<stop offset="1" stop-color="#ADF0E7"/>
</linearGradient>
<linearGradient id="paint3_linear_2696_38435" x1="53.8873" y1="25.5675" x2="66.5248" y2="10.5432" gradientUnits="userSpaceOnUse">
<stop stop-color="#B1E8DF"/>
<stop offset="0.2626" stop-color="#B1E9E0"/>
<stop offset="0.2684" stop-color="#C1E6BD"/>
<stop offset="0.2812" stop-color="#E9E066"/>
<stop offset="0.2877" stop-color="#FFDC38"/>
<stop offset="0.2888" stop-color="#FFD939"/>
<stop offset="0.3031" stop-color="#FEBA41"/>
<stop offset="0.319" stop-color="#FC9F47"/>
<stop offset="0.3373" stop-color="#FC894D"/>
<stop offset="0.3587" stop-color="#FB7851"/>
<stop offset="0.3852" stop-color="#FA6D54"/>
<stop offset="0.4223" stop-color="#FA6656"/>
<stop offset="0.5252" stop-color="#FA6456"/>
<stop offset="0.7832" stop-color="#FFDC38"/>
<stop offset="1" stop-color="#ADF0E7"/>
</linearGradient>
<linearGradient id="paint4_linear_2696_38435" x1="78.1338" y1="15.108" x2="101.149" y2="14.3318" gradientUnits="userSpaceOnUse">
<stop stop-color="#B1E8DF"/>
<stop offset="0.0758" stop-color="#C6E5B2"/>
<stop offset="0.2469" stop-color="#FBDD41"/>
<stop offset="0.2609" stop-color="#FFDC38"/>
<stop offset="0.3566" stop-color="#FDA745"/>
<stop offset="0.4555" stop-color="#FB7751"/>
<stop offset="0.5047" stop-color="#FA6456"/>
<stop offset="0.5629" stop-color="#FB7851"/>
<stop offset="0.6812" stop-color="#FDAB44"/>
<stop offset="0.7832" stop-color="#FFDC38"/>
<stop offset="1" stop-color="#ADF0E7"/>
</linearGradient>
<linearGradient id="paint5_linear_2696_38435" x1="106.345" y1="18.5996" x2="129.08" y2="18.0726" gradientUnits="userSpaceOnUse">
<stop stop-color="#B1E8DF"/>
<stop offset="0.0758" stop-color="#C6E5B2"/>
<stop offset="0.2469" stop-color="#FBDD41"/>
<stop offset="0.2609" stop-color="#FFDC38"/>
<stop offset="0.3566" stop-color="#FDA745"/>
<stop offset="0.4555" stop-color="#FB7751"/>
<stop offset="0.5047" stop-color="#FA6456"/>
<stop offset="0.5629" stop-color="#FB7851"/>
<stop offset="0.6812" stop-color="#FDAB44"/>
<stop offset="0.7832" stop-color="#FFDC38"/>
<stop offset="1" stop-color="#ADF0E7"/>
</linearGradient>
<linearGradient id="paint6_linear_2696_38435" x1="110.423" y1="26.3245" x2="123.95" y2="10.5821" gradientUnits="userSpaceOnUse">
<stop stop-color="#B1E8DF"/>
<stop offset="0.2626" stop-color="#B1E9E0"/>
<stop offset="0.2684" stop-color="#C1E6BD"/>
<stop offset="0.2812" stop-color="#E9E066"/>
<stop offset="0.2877" stop-color="#FFDC38"/>
<stop offset="0.2888" stop-color="#FFD939"/>
<stop offset="0.3031" stop-color="#FEBA41"/>
<stop offset="0.319" stop-color="#FC9F47"/>
<stop offset="0.3373" stop-color="#FC894D"/>
<stop offset="0.3587" stop-color="#FB7851"/>
<stop offset="0.3852" stop-color="#FA6D54"/>
<stop offset="0.4223" stop-color="#FA6656"/>
<stop offset="0.5252" stop-color="#FA6456"/>
<stop offset="0.7832" stop-color="#FFDC38"/>
<stop offset="1" stop-color="#ADF0E7"/>
</linearGradient>
<linearGradient id="paint7_linear_2696_38435" x1="133.823" y1="16.1116" x2="156.838" y2="15.3354" gradientUnits="userSpaceOnUse">
<stop stop-color="#B1E8DF"/>
<stop offset="0.0758" stop-color="#C6E5B2"/>
<stop offset="0.2469" stop-color="#FBDD41"/>
<stop offset="0.2609" stop-color="#FFDC38"/>
<stop offset="0.3566" stop-color="#FDA745"/>
<stop offset="0.4555" stop-color="#FB7751"/>
<stop offset="0.5047" stop-color="#FA6456"/>
<stop offset="0.5629" stop-color="#FB7851"/>
<stop offset="0.6812" stop-color="#FDAB44"/>
<stop offset="0.7832" stop-color="#FFDC38"/>
<stop offset="1" stop-color="#ADF0E7"/>
</linearGradient>
</defs>
</svg>
