<?xml version="1.0" encoding="utf-8"?>
<!-- Generator: Adobe Illustrator 16.0.0, SVG Export Plug-In . SVG Version: 6.00 Build 0)  -->
<!DOCTYPE svg PUBLIC "-//W3C//DTD SVG 1.1//EN" "http://www.w3.org/Graphics/SVG/1.1/DTD/svg11.dtd" [
	<!ENTITY ns_extend "http://ns.adobe.com/Extensibility/1.0/">
	<!ENTITY ns_ai "http://ns.adobe.com/AdobeIllustrator/10.0/">
	<!ENTITY ns_graphs "http://ns.adobe.com/Graphs/1.0/">
	<!ENTITY ns_vars "http://ns.adobe.com/Variables/1.0/">
	<!ENTITY ns_imrep "http://ns.adobe.com/ImageReplacement/1.0/">
	<!ENTITY ns_sfw "http://ns.adobe.com/SaveForWeb/1.0/">
	<!ENTITY ns_custom "http://ns.adobe.com/GenericCustomNamespace/1.0/">
	<!ENTITY ns_adobe_xpath "http://ns.adobe.com/XPath/1.0/">
]>
<svg version="1.1" id="Layer_1" xmlns:x="&ns_extend;" xmlns:i="&ns_ai;" xmlns:graph="&ns_graphs;"
	 xmlns="http://www.w3.org/2000/svg" xmlns:xlink="http://www.w3.org/1999/xlink" x="0px" y="0px" width="163px" height="161px"
	 viewBox="0 0 163 161" enable-background="new 0 0 163 161" xml:space="preserve">
<metadata>
	<sfw  xmlns="&ns_sfw;">
		<slices></slices>
		<sliceSourceBounds  width="161.197" height="159.845" x="118.862" y="120.989" bottomLeftOrigin="true"></sliceSourceBounds>
	</sfw>
</metadata>
<path d="M155.699,47.711c-4.791-8.792-11.961-15.947-20.191-20.145c-2.027-1.035-4.098-1.933-6.154-2.672
	c-10.522-3.78-21.529-3.693-32.717,0.257c-0.281,0.1-0.561,0.201-0.841,0.303c-0.231,0.083-0.462,0.167-0.694,0.25
	c-0.105,0.037-0.193,0.046-0.278,0.054l-0.536,0.064l-0.217-0.33c-0.068-0.105-0.143-0.214-0.22-0.327
	c-0.173-0.254-0.369-0.542-0.544-0.843c-5.784-9.915-14.84-17.483-25.5-21.312C55.82-1.293,42.75-0.698,31.003,4.688
	C19.531,9.949,11.058,18.205,5.818,29.228c-0.124,0.262-0.294,0.479-0.445,0.672c-0.042,0.053-0.083,0.105-0.123,0.16L2.617,37.39
	C2.6,37.519,2.585,37.647,2.57,37.776c-0.04,0.35-0.081,0.711-0.171,1.077c-1.924,7.784-2.042,15.21-0.352,22.073
	c1.052,4.271,2.728,8.472,4.347,12.535l0.084,0.209c1.012,2.541,2.217,5.062,3.382,7.501c0.529,1.107,1.058,2.216,1.574,3.331
	l0.282,0.61l-0.625,0.246c-5.531,2.167-8.959,6.971-8.947,12.538c0.011,5.37,3.217,9.943,8.365,11.936l0.589,0.228l-0.226,0.59
	c-1.468,3.834-1.356,7.465,0.334,10.791c1.724,3.396,4.552,5.516,8.663,6.496l0.634,0.152l-0.169,0.631
	c-1.041,3.859-0.519,7.275,1.594,10.442c1.958,2.937,4.923,4.688,8.834,5.226l0.571,0.079l-0.025,0.576
	c-0.016,0.383-0.04,0.752-0.062,1.112c-0.046,0.727-0.089,1.414-0.065,2.08c0.19,5.137,3.227,9.375,7.927,11.063
	c3.128,1.124,6.592,0.91,9.751-0.602c11.953-5.72,24.087-11.579,35.821-17.245c4.398-2.124,8.796-4.247,13.194-6.369
	c0.389-0.188,0.83-0.4,1.188-0.661c1.021-0.739,1.395-2.058,0.912-3.207c-0.28-0.666-0.831-1.187-1.512-1.432
	c-0.479-0.173-0.987-0.195-1.472-0.063c-0.471,0.127-0.936,0.354-1.426,0.594l-0.266,0.129c-7.539,3.635-15.077,7.271-22.615,10.906
	c-8.355,4.028-16.71,8.059-25.066,12.086l-0.091,0.045c-0.671,0.322-1.366,0.658-2.103,0.885c-1.481,0.455-3.011,0.429-4.425-0.079
	c-1.752-0.629-3.146-1.931-3.925-3.665c-1.435-3.198-0.326-6.943,2.637-8.904c0.7-0.464,1.442-0.859,2.16-1.244l0.455-0.244
	c3.461-1.871,6.923-3.739,10.386-5.609c6.111-3.301,12.223-6.6,18.329-9.909c1.792-0.97,2.398-2.433,1.623-3.913
	c-0.775-1.479-2.254-1.747-4.052-0.79c-1.141,0.606-2.275,1.224-3.411,1.839l-9.456,5.113c-6.773,3.66-13.546,7.32-20.314,10.991
	c-2.667,1.446-5.182,1.403-7.421-0.127c-2.004-1.37-3.08-3.511-2.953-5.874c0.135-2.508,1.627-4.762,3.992-6.029
	c7.639-4.096,15.419-8.23,22.944-12.23c3.74-1.989,7.48-3.978,11.219-5.969l0.139-0.074c0.474-0.25,0.92-0.487,1.292-0.793
	c0.939-0.771,1.235-2.174,0.686-3.263c-0.567-1.126-1.882-1.67-3.081-1.267c-0.402,0.136-0.796,0.345-1.213,0.566l-0.172,0.092
	c-4.405,2.326-8.809,4.653-13.213,6.981l-10.132,5.354c-1.137,0.6-2.272,1.203-3.408,1.808c-2.967,1.579-6.036,3.212-9.085,4.759
	c-2.625,1.332-5.322,1.01-7.523-0.904c-2.143-1.862-2.877-4.35-2.123-7.189c0.689-2.594,2.685-3.921,4.126-4.693
	c9.309-4.99,18.763-10.083,27.906-15.009l6.904-3.719c0.175-0.095,0.352-0.187,0.528-0.279c0.554-0.29,1.077-0.564,1.566-0.892
	c1.265-0.845,1.667-2.223,1.023-3.509c-0.645-1.286-2.062-1.743-3.478-1.126c-0.34,0.148-0.67,0.332-1.02,0.525
	c-0.128,0.071-0.256,0.143-0.385,0.212l-7.492,4.036c-8.762,4.719-17.822,9.598-26.723,14.413c-2.042,1.104-3.935,1.401-5.788,0.907
	c-2.821-0.754-4.821-3.131-5.147-6.031c-0.345-3.074,1.149-5.762,4.102-7.374c16.704-9.122,33.41-18.239,50.117-27.357l11.509-6.281
	c1.089-0.595,2.18-1.186,3.29-1.786l2.18-1.182l2.454,4.266c1.711,2.974,3.401,5.911,5.082,8.853c1.611,2.82,3.87,4.833,6.716,5.982
	c0.165,0.067,0.33,0.13,0.497,0.19c0.001,0,0.001,0,0.001,0c5.207,1.87,10.974,0.342,14.691-3.894
	c3.993-4.549,4.615-10.75,1.622-16.184c-2.58-4.685-5.243-9.427-7.817-14.013c-1.252-2.229-2.504-4.459-3.752-6.691
	c-0.205-0.367-0.398-0.742-0.615-1.159c-0.107-0.208-0.221-0.428-0.345-0.664l-0.342-0.65l0.694-0.242
	c10.549-3.681,20.668-3.833,30.078-0.453c2.022,0.727,4.052,1.629,6.031,2.683c9.016,4.8,15.512,12.267,19.861,22.828
	c3.945,9.584,4.426,20.352,1.352,30.319c-3.084,10.005-9.567,18.589-18.257,24.17c-2.909,1.869-6.075,3.397-9.136,4.875
	c-1.363,0.658-2.773,1.339-4.137,2.039c-1.834,0.94-2.471,2.348-1.747,3.858c0.674,1.411,2.206,1.788,3.891,0.984l0.19-0.091
	c3.087-1.473,6.275-2.994,9.367-4.576c7.658-3.917,13.932-9.549,18.644-16.739c1.039-1.587,1.979-3.292,2.892-4.94
	c0.416-0.756,0.834-1.512,1.262-2.26l2.646-7.369c0.16-1.03,0.342-2.072,0.516-3.081c0.383-2.209,0.778-4.495,0.965-6.743
	C162.688,66.519,160.484,56.491,155.699,47.711z M104.35,55.19c1.029,1.853,2.196,3.952,1.887,6.564
	c-0.436,3.687-2.977,6.592-6.474,7.398c-1.579,0.364-3.18,0.281-4.632-0.24c-1.775-0.638-3.249-1.884-4.262-3.604
	c-1.842-3.131-3.674-6.34-5.443-9.442c-0.768-1.345-1.534-2.689-2.305-4.033l-0.189-0.331c-0.207-0.36-0.414-0.721-0.625-1.079
	c-0.648-1.1-1.237-1.715-1.852-1.936c-0.688-0.247-1.554-0.052-2.81,0.633c-9.836,5.363-19.67,10.731-29.503,16.101L34.16,72.853
	c-2.469,1.348-4.939,2.694-7.41,4.041c-2.907,1.584-5.814,3.169-8.72,4.756c-0.192,0.104-0.389,0.237-0.617,0.39
	c-0.128,0.086-0.265,0.178-0.417,0.277l-0.635,0.41l-0.293-0.696c-0.939-2.233-1.978-4.449-2.981-6.593
	C10.201,69.273,7.216,62.9,6.44,55.746c-1.961-18.08,7.36-35.953,23.194-44.475c12.591-6.776,25.437-7.596,38.177-2.443
	c9.301,3.764,16.553,10.264,21.553,19.317C94.48,37.411,99.521,46.51,104.35,55.19z"/>
<circle cx="110.526" cy="126.275" r="2.724"/>
</svg>
