<svg xmlns="http://www.w3.org/2000/svg" viewBox="0 0 32 32" fill="black" class="discord"  ><path  d="M10.55,25C9.3,25.63,5,23.38,3.82,22.29,3.5,20.6,6,10.32,7.71,8.61S13,6.9,13,6.9a1,1,0,0,0,0-2c-.18,0-4.44,0-6.71,2.29C4.43,9.06.56,21.87,2.29,23.61c.84.83,4.9,3.48,7.75,3.48a3.07,3.07,0,0,0,1.41-.3,1,1,0,0,0,.44-1.34A1,1,0,0,0,10.55,25Z"/><path  d="M25.71,7.19C23.44,4.93,19.18,4.9,19,4.9a1,1,0,0,0,0,2c1,0,3.89.31,5.29,1.71,1.71,1.71,4.21,12,3.89,13.68C27,23.38,22.7,25.63,21.45,25a1,1,0,0,0-1.34.45,1,1,0,0,0,.44,1.34,3.07,3.07,0,0,0,1.41.3c2.85,0,6.91-2.65,7.75-3.48C31.44,21.87,27.57,9.06,25.71,7.19Z"/><ellipse  cx="12" cy="17.4" rx="2" ry="2.25"/><ellipse  cx="20" cy="17.4" rx="2" ry="2.25"/><path  d="M24,11.9a1,1,0,0,0,.85-.47,1,1,0,0,0-.32-1.38c-8.43-5.27-16.71-.22-17.06,0a1,1,0,0,0,1.06,1.7c.3-.19,7.58-4.6,14.94,0A1,1,0,0,0,24,11.9Z"/><path  d="M23.09,23.32a1.15,1.15,0,0,0,.2.29,1,1,0,0,0,1.42,0A4.11,4.11,0,0,0,26,20.9a1,1,0,0,0-.56-.9,1,1,0,0,0-1.05.11A12.9,12.9,0,0,1,16,23h0a13,13,0,0,1-8.37-2.9A1,1,0,0,0,6.56,20a1,1,0,0,0-.56.9,4.11,4.11,0,0,0,1.29,2.71,1,1,0,0,0,1.42,0,1.15,1.15,0,0,0,.2-.29A14.34,14.34,0,0,0,15.66,25h.68A14.34,14.34,0,0,0,23.09,23.32Z"/></svg>