<svg width="44" height="34" viewBox="0 0 44 34" fill="none" xmlns="http://www.w3.org/2000/svg">
<path d="M35.6895 4.81024C33.1806 3.65886 30.4911 2.81109 27.6785 2.32505C27.6273 2.31568 27.5761 2.33879 27.5492 2.38627C27.2037 3.00164 26.8208 3.80442 26.5521 4.4354C23.5272 3.98247 20.5172 3.98247 17.5541 4.4354C17.2855 3.79005 16.8888 3.00164 16.5408 2.38627C16.5145 2.34067 16.4633 2.31755 16.4121 2.32505C13.6008 2.80922 10.9107 3.65698 8.40049 4.81024C8.37863 4.81961 8.36051 4.83523 8.34801 4.85522C3.24581 12.4789 1.84828 19.9144 2.53361 27.2576C2.53674 27.2938 2.55735 27.3275 2.58484 27.3494C5.95153 29.8221 9.21202 31.3221 12.4125 32.3173C12.4638 32.3329 12.5181 32.3142 12.5506 32.2723C13.3078 31.2384 13.9825 30.1488 14.561 29.0018C14.5954 28.935 14.5629 28.8556 14.4929 28.8288C13.4221 28.4233 12.4032 27.9279 11.4223 27.3656C11.3449 27.32 11.3386 27.2095 11.4098 27.1557C11.6166 27.0021 11.8228 26.8402 12.0196 26.6778C12.0552 26.6485 12.1052 26.6416 12.147 26.6609C18.5887 29.6016 25.5619 29.6016 31.9274 26.6609C31.9686 26.641 32.0186 26.6472 32.056 26.6766C32.2528 26.839 32.459 27.0021 32.667 27.1557C32.7383 27.2095 32.7339 27.32 32.6558 27.3656C31.6762 27.9385 30.6566 28.4227 29.5846 28.8275C29.5153 28.8538 29.484 28.935 29.5184 29.0018C30.1094 30.147 30.7841 31.2371 31.5269 32.2711C31.5588 32.3142 31.6137 32.3335 31.6662 32.3173C34.8811 31.3221 38.1428 29.8221 41.5089 27.3494C41.5389 27.3275 41.557 27.2944 41.5601 27.2588C42.3804 18.7687 40.1857 11.3943 35.7414 4.85647C35.7301 4.83523 35.7114 4.81961 35.6895 4.81024ZM15.5237 22.7863C13.5845 22.7863 11.9865 21.0059 11.9865 18.8199C11.9865 16.6327 13.5533 14.8522 15.5237 14.8522C17.5091 14.8522 19.0916 16.6483 19.061 18.8199C19.0603 21.0059 17.4935 22.7863 15.5237 22.7863ZM28.6013 22.7863C26.6621 22.7863 25.0647 21.0059 25.0647 18.8199C25.0647 16.6327 26.6315 14.8522 28.6013 14.8522C30.5873 14.8522 32.1691 16.6483 32.1385 18.8199C32.1385 21.0059 30.5873 22.7863 28.6013 22.7863Z" stroke="white" stroke-width="3" stroke-miterlimit="10"/>
</svg>
