<svg width="157" height="157" viewBox="0 0 157 157" fill="none" xmlns="http://www.w3.org/2000/svg">
<path d="M73.5941 0C76.865 0 80.1358 0 83.4067 0C86.0797 0.348797 88.7683 0.606408 91.4233 1.06111C106.11 3.57589 119.115 9.70294 130.266 19.5878C143.993 31.7557 152.571 46.8815 155.796 64.9756C156.304 67.8294 156.605 70.7204 157 73.5941C157 76.865 157 80.1358 157 83.4067C156.762 85.324 156.556 87.2459 156.282 89.1579C154.044 104.84 147.742 118.681 137.204 130.5C125.109 144.065 110.08 152.535 92.1679 155.779C89.2688 156.304 86.3279 156.599 83.4063 157C80.1354 157 76.8646 157 73.5937 157C73.2531 156.917 72.9158 156.783 72.5707 156.756C59.1172 155.733 46.6848 151.612 35.4927 144.088C16.8273 131.54 5.31865 114.187 1.20341 92.0244C0.674287 89.1755 0.395004 86.2805 0 83.4067C0 80.1358 0 76.865 0 73.5941C0.226943 71.7267 0.419538 69.8543 0.686145 67.9925C3.16657 50.6574 10.4909 35.6828 22.8284 23.2586C34.5669 11.4371 48.6803 4.02568 65.1318 1.18338C67.9365 0.698412 70.7727 0.390097 73.5941 0ZM9.3063 53.8133C-2.31973 84.1726 8.68395 125.152 44.9429 143.924C78.2802 161.184 114.713 148.937 132.073 128.541C131.057 128.412 130.041 128.345 129.052 128.147C125.13 127.356 122.924 124.451 123.916 120.708C125.957 113.005 124.599 105.257 124.599 97.5295C124.599 96.167 124.334 94.7796 124.014 93.447C123.162 89.9005 121.759 88.7977 118.123 88.6354C115.826 88.5331 113.531 88.4264 111.233 88.3459C105.653 88.15 101.627 85.2631 98.5297 80.8931C97.7814 79.8373 97.2702 78.5493 96.912 77.2935C96.0627 74.3163 96.8671 71.5161 98.2704 68.8917C99.3765 66.8239 100.664 64.8534 101.841 62.8223C102.518 61.6541 102.93 60.4781 102.47 59.0412C102.245 58.337 102.398 57.3871 102.683 56.6687C103.655 54.2099 105.328 52.2623 107.75 51.1844C108.755 50.7375 110.088 50.5134 111.135 50.7625C117.509 52.2803 123.98 52.441 130.473 52.3944C132.603 52.3793 134.008 50.5772 133.901 48.1213C133.833 46.5429 132.641 45.6806 130.436 45.7583C128.907 45.8122 127.386 46.0715 125.856 46.1402C121.576 46.332 117.296 46.534 113.013 46.6043C111.147 46.635 109.884 45.5841 109.238 43.7873C108.291 41.1523 107.932 38.4605 108.111 35.662C108.431 30.6831 110.756 27.0496 115.239 24.8681C117.207 23.9104 119.243 23.0885 121.265 22.2461C122.244 21.8385 123.261 21.5261 124.326 21.1478C100.801 1.38946 65.6871 0.25025 42.2155 14.7035C45.7869 16.1154 49.2663 17.538 53.2094 16.6016C55.6395 16.0246 58.1162 15.6448 60.5623 15.1312C66.0944 13.9707 71.1518 14.5019 75.5937 18.53C76.9104 19.7244 78.8854 20.2842 80.6461 20.8718C82.3272 21.4328 84.1533 21.5449 85.8613 22.0425C88.8934 22.9262 90.4902 25.0889 90.7801 28.192C91.1223 31.8636 90.466 35.4268 89.3002 38.8841C88.4387 41.4398 86.635 43.0583 83.9297 43.587C83.0293 43.7628 82.1436 44.0208 81.2407 44.1819C76.0513 45.1069 71.281 47.1281 66.7102 49.6842C64.2429 51.0638 62.285 52.9505 61.7629 55.7941C61.0092 59.9003 58.3481 61.9281 54.596 62.806C51.8174 63.4561 48.9747 63.8278 46.1798 64.4154C44.1218 64.8485 43.7865 65.4107 44.7609 67.2663C46.0392 69.7005 47.6773 71.9467 48.9424 74.387C50.3298 77.0633 52.3719 77.5699 55.1684 77.1803C57.9768 76.7889 60.936 76.3575 63.6778 76.8286C70.805 78.0525 77.6055 80.5088 83.8565 84.1685C86.5912 85.7706 89.0884 87.8793 91.4065 90.0624C93.2977 91.8428 93.8628 94.3102 93.5905 96.9754C93.0916 101.866 91.5128 106.346 88.6067 110.29C86.397 113.29 83.9693 116.127 81.6611 119.054C79.3066 122.041 77.7756 125.378 77.2907 129.188C77.0719 130.905 76.757 132.622 76.324 134.298C75.4612 137.631 74.2827 140.845 71.8015 143.373C68.8463 146.384 65.2148 146.386 62.4584 143.216C61.2734 141.853 60.135 140.256 59.5907 138.567C58.1563 134.114 56.8269 129.601 55.8799 125.025C54.3612 117.685 52.2231 110.917 45.133 106.835C42.5324 105.338 41.0542 102.614 40.5296 99.6677C39.9326 96.3142 39.5551 92.9019 39.3695 89.4994C39.1462 85.4042 37.5061 82.1055 34.414 79.5339C33.0887 78.4319 31.5917 77.5152 30.0992 76.6389C23.4745 72.7481 17.8749 67.7574 13.6759 61.2967C12.0979 58.869 10.7457 56.2937 9.3063 53.8133ZM53.0495 82.2576C49.8383 82.5091 47.3963 81.0052 45.7399 78.5252C43.6217 75.3545 41.6271 72.0522 40.0209 68.601C38.1645 64.6121 39.8483 61.3495 44.0241 59.935C44.6019 59.7396 45.1985 59.5838 45.7975 59.4681C48.502 58.9467 51.2213 58.4945 53.9143 57.9216C55.5957 57.5638 56.6233 56.5567 56.9975 54.7468C57.7572 51.0691 59.8336 48.226 63.0166 46.2338C67.7243 43.2876 72.7596 41.1016 78.187 39.8676C79.6284 39.5396 81.0919 39.3102 82.5316 38.9761C84.0887 38.6151 84.9687 37.592 85.2508 36.0202C85.5215 34.5133 85.8552 33.0176 86.1132 31.5091C86.7061 28.0477 85.7182 26.5286 82.247 26.1549C77.9838 25.6957 74.2607 24.1909 71.0671 21.3236C69.328 19.762 67.2181 19.2231 64.9388 19.5335C62.5655 19.8565 60.1689 20.1517 57.8549 20.7422C52.2345 22.1758 46.7658 22.2065 41.4038 19.6991C40.1644 19.1196 38.8163 18.7443 37.4844 18.4061C36.9799 18.2781 36.2479 18.3345 35.8443 18.622C25.7464 25.8175 17.9465 34.986 12.4663 46.1107C12.2476 46.5552 12.1494 47.2201 12.3118 47.667C15.2252 55.6894 19.594 62.7561 26.381 68.0768C29.0217 70.1471 31.9352 71.8796 34.7775 73.6821C39.659 76.7771 43.1674 80.851 44.013 86.7389C44.3533 89.1068 44.334 91.5271 44.4637 93.9242C44.7106 98.5064 46.1892 102.294 50.457 104.765C54.1723 106.918 56.6 110.376 57.8876 114.403C59.2653 118.713 60.2454 123.154 61.3065 127.561C62.2634 131.534 63.0812 135.552 65.3391 139.051C66.6992 141.159 67.8952 141.25 69.003 139.013C70.2996 136.396 71.5402 133.597 71.9921 130.747C72.8925 125.072 74.5203 119.828 78.2868 115.386C79.4767 113.984 80.6396 112.559 81.8164 111.145C84.3455 108.108 86.7221 104.962 87.7791 101.076C89.4434 94.9558 89.5415 93.6862 83.7624 89.8024C78.153 86.0327 71.7946 83.9395 65.3391 82.1064C62.9139 81.4169 60.528 81.3822 58.0745 81.7285C56.4082 81.9632 54.7252 82.0851 53.0495 82.2576ZM152.126 76.8809C151.981 75.1325 151.845 71.808 151.393 68.527C150.977 65.5019 150.377 62.4825 149.589 59.5319C146.099 46.453 139.408 35.2228 129.744 25.7619C129.364 25.3902 128.63 24.9175 128.276 25.0533C124.336 26.5687 120.395 28.0984 116.544 29.8252C114.169 30.8904 113.275 33.0781 113.173 35.5912C113.137 36.4573 113.084 37.3426 113.215 38.1923C113.871 42.4445 113.15 42.0801 117.477 41.8319C121.759 41.5862 126.026 41.0996 130.308 40.8669C134.345 40.6477 137.576 42.7446 138.505 45.9558C139.525 49.4805 137.694 54.6683 134.748 56.4234C134.156 56.7754 133.427 57.0187 132.742 57.0743C125.369 57.6754 118.055 57.2011 110.809 55.7061C109.465 55.4285 107.143 57.2506 107.436 58.564C108.072 61.4149 106.958 63.7689 105.624 66.0985C104.509 68.0461 103.29 69.9377 102.25 71.9238C101.393 73.5598 101.069 75.3737 101.987 77.0809C103.588 80.0622 105.858 82.4695 109.31 83.0505C112.214 83.5388 115.2 83.5482 118.152 83.7199C122.004 83.944 125.487 84.9421 127.39 88.6534C128.191 90.215 128.861 91.9757 129.034 93.7021C129.447 97.8075 129.394 101.959 129.775 106.069C130.257 111.262 130.024 116.374 128.712 121.418C128.416 122.558 128.859 123.009 129.854 123.296C132.897 124.175 137.494 122.556 139.269 119.942C147.775 107.42 151.983 93.5688 152.126 76.8809Z" fill="black"/>
</svg>
