<svg width="1919" height="1092" viewBox="0 0 1919 1092" fill="none" xmlns="http://www.w3.org/2000/svg">
<mask id="mask0_3873_655" style="mask-type:alpha" maskUnits="userSpaceOnUse" x="0" y="0" width="1920" height="1092">
<rect width="1920" height="1092" fill="#C4C4C4"/>
</mask>
<g mask="url(#mask0_3873_655)">
<path d="M1501.15 52.4681L313.352 61.7132C289.337 61.9001 265.932 69.288 246.161 82.9214L13.2776 243.518C-17.7511 264.916 -36.9236 299.648 -38.494 337.307L-55.8854 754.36C-58.8755 826.062 1.31959 884.34 72.8874 879.031L1106.18 802.383C1139.61 799.903 1170.48 783.552 1191.32 757.29L1596.1 247.043C1658.76 168.053 1601.97 51.6833 1501.15 52.4681Z" fill="#FFF5CF"/>
<path d="M36.9947 299.737C52.939 257.287 91.4506 227.449 136.538 222.615L1666.3 58.5816C1717.03 53.1427 1765.65 80.368 1787.51 126.457L1980.28 532.723C1985.36 543.44 1988 555.154 1988 567.016V815.1C1988 859.632 1951.63 895.593 1907.1 895.095L22.0524 873.997C-25.5103 873.464 -62.1051 831.798 -56.4938 784.564L-16.643 449.121C-15.8838 442.73 -14.3561 436.455 -12.0932 430.43L36.9947 299.737Z" fill="#FDEAA7"/>
</g>
</svg>
