<svg width="33" height="33" viewBox="0 0 33 33" fill="none" xmlns="http://www.w3.org/2000/svg">
<path fill-rule="evenodd" clip-rule="evenodd" d="M7.28435 14.5934C7.58355 15.42 8.16349 16.2121 8.60897 16.9577C11.9565 22.5592 18.9271 25.5318 25.4556 20.6996C36.009 12.891 34.3766 5.15065 21.3326 3.66459C8.28847 2.179 3.01554 7.1641 7.28435 14.5934Z" fill="#5CC2EF"/>
<path fill-rule="evenodd" clip-rule="evenodd" d="M3.49287 21.2921C4.9794 34.3362 12.5262 35.8236 20.5279 25.4151C26.5971 17.5204 24.8232 4.92223 12.1256 7.81955C7.01321 8.98653 2.55881 13.0967 3.49287 21.2921Z" fill="#FCB125"/>
<path fill-rule="evenodd" clip-rule="evenodd" d="M22.3601 22.4212C23.2771 20.494 23.7945 18.4554 23.8779 16.5225C22.6938 17.8561 21.7375 18.6623 19.9494 19.9836C18.1613 21.304 17.1411 22.0269 15.9282 22.7649C17.9445 23.316 20.1407 23.2677 22.3601 22.4212Z" fill="#518A3F"/>
<path fill-rule="evenodd" clip-rule="evenodd" d="M1.88481 15.0712C7.11986 27.1112 9.17403 27.8701 19.9481 19.9829C30.7221 12.0953 26.1622 7.10074 14.7973 2.15873C2.75732 -3.07632 -3.35025 3.03124 1.88481 15.0712Z" fill="#D34E9C"/>
<path fill-rule="evenodd" clip-rule="evenodd" d="M23.8768 16.5225C28.6276 11.1463 25.2483 7.19233 17.5108 3.40688C9.04509 3.2729 4.96423 6.47416 5.98965 11.3617V11.3622L6.00338 11.4256L5.99865 11.4024C6.97862 15.9771 11.3019 21.5071 15.9243 22.764C16.5014 22.9084 23.1501 17.8518 23.8768 16.5225Z" fill="#53479D"/>
<path fill-rule="evenodd" clip-rule="evenodd" d="M5.98959 11.3623C4.51726 13.0695 3.53444 15.3802 3.38721 18.3779C6.96861 25.8134 9.40861 26.8899 15.9266 22.7646L15.9238 22.7636C11.2881 21.5034 6.95252 15.9445 5.98959 11.3623Z" fill="#EE2A26"/>
<path fill-rule="evenodd" clip-rule="evenodd" d="M15.9263 22.7648C15.9769 22.7771 16.073 22.7501 16.2075 22.69C17.6168 22.0556 23.2131 17.7352 23.8759 16.5223C24.3702 8.75113 18.4193 5.9679 11.9065 7.72049C9.59762 8.34209 7.59743 9.49676 5.98828 11.362C6.95169 15.9447 11.2906 21.5045 15.9263 22.7648Z" fill="#1D174A"/>
<path fill-rule="evenodd" clip-rule="evenodd" d="M18.4122 18.6645C18.4311 18.7454 18.4377 18.8306 18.4463 18.9125C18.5802 20.2182 18.8634 21.7057 16.8277 22.6222C15.9509 23.0171 14.7408 22.6767 13.4233 21.8723C11.4482 20.6661 9.288 18.4306 7.96385 16.3012C3.26328 8.74162 14.2362 5.1924 18.103 9.27611C19.6942 10.9563 19.965 13.801 18.3904 15.8249C17.7617 16.633 18.1575 17.5813 18.4122 18.6645Z" fill="white"/>
</svg>
