<svg width="67" height="80" viewBox="0 0 67 80" fill="none" xmlns="http://www.w3.org/2000/svg">
<g clip-path="url(#clip0)">
<path d="M12.7207 40.4517C12.6446 40.4517 12.5938 40.4266 12.543 40.3764C12.4668 40.3262 12.4414 40.2509 12.4414 40.1506C12.4414 40.0502 12.5176 39.9749 12.5938 39.9498C12.6192 39.9498 12.6446 39.9247 12.6699 39.9247C12.7715 39.8745 12.8985 39.9247 12.9747 40.0251C13.0508 40.1255 13.0255 40.2509 12.9747 40.3262L12.9493 40.3764C12.8731 40.4266 12.7969 40.4517 12.7207 40.4517Z" fill="black"/>
<path d="M54.3946 32.4216C54.3946 38.4943 51.4235 43.5383 51.4235 43.5383C50.1539 44.2911 48.6811 45.0439 47.0305 45.7967C44.1356 47.1267 40.7837 48.4818 37.3302 49.7616C37.1525 49.8369 36.9493 49.8871 36.7716 49.9623C35.705 50.3638 34.6385 50.7403 33.572 51.1167C29.1281 52.6725 24.7351 54.0778 21.2054 55.1568C19.1485 55.7842 17.371 56.3111 16.0505 56.6876C21.4847 47.5784 21.2054 40.0251 15.1364 39.749C14.3238 39.6989 13.5366 39.8494 12.7494 40.1506L23.7447 26.9009C17.5741 21.2045 6.75655 18.1179 0.484375 16.7378C12.2923 14.404 18.5645 17.9423 18.5645 17.9423C21.4085 13.4002 29.3059 11.2672 29.3059 11.2672C30.2708 6.49936 35.7304 2.13299 37.6349 0.727722C35.959 4.94353 33.699 11.6186 33.9021 16.5872L41.7233 16.7879L52.0584 24.9184C51.7537 25.1192 51.4743 25.345 51.2204 25.6462C48.808 28.4316 51.068 29.9874 53.4296 31.6938C53.582 31.8193 53.7343 31.9197 53.8867 32.0201C53.9629 32.0702 54.0391 32.1204 54.1152 32.1957C54.2168 32.271 54.293 32.3463 54.3946 32.4216Z" fill="#F9A058"/>
<path d="M16.0506 56.9636C15.9744 56.9636 15.8982 56.9386 15.8474 56.8633C15.7712 56.788 15.7712 56.6625 15.822 56.5872C19.3771 50.665 20.5706 45.1443 18.9708 42.2083C18.2344 40.8532 16.9393 40.1004 15.1364 40.0251C14.3746 40 13.6128 40.1255 12.851 40.4015C12.7494 40.4517 12.6224 40.4015 12.5463 40.3263C12.4701 40.2259 12.4955 40.1004 12.5463 40.0251L23.3893 26.9511C17.1679 21.3049 6.35028 18.2936 0.433616 16.9636C0.306649 16.9385 0.230469 16.8382 0.230469 16.7127C0.230469 16.5872 0.306649 16.4869 0.433616 16.4618C11.1242 14.3539 17.2694 16.9887 18.4629 17.5659C19.6818 15.7089 21.8403 14.0527 24.8875 12.6224C26.8428 11.6939 28.5949 11.1669 29.1028 11.0163C30.1439 6.32374 35.3242 2.08283 37.508 0.476811C37.6096 0.401529 37.7365 0.401529 37.8127 0.476811C37.9143 0.552093 37.9397 0.65247 37.8889 0.77794C36.1113 5.24469 34.0545 11.5182 34.1561 16.3112L41.7487 16.4868C41.7995 16.4868 41.8503 16.5119 41.901 16.537L52.2108 24.6926C52.2869 24.7428 52.3123 24.8181 52.3123 24.8934C52.3123 24.9687 52.2616 25.0439 52.1854 25.0941C51.906 25.2698 51.6521 25.4956 51.3982 25.7717C50.6618 26.5998 50.357 27.3526 50.4332 28.0552C50.5856 29.2848 51.9568 30.2886 53.4296 31.3426L53.5566 31.4178C53.709 31.5182 53.8613 31.6437 54.0137 31.7441L54.0391 31.7692C54.1153 31.8193 54.1914 31.8946 54.2676 31.9448C54.3438 31.995 54.4454 32.0703 54.547 32.1456C54.5977 32.1958 54.6485 32.271 54.6485 32.3463C54.6485 38.4191 51.6775 43.5383 51.6521 43.5885C51.6267 43.6136 51.6013 43.6638 51.5505 43.6889C50.3317 44.4166 48.8334 45.1694 47.1321 45.9724C44.4658 47.2271 41.19 48.5571 37.4318 49.9373L36.8731 50.1381C35.8574 50.5145 34.8163 50.8909 33.6482 51.2924C29.89 52.5973 25.7254 53.9774 21.2816 55.3325C18.8692 56.0854 17.1425 56.5872 16.1267 56.8633C16.1013 56.9386 16.076 56.9636 16.0506 56.9636ZM14.9079 39.4981C14.984 39.4981 15.0856 39.4981 15.1618 39.4981C17.1171 39.5985 18.5899 40.4266 19.4279 41.9323C20.2659 43.463 20.4182 45.6211 19.885 48.2058C19.3771 50.665 18.2344 53.4254 16.6092 56.261C17.6503 55.9599 19.1486 55.5082 21.1292 54.9059C25.5731 53.5258 29.7376 52.1707 33.4704 50.8658C34.6131 50.4643 35.6797 50.0879 36.67 49.7114L37.2287 49.5107C40.9869 48.1305 44.2372 46.8005 46.9035 45.5458C48.5541 44.7679 50.0015 44.0402 51.2204 43.3375C51.5251 42.7855 54.0899 38.0678 54.1153 32.522C54.0645 32.4718 54.0137 32.4467 53.9375 32.3965C53.8613 32.3463 53.7852 32.271 53.709 32.2209L53.6836 32.1958C53.5312 32.0954 53.3789 31.9699 53.2265 31.8695L53.0995 31.7943C51.5505 30.665 50.0777 29.6111 49.9 28.1556C49.7984 27.3024 50.1539 26.4241 50.9919 25.4956C51.1696 25.2698 51.3728 25.0941 51.6013 24.9185L41.6471 17.0138L33.9021 16.8131C33.7752 16.8131 33.6482 16.7127 33.6482 16.5621C33.4704 11.9448 35.3495 5.94733 37.0763 1.43039C34.8925 3.13679 30.3978 7.10166 29.5598 11.2924C29.5345 11.3927 29.4583 11.468 29.3821 11.4931C29.3059 11.5182 21.5355 13.6512 18.793 18.0678C18.7169 18.1932 18.5645 18.2183 18.4629 18.1431C18.4121 18.118 12.5463 14.931 1.75407 16.7629C7.97546 18.2183 18.0566 21.2798 23.9479 26.7252C24.0495 26.8256 24.0495 26.9762 23.9733 27.0766L13.5112 39.6738C13.9683 39.5734 14.4254 39.4981 14.9079 39.4981Z" fill="black"/>
<path d="M12.7207 40.4517C12.6446 40.4517 12.5938 40.4266 12.543 40.3764C12.4668 40.3262 12.4414 40.2509 12.4414 40.1506C12.4414 40.0502 12.5176 39.9749 12.5938 39.9498C12.6192 39.9498 12.6446 39.9247 12.6699 39.9247C12.7715 39.8745 12.8985 39.9247 12.9747 40.0251C13.0508 40.1255 13.0255 40.2509 12.9747 40.3262L12.9493 40.3764C12.8731 40.4266 12.7969 40.4517 12.7207 40.4517Z" fill="black"/>
<path d="M41.7457 17.0138L33.9245 16.8131C33.7975 16.8131 33.6706 16.7127 33.6706 16.5621C33.4928 11.6688 35.6259 5.16939 37.4288 0.602262C37.4542 0.552074 37.4796 0.501886 37.5304 0.476792C37.9367 0.175662 38.1652 0.0250978 38.1652 0.0250978C38.2414 -0.0250904 38.3176 -0.0250904 38.3937 3.67872e-06C38.4699 0.0250978 38.5207 0.10038 38.5461 0.175662L41.9742 16.6876C41.9996 16.7629 41.9742 16.8382 41.9234 16.8883C41.8726 16.9887 41.8219 17.0138 41.7457 17.0138ZM34.153 16.3363L41.4156 16.5119L38.1398 0.677545C38.0636 0.727733 37.9621 0.803015 37.8605 0.878297C36.1083 5.31995 34.0515 11.5684 34.153 16.3363Z" fill="black"/>
<path d="M23.743 26.9009L12.7477 40.1506C12.7223 40.1506 12.6969 40.1757 12.6969 40.1757C-0.964733 28.8081 0.279543 16.7629 0.279543 16.7629C0.355723 16.7378 0.40651 16.7378 0.48269 16.7127C6.75486 18.118 17.5725 21.2046 23.743 26.9009Z" fill="black"/>
<path d="M12.6994 40.4517C12.6486 40.4517 12.5725 40.4266 12.5471 40.4015C5.41152 34.4542 2.4151 28.3563 1.12004 24.2911C-0.276597 19.8745 0.0281236 16.8883 0.0281236 16.7629C0.0281236 16.6625 0.129697 16.5621 0.231271 16.537L0.434418 16.4868C0.459811 16.4868 0.510598 16.4868 0.535992 16.4868C6.57962 17.8168 17.6258 20.9285 23.9233 26.7252C24.0249 26.8256 24.0249 26.9762 23.9487 27.0765L12.9534 40.3262C12.928 40.3513 12.8772 40.3764 12.8518 40.4015C12.8264 40.4015 12.8264 40.4015 12.801 40.4266C12.7502 40.4266 12.7248 40.4517 12.6994 40.4517ZM0.535992 16.9887C0.459811 18.5947 0.434418 29.5107 12.6994 39.8494L23.4154 26.926C17.2195 21.33 6.47805 18.3187 0.535992 16.9887Z" fill="black"/>
<path d="M12.7207 40.4517C12.6446 40.4517 12.5938 40.4266 12.543 40.3764C12.4668 40.3262 12.4414 40.2509 12.4414 40.1506C12.4414 40.0502 12.5176 39.9749 12.5938 39.9498C12.6192 39.9498 12.6446 39.9247 12.6699 39.9247C12.7715 39.8745 12.8985 39.9247 12.9747 40.0251C13.0508 40.1255 13.0255 40.2509 12.9747 40.3262L12.9493 40.3764C12.8731 40.4266 12.7969 40.4517 12.7207 40.4517Z" fill="black"/>
<path d="M41.7452 16.7628L33.924 16.5621C33.7463 11.5935 35.9809 4.91842 37.6569 0.702609C38.0632 0.40148 38.3171 0.250916 38.3171 0.250916L41.7452 16.7628Z" fill="black"/>
<path d="M41.7457 17.0138L33.9245 16.8131C33.7975 16.8131 33.6706 16.7127 33.6706 16.5621C33.4928 11.6688 35.6259 5.16939 37.4288 0.602262C37.4542 0.552074 37.4796 0.501886 37.5304 0.476792C37.9367 0.175662 38.1652 0.0250978 38.1652 0.0250978C38.2414 -0.0250904 38.3176 -0.0250904 38.3937 3.67872e-06C38.4699 0.0250978 38.5207 0.10038 38.5461 0.175662L41.9742 16.6876C41.9996 16.7629 41.9742 16.8382 41.9234 16.8883C41.8726 16.9887 41.8219 17.0138 41.7457 17.0138ZM34.153 16.3363L41.4156 16.5119L38.1398 0.677545C38.0636 0.727733 37.9621 0.803015 37.8605 0.878297C36.1083 5.31995 34.0515 11.5684 34.153 16.3363Z" fill="black"/>
<path d="M61.7563 52.0702C53.3003 64.4416 50.0753 68.5319 50.0753 68.5319L50.1515 79.749H18.1812L18.6637 71.7189C18.6637 71.7189 1.59932 65.6963 2.71663 56.6875C3.68158 48.9585 6.93193 44.8933 11.1472 40.9535C11.5789 40.552 12.163 40.3513 12.6708 40.1505L12.6962 40.1756L12.7216 40.1254C13.5088 39.8243 14.3214 39.6737 15.1086 39.7239C21.1776 40 21.457 47.5533 16.0228 56.6624C15.8704 56.9385 15.6927 57.2145 15.5149 57.4905L20.8221 60.1505L21.203 55.1568C25.5707 53.8017 31.2842 51.9698 36.7692 49.9623C40.4258 48.6323 43.9809 47.202 47.0281 45.7967L47.4852 48.3312L48.1962 52.4215C48.1962 52.4215 57.4902 40.4517 56.9823 36.01C56.8807 35.1317 56.4237 34.3538 55.7888 33.6762C55.3825 33.2246 54.9001 32.823 54.3668 32.4215C54.2144 32.2961 54.0367 32.1706 53.8589 32.0451C51.345 30.1882 48.6279 28.6323 51.1926 25.6712C51.4466 25.3701 51.7259 25.1192 52.0306 24.9435C56.3475 22.1832 63.8131 31.0916 63.8131 31.0916C63.8131 31.0916 71.2534 38.1681 61.7563 52.0702Z" fill="#73B7EA"/>
<path d="M50.1274 80L18.1813 80C18.1051 80 18.0543 79.9749 18.0035 79.9247C17.9528 79.8746 17.9274 79.7993 17.9274 79.7491L18.4098 71.9197C17.5465 71.5935 13.7629 70.138 10.157 67.8294C4.67201 64.3162 2.0311 60.4768 2.48818 56.6876C3.42774 49.2096 6.42416 45.069 10.995 40.803C11.4267 40.4015 11.9599 40.2008 12.417 40.0251L12.5948 39.9498H12.6201C12.6201 39.9498 12.6455 39.9498 12.6455 39.9247C13.4835 39.5985 14.3215 39.473 15.1341 39.4981C17.0894 39.5985 18.5622 40.4266 19.4002 41.9323C21.1269 45.069 19.9334 50.6399 16.2514 56.8131C16.1244 57.0138 15.9975 57.2146 15.8705 57.4153L20.5683 59.724L20.9238 55.1067C20.9238 55.0063 21 54.9059 21.1015 54.8808C26.8658 53.0991 32.1223 51.3676 36.6677 49.6863C40.6799 48.2309 44.108 46.8256 46.9012 45.5207C46.9774 45.4956 47.0536 45.4956 47.1298 45.5207C47.206 45.5458 47.2568 45.6211 47.2568 45.6964L48.3233 51.7441C49.9992 49.5107 57.1348 39.7742 56.7285 35.9599C56.6523 35.207 56.2714 34.5044 55.6112 33.7767C55.2557 33.4003 54.824 32.9988 54.2145 32.5471C54.0622 32.4216 53.8844 32.2961 53.7067 32.1707C53.5035 32.0201 53.3258 31.8946 53.1226 31.7441C51.5482 30.6148 50.0754 29.5609 49.9231 28.1054C49.8215 27.2522 50.177 26.3739 51.015 25.4203C51.2943 25.1192 51.5736 24.8432 51.9037 24.6424C56.3222 21.8319 63.5847 30.3388 63.991 30.8156C64.1688 30.9912 65.9209 32.7729 66.5811 36.2359C67.6984 42.133 64.6766 48.1305 61.9341 52.1456C54.1638 63.5383 50.761 67.9549 50.2786 68.532L50.3547 79.6738C50.3547 79.9526 50.1274 80 50.1274 80ZM18.4352 79.4981H49.8723L49.7961 68.532C49.7961 68.4818 49.8215 68.4316 49.8469 68.3815C49.8723 68.3313 53.1734 64.1656 61.5278 51.9448C64.1941 48.0301 67.1652 42.1581 66.0986 36.4367C65.4638 33.0239 63.6609 31.2673 63.6355 31.2422L63.6101 31.2171C63.5339 31.1418 56.246 22.5345 52.1577 25.1192C51.8783 25.2949 51.6244 25.5207 51.3705 25.7968C50.6341 26.65 50.3293 27.3777 50.4055 28.0803C50.5579 29.3099 51.9291 30.3137 53.402 31.3676C53.6051 31.5182 53.7829 31.6437 53.986 31.7942C54.1638 31.9197 54.3161 32.0452 54.4939 32.1707C55.1033 32.6474 55.5604 33.049 55.9413 33.4505C56.6777 34.2535 57.084 35.0565 57.1856 35.9097C57.6934 40.4015 48.7296 52.0201 48.3487 52.522C48.2979 52.5973 48.1963 52.6474 48.0947 52.6224C47.9932 52.5973 47.917 52.522 47.917 52.4216L46.7997 46.123C44.0572 47.3777 40.7052 48.7328 36.8201 50.1631C32.3 51.8193 27.1198 53.5508 21.4063 55.3074L21.0762 60.1757C21.0762 60.251 21.0254 60.3262 20.9492 60.3764C20.873 60.4266 20.7968 60.4266 20.7206 60.3764L15.4388 57.7666C15.3626 57.7416 15.3372 57.6914 15.3118 57.6161C15.2865 57.5408 15.3118 57.4655 15.3372 57.4153C15.515 57.1393 15.6927 56.8633 15.8451 56.5872C19.4002 50.665 20.5937 45.1443 18.9939 42.2083C18.2575 40.8532 16.9624 40.1004 15.1595 40.0251C14.4231 40 13.6867 40.1255 12.9249 40.4015C12.8741 40.4517 12.8233 40.4768 12.7471 40.4768C12.7217 40.4768 12.7217 40.4768 12.7217 40.4768L12.6455 40.5019C12.1885 40.6776 11.7314 40.8532 11.3759 41.1794C6.90663 45.3451 3.9356 49.4103 3.02144 56.7378C1.92953 65.4454 18.613 71.4429 18.7907 71.5182C18.8923 71.5684 18.9685 71.6688 18.9685 71.7692L18.4352 79.4981Z" fill="black"/>
<path d="M54.1116 32.1957C54.2132 32.271 54.2894 32.3463 54.3909 32.3965C54.3909 38.4693 51.4199 43.5132 51.4199 43.5132C50.1502 44.266 48.6774 45.0188 47.0269 45.7716C44.132 47.1016 40.7801 48.4567 37.3266 49.7365C37.1488 49.8118 36.9457 49.862 36.7679 49.9373C35.7014 50.3388 34.6349 50.7152 33.543 51.0916L53.4006 31.6688C53.553 31.7942 53.7053 31.8946 53.8577 31.995C53.9592 32.0954 54.0354 32.1456 54.1116 32.1957Z" fill="#FEFFFA"/>
<path d="M16.0506 56.9636C15.9744 56.9636 15.8982 56.9386 15.8474 56.8633C15.7712 56.788 15.7712 56.6625 15.822 56.5872C19.3771 50.665 20.5706 45.1443 18.9708 42.2083C18.2344 40.8532 16.9393 40.1004 15.1364 40.0251C14.3746 40 13.6128 40.1255 12.851 40.4015C12.7494 40.4517 12.6224 40.4015 12.5463 40.3263C12.4701 40.2259 12.4955 40.1004 12.5463 40.0251L23.3893 26.9511C17.1679 21.3049 6.35028 18.2936 0.433616 16.9636C0.306649 16.9385 0.230469 16.8382 0.230469 16.7127C0.230469 16.5872 0.306649 16.4869 0.433616 16.4618C11.1242 14.3539 17.2694 16.9887 18.4629 17.5659C19.6818 15.7089 21.8403 14.0527 24.8875 12.6224C26.8428 11.6939 28.5949 11.1669 29.1028 11.0163C30.1439 6.32374 35.3242 2.08283 37.508 0.476811C37.6096 0.401529 37.7365 0.401529 37.8127 0.476811C37.9143 0.552093 37.9397 0.65247 37.8889 0.77794C36.1113 5.24469 34.0545 11.5182 34.1561 16.3112L41.7487 16.4868C41.7995 16.4868 41.8503 16.5119 41.901 16.537L52.2108 24.6926C52.2869 24.7428 52.3123 24.8181 52.3123 24.8934C52.3123 24.9687 52.2616 25.0439 52.1854 25.0941C51.906 25.2698 51.6521 25.4956 51.3982 25.7717C50.6618 26.6249 50.357 27.3526 50.4332 28.0552C50.5856 29.2848 51.9568 30.2886 53.4296 31.3426C53.6328 31.4931 53.8106 31.6186 54.0137 31.7692C54.1914 31.8946 54.3438 32.0201 54.5216 32.1456C54.5723 32.1958 54.6231 32.271 54.6231 32.3463C54.6231 38.4191 51.6521 43.5383 51.6267 43.5885C51.6013 43.6136 51.5759 43.6638 51.5251 43.6889C50.3063 44.4166 48.808 45.1694 47.1067 45.9724C44.3134 47.2773 40.8599 48.6826 36.8224 50.1631C32.2516 51.8444 27.0205 53.5759 21.2308 55.3576C18.8184 56.1104 17.0917 56.6123 16.076 56.8884C16.1013 56.9385 16.076 56.9636 16.0506 56.9636ZM14.9079 39.4981C14.984 39.4981 15.0856 39.4981 15.1618 39.4981C17.1171 39.5985 18.5899 40.4266 19.4279 41.9323C20.2659 43.463 20.4182 45.6211 19.885 48.2058C19.3771 50.665 18.2344 53.4254 16.6092 56.261C17.6503 55.9599 19.1486 55.5082 21.1292 54.9059C26.8935 53.1242 32.15 51.3928 36.6954 49.7114C40.7076 48.256 44.1357 46.8507 46.9289 45.5458C48.5795 44.7679 50.0269 44.0402 51.2458 43.3375C51.5505 42.7855 54.1153 38.0678 54.1407 32.522C54.0137 32.4216 53.8867 32.3212 53.7344 32.2209C53.5312 32.0703 53.3535 31.9448 53.1503 31.7943C51.5759 30.665 50.1031 29.6111 49.9508 28.1556C49.8492 27.3024 50.2047 26.4241 51.0427 25.4705C51.2204 25.2447 51.4236 25.069 51.6521 24.8934L41.6471 17.0138L33.9021 16.8131C33.7752 16.8131 33.6482 16.7127 33.6482 16.5621C33.4704 11.9448 35.3495 5.94733 37.0763 1.43039C34.8925 3.13679 30.3978 7.10166 29.5598 11.2924C29.5345 11.3927 29.4583 11.468 29.3821 11.4931C29.3059 11.5182 21.5355 13.6512 18.793 18.0678C18.7169 18.1932 18.5645 18.2183 18.4629 18.1431C18.4121 18.118 12.5463 14.931 1.75407 16.7629C7.97546 18.2183 18.0566 21.2798 23.9479 26.7252C24.0495 26.8256 24.0495 26.9762 23.9733 27.0766L13.5112 39.6738C13.9683 39.5734 14.4254 39.4981 14.9079 39.4981Z" fill="black"/>
<path d="M49.9225 38.4693C49.9225 40.1004 48.6021 41.4053 46.9515 41.4053C45.3009 41.4053 43.9805 40.1004 43.9805 38.4693C43.9805 36.8382 45.3009 35.5333 46.9515 35.5333C48.6021 35.5333 49.9225 36.8382 49.9225 38.4693Z" fill="black"/>
<path d="M33.5706 35.9849C33.5706 36.7628 32.9358 37.3651 32.174 37.3651C31.3868 37.3651 30.7773 36.7377 30.7773 35.9849C30.7773 35.207 31.4122 34.6047 32.174 34.6047C32.9358 34.6047 33.5706 35.207 33.5706 35.9849Z" fill="black"/>
<path d="M44.3636 28.005C44.3636 28.783 43.7288 29.3852 42.967 29.3852C42.2051 29.3852 41.5703 28.7579 41.5703 28.005C41.5703 27.2271 42.2051 26.6249 42.967 26.6249C43.7288 26.6249 44.3636 27.2271 44.3636 28.005Z" fill="black"/>
<path d="M29.6083 59.8745C29.5829 59.8745 29.5321 59.8745 29.5067 59.8745C24.4027 59.8494 21 58.4191 20.873 58.3689C20.746 58.3187 20.6952 58.1681 20.746 58.0426C20.7968 57.9172 20.9492 57.867 21.0761 57.9172C21.1015 57.9423 24.5296 59.3726 29.5321 59.3977C29.5575 59.3977 29.5829 59.3977 29.6083 59.3977C34.2299 59.3977 41.1369 58.143 48.0185 52.2459C48.1201 52.1455 48.2725 52.1706 48.3741 52.271C48.4756 52.3714 48.4502 52.5219 48.3487 52.6223C41.3655 58.5947 34.3061 59.8745 29.6083 59.8745Z" fill="#FEFFFA"/>
<path d="M35.3203 62.4592C35.168 62.4592 35.0664 62.3589 35.0664 62.2083V59.1719C35.0664 59.0213 35.168 58.921 35.3203 58.921C35.4727 58.921 35.5743 59.0213 35.5743 59.1719V62.2083C35.5743 62.3589 35.4727 62.4592 35.3203 62.4592Z" fill="#FEFFFA"/>
<path d="M38.6765 66.0226C39.2605 66.5997 39.2605 67.5282 38.6765 68.0803C38.1686 68.5822 37.356 68.6324 36.772 68.2309C36.6958 68.4065 36.5942 68.5571 36.4673 68.6826C35.8832 69.2597 34.9437 69.2597 34.385 68.6826C34.0549 68.3563 33.9025 67.8795 33.9787 67.4529C33.8771 67.478 33.7756 67.478 33.6486 67.478C32.836 67.478 32.1758 66.8256 32.1758 66.0226C32.1758 65.2196 32.836 64.5671 33.6486 64.5671C33.801 64.5671 33.9279 64.5922 34.0549 64.6173C33.5216 64.0401 33.547 63.1618 34.1057 62.6098C34.6897 62.0326 35.6293 62.0326 36.1879 62.6098C36.4419 62.8607 36.5688 63.1618 36.6196 63.4881C37.2037 62.9611 38.1178 62.9611 38.6765 63.5131C39.2605 64.0903 39.2605 65.0188 38.6765 65.5709C38.6003 65.6461 38.4987 65.7214 38.4226 65.7716C38.4987 65.872 38.6003 65.9473 38.6765 66.0226Z" fill="#FEFFFA"/>
<path d="M35.4262 69.3852C34.9691 69.3852 34.5374 69.2095 34.2073 68.8833C33.9026 68.5822 33.7248 68.1807 33.6994 67.7541C33.674 67.7541 33.6486 67.7541 33.6486 67.7541C32.6837 67.7541 31.9219 66.9762 31.9219 66.0477C31.9219 65.1192 32.6583 64.3915 33.5724 64.3413C33.2931 63.7139 33.4201 62.9611 33.9533 62.4592C34.2835 62.133 34.7151 61.9573 35.1722 61.9573C35.6293 61.9573 36.061 62.133 36.3911 62.4592C36.5689 62.6349 36.7212 62.8607 36.7974 63.0866C37.4576 62.7102 38.2956 62.8105 38.8797 63.3626C39.5653 64.0401 39.5653 65.1192 38.8797 65.7716L38.8543 65.7967L38.8797 65.8218C39.5653 66.4994 39.5653 67.5784 38.8797 68.2309C38.3464 68.7578 37.5592 68.8833 36.899 68.5571C36.8228 68.6575 36.7466 68.7578 36.6704 68.8331C36.3149 69.2095 35.8832 69.3852 35.4262 69.3852ZM33.9533 67.2271C34.0041 67.2271 34.0803 67.2522 34.1311 67.3024C34.1819 67.3526 34.2327 67.4529 34.2073 67.5282C34.1565 67.9046 34.2835 68.281 34.5628 68.5571C34.7913 68.7829 35.096 68.9084 35.4262 68.9084C35.7563 68.9084 36.061 68.7829 36.2895 68.5571C36.3911 68.4567 36.4927 68.3312 36.5435 68.1807C36.5689 68.1054 36.645 68.0552 36.6958 68.0301C36.772 68.005 36.8482 68.0301 36.899 68.0552C37.3815 68.4065 38.0417 68.3312 38.4734 67.9297C38.9558 67.4529 38.9558 66.7001 38.4734 66.2233C38.3972 66.148 38.3464 66.0979 38.2702 66.0477C38.194 65.9975 38.1433 65.9222 38.1433 65.8218C38.1433 65.7465 38.194 65.6462 38.2702 65.596C38.3464 65.5458 38.4226 65.4956 38.4734 65.4203C38.9558 64.9435 38.9558 64.1907 38.4734 63.7139C37.9909 63.2371 37.2545 63.2371 36.772 63.6888C36.6958 63.7641 36.5943 63.7641 36.5181 63.739C36.4165 63.7139 36.3657 63.6135 36.3657 63.5383C36.3403 63.2622 36.2134 63.0113 36.0102 62.8105C35.7817 62.5847 35.4769 62.4592 35.1468 62.4592C34.8167 62.4592 34.512 62.5847 34.2835 62.8105C33.8264 63.2622 33.801 63.99 34.2327 64.4667C34.3089 64.542 34.3089 64.6675 34.2581 64.7679C34.2073 64.8683 34.0803 64.8933 33.9787 64.8683C33.8772 64.8432 33.7502 64.8181 33.6232 64.8181C32.9376 64.8181 32.4043 65.3701 32.4043 66.0226C32.4043 66.7001 32.963 67.2271 33.6232 67.2271C33.7248 67.2271 33.801 67.2271 33.8772 67.202C33.928 67.2271 33.928 67.2271 33.9533 67.2271Z" fill="#2E1E00"/>
</g>
<defs>
<clipPath id="clip0">
<rect width="66.8354" height="80" fill="white"/>
</clipPath>
</defs>
</svg>
