<svg width="414" height="847" viewBox="0 0 414 847" fill="none" xmlns="http://www.w3.org/2000/svg">
<path d="M275.801 5.28281L93.7304 10.3299C46.1587 11.6487 3.86128 40.9551 -14.085 85.0317L-63.7116 206.916C-69.3841 220.848 -72.3866 235.722 -72.5627 250.763L-77.6095 681.789C-78.538 761.095 -3.64695 819.472 73.0335 799.214L192.529 767.644C235.897 756.187 269.255 721.498 279.007 677.714L396.256 151.326C413.249 75.0334 353.933 3.11692 275.801 5.28281Z" fill="#FFF5CF"/>
<path d="M-52.223 254.243C-47.4842 209.308 -17.9067 170.845 24.3037 154.725L287.729 54.1244C360.077 26.4951 439.263 73.6149 449.49 150.381L496 499.5V763.248C496 808.68 458.21 844.994 412.814 843.184L-1.58117 826.666C-45.5262 824.914 -79.8164 788.018 -78.3502 744.062L-66.5399 390L-52.223 254.243Z" fill="#FDEAA7"/>
</svg>
