<svg width="414" height="889" viewBox="0 0 414 889" fill="none" xmlns="http://www.w3.org/2000/svg">
    <path d="M374.093 375.322L284.471 567.858C277.354 583.145 278.782 601.046 288.232 615.012L458.813 867.13C480.771 899.583 530.263 893.475 543.671 856.656L684.466 470.021C694.142 443.452 678.869 414.317 651.514 407.16L429.759 349.141C407.315 343.269 383.883 354.289 374.093 375.322Z" fill="#FFFAEA" />
    <path d="M161.077 186.507L59.0132 384.002C53.9128 393.871 45.5471 401.666 35.3425 406.056L-25.5524 432.258C-58.3549 446.372 -94.5344 421.002 -92.4415 385.353L-72.4888 45.4923C-70.1964 6.44503 -24.6675 -13.6133 5.69275 11.0484L148.699 127.213C166.349 141.55 171.517 166.305 161.077 186.507Z" fill="#FFFAEA" />
</svg>
    