<svg width="425" height="403" viewBox="0 0 425 403" fill="none" xmlns="http://www.w3.org/2000/svg">
<path d="M352.655 187.356C352.514 187.356 352.43 187.199 352.507 187.081C366.602 165.514 372.78 139.716 369.981 114.092C367.17 88.3584 355.48 64.412 336.925 46.3764C318.371 28.3407 294.113 17.3449 268.329 15.2831C256.476 14.3351 244.641 15.3028 233.254 18.0688C210.354 23.6318 184.181 20.2588 162.948 10.0356C150.444 4.01525 136.838 0.626515 122.973 0.0789484C109.108 -0.468618 95.2782 1.83673 82.3389 6.85229C69.3995 11.8678 57.6259 19.4871 47.7465 29.2386C37.867 38.9901 30.0917 50.6664 24.9015 63.5455C19.7113 76.4246 17.2166 90.2325 17.5717 104.115C17.9268 117.998 21.1243 131.66 26.9661 144.256C35.7232 163.138 33.7121 188.765 21.4324 205.571C19.6702 207.983 18.0025 210.469 16.4344 213.025C7.59474 227.432 2.1521 243.666 0.520032 260.493C-1.11203 277.321 1.10942 294.299 7.01547 310.139C12.9215 325.978 22.357 340.262 34.6049 351.906C46.8529 363.549 61.5913 372.246 77.7005 377.335C93.8097 382.424 110.866 383.773 127.574 381.277C144.282 378.782 160.201 372.508 174.124 362.933C190.032 351.991 220.263 355.04 233.66 368.944C234.987 370.322 236.352 371.667 237.753 372.978C251.508 385.852 268.303 395.021 286.566 399.626C304.828 404.231 323.959 404.12 342.167 399.305C360.375 394.49 377.064 385.129 390.67 372.096C404.276 359.064 414.353 342.789 419.958 324.795C425.564 306.801 426.513 287.677 422.717 269.215C418.921 250.754 410.505 233.56 398.257 219.242C386.016 204.933 370.347 193.966 352.717 187.367C352.698 187.36 352.677 187.356 352.655 187.356Z" fill="#FFF7D9"/>
</svg>
