<svg width="90" height="80" viewBox="0 0 90 80" fill="none" xmlns="http://www.w3.org/2000/svg">
<g clip-path="url(#clip0)">
<path d="M79.8342 0.287781H12.5742V60.7482H79.8342V0.287781Z" fill="#ADF0E7"/>
<path d="M79.8335 61.036H12.5736C12.4005 61.036 12.2852 60.9209 12.2852 60.7482V0.28777C12.2852 0.115108 12.4005 0 12.5736 0H79.8335C80.0066 0 80.1219 0.115108 80.1219 0.28777V60.7482C80.1219 60.8921 79.9777 61.036 79.8335 61.036ZM12.862 60.4604H79.5451V0.57554H12.862V60.4604Z" fill="black"/>
<path d="M22.987 39.5108L30.2552 37.9568V7.88489H72.8551V22.7338V25.295V27.5683C72.8551 27.5683 74.3837 27.6834 75.1048 28.0575C78.0179 29.6115 77.0084 32.5755 77.0084 32.5755C77.0084 32.5755 78.7101 31.1655 80.3829 32.3453C82.0558 33.5252 81.9404 35.5683 81.9404 35.5683C81.9404 35.5683 84.2478 35.1655 85.661 38.2446C85.661 38.2446 87.3339 37.2662 88.0261 38.7338C88.7183 40.2014 87.6511 41.4964 86.3244 42.0719C86.3244 42.0719 89.2952 42.3597 88.5741 45.1511C88.5741 45.1511 88.0549 46.6475 87.3627 47.3381C87.3627 47.3381 89.8143 47.5683 89.4105 49.6978C89.0067 51.7985 85.7764 52.0575 85.7764 52.0575C85.7764 52.0575 87.7377 54.7338 84.565 55.7985C84.565 55.7985 87.4492 57.4676 86.1225 59.2518C84.7669 61.036 81.7673 59.0216 81.7673 59.0216C81.7673 59.0216 78.8831 60.8633 78.3928 56.777C78.3928 56.777 77.1237 57.4676 75.249 56.777C75.249 56.777 77.1237 58.8777 74.528 59.5683C74.528 59.5683 73.2589 59.9424 72.0475 59.0791C72.0475 59.0791 72.4225 60.8345 70.6919 61.5252C70.6919 61.5252 73.9223 62.5324 73.2589 64.777C72.5955 67.0216 69.7978 65.669 69.7978 65.669C69.7978 65.669 70.6631 67.8561 68.4999 68.0288C66.5098 68.2014 66.2214 66.0719 66.2214 66.0719C66.2214 66.0719 65.2119 67.3381 63.366 66.187C63.366 66.187 63.8275 68.0575 61.8086 68.2878C61.8086 68.2878 60.9433 68.6618 59.5589 66.9065C59.5589 66.9065 59.8761 68.6331 58.5494 69.3525C57.7995 69.7554 56.8765 69.6978 56.242 69.1511C55.8094 68.777 55.4344 68.1151 55.5498 66.964C55.5498 66.964 51.8292 68.518 52.2906 62.9928C52.2906 62.9928 51.1369 63.3957 50.0121 61.8129C50.0121 61.8129 51.1658 64.6619 47.9931 64.5467C47.9931 64.5467 48.6854 66.9065 45.9454 66.3021C45.9454 66.3021 46.1761 69.3525 43.2053 68.3741C43.2053 68.3741 43.0323 70.7626 40.7538 68.8921C40.7538 68.8921 39.7443 70.5899 37.8407 69.2662C37.8407 69.2662 36.7735 72.4029 34.7546 69.4676C34.7546 69.4676 32.9375 71.0216 31.6108 69.3237C31.2358 68.8345 30.7455 68.4604 30.1687 68.259C29.563 68.0575 28.9285 68.0575 28.8131 68.9496C28.3228 72.1726 25.352 70.7338 25.352 70.7338C25.1213 73.928 21.1122 72.2302 21.1122 72.2302C20.0739 73.9856 18.2569 73.2086 18.2569 73.2086C17.7665 77.2662 14.8823 75.4532 14.8823 75.4532C14.8823 75.4532 11.8827 77.4964 10.5272 75.6834C9.17158 73.8993 12.0846 72.2302 12.0846 72.2302C8.912 71.1654 10.8733 68.4892 10.8733 68.4892C10.8733 68.4892 7.78715 68.6618 7.38336 66.5324C6.97957 64.4316 9.28695 63.7698 9.28695 63.7698C9.14274 63.6259 8.96968 63.4532 8.79663 63.2806C7.15263 61.669 8.01789 58.8777 10.2676 58.5036C10.2964 58.5036 10.2964 58.5036 10.2964 58.5036C8.94084 57.928 7.90252 56.6331 8.59474 55.1655C9.28695 53.6978 10.9598 54.6762 10.9598 54.6762C12.3442 51.5971 14.6804 52 14.6804 52C14.6804 52 14.5651 49.9568 16.2379 48.777C17.9108 47.5971 19.6124 49.0072 19.6124 49.0072C19.6124 49.0072 18.603 46.0432 21.516 44.4892L22.987 39.5108Z" fill="#FEFFFA"/>
<path d="M12.0276 76.6619C11.3642 76.6619 10.7297 76.4316 10.2394 75.7985C9.8933 75.3093 9.74909 74.7914 9.86446 74.2734C10.0375 73.3813 10.8739 72.6331 11.3931 72.2302C10.672 71.8849 10.2106 71.4244 10.0087 70.7914C9.74909 69.9856 10.0375 69.1798 10.2971 68.6906C9.3453 68.6331 7.35519 68.3165 7.00908 66.5036C6.69181 64.9209 7.78782 63.9712 8.68193 63.5683C8.62424 63.5108 8.56656 63.4532 8.50887 63.3957C7.67245 62.5611 7.35519 61.3525 7.73013 60.259C8.01856 59.3669 8.62424 58.6762 9.46066 58.3309C8.85498 57.928 8.3935 57.4101 8.16277 56.8345C7.93203 56.2302 7.96087 55.5971 8.24929 54.964C8.48003 54.5036 8.79729 54.187 9.22993 54.0719C9.80677 53.8993 10.3836 54.0719 10.7297 54.2158C11.8834 51.8849 13.5851 51.6259 14.2773 51.6259C14.3062 50.964 14.5657 49.4676 15.9502 48.4892C17.1615 47.6547 18.3729 48 19.094 48.3741C18.9786 47.3669 19.0651 45.4388 21.1706 44.259L22.7281 39.3957C22.7569 39.3093 22.8434 39.223 22.93 39.1942L29.9675 37.6978V7.88488C29.9675 7.71221 30.0828 7.59711 30.2559 7.59711H72.8558C73.0288 7.59711 73.1442 7.71221 73.1442 7.88488V27.3093C73.6345 27.3669 74.6728 27.5108 75.2497 27.7985C77.4705 28.9784 77.5571 30.9352 77.4417 31.9712C78.1339 31.6259 79.3741 31.2518 80.5855 32.0863C81.9699 33.0647 82.2007 34.5611 82.2583 35.223C82.9794 35.223 84.6522 35.482 85.8059 37.8129C86.152 37.669 86.7577 37.4964 87.3057 37.669C87.7383 37.8129 88.0556 38.1007 88.2863 38.5611C88.5748 39.1655 88.6036 39.8273 88.3729 40.4316C88.1421 41.0072 87.7095 41.5252 87.1038 41.928C87.5653 42.1007 88.1421 42.3885 88.5459 42.9352C88.9786 43.5396 89.0651 44.2878 88.8344 45.1798C88.8055 45.2662 88.4306 46.3309 87.8537 47.1079C88.2863 47.223 88.9209 47.482 89.3247 48.0288C89.6708 48.4892 89.7861 49.0647 89.6419 49.7266C89.2958 51.5396 87.1615 52.0863 86.2097 52.259C86.4693 52.7482 86.7866 53.5827 86.527 54.4173C86.3251 55.0216 85.8636 55.5108 85.1426 55.8561C85.6906 56.259 86.4981 56.9784 86.6712 57.8993C86.7866 58.446 86.6423 58.964 86.2962 59.4244C84.9695 61.1798 82.3737 59.741 81.7103 59.3381C81.3354 59.5396 80.3836 59.9424 79.4895 59.5108C78.7684 59.1655 78.3069 58.3885 78.105 57.1511C77.6724 57.295 76.8937 57.4388 75.8842 57.2374C76.0861 57.6403 76.2303 58.1295 76.0861 58.6475C75.913 59.223 75.3939 59.6259 74.5575 59.8273C74.4998 59.8273 73.4615 60.1439 72.3366 59.5971C72.3078 60.2014 72.077 60.9496 71.356 61.4676C72.5385 62.0144 74.0095 63.1655 73.5191 64.8345C73.3461 65.4676 72.9711 65.8993 72.452 66.1583C71.7021 66.5036 70.7791 66.3021 70.2023 66.1295C70.26 66.5324 70.2888 67.0791 70.0004 67.5396C69.712 68 69.2217 68.259 68.5006 68.3165C67.0297 68.4316 66.3086 67.4244 66.0202 66.5899C65.5875 66.8777 64.78 67.1942 63.6551 66.705C63.6551 67.0216 63.5686 67.4244 63.309 67.7985C62.9918 68.2302 62.5014 68.518 61.8381 68.6043C61.6362 68.6619 60.9151 68.777 59.848 67.741C59.7903 68.3741 59.5307 69.1798 58.6654 69.6691C57.8002 70.1295 56.733 70.0432 56.0408 69.4388C55.637 69.0935 55.2044 68.4892 55.2332 67.4532C54.714 67.5683 53.8488 67.6547 53.1277 67.1367C52.2625 66.5324 51.8875 65.2662 52.0029 63.4244C51.6568 63.4244 51.1088 63.3381 50.5319 62.8777C50.5608 63.2806 50.4742 63.741 50.2147 64.1439C49.8686 64.6619 49.234 64.9209 48.3688 64.9496C48.4264 65.3237 48.3976 65.928 47.9938 66.3597C47.6189 66.7338 47.042 66.8777 46.2633 66.7626C46.2344 67.2518 46.0902 68.1151 45.4557 68.6043C44.9654 68.9784 44.302 69.0647 43.4656 68.8633C43.3791 69.2086 43.1772 69.7266 42.6869 69.928C42.1965 70.1295 41.5909 69.9568 40.841 69.4101C40.6391 69.6691 40.2353 70.0144 39.6873 70.1295C39.1681 70.2446 38.5913 70.1295 38.0144 69.7842C37.8125 70.2446 37.3511 70.9928 36.6012 71.0791C35.9955 71.1655 35.3609 70.7914 34.7264 69.9568C34.3803 70.187 33.6881 70.5611 32.9382 70.4748C32.3614 70.4173 31.8422 70.1295 31.4096 69.5827C31.0346 69.1223 30.602 68.777 30.0828 68.6043C29.8521 68.518 29.5348 68.4604 29.3618 68.5755C29.2464 68.6619 29.1599 68.8345 29.1022 69.0647C28.958 70.1007 28.5253 70.8201 27.862 71.1655C27.0544 71.5971 26.1314 71.3669 25.6123 71.1942C25.4969 71.8849 25.1797 72.3741 24.6605 72.6906C23.5356 73.3813 21.8628 72.8633 21.2571 72.6331C20.4784 73.7842 19.267 73.8129 18.5171 73.6403C18.3152 74.8777 17.8537 75.6547 17.1327 76C16.2674 76.4029 15.2868 76 14.9118 75.8273C14.3927 76 13.1813 76.6619 12.0276 76.6619ZM10.7874 68.1726C10.9028 68.1726 10.9893 68.2302 11.047 68.3165C11.1047 68.4029 11.1047 68.5468 11.0181 68.6331C11.0181 68.6331 10.2394 69.7266 10.5567 70.6763C10.7297 71.223 11.2489 71.6547 12.1141 71.9424C12.2295 71.9712 12.2872 72.0863 12.316 72.1727C12.316 72.2878 12.2584 72.4029 12.1718 72.4604C12.143 72.4604 10.672 73.3525 10.4413 74.4173C10.3548 74.7914 10.4413 75.1367 10.7009 75.482C11.8546 77.036 14.6523 75.1942 14.6811 75.1655C14.7676 75.1079 14.9118 75.1079 14.9984 75.1655C14.9984 75.1655 16.0078 75.7986 16.8154 75.3957C17.4211 75.1079 17.7961 74.3597 17.9403 73.1223C17.9403 73.036 17.998 72.9496 18.0845 72.9209C18.171 72.8921 18.2575 72.8633 18.3441 72.9209C18.4017 72.9496 19.9592 73.5827 20.8533 72.0863C20.9399 71.9712 21.0841 71.9137 21.2283 71.9712C21.2571 71.9712 23.2472 72.8057 24.3432 72.1439C24.7759 71.8849 25.0066 71.4244 25.0643 70.7338C25.0643 70.6475 25.122 70.5611 25.2085 70.5036C25.295 70.446 25.3815 70.446 25.4681 70.5036C25.4681 70.5036 26.6794 71.0791 27.5736 70.6187C28.0639 70.3597 28.3811 69.7842 28.5253 68.9496C28.583 68.518 28.7561 68.2014 29.0445 68.0288C29.3618 67.8561 29.7656 67.8273 30.2559 68.0288C30.8616 68.2302 31.4096 68.6331 31.8422 69.2086C32.1595 69.6115 32.5344 69.8417 32.967 69.8993C33.8035 69.9856 34.5534 69.3237 34.5822 69.3237C34.6399 69.2662 34.7264 69.2374 34.8129 69.2662C34.8995 69.2662 34.9572 69.3237 35.0148 69.3813C35.5628 70.187 36.082 70.5611 36.5146 70.5036C37.0915 70.4173 37.4953 69.5827 37.6106 69.2662C37.6395 69.1798 37.6972 69.1223 37.7837 69.0935C37.8702 69.0647 37.9567 69.0935 38.0433 69.1223C38.5913 69.4964 39.1104 69.6403 39.5719 69.5539C40.2064 69.4101 40.5525 68.8633 40.5525 68.8345C40.5814 68.7482 40.6679 68.7194 40.7544 68.6906C40.841 68.6906 40.9275 68.6906 40.9852 68.7482C41.6197 69.2662 42.1389 69.4964 42.4561 69.3525C42.8022 69.2086 42.9176 68.6331 42.9464 68.4029C42.9464 68.3165 43.0041 68.2302 43.0618 68.1726C43.1483 68.1151 43.2349 68.1151 43.3214 68.1439C44.1001 68.4029 44.7058 68.3741 45.1096 68.0863C45.773 67.5683 45.6864 66.3885 45.6864 66.3885C45.6864 66.3021 45.7153 66.2158 45.773 66.1583C45.8307 66.1007 45.946 66.0719 46.0326 66.1007C46.5517 66.2158 47.2439 66.2734 47.59 65.928C47.965 65.5252 47.7631 64.7194 47.7631 64.7194C47.7342 64.6331 47.7631 64.5467 47.8208 64.4604C47.8784 64.3741 47.965 64.3453 48.0515 64.3453C48.9168 64.3741 49.4936 64.2014 49.7532 63.7985C50.2147 63.1367 49.782 62.0432 49.782 62.0144C49.7243 61.8705 49.782 61.7266 49.8974 61.6691C50.0128 61.6115 50.1858 61.6403 50.2724 61.7554C51.253 63.1367 52.1759 62.8489 52.2336 62.8201C52.3201 62.7914 52.4355 62.8201 52.4932 62.8777C52.5797 62.9352 52.6086 63.0216 52.6086 63.1367C52.4644 64.9496 52.7528 66.187 53.4738 66.705C54.2814 67.3093 55.4351 66.8489 55.4639 66.8489C55.5505 66.8201 55.6658 66.8201 55.7524 66.8777C55.8389 66.9352 55.8677 67.0504 55.8677 67.1367C55.7812 68 55.9543 68.6331 56.4446 69.0647C56.9926 69.5252 57.7713 69.5827 58.4347 69.2374C59.5595 68.6331 59.3 67.1367 59.3 67.0791C59.2711 66.9352 59.3576 66.8201 59.473 66.7626C59.5884 66.705 59.7326 66.7338 59.8191 66.8489C61.0016 68.3453 61.7227 68.1439 61.7227 68.1439C61.7515 68.1439 61.7804 68.1151 61.7804 68.1151C62.2995 68.0575 62.6745 67.8561 62.8764 67.5396C63.2225 67.0503 63.0783 66.3597 63.0783 66.3309C63.0494 66.2158 63.1071 66.1007 63.1936 66.0432C63.2802 65.9856 63.4244 65.9568 63.5109 66.0432C65.0972 67.0216 65.9625 66.0144 65.9913 65.9856C66.0779 65.8993 66.1932 65.8705 66.2798 65.8993C66.3951 65.928 66.4817 66.0144 66.4817 66.1295C66.4817 66.2158 66.7701 67.9712 68.4429 67.8273C68.9621 67.7985 69.3082 67.6259 69.5101 67.3093C69.8562 66.7338 69.5101 65.8705 69.5101 65.8417C69.4524 65.7266 69.4812 65.6115 69.5678 65.5252C69.6543 65.4388 69.7697 65.4101 69.885 65.4676C69.885 65.4676 71.2695 66.1007 72.1924 65.6978C72.5674 65.5252 72.7981 65.2374 72.9423 64.7482C73.5191 62.8201 70.6061 61.8705 70.5772 61.8417C70.4619 61.8129 70.3754 61.6978 70.3754 61.5827C70.3754 61.4676 70.433 61.3525 70.5484 61.295C72.0194 60.7194 71.7309 59.2518 71.7309 59.1942C71.7021 59.0791 71.7598 58.964 71.8463 58.9065C71.9328 58.8489 72.077 58.8489 72.1636 58.9065C73.2596 59.6834 74.3844 59.3669 74.4133 59.3669C75.0766 59.1942 75.4516 58.9352 75.5669 58.5611C75.74 58.0144 75.2208 57.2662 75.0189 57.036C74.9324 56.9496 74.9324 56.8057 74.9901 56.6906C75.0766 56.5755 75.192 56.5468 75.3362 56.5755C77.0379 57.2086 78.1916 56.6043 78.2493 56.6043C78.3358 56.5467 78.4223 56.5467 78.5089 56.6043C78.5954 56.6619 78.6531 56.7194 78.6531 56.8345C78.7973 58.0432 79.1722 58.8201 79.7779 59.1079C80.5855 59.482 81.595 58.8777 81.595 58.8777C81.6815 58.8201 81.8257 58.8201 81.9122 58.8777C81.9411 58.9065 84.7099 60.7482 85.8924 59.1942C86.152 58.8489 86.2386 58.5036 86.152 58.1295C85.9213 57.0647 84.4215 56.1726 84.4215 56.1726C84.335 56.1151 84.2773 56 84.2773 55.8849C84.2773 55.7698 84.3638 55.6834 84.4792 55.6547C85.3156 55.3669 85.8348 54.9352 86.0367 54.3885C86.3539 53.4388 85.5752 52.3741 85.5752 52.3453C85.5175 52.259 85.5175 52.1439 85.5463 52.0575C85.604 51.9712 85.6906 51.9137 85.7771 51.8849C85.8059 51.8849 88.7767 51.6259 89.1516 49.7554C89.2381 49.2662 89.1805 48.8345 88.9209 48.518C88.4306 47.8561 87.3634 47.741 87.3634 47.741C87.248 47.741 87.1615 47.6547 87.1327 47.5396C87.1038 47.4244 87.1327 47.3093 87.1903 47.2518C87.8249 46.6187 88.344 45.1798 88.344 45.1511C88.5171 44.4316 88.4594 43.8561 88.1421 43.3957C87.5653 42.5899 86.3539 42.446 86.3539 42.446C86.2097 42.446 86.1232 42.3309 86.0943 42.2158C86.0655 42.0719 86.152 41.9568 86.2674 41.8993C87.0461 41.5539 87.6807 41.0072 87.9114 40.3741C88.0844 39.9137 88.0556 39.4244 87.8249 38.964C87.6807 38.6475 87.4788 38.446 87.1903 38.3597C86.5847 38.187 85.8636 38.5899 85.8636 38.5899C85.8059 38.6187 85.7194 38.6475 85.6329 38.6187C85.5463 38.5899 85.4887 38.5324 85.4598 38.4748C84.1908 35.6547 82.143 35.9424 82.0564 35.9712C81.9699 36 81.8834 35.9712 81.8257 35.9137C81.768 35.8561 81.7103 35.7698 81.7392 35.6834C81.7392 35.6547 81.8257 33.7842 80.3259 32.7194C78.8549 31.6834 77.3552 32.8921 77.2975 32.9496C77.2109 33.036 77.0667 33.036 76.9514 32.9784C76.836 32.8921 76.8072 32.777 76.836 32.6619C76.8648 32.5467 77.7301 29.928 75.0766 28.4892C74.5575 28.2014 73.3461 28.0575 72.9423 28.0288C72.7981 28.0288 72.6827 27.8849 72.6827 27.741V8.17265H30.5443V37.9568C30.5443 38.1007 30.4578 38.2158 30.3136 38.2446L23.2184 39.7698L21.6897 44.5755C21.6609 44.6331 21.6032 44.7194 21.5455 44.7482C18.8921 46.187 19.7573 48.8057 19.7862 48.9209C19.815 49.036 19.7862 49.1798 19.6708 49.2374C19.5554 49.3237 19.4112 49.295 19.3247 49.2086C19.267 49.1511 17.7672 47.9424 16.2963 48.9784C14.7965 50.0432 14.883 51.9137 14.883 51.9424C14.883 52.0288 14.8542 52.1151 14.7965 52.1726C14.7388 52.2302 14.6523 52.259 14.5657 52.2302C14.4792 52.2302 12.4314 51.9137 11.1624 54.7338C11.1335 54.8201 11.0758 54.8777 10.9893 54.8777C10.9028 54.9065 10.8162 54.9065 10.7586 54.8489C10.7586 54.8489 10.0375 54.4173 9.43182 54.6187C9.17224 54.705 8.97035 54.9065 8.79729 55.223C8.56656 55.7122 8.53772 56.1726 8.71077 56.6331C8.94151 57.2662 9.54719 57.8417 10.3548 58.1583C10.4701 58.2158 10.5567 58.3309 10.5278 58.446C10.499 58.5611 10.4125 58.6762 10.2971 58.705H10.2682C9.31645 58.8777 8.5954 59.5108 8.30698 60.4316C8.01856 61.3525 8.24929 62.3309 8.94151 62.9928C9.11456 63.1655 9.28761 63.3381 9.43182 63.482C9.51835 63.5396 9.54719 63.6547 9.51835 63.7698C9.48951 63.8561 9.40298 63.9424 9.31645 63.9712C9.22993 64 7.26866 64.5755 7.61476 66.4173C7.93203 68.2878 10.7297 68.1726 10.7874 68.1726Z" fill="black"/>
<path d="M22.9869 16.9784H19.5547V26.3021H22.9869V16.9784Z" fill="#ADF0E7"/>
<path d="M22.9863 26.6187H19.554C19.381 26.6187 19.2656 26.5036 19.2656 26.331V16.9784C19.2656 16.8058 19.381 16.6907 19.554 16.6907H22.9863C23.1593 16.6907 23.2747 16.8058 23.2747 16.9784V26.3022C23.2747 26.4748 23.1593 26.6187 22.9863 26.6187ZM19.8425 26.0432H22.6978V17.2662H19.8425V26.0432Z" fill="black"/>
<path d="M84.3625 17.9281C84.622 17.5252 84.7951 17.036 84.7951 16.5468C84.7951 15.1367 83.6414 13.9856 82.2281 13.9856C81.6801 13.9856 81.1898 14.1583 80.7572 14.446C80.3246 13.9856 79.7189 13.6691 79.0267 13.6691C77.7288 13.6691 76.6904 14.705 76.6904 16C76.6904 16.6619 76.9789 17.2662 77.4403 17.6978C76.7193 18.1583 76.2578 18.9353 76.2578 19.8561C76.2578 21.2662 77.4115 22.4173 78.8248 22.4173C79.7766 22.4173 80.613 21.8993 81.0456 21.1223C81.3917 22.1295 82.3435 22.8777 83.4684 22.8777C84.8816 22.8777 86.0353 21.7266 86.0353 20.3165C86.0353 19.223 85.3431 18.3022 84.3625 17.9281Z" fill="#FEFFFA"/>
<path d="M83.4716 23.1655C82.4333 23.1655 81.4815 22.5899 80.9912 21.6978C80.4432 22.3309 79.6645 22.705 78.828 22.705C77.2706 22.705 75.9727 21.4388 75.9727 19.8561C75.9727 18.9928 76.3476 18.2158 77.011 17.6691C76.636 17.2086 76.4053 16.6331 76.4053 16C76.4053 14.5611 77.5878 13.3813 79.0299 13.3813C79.6933 13.3813 80.3278 13.6403 80.7893 14.0719C81.2219 13.8129 81.7122 13.6978 82.2026 13.6978C83.76 13.6978 85.0579 14.964 85.0579 16.5468C85.0579 16.9784 84.9426 17.4101 84.7695 17.8129C85.6925 18.3021 86.2982 19.2806 86.2982 20.3165C86.327 21.8705 85.0291 23.1655 83.4716 23.1655ZM81.0489 20.8345H81.0777C81.1931 20.8345 81.2796 20.9209 81.3373 21.036C81.6546 21.9568 82.5198 22.5899 83.5005 22.5899C84.7407 22.5899 85.779 21.5827 85.779 20.3453C85.779 19.4245 85.2021 18.5611 84.308 18.2446C84.2215 18.2158 84.1638 18.1583 84.135 18.0719C84.1062 17.9856 84.1061 17.8993 84.1638 17.8129C84.3946 17.4388 84.5388 17.0072 84.5388 16.5755C84.5388 15.3381 83.5293 14.3022 82.2603 14.3022C81.7988 14.3022 81.3373 14.446 80.9624 14.705C80.847 14.7914 80.6739 14.7626 80.5874 14.6763C80.2125 14.2446 79.6356 14.0144 79.0876 14.0144C77.9628 14.0144 77.0398 14.9352 77.0398 16.0575C77.0398 16.6331 77.2706 17.1511 77.6743 17.5539C77.732 17.6115 77.7609 17.6978 77.7609 17.7842C77.7609 17.8705 77.7032 17.9568 77.6167 18.0144C76.9533 18.446 76.5783 19.1367 76.5783 19.9137C76.5783 21.1511 77.5878 22.187 78.8569 22.187C79.6645 22.187 80.4144 21.7554 80.8181 21.036C80.847 20.8633 80.9335 20.8345 81.0489 20.8345Z" fill="black"/>
<path d="M30.3142 56.8057L22.9883 52.9208V8.11509L30.3142 4.97839V56.8057Z" fill="#ADF0E7"/>
<path d="M30.3135 57.0935C30.2559 57.0935 30.227 57.0935 30.1693 57.0647L22.8434 53.1798C22.7569 53.1223 22.6992 53.0359 22.6992 52.9208V8.11509C22.6992 7.99998 22.7569 7.88487 22.8723 7.85609L30.1982 4.7194C30.2847 4.69063 30.4001 4.69063 30.4578 4.74818C30.5443 4.80573 30.5731 4.89206 30.5731 4.9784V56.8345C30.5731 56.9496 30.5154 57.0359 30.4289 57.0935C30.4001 57.0935 30.3424 57.0935 30.3135 57.0935ZM23.2761 52.7482L30.0251 56.3453V5.41005L23.2761 8.28775V52.7482Z" fill="black"/>
<path d="M22.9869 35.1942H19.5547V44.518H22.9869V35.1942Z" fill="#ADF0E7"/>
<path d="M22.9863 44.8057H19.554C19.381 44.8057 19.2656 44.6906 19.2656 44.5179V35.1942C19.2656 35.0215 19.381 34.9064 19.554 34.9064H22.9863C23.1593 34.9064 23.2747 35.0215 23.2747 35.1942V44.5179C23.2747 44.6618 23.1593 44.8057 22.9863 44.8057ZM19.8425 44.2302H22.6978V35.482H19.8425V44.2302Z" fill="black"/>
<path d="M1.76069 41.669C1.70301 41.6978 1.47227 40.8633 1.44343 40.8057C0.895428 38.9928 3.37586 38.4748 4.41417 39.5971C4.44302 39.6259 4.64491 39.9424 4.73144 40.2014C4.78912 40.3741 4.99102 40.4892 5.19291 40.4604C5.65439 40.4316 6.1447 40.4604 6.51965 40.7194C7.67334 41.4388 6.92344 43.1942 5.82744 43.5395C5.33712 43.6834 4.78912 43.6834 4.29881 43.5395C4.29881 43.5395 4.09691 44 4.09691 44.0287C3.80849 44.6043 3.28933 45.0359 2.6548 45.1798C2.02027 45.3237 1.3569 45.151 0.866586 44.7194C0.376269 44.2877 0.0878474 43.6546 0.347427 43.0215C0.635849 42.4748 1.21269 42.0143 1.76069 41.669Z" fill="#FEFFFA"/>
<path d="M2.24909 45.554C1.70109 45.554 1.15309 45.3525 0.720457 44.9497C0.0570869 44.3741 -0.144808 43.5971 0.143613 42.9353C0.374351 42.4173 0.778141 41.9568 1.41267 41.554C1.35498 41.4101 1.2973 41.2086 1.21077 40.9209V40.8921C0.980036 40.0863 1.23962 39.3957 1.90299 38.9928C2.76825 38.5036 4.00847 38.6763 4.67184 39.3957C4.75836 39.482 4.96026 39.8561 5.04678 40.0863C5.07563 40.1439 5.13331 40.1727 5.21984 40.1727C5.82552 40.1151 6.34468 40.2302 6.74847 40.4604C7.26763 40.8058 7.52721 41.3525 7.44068 41.9856C7.32532 42.7914 6.71963 43.5684 5.99858 43.7986C5.56594 43.9425 5.04678 43.9425 4.55647 43.8561C4.52762 43.9425 4.46994 44.0288 4.41226 44.1439C4.06615 44.8345 3.46046 45.295 2.79709 45.4389C2.56636 45.554 2.3933 45.554 2.24909 45.554ZM1.96067 41.4676C1.98951 41.4964 1.98951 41.4964 2.01835 41.5252C2.10488 41.6691 2.0472 41.8417 1.90299 41.9281C1.26846 42.3022 0.835826 42.7338 0.633931 43.1655C0.345509 43.8274 0.89351 44.3741 1.06656 44.5468C1.4992 44.9209 2.0472 45.0648 2.5952 44.9497C3.11436 44.8345 3.54699 44.4604 3.83541 43.9425C3.86425 43.9137 3.97962 43.5971 4.03731 43.5108C4.03731 43.4532 4.06615 43.4245 4.09499 43.3957C4.18152 43.3094 4.29689 43.2806 4.41226 43.3094C4.84489 43.4532 5.36405 43.4532 5.76784 43.3094C6.287 43.1367 6.74847 42.5612 6.80616 41.9856C6.835 41.6979 6.80616 41.2662 6.37352 41.0072C6.0851 40.8345 5.71015 40.7482 5.21984 40.8058C4.90257 40.8345 4.58531 40.6619 4.46994 40.3453C4.38341 40.1151 4.2392 39.8561 4.18152 39.7986C3.66236 39.2518 2.71057 39.1943 2.13372 39.5108C1.81646 39.6835 1.4992 40.0288 1.70109 40.7482V40.8058C1.87414 41.2374 1.93183 41.4101 1.96067 41.4676Z" fill="black"/>
<path d="M52.118 75.2518C52.118 75.2518 52.2911 74.1871 51.6854 73.6403C50.7913 72.8345 49.3492 73.4389 49.1761 74.6187C49.1473 74.7626 49.1473 74.9353 49.1184 75.1367C49.1184 75.1367 47.4456 75.3957 46.9264 76.8633C46.5515 77.8705 47.0418 79.0504 48.0513 79.482C48.8012 79.7986 49.926 79.9425 50.9355 78.3022C50.9355 78.3022 54.31 79.5396 54.685 77.1799C55.1176 74.8202 52.118 75.2518 52.118 75.2518Z" fill="#FEFFFA"/>
<path d="M48.9733 80C48.5983 80 48.2522 79.9136 47.9638 79.7698C46.839 79.2805 46.2621 77.9568 46.6948 76.7769C47.1562 75.5108 48.3676 75.0503 48.8868 74.9064C48.8868 74.7913 48.9156 74.6762 48.9156 74.5899C49.0021 73.8993 49.4925 73.3525 50.127 73.1223C50.7615 72.8921 51.396 73.0359 51.8864 73.4676C52.3767 73.8993 52.4344 74.5611 52.4344 74.964C52.9824 74.9352 53.9918 74.9928 54.5975 75.5971C55.0013 76 55.1455 76.5755 55.0013 77.2662C54.8859 77.8993 54.5975 78.3597 54.1072 78.6474C53.1266 79.223 51.6556 78.8489 51.0788 78.6762C50.3866 79.6834 49.6655 80 48.9733 80ZM50.7327 73.5539C50.5885 73.5539 50.4442 73.5827 50.3289 73.6403C49.8674 73.8129 49.5501 74.187 49.4925 74.6475C49.4636 74.7913 49.4636 74.964 49.4636 75.1367C49.4636 75.2806 49.3482 75.3957 49.2329 75.4244C49.2329 75.4244 47.7331 75.6834 47.2716 76.9784C46.9543 77.8705 47.387 78.8777 48.2234 79.2518C49.204 79.6834 50.0405 79.3381 50.7327 78.187C50.7903 78.0719 50.9634 78.0144 51.0788 78.0719C51.1076 78.0719 52.8381 78.705 53.8188 78.1582C54.1649 77.9568 54.3668 77.6403 54.4533 77.1798C54.5398 76.6618 54.4533 76.2877 54.1937 76C53.588 75.3669 52.2036 75.5683 52.1748 75.5683C52.0882 75.5683 52.0017 75.5395 51.9152 75.482C51.8575 75.4244 51.8287 75.3093 51.8287 75.223C51.8287 75.1942 51.9729 74.3021 51.4826 73.8705C51.2807 73.669 51.0211 73.5539 50.7327 73.5539Z" fill="black"/>
<path d="M38.3877 16.7194C38.2435 16.7194 38.0993 16.6043 38.0993 16.4317C38.0993 15.1655 37.7243 14.2734 37.0609 13.7554C35.9649 12.9209 34.3209 13.3237 34.2921 13.3237C34.1479 13.3525 34.0037 13.295 33.946 13.1511C33.5999 12.2878 33.1096 11.7986 32.5615 11.6835C31.5521 11.482 30.5138 12.5468 30.5138 12.5468C30.3984 12.6619 30.2253 12.6619 30.11 12.5468C29.9946 12.4317 29.9946 12.259 30.11 12.1439C30.1676 12.0863 31.379 10.8777 32.6769 11.1079C33.398 11.2518 33.9748 11.7698 34.3786 12.6906C34.9266 12.6043 36.3399 12.4604 37.3782 13.2662C38.2146 13.8993 38.6473 14.9353 38.6473 16.4029C38.6761 16.5755 38.5607 16.6906 38.3877 16.7194Z" fill="black"/>
<path d="M36.0512 13.295C35.9647 13.295 35.8493 13.2374 35.7917 13.1511C35.7051 13.0072 35.7628 12.8346 35.8782 12.7482C38.9932 10.8202 37.7241 8.11515 37.6664 8.00004C37.6087 7.85615 37.6664 7.68349 37.8106 7.62594C37.9548 7.56838 38.1279 7.62594 38.1856 7.76982C38.7624 8.89212 39.0508 11.5108 36.1955 13.2662C36.1666 13.295 36.1089 13.295 36.0512 13.295Z" fill="black"/>
<path d="M30.3119 31.5971C30.1676 31.5971 30.0234 31.482 30.0234 31.3381C30.0234 31.1655 30.1388 31.0504 30.283 31.0216C31.8693 30.9065 32.8788 30.5324 33.2249 29.9281C33.4268 29.554 33.398 29.0648 33.1096 28.4892C32.8211 27.9137 32.7634 27.2518 32.9942 26.6475C33.1961 26.1007 33.5999 25.6691 34.119 25.4101C35.1285 24.9496 36.1091 25.2662 36.5129 25.4389C37.0032 25.036 37.234 24.6043 37.234 24.1727C37.2051 23.1367 35.9361 22.2734 35.9361 22.2446C35.8496 22.1871 35.7919 22.0719 35.8207 21.9856C35.8207 21.8705 35.9072 21.7842 35.9938 21.7554C36.5706 21.5252 36.8879 21.0935 36.9456 20.4604C36.9744 20.1151 36.8879 19.7698 36.686 19.5108C35.763 18.3885 33.5422 19.9424 33.5133 19.9424C33.4268 20 33.3114 20 33.2249 19.9712C33.1384 19.9137 33.0807 19.8273 33.0807 19.7122C33.0807 18.9928 32.9077 18.5036 32.5615 18.3022C31.9559 17.9568 30.8887 18.3885 30.5426 18.5899C30.3984 18.6763 30.2253 18.6187 30.1388 18.4748C30.0523 18.3309 30.11 18.1583 30.2542 18.0719C30.3119 18.0432 31.8405 17.2086 32.85 17.7842C33.2826 18.0432 33.5422 18.5036 33.6287 19.1942C34.4363 18.7338 36.1957 17.9281 37.1763 19.1367C37.4647 19.5108 37.6089 20 37.5801 20.4892C37.5224 21.1511 37.2051 21.6978 36.686 22.0432C37.1475 22.446 37.8685 23.223 37.8685 24.1439C37.8974 24.8345 37.5224 25.4676 36.8013 26.0144C36.7148 26.0719 36.5995 26.1007 36.4841 26.0432C36.4841 26.0432 35.4458 25.4964 34.4363 25.9281C34.0613 26.1007 33.7729 26.4173 33.6287 26.8201C33.4845 27.2518 33.5133 27.7698 33.7152 28.2014C34.0902 28.9496 34.119 29.6403 33.8306 30.1871C33.2826 30.9928 32.1289 31.4532 30.3119 31.5971Z" fill="black"/>
<path d="M34.0623 26.0719C33.9181 26.0719 33.8027 25.9568 33.7739 25.8129C33.6585 24.8345 33.2836 24.1726 32.7067 23.8273C31.7261 23.2517 30.4282 23.7122 30.4282 23.741C30.284 23.7985 30.1109 23.7122 30.0532 23.5683C29.9955 23.4244 30.0821 23.2517 30.2263 23.1942C30.284 23.1654 31.8126 22.6187 33.024 23.3381C33.7739 23.7697 34.2065 24.6043 34.3796 25.7553C34.4084 25.8992 34.293 26.0431 34.12 26.0719C34.0623 26.0719 34.0623 26.0719 34.0623 26.0719Z" fill="black"/>
<path d="M33.2266 38.7914C33.1112 38.7914 33.0247 38.7338 32.967 38.6187C32.9382 38.5612 32.3036 37.4101 30.3424 38.2159C30.1982 38.2734 30.0251 38.2159 29.9674 38.072C29.9097 37.9281 29.9674 37.7554 30.1116 37.6979C31.7845 37.0072 32.7074 37.554 33.1689 37.9856C34.0342 36.6043 35.3898 36.7482 35.8512 36.8633C36.1108 36.6331 36.803 36 36.9472 35.1367C37.0338 34.5612 36.8607 34.0144 36.4281 33.4389C35.2455 31.8561 33.0824 33.2374 32.9958 33.295C32.8805 33.3526 32.7651 33.3526 32.6497 33.2662C32.5632 33.1799 32.5055 33.0648 32.5632 32.9497C32.7363 32.518 32.7363 32.1727 32.6209 31.8849C32.419 31.4533 31.9575 31.2806 31.9287 31.2806C31.7845 31.2231 31.6979 31.0792 31.7556 30.9065C31.8133 30.7626 31.9575 30.6763 32.1306 30.7338C32.1594 30.7338 32.8516 30.9641 33.1401 31.6259C33.2554 31.8849 33.3131 32.1727 33.2843 32.4892C34.3226 32.0288 35.8801 31.7698 36.8895 33.0936C37.4087 33.7842 37.6106 34.5036 37.4952 35.2231C37.2933 36.5468 36.1108 37.3813 36.082 37.4101C35.9954 37.4677 35.9089 37.4677 35.8224 37.4389C35.7647 37.4101 34.2361 36.9209 33.4573 38.6187C33.4573 38.7338 33.342 38.7914 33.2266 38.7914Z" fill="black"/>
<path d="M30.3128 45.2662C30.284 45.2662 30.2551 45.2661 30.2263 45.2374C30.0821 45.1798 29.9955 45.0072 30.0532 44.8633C30.2551 44.2877 30.5724 43.9136 31.0339 43.7122C31.6107 43.482 32.2164 43.6259 32.476 43.7122C32.9086 43.4244 33.1393 43.1367 33.1682 42.7626C33.2547 42.0431 32.476 41.3237 32.476 41.2949C32.4183 41.2374 32.3894 41.151 32.3894 41.0647C32.3894 40.9784 32.4471 40.8921 32.5048 40.8345C32.9951 40.4892 33.2836 40.0863 33.3412 39.6834C33.4278 39.1079 33.024 38.6187 33.024 38.6187C32.9086 38.5036 32.9374 38.3309 33.0528 38.2158C33.1682 38.1007 33.3412 38.1295 33.4566 38.2446C33.4854 38.2733 34.0334 38.9064 33.9181 39.741C33.8604 40.2302 33.572 40.6906 33.1105 41.0935C33.3989 41.4388 33.8316 42.0719 33.745 42.7913C33.6873 43.3669 33.3124 43.8561 32.649 44.2302C32.5625 44.2877 32.476 44.2877 32.3894 44.2302C32.3894 44.2302 31.7838 43.9424 31.2646 44.1726C30.9762 44.2877 30.7454 44.5755 30.6012 44.9784C30.5435 45.1798 30.4282 45.2662 30.3128 45.2662Z" fill="black"/>
<path d="M43.7225 13.41C42.8284 13.41 41.9919 12.9784 41.4728 12.5755C40.5498 13.1223 39.7423 13.2374 39.0789 12.9496C37.9829 12.4892 37.6656 11.1079 37.6656 11.0503C37.6368 10.9064 37.7233 10.7338 37.8964 10.705C38.0406 10.6762 38.2136 10.7625 38.2425 10.9352C38.2425 10.9352 38.502 12.0863 39.3096 12.4316C39.8576 12.6618 40.5498 12.5179 41.3574 11.9712C41.4728 11.9136 41.617 11.9136 41.7035 12C41.7901 12.0863 43.6936 13.7841 45.3665 12.0863C47.0682 10.3884 44.9339 8.17261 44.8473 8.05751C44.732 7.9424 44.732 7.76974 44.8473 7.65463C44.9627 7.53952 45.1357 7.53952 45.2511 7.65463C46.1452 8.60427 47.4143 10.8201 45.7414 12.4892C45.1357 13.1798 44.4147 13.41 43.7225 13.41Z" fill="black"/>
<path d="M40.8675 23.1079C40.8098 23.1079 40.7521 23.0792 40.6945 23.0504C40.5791 22.9641 40.5502 22.7626 40.6368 22.6475C41.4155 21.6403 41.7328 20.8346 41.502 20.3453C41.2425 19.7698 40.2907 19.6835 40.2618 19.6835C40.1753 19.6835 40.0888 19.6259 40.0311 19.5396C39.9734 19.4533 39.9734 19.3669 40.0022 19.2806C40.0022 19.2806 40.406 18.3597 40.0888 17.6979C39.9157 17.3525 39.5696 17.1223 39.0216 17.0072C36.7431 16.518 36.1662 18.8489 36.1374 18.9353C36.1085 19.0792 35.9355 19.1943 35.7913 19.1367C35.6471 19.1079 35.5317 18.9353 35.5894 18.7914C35.5894 18.7626 36.3393 15.8274 39.1658 16.4317C39.8869 16.5756 40.3772 16.9209 40.6368 17.4101C40.954 18.0144 40.8098 18.7338 40.6945 19.1367C41.1271 19.223 41.7616 19.4533 42.05 20.0864C42.3673 20.8058 42.05 21.7842 41.1271 22.9928C41.0406 23.0504 40.954 23.1079 40.8675 23.1079Z" fill="black"/>
<path d="M38.9077 32.6907C38.7923 32.6907 38.7058 32.6331 38.6481 32.518C38.5904 32.3741 38.6481 32.2015 38.7923 32.1439C38.7923 32.1439 39.8595 31.6547 40.1767 30.7338C40.3498 30.2734 40.2921 29.7554 40.0325 29.2374C39.773 28.6907 39.398 28.3454 38.9365 28.2303C38.0424 28 37.1195 28.5756 37.0906 28.5756C36.9753 28.6331 36.831 28.6331 36.7445 28.5468C36.658 28.4605 36.6292 28.3166 36.6868 28.2015C37.4656 26.7626 36.4849 26.1295 36.3696 26.0432C36.2254 25.9569 36.1965 25.7842 36.283 25.6403C36.3696 25.4964 36.5426 25.4677 36.6868 25.554C36.6868 25.554 37.8982 26.3022 37.4944 27.7698C37.9271 27.6259 38.5039 27.5108 39.1096 27.6547C39.7441 27.8274 40.2344 28.259 40.5805 28.9497C40.9266 29.6403 40.9843 30.3022 40.7536 30.9065C40.3498 32.0576 39.1096 32.6044 39.0519 32.6331C38.9942 32.6907 38.9654 32.6907 38.9077 32.6907Z" fill="black"/>
<path d="M41.9647 20.6907C41.8205 20.6907 41.7051 20.5756 41.6763 20.4317C41.6474 20.2878 41.7628 20.1439 41.9359 20.1151C42.282 20.0576 43.2338 19.8274 43.4645 19.223C43.6376 18.7914 43.4357 18.1871 42.8588 17.4389C42.7723 17.3238 42.7723 17.2086 42.8588 17.0935C42.9454 16.9784 43.0607 16.9497 43.2049 17.0072C43.2049 17.0072 44.2144 17.3813 44.9066 17.0072C45.1662 16.8633 45.3681 16.6331 45.4835 16.2878C45.2239 16.1727 44.8489 15.9712 44.5605 15.5396C44.1279 14.9065 44.0414 14.0432 44.3009 12.9784C44.3298 12.8345 44.5028 12.7194 44.647 12.7482C44.7913 12.777 44.9066 12.9497 44.8778 13.0935C44.6759 14.0144 44.7336 14.705 45.0508 15.223C45.3681 15.7122 45.8873 15.8274 45.8873 15.8274C45.9738 15.8274 46.0315 15.8849 46.0603 15.9425C46.118 16 46.118 16.0863 46.118 16.1727C45.9738 16.8058 45.6854 17.2662 45.195 17.554C44.7336 17.813 44.2144 17.813 43.7818 17.7554C44.1567 18.4173 44.2433 18.9928 44.0414 19.482C43.6376 20.518 42.1089 20.7194 42.0512 20.7194C41.9647 20.6907 41.9647 20.6907 41.9647 20.6907Z" fill="black"/>
<path d="M42.919 28.7194C42.8613 28.7194 42.8036 28.7194 42.7748 28.6906C42.6305 28.6043 42.6017 28.4316 42.6882 28.2878C43.0632 27.6834 43.1785 27.1942 43.0055 26.8201C42.7459 26.2446 41.9383 26.1007 41.9383 26.1007C41.8518 26.0719 41.7653 26.0144 41.7364 25.928C41.7076 25.8417 41.7076 25.7554 41.7653 25.6691C41.8806 25.4676 41.9672 25.2374 41.996 25.0072C42.0825 24.4029 41.7941 23.7986 41.2461 23.3669C39.3714 21.8993 37.612 23.5396 37.5255 23.6259C37.4101 23.741 37.2371 23.741 37.1217 23.6259C37.0063 23.5108 37.0063 23.3381 37.1217 23.223C37.1505 23.1942 39.3137 21.1511 41.5922 22.9352C42.2844 23.482 42.6594 24.2878 42.5729 25.0935C42.544 25.295 42.5152 25.4676 42.4286 25.6403C42.8036 25.7554 43.3228 26.0432 43.5823 26.5899C43.8419 27.1367 43.7265 27.8273 43.2362 28.5755C43.092 28.6619 43.0055 28.7194 42.919 28.7194Z" fill="black"/>
<path d="M46.0052 16.4028C45.8033 16.4028 45.6879 16.3741 45.6879 16.3741C45.5437 16.3165 45.4572 16.1726 45.486 16.0287C45.5437 15.8848 45.6879 15.7985 45.8321 15.8273C45.8609 15.8273 46.1494 15.9136 46.4378 15.7122C46.7839 15.5107 47.0146 15.0503 47.13 14.3597C47.1588 14.2446 47.2165 14.1582 47.3319 14.1295C47.4473 14.1007 47.5626 14.1295 47.6203 14.2158C47.678 14.2733 48.9471 15.7122 50.3892 14.6474C50.793 14.3597 51.0525 13.9568 51.1102 13.5251C51.2544 12.7194 50.7353 12.0863 49.5816 11.6546C49.4662 11.6259 49.3797 11.5107 49.3797 11.3669C49.3797 11.2518 49.4662 11.1366 49.5816 11.1079C49.5816 11.1079 50.4757 10.8201 50.7641 10.0719C50.966 9.52514 50.8218 8.83449 50.3315 8.02873C50.245 7.88485 50.3026 7.71219 50.418 7.62586C50.5622 7.53953 50.7353 7.59708 50.8218 7.71219C51.4275 8.6906 51.6005 9.55391 51.3121 10.2733C51.1102 10.7913 50.7064 11.1366 50.3892 11.3669C51.7159 12.0575 51.7736 13.0647 51.6871 13.6115C51.6005 14.187 51.2544 14.705 50.7353 15.0791C49.4951 15.9712 48.2837 15.482 47.5626 14.9352C47.3896 15.5107 47.1012 15.9424 46.6974 16.1726C46.4666 16.3453 46.207 16.4028 46.0052 16.4028Z" fill="black"/>
<path d="M44.9666 27.8274C44.3609 27.8274 43.8129 27.7123 43.3803 27.4533C43.2361 27.367 43.2072 27.1943 43.2649 27.0504C43.3514 26.9065 43.5245 26.8778 43.6687 26.9353C44.5916 27.4821 46.4087 27.2519 47.5336 26.4461C48.1104 26.0432 48.7161 25.3526 48.5142 24.2878C48.3988 23.6547 48.1104 23.1943 47.7066 22.9641C46.9279 22.5037 45.8607 22.8778 45.8607 22.8778C45.7742 22.9065 45.6588 22.8778 45.5723 22.8202C45.4858 22.7339 45.4569 22.6475 45.4858 22.5324C45.7165 21.6691 45.6588 21.0072 45.2839 20.6044C44.6782 19.9137 43.3803 20.0864 43.3803 20.0864C43.2361 20.1152 43.063 20.0001 43.063 19.8274C43.0342 19.6835 43.1495 19.5108 43.3226 19.5108C43.3803 19.5108 44.9378 19.3094 45.7453 20.2303C46.178 20.7195 46.2933 21.3813 46.178 22.2159C46.6394 22.1296 47.3893 22.1008 48.0239 22.4749C48.6007 22.7914 48.9757 23.3957 49.1199 24.2015C49.3218 25.2662 48.8891 26.2447 47.9085 26.9353C47.0432 27.5108 45.9472 27.8274 44.9666 27.8274Z" fill="black"/>
<path d="M44.303 36.6331C43.6396 36.6331 43.0916 36.4892 43.0339 36.4604C42.8897 36.4029 42.8032 36.259 42.832 36.1151C42.8897 35.9712 43.0339 35.8849 43.1781 35.9137C43.207 35.9137 45.1971 36.4604 45.6297 35.4245C45.8028 34.964 45.8316 34.5611 45.6586 34.187C45.2836 33.3525 44.1876 32.9496 44.1876 32.9496C44.1011 32.9209 44.0146 32.8345 44.0146 32.7194C43.9857 32.6331 44.0434 32.518 44.1011 32.4604C44.3895 32.2302 44.7933 31.5971 44.7645 30.8489C44.7645 30.2734 44.476 29.7554 43.9569 29.3237C42.5724 28.1727 40.4093 29.3525 40.4093 29.3525C40.2651 29.4388 40.092 29.3813 40.0055 29.2374C39.919 29.0935 39.9767 28.9209 40.1209 28.8345C40.2362 28.777 42.6301 27.482 44.3318 28.8633C44.9952 29.3813 45.3413 30.0719 45.3413 30.8201C45.3413 31.5108 45.0817 32.1151 44.7645 32.5468C45.1971 32.777 45.8893 33.2086 46.1777 33.928C46.4085 34.446 46.4085 35.0216 46.1489 35.6259C45.8605 36.4316 45.024 36.6331 44.303 36.6331Z" fill="black"/>
<path d="M41.7917 38.9065C41.7052 38.9065 41.6475 38.8777 41.5898 38.8201C41.4745 38.705 41.5033 38.5324 41.6187 38.4173C41.6475 38.3885 43.5511 36.6331 42.5993 35.3957C41.6764 34.1583 40.3785 34.964 40.3208 34.9928C40.2054 35.0504 40.0612 35.0504 39.9747 34.964C39.8882 34.8777 39.8593 34.7338 39.917 34.6187C39.9458 34.5899 40.4938 33.5252 39.5997 32.9209C38.5614 32.2014 37.1482 33.7554 37.1193 33.7554C37.0039 33.8705 36.8309 33.8705 36.7155 33.7842C36.6002 33.6691 36.6001 33.4964 36.6867 33.3813C36.7444 33.295 38.446 31.4532 39.917 32.4604C40.638 32.9496 40.7534 33.6691 40.638 34.2446C41.3591 34.0432 42.3109 34.0719 43.0608 35.0791C44.301 36.7482 42.109 38.7914 41.9936 38.8777C41.9071 38.9065 41.8494 38.9065 41.7917 38.9065Z" fill="black"/>
<path d="M53.3273 13.8705C52.2602 13.8705 51.366 13.41 51.3084 13.3812C51.1642 13.2949 51.1065 13.1222 51.193 12.9784C51.2795 12.8345 51.4526 12.7769 51.5968 12.8633C51.6256 12.8633 53.1254 13.669 54.481 13.0359C55.4328 12.6043 56.0962 11.5971 56.4423 10.0143C56.4711 9.928 56.5288 9.87045 56.5865 9.8129C56.673 9.78412 56.7595 9.78412 56.8172 9.8129C56.8172 9.8129 57.8844 10.2446 58.8939 9.78412C59.5861 9.46757 60.1052 8.77692 60.4225 7.76973C60.4802 7.62585 60.6244 7.53951 60.7974 7.59707C60.9416 7.65462 61.0282 7.79851 60.9705 7.97117C60.5955 9.15103 59.961 9.95678 59.1246 10.3309C58.2305 10.7338 57.3652 10.5899 56.9037 10.446C56.4711 12.0287 55.7501 13.0935 54.6829 13.5539C54.2503 13.7841 53.7888 13.8705 53.3273 13.8705Z" fill="black"/>
<path d="M48.6265 23.9137C48.5112 23.9137 48.3958 23.8273 48.3381 23.7122C48.2804 23.5683 48.367 23.3957 48.54 23.3669C49.6648 23.0216 50.3282 22.5324 50.559 21.8705C50.8762 20.8633 50.0398 19.7698 50.0398 19.741C49.9821 19.6547 49.9533 19.5396 50.011 19.4532C50.0686 19.3669 50.1552 19.2806 50.2705 19.2806C50.3859 19.2806 52.7798 19.223 52.751 17.3525C52.751 15.2806 50.8762 14.964 50.8185 14.9352C50.6743 14.9065 50.559 14.7626 50.5878 14.6187C50.6166 14.4748 50.7609 14.3597 50.9051 14.3885C50.9339 14.3885 53.3278 14.8201 53.3278 17.3525C53.3278 19.0216 51.8569 19.6547 50.7609 19.7985C51.0204 20.2878 51.3665 21.1511 51.107 22.0144C50.8185 22.8777 50.011 23.5108 48.7131 23.8849C48.6842 23.9137 48.6554 23.9137 48.6265 23.9137Z" fill="black"/>
<path d="M64.7519 13.6979C64.3193 13.6979 63.9443 13.5828 63.5982 13.3526C63.0214 12.9497 62.7329 12.2878 62.5599 11.7986C61.8677 12.518 61.0889 12.777 60.3102 12.4605C59.3296 12.0576 58.9546 10.9065 58.9258 10.0144C58.9258 9.84178 59.0411 9.72668 59.2142 9.72668C59.3873 9.72668 59.5026 9.84178 59.5026 10.0144C59.5315 10.7339 59.791 11.6547 60.5121 11.9425C61.4062 12.2878 62.0984 11.5108 62.4734 10.9929C62.5311 10.9065 62.6753 10.849 62.7906 10.8778C62.906 10.9065 62.9925 10.9929 63.0214 11.1367C63.0214 11.1367 63.1656 12.3742 63.9443 12.8921C64.2904 13.1511 64.7519 13.2087 65.2711 13.0648C65.7614 12.9497 66.1363 12.6907 66.3382 12.3454C66.742 11.626 66.3959 10.6475 66.3959 10.6188C66.3671 10.5324 66.3671 10.4461 66.4247 10.3598C66.4824 10.2734 66.5401 10.2447 66.6266 10.2159C66.6266 10.2159 68.0399 10.0432 68.6744 9.20869C68.9629 8.86337 69.0494 8.43171 68.9917 7.91373C68.9629 7.76984 69.0782 7.59718 69.2513 7.59718C69.3955 7.5684 69.5685 7.68351 69.5685 7.85617C69.6551 8.51804 69.5109 9.09358 69.1359 9.58279C68.5591 10.331 67.5496 10.6475 67.0304 10.7339C67.117 11.1655 67.2035 11.9425 66.8574 12.5756C66.569 13.0936 66.1075 13.4101 65.4153 13.5828C65.1557 13.6691 64.9538 13.6979 64.7519 13.6979Z" fill="black"/>
<path d="M58.7245 19.2518C58.1188 19.2518 57.6574 19.0504 57.3689 18.6475C56.9651 18.1295 56.994 17.4101 57.0517 16.9784C55.9845 16.9496 55.2058 16.6331 54.7443 16C53.9079 14.8777 54.4847 13.2086 54.5136 13.1511C54.5712 13.0072 54.7443 12.9209 54.8885 12.9784C55.0327 13.036 55.1192 13.2086 55.0616 13.3525C55.0616 13.3525 54.5712 14.7914 55.2346 15.6835C55.6096 16.2014 56.3595 16.4604 57.3978 16.4317C57.4843 16.4317 57.5708 16.4604 57.6285 16.5468C57.6862 16.6043 57.715 16.7194 57.6862 16.8058C57.6862 16.8058 57.4266 17.7842 57.8593 18.3309C58.0323 18.5612 58.3496 18.705 58.7534 18.705C58.9264 18.705 59.0418 18.8489 59.0418 18.9928C59.0129 19.1367 58.8687 19.2518 58.7245 19.2518Z" fill="black"/>
<path d="M70.2893 14.8777C69.5971 14.8777 68.9626 14.7051 68.3857 14.3885C67.0301 13.6691 66.4533 12.3741 66.4244 12.3166C66.3668 12.1727 66.4244 12 66.5687 11.9425C66.7129 11.8849 66.8859 11.9425 66.9436 12.0863C66.9436 12.0863 67.4916 13.2374 68.6453 13.8705C69.799 14.5036 71.1834 14.3885 72.712 13.6115C72.8563 13.5252 73.0293 13.5828 73.087 13.7266C73.1735 13.8705 73.1158 14.0432 72.9716 14.1007C72.0198 14.6475 71.1257 14.8777 70.2893 14.8777Z" fill="black"/>
<path d="M69.8255 24C69.5371 24 69.2487 23.9712 68.9603 23.9424C67.4605 23.7122 66.3645 22.9352 65.903 21.7266C65.528 20.777 65.528 19.9136 65.8742 19.1654C66.2491 18.3885 66.9125 17.8993 67.3739 17.669C66.2779 16.7482 65.2685 16.4029 64.3455 16.5755C62.8169 16.8633 61.9805 18.6187 61.9805 18.6187C61.9228 18.7338 61.7786 18.8201 61.6632 18.7913C60.4807 18.5036 59.6154 18.6187 59.1251 19.1079C58.2887 19.9424 58.6924 21.6403 58.6924 21.669C58.7213 21.7842 58.6636 21.8993 58.5771 21.9568C58.4906 22.0144 58.3463 22.0431 58.2598 21.9856C56.2985 20.8345 54.6257 22.3885 54.568 22.446C54.5103 22.5036 54.4238 22.5324 54.3373 22.5324C54.2507 22.5324 54.1642 22.4748 54.1354 22.4172C53.1547 21.036 51.0781 21.6978 51.0493 21.7266C50.9051 21.7842 50.732 21.6978 50.6743 21.5539C50.6166 21.4101 50.7032 21.2374 50.8474 21.1798C50.9339 21.1511 53.1259 20.4316 54.395 21.8417C54.943 21.4388 56.3562 20.5755 58.0291 21.2374C57.9714 20.5467 57.9714 19.4244 58.6924 18.705C59.2981 18.1007 60.2788 17.8993 61.5478 18.187C61.8362 17.669 62.7304 16.3165 64.2301 16.0288C65.4415 15.7985 66.7394 16.3165 68.095 17.5539C68.1815 17.6115 68.2104 17.7266 68.1815 17.8129C68.1527 17.8993 68.095 17.9856 67.9796 18.0144C67.9796 18.0144 66.8548 18.4172 66.3933 19.3957C66.1049 20 66.1337 20.6906 66.451 21.4964C66.9413 22.7913 68.1527 23.223 69.0756 23.3381C70.5754 23.5683 72.2194 23.0791 72.6521 22.5324C72.7386 22.4172 72.9405 22.3885 73.0559 22.4748C73.1712 22.5611 73.2001 22.7626 73.1135 22.8777C72.5655 23.5683 71.1811 24 69.8255 24Z" fill="black"/>
<path d="M66.9732 17.3237C66.8578 17.3237 66.7424 17.2374 66.6848 17.1223C66.4252 16.2878 66.4829 15.5683 66.829 14.9928C67.3481 14.1007 68.3865 13.8705 68.4153 13.8705C68.5595 13.8417 68.7326 13.9281 68.7614 14.1007C68.7902 14.2446 68.7037 14.4173 68.5307 14.446C68.5307 14.446 67.6942 14.6475 67.3193 15.3094C67.0597 15.741 67.0309 16.3165 67.2328 16.9784C67.2904 17.1223 67.2039 17.295 67.0309 17.3237C67.0309 17.3237 67.002 17.3237 66.9732 17.3237Z" fill="black"/>
<path d="M60.4828 30.3885C60.3385 30.3885 60.2232 30.2734 60.1943 30.1296C60.1655 29.9857 60.2809 29.813 60.4251 29.813C61.4634 29.6691 62.1556 29.0072 62.4152 27.9137C62.5882 27.2519 62.5017 26.5612 62.1845 25.9857C61.2038 24.1152 58.8676 24.6331 58.7811 24.6619C58.6657 24.6907 58.5503 24.6331 58.4926 24.5468C58.435 24.4605 58.435 24.3166 58.4926 24.2303C58.8099 23.7411 58.9541 23.2806 58.8388 22.8777C58.7234 22.331 58.2331 22.0432 58.2331 22.0432C58.0889 21.9569 58.06 21.7842 58.1177 21.6403C58.2042 21.4964 58.3773 21.4677 58.5215 21.5252C58.5503 21.554 59.2137 21.9281 59.4156 22.7339C59.5021 23.1367 59.4444 23.5684 59.2714 24.0001C60.1655 23.9425 61.896 24.0864 62.7325 25.6979C63.1074 26.4173 63.1939 27.2519 62.992 28.0288C62.6748 29.3526 61.8095 30.1871 60.5404 30.3885C60.5116 30.3885 60.4828 30.3885 60.4828 30.3885Z" fill="black"/>
<path d="M47.4738 32.6331C46.5508 32.6331 45.599 32.3741 44.7914 31.8273C44.6472 31.741 44.6184 31.5683 44.7049 31.4245C44.7914 31.2806 44.9645 31.2518 45.1087 31.3381C46.3201 32.1439 47.9064 32.2878 49.1466 31.6834C50.1272 31.1942 50.7041 30.3597 50.7618 29.3237C50.9348 26.8201 48.3967 26.4173 48.2813 26.3885C48.1371 26.3597 48.0218 26.2158 48.0506 26.0719C48.0795 25.928 48.2237 25.8129 48.3679 25.8417C48.3967 25.8417 51.5405 26.3309 51.3386 29.3813C51.2521 30.6187 50.5599 31.6547 49.4062 32.2302C48.8293 32.4892 48.166 32.6331 47.4738 32.6331Z" fill="black"/>
<path d="M51.7712 29.6691C51.3674 29.6691 51.079 29.6403 51.0213 29.6403C50.8771 29.6116 50.7617 29.4677 50.7617 29.3238C50.7906 29.1799 50.9348 29.0648 51.079 29.0648C51.1078 29.0648 54.3381 29.4389 55.0304 27.4533C55.2034 26.9353 55.2034 26.4749 54.9727 26.1008C54.54 25.3526 53.3864 25.1511 53.3864 25.1511C53.271 25.1224 53.1845 25.036 53.1556 24.9209C53.1268 24.8058 53.1845 24.6907 53.2998 24.6331C53.2998 24.6331 54.2516 24.1152 54.3958 23.4245C54.4535 23.108 54.367 22.7914 54.0786 22.4749C53.9632 22.3598 53.992 22.1583 54.1074 22.072C54.2228 21.9569 54.4247 21.9857 54.5112 22.1008C54.915 22.5612 55.0592 23.0504 54.9438 23.5396C54.8285 24.0864 54.4247 24.518 54.0786 24.777C54.54 24.9497 55.1169 25.2662 55.4341 25.8418C55.7514 26.3598 55.7803 26.9929 55.5207 27.6835C54.9727 29.4101 52.896 29.6691 51.7712 29.6691Z" fill="black"/>
<path d="M68.2999 34.446C68.1845 34.446 68.098 34.3885 68.0403 34.2734C67.9826 34.1295 68.0403 33.9568 68.1845 33.8993C68.2999 33.8417 71.1552 32.4892 70.2611 30.187C69.367 27.8849 67.0597 28.7482 66.9443 28.777C66.8578 28.8058 66.7712 28.8058 66.7136 28.777C66.627 28.7482 66.5982 28.6619 66.5693 28.6043C66.3386 27.7122 65.9348 27.1079 65.3291 26.8777C64.262 26.446 62.9352 27.223 62.9064 27.223C62.7622 27.3093 62.5891 27.2518 62.5026 27.1367C62.4161 26.9928 62.4738 26.8201 62.5891 26.7338C62.6468 26.705 64.1754 25.8129 65.5022 26.3597C66.1944 26.6475 66.6847 27.2518 67.002 28.2014C67.7807 28 69.8573 27.741 70.7515 30.0144C71.6456 32.259 69.5978 33.8993 68.3864 34.446C68.3864 34.446 68.3287 34.446 68.2999 34.446Z" fill="black"/>
<path d="M64.9534 26.7626C64.8092 26.7626 64.665 26.6475 64.665 26.5036C64.4343 23.3094 67.4338 22.9065 67.4627 22.8777C67.6069 22.8489 67.7511 22.964 67.7799 23.1367C67.8088 23.2806 67.6934 23.4245 67.5204 23.4532C67.405 23.4532 65.0399 23.7986 65.2418 26.446C65.2707 26.6187 65.1553 26.7626 64.9534 26.7626C64.9823 26.7626 64.9823 26.7626 64.9534 26.7626Z" fill="black"/>
<path d="M70.203 29.7842C70.1742 29.7842 70.1742 29.7842 70.1453 29.7842C70.0011 29.7554 69.8858 29.5828 69.9146 29.4389C70.2607 27.8561 72.6546 27.3094 72.77 27.2806C72.9142 27.2518 73.0873 27.3382 73.1161 27.5108C73.1449 27.6547 73.0584 27.8274 72.8854 27.8561C72.8565 27.8561 70.751 28.3453 70.4626 29.554C70.4626 29.6979 70.3472 29.7842 70.203 29.7842Z" fill="black"/>
<path d="M51.626 36.6043C51.4818 36.6043 51.3664 36.518 51.3376 36.3741C51.3087 36.2302 51.3952 36.0576 51.5395 36.0288C52.5778 35.7986 53.2411 35.3957 53.4142 34.8777C53.6161 34.3022 53.2123 33.7266 53.2123 33.6978C53.1258 33.5827 53.1258 33.4676 53.2123 33.3525C53.2988 33.2374 53.4142 33.2086 53.5296 33.2374C53.5296 33.2374 54.4237 33.5252 55.1447 33.0935C55.5774 32.8345 55.8946 32.3741 56.0677 31.7122C56.5869 29.5252 54.6256 28.777 54.5391 28.7482C54.3948 28.6906 54.3083 28.518 54.366 28.3741C54.4237 28.2302 54.5967 28.1439 54.7409 28.2014C54.7698 28.2014 57.2791 29.1511 56.6445 31.8561C56.4426 32.6906 56.0389 33.2662 55.462 33.6115C54.9428 33.8993 54.3948 33.9281 53.991 33.8993C54.1064 34.2158 54.1641 34.6187 53.991 35.0504C53.7315 35.7698 52.9527 36.259 51.7125 36.5755C51.6837 36.6043 51.6548 36.6043 51.626 36.6043Z" fill="black"/>
<path d="M61.2326 33.2087C61.2038 33.2087 61.2038 33.2087 61.2326 33.2087C61.0596 33.2087 60.9442 33.0648 60.9442 32.8921C61.0596 31.5684 60.8 30.7051 60.1655 30.2734C58.8964 29.4101 56.5314 30.5324 56.5025 30.5612C56.3583 30.6187 56.1853 30.5612 56.1276 30.4173C56.0699 30.2734 56.1276 30.1007 56.2718 30.0432C56.3872 29.9856 58.9829 28.7482 60.5116 29.813C61.3192 30.3597 61.6653 31.4245 61.5499 32.9497C61.4922 33.0935 61.3768 33.2087 61.2326 33.2087Z" fill="black"/>
<path d="M59.9331 37.2949C59.7889 37.2949 59.6735 37.2086 59.6447 37.0647C59.6158 36.9784 59.0967 34.6762 59.9908 33.4101C60.308 32.9496 60.7695 32.6906 61.3464 32.6043C61.8367 32.5467 62.3847 32.6331 62.8462 32.9208C63.1923 33.0935 63.4518 33.3237 63.6537 33.5539C64.0864 32.9784 64.9805 32 66.2495 32.1151C66.9417 32.1726 67.5186 32.4892 67.8935 33.0072C68.8742 34.2734 68.4992 36.4316 68.4992 36.5467C68.4704 36.6906 68.3262 36.8057 68.1531 36.777C68.0089 36.7482 67.8935 36.6043 67.9224 36.4316C67.9224 36.4029 68.2685 34.4172 67.4321 33.3525C67.1436 32.9496 66.711 32.7482 66.1918 32.6906C64.8074 32.5467 63.9133 34.2158 63.8845 34.2446C63.8268 34.3309 63.7114 34.4172 63.5961 34.3885C63.4807 34.3885 63.3942 34.3021 63.3365 34.187C63.2211 33.8129 62.8462 33.5539 62.5577 33.4101C62.1828 33.2086 61.779 33.1223 61.404 33.1798C60.9714 33.2374 60.683 33.4101 60.4523 33.7554C59.7024 34.8201 60.1927 36.9496 60.1927 36.9496C60.2215 37.0935 60.135 37.2662 59.9619 37.2949C59.9619 37.2949 59.9619 37.2949 59.9331 37.2949Z" fill="black"/>
<path d="M49.3212 38.7339C48.9174 38.7339 48.456 38.6763 47.9657 38.59C47.8214 38.5612 47.7061 38.4173 47.7349 38.2446C47.7638 38.1008 47.908 37.9857 48.081 38.0144C49.2636 38.2734 50.1577 38.1871 50.7345 37.813C51.0518 37.5828 51.2537 37.2662 51.3402 36.8634C51.5421 35.7698 50.0135 35.0504 49.9846 35.0504C49.8981 35.0216 49.8404 34.9353 49.8404 34.8777C49.8116 34.7914 49.8404 34.7051 49.8692 34.6475C50.273 34.0144 50.4172 33.4389 50.3019 32.9497C50.1288 32.3166 49.552 32 49.552 32C49.4078 31.9137 49.3501 31.7411 49.4366 31.6259C49.5231 31.4821 49.6962 31.4245 49.8116 31.5108C49.8404 31.5396 50.6191 31.9425 50.8499 32.8058C50.9941 33.3813 50.8787 34.0144 50.5038 34.6763C51.0229 34.9929 52.1189 35.7986 51.8882 36.9785C51.7728 37.554 51.4844 38.0144 51.0229 38.3022C50.6191 38.5612 50.0423 38.7339 49.3212 38.7339Z" fill="black"/>
<path d="M22.2079 60C22.0349 60 21.833 59.9712 21.6599 59.9136C20.8524 59.6834 20.0736 58.9352 19.4391 57.7266C19.3526 57.5827 19.4102 57.41 19.5545 57.3237C19.6987 57.2374 19.8717 57.2949 19.9582 57.4388C20.5351 58.5036 21.1696 59.1366 21.833 59.3381C22.2079 59.4532 22.5829 59.3956 22.9578 59.1942C23.9096 58.6474 23.477 57.0072 23.477 57.0072C23.4482 56.9208 23.477 56.8345 23.5058 56.7769C23.5635 56.7194 23.6212 56.6618 23.7077 56.6618C24.4576 56.5755 24.9768 56.3165 25.2652 55.9136C25.6402 55.3669 25.5248 54.7338 25.5248 54.7338C25.4959 54.5899 25.5825 54.4172 25.7555 54.3884C25.8997 54.3597 26.0728 54.446 26.1016 54.6187C26.1016 54.6474 26.3035 55.5108 25.7555 56.259C25.4094 56.7482 24.8614 57.0647 24.1115 57.2086C24.198 57.8129 24.2846 59.1654 23.2463 59.741C22.9002 59.8848 22.554 60 22.2079 60Z" fill="black"/>
<path d="M46.1186 41.0072C45.484 41.0072 44.936 40.8345 44.8783 40.8345C44.8207 40.8345 44.7918 40.8057 44.763 40.7482C44.7341 40.7194 43.7247 39.7698 42.3402 40.6906C42.2537 40.7482 42.1095 40.7482 42.023 40.6906C41.9364 40.6331 41.8788 40.4892 41.9076 40.3741C41.9076 40.3741 42.1095 39.5683 41.7634 39.0791C41.5615 38.8201 41.2442 38.705 40.7539 38.705C39.4272 38.705 39.2541 39.741 39.2253 39.8561C39.1964 40 39.0522 40.1151 38.908 40.1151C38.7638 40.0863 38.6484 39.9424 38.6484 39.7986C38.7061 39.223 39.2253 38.1295 40.7251 38.1295C41.3884 38.1295 41.8788 38.3309 42.196 38.7338C42.4844 39.1079 42.5421 39.5396 42.5133 39.9137C43.84 39.3381 44.8207 40.0575 45.0802 40.259C45.3398 40.3165 46.4647 40.6043 47.1569 40.1151C47.503 39.8849 47.676 39.5108 47.7049 38.964C47.8491 36.7482 45.859 35.7986 45.7724 35.7698C45.6282 35.7122 45.5706 35.5396 45.6282 35.3957C45.6859 35.2518 45.859 35.1942 46.0032 35.2518C46.032 35.2518 48.4259 36.4029 48.2529 39.0216C48.1952 39.741 47.9356 40.2878 47.4453 40.6043C47.0992 40.9209 46.58 41.0072 46.1186 41.0072Z" fill="black"/>
<path d="M34.2376 46.1583C34.0646 46.1583 33.9492 46.0432 33.9492 45.8705C33.9492 45.6979 34.0646 45.5828 34.2376 45.5828C35.997 45.5828 37.1219 45.2374 37.4968 44.5468C37.9006 43.7986 37.2661 42.8202 37.2661 42.8202C37.2084 42.7338 37.2084 42.59 37.2661 42.5036C37.3237 42.4173 37.468 42.3597 37.5833 42.3885C37.5833 42.3885 38.3332 42.59 38.7947 42.2446C39.0543 42.0432 39.1985 41.6979 39.2273 41.2087C39.2562 40.8058 39.1408 40.4892 38.8812 40.259C38.2467 39.6547 36.92 39.7986 36.92 39.8274C36.8046 39.8274 36.6892 39.7986 36.6315 39.6835C36.5739 39.5971 36.5739 39.482 36.6315 39.3669C36.8911 38.9353 36.9488 38.5612 36.8334 38.2446C36.6315 37.6691 35.8528 37.4389 35.8528 37.4389C35.7086 37.3813 35.6221 37.2374 35.6509 37.0935C35.7086 36.9497 35.8528 36.8633 35.997 36.8921C36.0259 36.8921 37.0353 37.2087 37.3526 38.0432C37.4968 38.3885 37.468 38.7914 37.3237 39.223C37.8717 39.223 38.7082 39.3382 39.2273 39.8274C39.6023 40.1727 39.7753 40.6331 39.7465 41.2374C39.7176 41.9281 39.4869 42.4173 39.0543 42.7338C38.6793 42.9928 38.2755 43.0504 37.9294 43.0504C38.1025 43.5108 38.2755 44.2015 37.9294 44.8346C37.5256 45.6979 36.2566 46.1583 34.2376 46.1583Z" fill="black"/>
<path d="M34.6967 69.7554C34.639 69.7554 34.5813 69.7266 34.5236 69.6979C34.4082 69.6115 34.3794 69.4101 34.4948 69.295C34.812 68.8921 34.9562 68.4892 34.8986 68.0864C34.7832 67.2518 33.8602 66.6475 33.8602 66.6475C33.7449 66.59 33.716 66.4461 33.7449 66.331C33.7737 66.2159 33.8891 66.1295 34.0045 66.1295C34.4948 66.1295 35.1293 65.9856 35.3312 65.4101C35.5619 64.7195 35.1005 63.7123 34.264 63.0504C32.9084 61.9856 31.4663 63.0504 31.4375 63.0504C31.351 63.1079 31.2068 63.1367 31.1202 63.0504C31.0337 62.9928 30.976 62.8777 31.0049 62.7626C31.0049 62.7338 31.351 61.0072 30.4569 60.0288C29.9665 59.482 29.1301 59.2806 28.0053 59.4245C27.8611 59.4533 27.7169 59.3382 27.688 59.1655C27.6592 59.0216 27.7745 58.8777 27.9476 58.849C29.2455 58.6763 30.255 58.9641 30.8895 59.6259C31.6394 60.4317 31.6971 61.5828 31.6394 62.2734C32.3028 61.9856 33.4853 61.6691 34.639 62.5612C35.6773 63.3669 36.1965 64.6331 35.8792 65.554C35.7638 65.8705 35.4754 66.3885 34.6967 66.59C35.0139 66.9065 35.36 67.3957 35.4466 68C35.5331 68.5756 35.36 69.1223 34.9274 69.6691C34.8697 69.6979 34.7832 69.7554 34.6967 69.7554Z" fill="black"/>
<path d="M34.4373 63.0791C34.3508 63.0791 34.2643 63.0504 34.2066 62.964C34.0912 62.8489 34.1201 62.6475 34.2354 62.5612C34.87 62.0432 35.1584 61.4676 35.1584 60.8633C35.1584 59.6835 33.9759 58.6763 33.9759 58.6763C33.8893 58.6187 33.8605 58.5036 33.8605 58.4173C33.8605 58.3309 33.947 58.2446 34.0335 58.1871C34.1201 58.1583 35.9371 57.2662 35.3603 55.9712C35.2161 55.6259 34.9853 55.3957 34.7258 55.3094C34.2643 55.1655 33.774 55.4245 33.7451 55.4532C33.6298 55.5108 33.4567 55.482 33.3702 55.3669C33.2836 55.2518 33.2836 55.1079 33.399 54.9928C33.399 54.9928 34.5239 53.813 34.2931 52.6331C34.1778 51.9424 33.6586 51.3669 32.7068 50.9065C32.5626 50.8489 32.5049 50.6763 32.5914 50.5324C32.6491 50.3885 32.8222 50.3309 32.9664 50.4173C34.0624 50.964 34.6969 51.6835 34.8411 52.5468C34.9853 53.3813 34.6392 54.1871 34.322 54.705C34.495 54.705 34.6969 54.705 34.87 54.7626C35.3026 54.9065 35.6199 55.223 35.8506 55.741C36.3986 57.0072 35.418 58.0144 34.5815 58.5036C34.9853 58.9353 35.6775 59.7986 35.6775 60.8345C35.6775 61.6115 35.3026 62.3309 34.5239 62.964C34.5527 63.0504 34.495 63.0791 34.4373 63.0791Z" fill="black"/>
<path d="M34.6405 52.9497C34.6117 52.9497 34.6117 52.9497 34.5828 52.9497C34.4386 52.9209 34.3233 52.7482 34.3521 52.6044C34.7847 50.7051 36.9767 49.7267 38.765 49.8705C39.1687 49.8993 39.5149 50.0432 39.8321 50.2446C39.861 50.2446 39.8898 50.3022 39.9475 50.3597C39.9763 50.3885 40.0052 50.4173 40.034 50.4461C40.4955 50.3598 42.1683 49.9281 42.226 48.777C42.2837 47.482 40.7839 47.2231 40.7262 47.1943C40.6109 47.1655 40.5243 47.0792 40.4955 46.9641C40.4666 46.849 40.5243 46.7338 40.6109 46.6763C40.6397 46.6475 40.6974 46.6187 40.7262 46.59C41.0723 46.331 41.2165 45.9281 41.13 45.4677C41.0435 44.9784 40.6974 44.6043 40.2359 44.4317C39.313 44.1151 38.1881 44.518 38.1593 44.518C38.0151 44.5756 37.842 44.4892 37.7843 44.3454C37.7266 44.2015 37.8132 44.0288 37.9574 43.9713C38.0151 43.9425 39.2841 43.482 40.409 43.8849C41.0723 44.1151 41.5626 44.6907 41.678 45.3813C41.7645 45.8993 41.6203 46.3885 41.3031 46.7914C41.9953 47.0792 42.8029 47.6835 42.7452 48.8058C42.6586 50.5612 40.0917 51.0216 39.9763 51.0216C39.8033 51.0504 39.7167 50.9641 39.5149 50.7626C39.486 50.7338 39.4572 50.7051 39.4572 50.7051C39.2264 50.5612 38.9668 50.4461 38.6496 50.4173C37.0921 50.2734 35.1885 51.1655 34.8424 52.6907C34.9001 52.8634 34.7847 52.9497 34.6405 52.9497Z" fill="black"/>
<path d="M41.0146 58.2734C40.3512 58.2734 39.6879 58.0144 39.2552 57.7554C38.8803 57.9568 37.9573 58.3309 37.0344 57.9856C36.2845 57.6978 35.7077 57.0072 35.3615 55.9424C35.3039 55.7985 35.3904 55.6259 35.5634 55.5683C35.7077 55.5108 35.8807 55.5971 35.9384 55.7698C36.2268 56.6619 36.6594 57.2374 37.2363 57.4388C38.1304 57.7554 39.111 57.1798 39.111 57.1798C39.1976 57.1223 39.3418 57.1223 39.4283 57.1798C39.4571 57.1798 41.13 58.2734 42.1106 57.2374C42.399 56.9209 42.5144 56.6331 42.4856 56.3453C42.4279 55.8561 41.8799 55.5396 41.8799 55.5396C41.7645 55.4532 41.7068 55.3093 41.7645 55.1655C41.8222 55.0216 41.9664 54.964 42.1106 55.0216C42.1106 55.0216 42.5144 55.1367 42.9182 54.9065C43.2931 54.6763 43.5527 54.2158 43.6681 53.5252C44.0719 51.3669 41.7357 50.3885 41.6491 50.3309C41.5049 50.2734 41.4184 50.1007 41.5049 49.9568C41.5626 49.8129 41.7357 49.7266 41.8799 49.8129C41.9087 49.8129 44.7641 51.0216 44.2449 53.6403C44.0719 54.5036 43.7258 55.1079 43.2066 55.4245C43.0624 55.5108 42.9182 55.5683 42.774 55.5971C42.9182 55.7698 43.0336 56 43.0624 56.259C43.1201 56.7194 42.9759 57.1798 42.5433 57.6115C42.1106 58.1007 41.5626 58.2734 41.0146 58.2734Z" fill="black"/>
<path d="M40.6976 69.1798C40.6688 69.1798 40.6688 69.1798 40.6399 69.1798C40.4957 69.1511 40.3803 69.0072 40.4092 68.8345C40.6976 67.4532 39.5728 66.9928 39.5151 66.964C39.3997 66.9065 39.342 66.8201 39.342 66.705C39.342 66.5899 39.4286 66.4748 39.5439 66.446C39.5439 66.446 40.1208 66.2158 40.3227 65.7554C40.438 65.4676 40.4092 65.1511 40.265 64.777C40.0631 64.3453 39.8035 64.0575 39.4862 63.9712C38.8517 63.7985 38.1307 64.2877 38.1018 64.3165C38.0153 64.3741 37.8999 64.3741 37.8134 64.3453C37.7269 64.2877 37.6692 64.2014 37.6692 64.0863C37.698 63.1367 37.4673 62.5036 37.0347 62.1582C36.4001 61.669 35.4772 61.9568 35.4772 61.9568C35.333 62.0144 35.1599 61.928 35.1311 61.7554C35.0734 61.6115 35.1599 61.4388 35.333 61.41C35.3907 61.3813 36.5443 61.0647 37.4096 61.7266C37.9288 62.1295 38.2172 62.7626 38.2749 63.6259C38.621 63.4532 39.169 63.3093 39.6881 63.4532C40.2073 63.5971 40.5822 63.9712 40.8418 64.5755C41.0726 65.0935 41.1014 65.5827 40.8995 66.0144C40.7553 66.3597 40.4957 66.5899 40.265 66.7626C40.7553 67.1654 41.2745 67.8849 41.0437 69.0072C40.9572 69.0935 40.8418 69.1798 40.6976 69.1798Z" fill="black"/>
<path d="M40.1213 64.3165C40.0059 64.3165 39.8906 64.2302 39.8329 64.1151C39.7752 63.9712 39.8906 63.7985 40.0348 63.7698C40.0636 63.7698 41.9384 63.223 41.9961 61.928C42.0537 60.5755 40.5539 59.8273 39.7752 59.7698C39.631 59.7698 39.5156 59.6547 39.5156 59.5108C39.5156 59.3669 39.6022 59.2518 39.7175 59.1942C39.7464 59.1942 40.6116 58.9064 40.5828 57.9856C40.5828 57.8129 40.6982 57.6978 40.8712 57.6978C41.0443 57.6978 41.1596 57.8129 41.1596 57.9856C41.1885 58.6475 40.9001 59.0791 40.5539 59.3957C41.5923 59.7698 42.6017 60.6906 42.5441 61.9856C42.4575 63.6834 40.2655 64.3165 40.179 64.3453C40.179 64.3165 40.1502 64.3165 40.1213 64.3165Z" fill="black"/>
<path d="M45.8595 66.5899C45.7441 66.5899 45.6287 66.5324 45.5999 66.4173C45.5711 66.3885 45.2249 65.554 44.2155 65.3525C44.1001 65.3237 44.0136 65.2374 43.9847 65.0935C43.9847 64.9784 44.0424 64.8633 44.1578 64.8057C44.302 64.7482 45.4557 64.1727 44.9942 63.1079C44.7635 62.5611 44.2155 62.187 43.6098 62.1007C43.1772 62.0432 42.7734 62.1007 42.3696 62.2158C42.2254 62.2734 42.0523 62.187 41.9946 62.0432C41.9369 61.8993 42.0235 61.7266 42.1677 61.6691C42.6292 61.4964 43.1483 61.4676 43.6675 61.5252C44.5039 61.6115 45.1961 62.1295 45.5134 62.8489C45.946 63.7986 45.4557 64.5468 44.9365 64.9784C45.7729 65.4101 46.0902 66.1295 46.1191 66.187C46.1767 66.3309 46.1191 66.5036 45.9748 66.5611C45.946 66.5611 45.9172 66.5899 45.8595 66.5899Z" fill="black"/>
<path d="M44.5019 62.3885C44.4153 62.3885 44.3577 62.3597 44.3 62.3021C44.1846 62.187 44.1846 62.0144 44.3 61.8993C44.3 61.8993 45.6267 60.5467 45.3095 59.223C45.1076 58.3309 44.2134 57.6115 42.656 57.0647C42.5118 57.0072 42.4252 56.8345 42.4829 56.6906C42.5406 56.5467 42.7137 56.4604 42.8579 56.518C44.6172 57.1223 45.6267 57.9856 45.8863 59.1079C46.2613 60.7482 44.7903 62.2446 44.7326 62.3309C44.6461 62.3597 44.5596 62.3885 44.5019 62.3885Z" fill="black"/>
<path d="M48.1353 59.3957C48.02 59.3957 47.8758 59.3093 47.8469 59.1654C47.8181 59.0216 47.9046 58.8489 48.0488 58.8201C48.0488 58.8201 48.8275 58.6187 49.1448 57.9856C49.3467 57.6115 49.3467 57.1223 49.1448 56.5755C48.5391 54.8489 46.5202 55.2518 46.4336 55.2806C46.2894 55.3093 46.1741 55.2518 46.1164 55.1079C46.0587 54.9928 46.0875 54.8489 46.2029 54.7626C46.3183 54.6762 46.6067 54.3885 46.6067 54.1295C46.6067 53.9568 46.4625 53.7554 46.2029 53.5827C45.3088 52.9784 44.0397 54.0144 44.0397 54.0144C43.9244 54.1295 43.7225 54.1007 43.6359 53.9856C43.5206 53.8705 43.5494 53.669 43.6648 53.5827C43.7225 53.5252 45.2799 52.2302 46.549 53.1223C46.9816 53.4101 47.1835 53.7554 47.1835 54.1582C47.1835 54.3597 47.1259 54.5324 47.0393 54.6762C47.9911 54.6762 49.2025 55.0503 49.664 56.4316C49.9235 57.1511 49.8947 57.7841 49.6063 58.3021C49.1448 59.1367 48.1642 59.3957 48.1353 59.3957C48.1642 59.3957 48.193 59.3957 48.1353 59.3957Z" fill="black"/>
<path d="M31.8145 51.3382C30.9493 51.3382 30.3147 50.7626 30.2859 50.7339C30.1705 50.6188 30.1417 50.4461 30.257 50.331C30.3724 50.2159 30.5455 50.1871 30.6608 50.3022C30.6608 50.3022 31.2665 50.8202 31.9587 50.7339C32.3914 50.6763 32.7951 50.4173 33.1413 49.9569C34.2373 48.4605 32.7375 47.0504 32.6798 46.9929C32.5933 46.9065 32.5644 46.7626 32.6221 46.6475C32.6798 46.5324 32.824 46.4749 32.9682 46.5324C33.1124 46.59 33.4874 46.6475 33.7181 46.5036C33.8623 46.3885 33.9488 46.1871 33.9488 45.8705C33.9488 44.777 32.3625 44.3454 32.3625 44.3454C32.2183 44.3166 32.1318 44.1439 32.1606 44C32.1895 43.8562 32.3625 43.7698 32.5067 43.7986C32.5933 43.8274 34.5257 44.3741 34.5257 45.8993C34.5257 46.4173 34.3526 46.7914 34.0354 47.0216C33.8623 47.1367 33.6893 47.1943 33.5162 47.2231C34.0354 48.0001 34.4392 49.2087 33.5739 50.3885C33.1124 50.9929 32.5933 51.3382 31.9876 51.3957C31.9587 51.3382 31.8722 51.3382 31.8145 51.3382Z" fill="black"/>
<path d="M49.9562 62.1008C49.812 62.1008 49.6966 62.0144 49.6678 61.8706C49.3793 60.6331 48.8602 59.8274 48.1103 59.4821C47.0143 58.9929 45.7741 59.6547 45.7452 59.6547C45.601 59.7411 45.428 59.6835 45.3414 59.5396C45.2549 59.3957 45.3126 59.2231 45.4568 59.1367C45.5145 59.108 46.9854 58.331 48.341 58.9353C49.264 59.3382 49.8985 60.2878 50.2158 61.6979C50.2446 61.8418 50.1581 62.0144 49.985 62.0432C49.985 62.1008 49.9562 62.1008 49.9562 62.1008Z" fill="black"/>
<path d="M46.4356 53.6115C46.349 53.6115 46.2914 53.5827 46.2337 53.5252C46.1183 53.41 46.1183 53.2374 46.2337 53.1223C46.724 52.6618 46.9547 52.2014 46.9836 51.6834C46.9836 50.8777 46.3779 50.2734 46.349 50.2734C46.2914 50.2158 46.2625 50.1007 46.2625 50.0144C46.2914 49.928 46.349 49.8417 46.4356 49.8129C46.4933 49.7842 47.9354 49.1223 47.5316 47.8561C47.3585 47.3669 47.0989 47.0503 46.724 46.8777C45.8587 46.5036 44.705 47.0503 44.705 47.0503C44.5897 47.1079 44.4455 47.0791 44.3589 46.964C44.2724 46.8489 44.2724 46.705 44.3589 46.6187C44.3589 46.6187 44.9358 45.8993 44.8204 45.2662C44.7916 45.036 44.6474 44.8345 44.4166 44.6618C43.061 43.741 41.792 45.5827 41.7343 45.669C41.6478 45.8129 41.4747 45.8417 41.3305 45.7554C41.1863 45.669 41.1575 45.4964 41.244 45.3525C41.792 44.518 43.2629 43.223 44.7339 44.2014C45.1088 44.4604 45.3396 44.777 45.3973 45.1798C45.4549 45.5539 45.3396 45.9568 45.2242 46.2734C45.7145 46.1583 46.3779 46.1007 46.9547 46.3309C47.5027 46.5611 47.8777 46.9928 48.1084 47.6547C48.5122 48.8633 47.7046 49.7266 47.0413 50.1295C47.272 50.446 47.5893 50.9928 47.5893 51.6547C47.5893 52.3165 47.272 52.9496 46.6663 53.4964C46.5509 53.6115 46.4933 53.6115 46.4356 53.6115Z" fill="black"/>
<path d="M44.3279 44.6043C44.2414 44.6043 44.1549 44.5755 44.0972 44.4892C44.0107 44.3741 44.0395 44.1726 44.1549 44.0863C44.2414 44.0288 46.0008 42.6762 44.7317 40.6906C44.6452 40.5467 44.674 40.3741 44.8182 40.2878C44.9624 40.2014 45.1355 40.2302 45.222 40.3741C46.8083 42.8201 44.5298 44.518 44.501 44.5467C44.4433 44.6043 44.3856 44.6043 44.3279 44.6043Z" fill="black"/>
<path d="M47.7929 48.0576C47.6487 48.0576 47.5333 47.9712 47.5044 47.8273C47.4756 47.6835 47.591 47.5108 47.7352 47.482C49.0908 47.2518 49.9272 46.7914 50.1291 46.2158C50.3887 45.3813 49.4369 44.3741 49.408 44.3741C49.3215 44.2878 49.2927 44.1727 49.3504 44.0576C49.408 43.9425 49.4946 43.8849 49.6099 43.8849C49.6965 43.8849 51.7154 43.9137 52.2057 41.813C52.696 39.5971 50.7059 38.446 50.6194 38.3885C50.4752 38.3022 50.4464 38.1295 50.504 37.9856C50.5906 37.8417 50.7636 37.813 50.9078 37.8705C50.9367 37.8705 53.3594 39.3094 52.7537 41.9281C52.3499 43.7122 50.9655 44.2302 50.1579 44.3741C50.504 44.8345 50.9078 45.6115 50.6483 46.3885C50.3887 47.223 49.4369 47.7698 47.8217 48.0576H47.7929Z" fill="black"/>
<path d="M53.2426 42.446C52.7523 42.446 52.4062 42.3885 52.3485 42.3885C52.2043 42.3597 52.0889 42.2158 52.1177 42.0719C52.1466 41.928 52.2908 41.8129 52.435 41.8417C52.4638 41.8417 54.5982 42.1583 55.7518 41.1798C56.2133 40.777 56.4729 40.2014 56.4729 39.4532C56.5017 36.4029 53.6752 35.482 53.5598 35.4532C53.4156 35.3957 53.3291 35.2518 53.3579 35.1079C53.4156 34.964 53.5598 34.8777 53.704 34.9065C53.7329 34.9065 57.0497 35.9712 57.0497 39.4532C57.0497 40.3741 56.7325 41.0935 56.1268 41.6115C55.2904 42.3021 54.079 42.446 53.2426 42.446Z" fill="black"/>
<path d="M49.3753 56.5467C49.2599 56.5467 49.1446 56.4604 49.1157 56.3453C49.058 56.2014 49.1446 56.0287 49.2888 55.9712C51.1635 55.3381 50.8174 54.1294 50.7886 54.1007C50.7597 53.9856 50.7886 53.8705 50.8751 53.8129C50.9616 53.7266 51.077 53.7266 51.1635 53.7554C51.7404 53.9568 52.2884 54.0719 52.721 54.0719H52.7498C53.3844 54.0719 53.9035 53.6115 53.9612 53.0071C53.9901 52.7482 53.9035 52.5179 53.7593 52.3165C53.1825 51.6259 51.7115 51.5107 51.6827 51.5107C51.5385 51.5107 51.4519 51.3956 51.4231 51.2518C51.3943 51.1079 51.4808 50.9928 51.625 50.9352H51.6538C52.1442 50.7625 52.4614 50.3597 52.5768 49.8705C52.6922 49.3525 52.5191 48.8057 52.1442 48.4028C51.2212 47.5107 49.6349 47.4244 49.6349 47.4244C49.4618 47.4244 49.3465 47.2805 49.3465 47.1366C49.3465 46.964 49.4907 46.8489 49.6349 46.8489C49.7214 46.8489 51.4519 46.9352 52.5479 47.9712C53.0671 48.4892 53.2978 49.2374 53.1536 49.9568C53.0671 50.3884 52.8364 50.7625 52.5479 51.0215C53.0959 51.1654 53.817 51.4244 54.2208 51.9136C54.4804 52.2302 54.5957 52.6043 54.5669 53.0359C54.4804 53.928 53.7016 54.6187 52.8075 54.6187C52.4037 54.6187 51.9423 54.5611 51.4231 54.3884C51.3943 54.964 51.1058 55.9424 49.4907 56.4892C49.433 56.5467 49.4041 56.5467 49.3753 56.5467Z" fill="black"/>
<path d="M52.8671 49.4963C52.7228 49.4963 52.6075 49.3812 52.5786 49.2374C52.5498 49.0935 52.6652 48.9496 52.8382 48.9208C52.8382 48.9208 54.2515 48.7481 54.7706 47.9136C55.0014 47.5107 55.0014 47.0215 54.7706 46.4172C54.7418 46.3021 54.7418 46.187 54.8283 46.1294C54.9149 46.0431 55.0302 46.0143 55.1168 46.0431C55.1168 46.0431 55.8955 46.2446 56.53 45.8992C56.905 45.6978 57.1357 45.3237 57.2799 44.8345C57.7702 43.1079 55.6071 41.8129 55.6071 41.7841C55.4629 41.6978 55.434 41.5251 55.5205 41.3812C55.6071 41.2374 55.7801 41.2086 55.9243 41.2661C56.0397 41.3237 58.4624 42.7913 57.8856 44.9496C57.7125 45.6115 57.3664 46.0719 56.8473 46.3597C56.3858 46.6187 55.8666 46.6474 55.4917 46.6187C55.6359 47.1942 55.5782 47.7122 55.3186 48.1438C54.6841 49.2374 53.0401 49.41 52.9536 49.41C52.8959 49.4963 52.8671 49.4963 52.8671 49.4963Z" fill="black"/>
<path d="M58.8398 47.223C58.5225 47.223 58.1764 47.1655 57.888 47.0504C57.34 46.8489 56.9362 46.5324 56.6766 46.1007C56.5901 45.9568 56.6478 45.7842 56.7632 45.6979C56.9074 45.6115 57.0804 45.6691 57.167 45.7842C57.34 46.1007 57.6573 46.3309 58.0899 46.4748C58.6379 46.6763 59.2436 46.6475 59.7339 46.4173C61.176 45.7266 60.7434 43.7698 60.7434 43.6835C60.7145 43.5971 60.7434 43.482 60.8011 43.4245C60.8587 43.3669 60.9741 43.3094 61.0606 43.3381C61.0606 43.3381 62.2432 43.5108 62.9065 42.964C63.195 42.705 63.3392 42.3597 63.368 41.8705C63.3969 40.259 61.003 40 60.9741 39.9712C60.8587 39.9712 60.7722 39.8849 60.7434 39.7986C60.7145 39.6835 60.7145 39.5684 60.8011 39.5108C60.8011 39.5108 61.0895 39.1942 61.0318 38.7626C61.003 38.3597 60.7434 37.9856 60.2819 37.5827C58.8686 36.4317 56.8497 38.3597 56.8497 38.3885C56.7343 38.5036 56.5613 38.5036 56.4459 38.3885C56.3305 38.2734 56.3305 38.1007 56.4459 37.9856C56.5324 37.8993 58.8686 35.6835 60.6569 37.1511C61.2625 37.6403 61.5798 38.1871 61.6375 38.7338C61.6663 39.0504 61.5798 39.3094 61.4933 39.5108C62.5316 39.741 63.9737 40.4317 63.9449 41.8993C63.9449 42.5612 63.7141 43.0504 63.2815 43.4245C62.6758 43.9137 61.8394 43.9712 61.3491 43.9712C61.4356 44.8921 61.2625 46.3597 59.9646 46.964C59.6185 47.1655 59.2147 47.223 58.8398 47.223Z" fill="black"/>
<path d="M23.6222 67.7698C22.9588 67.7698 22.2954 67.5108 21.8051 67.0216C21.3725 66.6187 21.1129 66.1583 21.0552 65.6978C21.0264 65.554 21.1418 65.3813 21.286 65.3813C21.4302 65.3525 21.6032 65.4676 21.6032 65.6115C21.6609 65.9568 21.8628 66.3022 22.1801 66.6187C22.6127 67.0216 23.1607 67.223 23.7087 67.1942C25.3239 67.1079 25.6988 65.0935 25.6988 65.0648C25.7277 64.9784 25.7853 64.8921 25.8719 64.8633C25.9584 64.8345 26.0738 64.8345 26.1315 64.8921C26.1315 64.8921 27.1698 65.5252 27.9774 65.2662C28.3523 65.1511 28.6119 64.8921 28.8138 64.4317C29.4771 62.964 27.3717 61.7842 27.3428 61.7842C27.2563 61.7266 27.1986 61.6403 27.1986 61.5252C27.1986 61.4101 27.2563 61.3237 27.3717 61.2662C27.3717 61.2662 27.7466 61.0935 27.8908 60.6619C28.0062 60.2878 27.9485 59.8273 27.6601 59.2806C26.8237 57.6691 24.199 58.6763 24.1702 58.6763C24.026 58.7338 23.8529 58.6475 23.7952 58.5036C23.7376 58.3597 23.8241 58.1871 23.9683 58.1295C24.0837 58.0719 27.0832 56.9496 28.1792 58.9928C28.5542 59.6835 28.6407 60.2878 28.4677 60.8345C28.3811 61.1223 28.2081 61.3525 28.035 61.4964C28.9003 62.1007 29.9675 63.3094 29.3618 64.6619C29.1022 65.2662 28.6984 65.6403 28.1504 65.8129C27.4005 66.0432 26.6218 65.7554 26.1603 65.554C25.9007 66.446 25.1508 67.7122 23.7376 67.7698C23.7087 67.7698 23.6799 67.7698 23.6222 67.7698Z" fill="black"/>
<path d="M69.0474 48.8058C68.9609 48.8058 68.8744 48.777 68.8167 48.6907C68.7301 48.5756 68.759 48.3741 68.8744 48.2878C68.9032 48.259 71.1529 46.6187 70.6049 44.2878C70.0857 42.0144 67.2015 42.4461 67.0861 42.4461C66.9708 42.4748 66.8554 42.4173 66.7977 42.3022C66.74 42.1871 66.7689 42.072 66.8266 41.9856C66.8266 41.9856 67.6341 41.0936 67.5188 40.3166C67.4899 40.0288 67.3169 39.7698 66.9996 39.5684C65.5575 38.6187 63.6251 41.1799 63.6251 41.2087C63.5385 41.3238 63.3366 41.3525 63.2213 41.2662C63.1059 41.1799 63.0771 40.9784 63.1636 40.8633C63.2501 40.7482 65.4133 37.8418 67.3169 39.0792C67.7783 39.3669 68.0379 39.7698 68.0956 40.2302C68.1821 40.8346 67.8937 41.4389 67.6341 41.8417C68.9032 41.813 70.7203 42.2734 71.1529 44.1727C71.7874 46.8777 69.307 48.6907 69.1916 48.777C69.1628 48.777 69.1051 48.8058 69.0474 48.8058Z" fill="black"/>
<path d="M56.7333 57.7267C56.1853 57.7267 55.6661 57.554 55.2335 57.2374C53.8779 56.2302 53.5318 54.072 53.5318 53.9856C53.503 53.8418 53.6183 53.6691 53.7625 53.6691C53.9067 53.6403 54.0798 53.7554 54.0798 53.8993C54.0798 53.9281 54.3971 55.9137 55.5507 56.777C55.9834 57.0936 56.5025 57.2087 57.0794 57.1223C57.5985 57.036 57.9446 56.8346 58.1465 56.4605C58.8099 55.2806 57.8004 52.9785 57.8004 52.9785C57.7716 52.8921 57.7716 52.777 57.8293 52.6907C57.887 52.6044 57.9735 52.5756 58.0889 52.5756C59.3291 52.6619 60.1655 52.4317 60.4828 51.9137C60.9731 51.1655 60.3097 49.9281 60.3097 49.9281C60.252 49.8418 60.252 49.7267 60.3385 49.6115C60.3962 49.5252 60.5116 49.4677 60.627 49.4964C60.7712 49.5252 61.9249 49.6403 62.1844 48.2303C62.4729 46.7339 60.8577 45.9281 60.7712 45.8705C60.627 45.813 60.5693 45.6403 60.627 45.4964C60.6846 45.3526 60.8577 45.295 61.0019 45.3526C61.723 45.6979 63.0209 46.7626 62.7324 48.3166C62.5017 49.554 61.6653 49.9856 61.0019 50.0432C61.2038 50.5612 61.4345 51.4821 60.9731 52.1727C60.5693 52.8058 59.7617 53.1223 58.5215 53.1223H58.4926C58.7811 53.8993 59.2714 55.5972 58.6657 56.7195C58.3773 57.2374 57.887 57.5828 57.1947 57.6691C57.0505 57.7266 56.8775 57.7267 56.7333 57.7267Z" fill="black"/>
<path d="M52.2304 63.2806C52.0862 63.2806 51.9708 63.1942 51.9419 63.0503C51.9131 62.9065 52.0285 62.7338 52.1727 62.705C52.1727 62.705 52.8361 62.5611 53.0379 62.0719C53.2398 61.6403 53.0668 60.9784 52.5765 60.2014C52.5188 60.1151 52.5188 59.9712 52.5765 59.8849C52.6342 59.7985 52.7495 59.741 52.8649 59.7698C52.8649 59.7698 54.0474 59.9136 54.8262 59.2518C55.3165 58.8201 55.5761 58.1582 55.5761 57.2662C55.5761 57.1223 55.7203 56.9784 55.8645 56.9784C56.0375 56.9784 56.1529 57.1223 56.1529 57.2662C56.1529 58.3309 55.8068 59.1654 55.1723 59.6834C54.5666 60.2014 53.8167 60.3453 53.2975 60.3453C53.7013 61.1223 53.759 61.7554 53.5283 62.3021C53.1822 63.0791 52.2592 63.2518 52.2304 63.2806C52.2304 63.2806 52.2592 63.2806 52.2304 63.2806Z" fill="black"/>
<path d="M56.9334 61.928C56.8757 61.928 56.8469 61.928 56.7892 61.928C55.8951 61.8705 55.0587 61.2086 54.2799 59.9424C54.1934 59.7985 54.2511 59.6259 54.3665 59.5395C54.5107 59.4532 54.6837 59.5108 54.7703 59.6259C55.4336 60.6906 56.1258 61.2662 56.818 61.3237C57.5391 61.3813 58.0583 60.8057 58.0583 60.8057C58.1159 60.7194 58.2313 60.6906 58.3467 60.7194C58.3467 60.7194 59.2696 60.9496 59.8176 60.518C60.106 60.3165 60.2503 60 60.2791 59.5395C60.4233 57.8417 58.1736 57.036 58.1448 57.0072C58.0006 56.9496 57.9141 56.777 57.9717 56.6331C58.0294 56.4892 58.2025 56.4029 58.3467 56.4604C58.4621 56.4892 61.029 57.4388 60.8559 59.5683C60.7983 60.2014 60.5675 60.6619 60.1349 60.9496C59.5292 61.3813 58.6928 61.3237 58.3467 61.2662C58.1736 61.5252 57.6545 61.928 56.9334 61.928Z" fill="black"/>
<path d="M59.4705 67.1942C59.3263 67.1942 59.2109 67.0791 59.1821 66.9353C59.1821 66.9065 58.836 63.4532 57.192 61.7842C57.0766 61.6691 57.0766 61.4964 57.192 61.3813C57.3074 61.2662 57.4804 61.2662 57.5958 61.3813C59.4128 63.1943 59.7589 66.7338 59.7589 66.8777C59.7878 67.0216 59.6724 67.1655 59.4705 67.1942C59.4994 67.1942 59.4705 67.1942 59.4705 67.1942Z" fill="black"/>
<path d="M66.1081 66.3309C66.0793 66.3309 66.0504 66.3309 66.0216 66.3022C65.8774 66.2446 65.7908 66.0719 65.8485 65.9281C66.1946 65.036 66.1946 64.259 65.8485 63.6259C65.3294 62.6763 64.1757 62.3885 64.1757 62.3885C64.0891 62.3597 64.0026 62.3022 63.9738 62.2158C63.9449 62.1295 63.9449 62.0144 64.0315 61.9568C64.0891 61.8993 65.1275 60.4892 63.7719 58.9352C62.4451 57.4101 60.7435 58.7914 60.6569 58.8489C60.5416 58.964 60.3397 58.9352 60.2531 58.8201C60.1378 58.705 60.1666 58.5036 60.282 58.4173C61.0319 57.7842 62.8489 57.0072 64.2045 58.5611C65.4447 60 64.9833 61.3525 64.666 61.9856C65.1275 62.1583 65.9062 62.5899 66.3388 63.3957C66.7426 64.1727 66.7715 65.0935 66.3677 66.1583C66.3388 66.2734 66.2235 66.3309 66.1081 66.3309Z" fill="black"/>
<path d="M63.9723 59.0216C63.8281 59.0216 63.6839 58.9065 63.6839 58.7626C63.6839 58.5899 63.7992 58.4748 63.9434 58.446C64.03 58.446 66.0778 58.3021 66.1931 56.5467C66.3085 54.7913 63.9434 54.4172 63.9146 54.4172C63.7992 54.3885 63.7127 54.3309 63.6839 54.2158C63.655 54.1007 63.6839 53.9856 63.7992 53.928C63.7992 53.928 64.2319 53.5827 64.2896 53.0359C64.3184 52.6618 64.1453 52.2877 63.7704 51.8849C62.8474 50.9064 61.0304 51.8561 61.0304 51.8849C60.8862 51.9712 60.7131 51.9136 60.6266 51.7698C60.5401 51.6259 60.5978 51.4532 60.742 51.3669C60.8285 51.3093 62.9628 50.187 64.1742 51.482C64.6645 52 64.8952 52.518 64.8376 53.0647C64.8087 53.4388 64.6645 53.7266 64.5203 53.9568C65.5298 54.2446 66.8854 55.0216 66.77 56.5755C66.6835 58.4172 64.9241 58.9928 63.9723 59.0216C64.0011 59.0216 64.0011 59.0216 63.9723 59.0216Z" fill="black"/>
<path d="M71.9315 59.3382C71.8162 59.3382 71.7008 59.2518 71.6431 59.1367C70.8067 56.0864 66.5957 56.8634 66.5381 56.8634C66.3938 56.8921 66.2208 56.777 66.1919 56.6331C66.1631 56.4893 66.2785 56.3166 66.4227 56.2878C66.4804 56.2878 71.2105 55.4245 72.1911 58.9641C72.22 59.108 72.1334 59.2806 71.9892 59.3094C71.9892 59.3382 71.9604 59.3382 71.9315 59.3382Z" fill="black"/>
<path d="M70.0874 57.2086C70.0009 57.2086 69.9432 57.1798 69.8855 57.1223C69.7701 57.0072 69.799 56.8345 69.9143 56.7194C70.6931 56.0287 71.0103 55.3381 70.9238 54.6474C70.7219 53.2374 68.7318 52.2877 68.7318 52.2877C68.6164 52.2302 68.5588 52.1151 68.5588 51.9712C68.5876 51.8561 68.703 51.741 68.8183 51.741H68.876C69.7124 51.6546 70.0874 51.0215 70.1451 50.4748C70.2028 49.9568 70.0297 49.2661 69.2798 48.9784C68.2703 48.6043 66.9436 48.9784 66.9148 48.9784C66.7994 49.0072 66.6552 48.9496 66.5975 48.8345C66.5398 48.7194 66.5398 48.5755 66.6552 48.4892C66.6552 48.4892 67.232 47.9136 67.1455 47.3669C67.0878 47.0791 66.8571 46.7913 66.4244 46.5899C64.9535 45.8417 62.7326 47.8561 62.7038 47.8849C62.5884 48 62.4154 47.9712 62.3 47.8561C62.1846 47.741 62.2135 47.5683 62.3288 47.4532C62.4442 47.3669 64.867 45.151 66.7129 46.0719C67.3185 46.3885 67.6646 46.7913 67.7512 47.2805C67.8089 47.6546 67.6935 48 67.5493 48.2877C68.0973 48.2302 68.8472 48.2014 69.5394 48.4604C70.5489 48.8345 70.895 49.7841 70.7796 50.5611C70.6931 51.1654 70.3181 51.8273 69.6548 52.1438C70.347 52.6043 71.3853 53.4388 71.5583 54.5899C71.7026 55.4532 71.2988 56.3165 70.3758 57.151C70.2316 57.1798 70.1451 57.2086 70.0874 57.2086Z" fill="black"/>
<path d="M70.9517 44.9208C70.8363 44.9208 70.7498 44.8633 70.6921 44.7482C70.6344 44.6043 70.6921 44.4316 70.8363 44.3741C72.0477 43.7698 72.9995 43.7985 73.5475 43.9136C73.2879 42.6762 73.4321 41.7266 73.9513 41.0935C74.4704 40.4604 75.2203 40.3453 75.5376 40.3165C76.2586 39.482 76.4317 37.9568 75.999 36.6043C75.5953 35.3381 74.7588 34.5036 73.6917 34.3021C73.0571 34.187 72.5091 34.2734 72.0477 34.5899C71.0094 35.3381 70.8075 37.0359 70.8075 37.0359C70.8075 37.151 70.7209 37.2374 70.6344 37.2662C70.519 37.2949 70.4325 37.2949 70.346 37.2086C69.7403 36.6331 68.875 36.4892 68.1251 36.8345C67.3752 37.1798 66.9138 37.8993 66.9138 38.7338C66.9138 38.9064 66.9138 39.0216 66.9138 39.0503C66.9138 39.1942 66.7984 39.3381 66.6542 39.3669C66.4811 39.3669 66.3658 39.2518 66.3369 39.1079C66.3369 39.1079 66.3369 38.964 66.3369 38.7626C66.3081 37.6978 66.9138 36.7769 67.8944 36.3453C68.7308 35.9712 69.6249 36.0575 70.346 36.518C70.4902 35.8849 70.8651 34.7626 71.7304 34.1582C72.3072 33.7266 73.0283 33.6115 73.807 33.7554C75.0761 34.0144 76.0856 34.9928 76.547 36.4604C77.0662 38.0719 76.8066 39.8561 75.8837 40.8345C75.826 40.8921 75.7395 40.9208 75.6529 40.9208C75.6529 40.9208 74.8742 40.8921 74.3839 41.4964C73.9224 42.0431 73.8647 43.0216 74.2108 44.3165C74.2397 44.4316 74.2108 44.5467 74.0955 44.6331C73.9801 44.7194 73.8647 44.7194 73.7782 44.6618C73.7494 44.6331 72.7687 44.1151 71.067 44.9496C71.0382 44.9208 71.0094 44.9208 70.9517 44.9208Z" fill="black"/>
<path d="M75.1927 35.0791C75.1639 35.0791 75.135 35.0791 75.135 35.0791C74.9908 35.0504 74.8755 34.8777 74.9331 34.7338C74.962 34.6763 75.3369 33.1223 76.8656 32.3166C77.0098 32.2302 77.1828 32.2878 77.2405 32.4317C77.327 32.5756 77.2694 32.7482 77.1252 32.8058C75.8273 33.4676 75.4811 34.8202 75.4811 34.8489C75.4523 34.9928 75.3369 35.0791 75.1927 35.0791Z" fill="black"/>
<path d="M70.4334 50.6187C70.3469 50.6187 70.2603 50.5899 70.2027 50.5036C70.1161 50.3597 70.145 50.187 70.2603 50.1007C71.8467 49.0072 73.3176 48.5755 74.6444 48.8057C75.625 48.9784 76.2595 49.4964 76.6056 49.8417C76.8941 49.4964 77.4132 49.2374 77.7305 49.0935C77.0959 47.8273 76.9517 46.7338 77.3267 45.7841C77.7305 44.7482 78.6534 44.2302 79.1437 44C77.9035 41.3525 75.7115 40.9208 75.625 40.8921C75.4808 40.8633 75.3654 40.7194 75.3943 40.5467C75.4231 40.4028 75.5673 40.2877 75.7404 40.3165C75.8557 40.3453 78.4804 40.8633 79.8071 44.0287C79.836 44.1151 79.836 44.2014 79.8071 44.259C79.7783 44.3453 79.7206 44.3741 79.6341 44.4028C79.6341 44.4028 78.3362 44.8057 77.8747 45.9568C77.5286 46.7913 77.7016 47.8561 78.3938 49.0647C78.4227 49.151 78.4515 49.2374 78.4227 49.3237C78.3938 49.41 78.3362 49.4676 78.2496 49.4964C77.7593 49.6402 77.0383 50.0143 76.9517 50.3597C76.9229 50.4748 76.8364 50.5611 76.721 50.5899C76.6056 50.6187 76.4903 50.5611 76.4326 50.4748C76.4326 50.4748 75.798 49.5827 74.5578 49.3525C73.4041 49.151 72.0774 49.5539 70.6353 50.5611C70.5488 50.5899 70.4911 50.6187 70.4334 50.6187Z" fill="black"/>
<path d="M83.2973 45.1798C83.2108 45.1798 83.1243 45.1511 83.0666 45.0647C83.0089 45.0072 81.9129 43.7698 79.6055 44.4316C79.4613 44.4604 79.2883 44.3741 79.2594 44.2302C79.2306 44.0863 79.3171 43.9137 79.4613 43.8849C81.3938 43.3381 82.6051 43.9712 83.182 44.3741C84.2203 41.5539 86.2392 41.7266 86.3258 41.7266C86.47 41.7554 86.5854 41.8993 86.5854 42.0432C86.5565 42.187 86.4411 42.3021 86.2681 42.3021C86.1816 42.3021 84.4222 42.187 83.5858 44.9496C83.5569 45.0647 83.4704 45.1223 83.355 45.1511C83.3262 45.1798 83.3262 45.1798 83.2973 45.1798Z" fill="black"/>
<path d="M78.3076 57.036C78.221 57.036 78.1634 57.0072 78.1057 56.9497C77.9903 56.8346 77.9903 56.6619 78.1057 56.5468C78.1057 56.5468 78.9998 55.6835 78.7979 54.849C78.6537 54.2447 77.9326 53.7555 76.7212 53.4101C76.6059 53.3814 76.5482 53.295 76.5193 53.2087C76.4905 53.0936 76.5193 53.0072 76.6059 52.9209C76.7212 52.8346 77.6154 51.9137 76.4328 50.5324C76.3174 50.4173 76.3463 50.2159 76.4617 50.1296C76.577 50.0144 76.7789 50.0432 76.8655 50.1583C77.9326 51.4245 77.5865 52.4605 77.2692 52.9785C78.4806 53.3814 79.1728 53.9857 79.3459 54.7339C79.6343 55.8849 78.5383 56.9497 78.4806 56.9785C78.4518 57.0073 78.3653 57.036 78.3076 57.036Z" fill="black"/>
<path d="M85.7221 52.3166C85.6356 52.3166 85.5491 52.2878 85.4914 52.2015C83.9916 50.2446 81.6265 52 81.5112 52.0864C81.4246 52.1439 81.3093 52.1727 81.2227 52.1151C81.1362 52.0576 81.0497 51.9713 81.0497 51.8849C80.992 51.0504 80.7036 50.4461 80.2133 50.0432C79.3768 49.3813 78.1655 49.5252 78.1655 49.5252C78.0213 49.554 77.8482 49.4389 77.8482 49.295C77.8194 49.1511 77.9347 48.9784 78.0789 48.9784C78.1366 48.9784 79.521 48.777 80.5594 49.6115C81.0785 50.0144 81.4246 50.6187 81.54 51.3669C82.6649 50.7051 84.5973 50.1583 85.8952 51.8561C85.9817 51.9713 85.9817 52.1727 85.8375 52.259C85.8375 52.2878 85.7798 52.3166 85.7221 52.3166Z" fill="black"/>
<path d="M78.1341 42.4461C78.1053 42.4461 78.0764 42.4461 78.0764 42.4461C77.9322 42.4173 77.8169 42.2446 77.8745 42.1008C77.9034 42.0144 78.3937 40.1439 79.7493 39.5684C80.0954 39.4245 80.4703 39.3669 80.8741 39.4245C80.4415 38.849 80.0377 38.1008 80.1242 37.295C80.2108 36.4892 80.7876 35.7986 81.7971 35.2806C81.9413 35.1943 82.1143 35.2518 82.172 35.3957C82.2586 35.5396 82.2009 35.7123 82.0567 35.7698C81.2202 36.2015 80.7588 36.7195 80.6722 37.3526C80.528 38.6187 82.0855 39.8849 82.0855 39.8849C82.2009 39.9713 82.2297 40.1439 82.1432 40.259C82.0567 40.3741 81.8836 40.4317 81.7682 40.3454C81.076 39.9425 80.4703 39.8562 79.9512 40.0576C78.8552 40.518 78.4225 42.1871 78.4225 42.1871C78.3649 42.3598 78.2495 42.4461 78.1341 42.4461Z" fill="black"/>
<path d="M10.9307 64.2878C10.3827 64.2878 9.77704 64.2015 9.11367 64.0288C8.96946 64 8.88293 63.8274 8.91178 63.6835C8.94062 63.5396 9.11367 63.4245 9.25788 63.482C10.8442 63.9137 12.0556 63.7986 12.8343 63.1079C14.1899 61.9281 13.9015 59.4245 13.9015 59.3957C13.9015 59.2806 13.9303 59.1655 14.0457 59.1079C14.1322 59.0504 14.2764 59.0504 14.3629 59.1079C15.2571 59.7122 17.0741 59.5971 18.2566 58.8489C18.8335 58.4748 19.5257 57.8417 19.3815 56.777C19.295 56.1439 19.0642 55.6835 18.6604 55.3957C17.9105 54.9065 16.8434 55.1655 16.8145 55.1943C16.6992 55.223 16.6126 55.1943 16.5261 55.1079C16.4396 55.0216 16.4396 54.9065 16.4684 54.8202C16.7568 53.9568 16.728 53.3238 16.4107 52.8921C15.8339 52.1727 14.536 52.2302 14.536 52.2302C14.3918 52.2302 14.2476 52.1151 14.2187 51.9712C14.1899 51.8274 14.3341 51.6835 14.4783 51.6547C14.536 51.6547 16.0935 51.5396 16.8434 52.518C17.2183 53.0072 17.3337 53.6979 17.1318 54.5324C17.5933 54.4748 18.3432 54.5036 18.9489 54.9065C19.4969 55.2806 19.843 55.8849 19.9295 56.6907C20.0737 57.7554 19.5545 58.7051 18.5451 59.3381C17.3625 60.0576 15.632 60.259 14.5072 59.8274C14.536 60.7194 14.3918 62.5036 13.2093 63.5108C12.6324 64.0288 11.8825 64.2878 10.9307 64.2878Z" fill="black"/>
<path d="M11.9955 72.4893C11.8224 72.4893 11.707 72.3741 11.707 72.2015C11.707 72.0288 11.8224 71.9137 11.9955 71.9137C12.0531 71.9137 15.7161 71.8849 16.1199 69.7842C16.2064 69.3813 16.1199 68.9209 15.918 68.4892C15.6584 67.9713 15.1104 67.1367 14.4759 67.1943C14.3605 67.1943 14.2163 67.1367 14.1875 67.0216C14.1298 66.9065 14.1875 66.7626 14.274 66.6763C14.3028 66.6763 15.8026 65.4964 15.6873 64.2302C15.6007 63.482 14.9662 62.8202 13.7837 62.2446C13.6395 62.1871 13.5818 62.0144 13.6395 61.8705C13.6971 61.7266 13.8702 61.6691 14.0144 61.7266C15.3988 62.3885 16.1487 63.1943 16.2353 64.1727C16.3506 65.2374 15.6007 66.2159 15.0527 66.7338C15.6584 66.9928 16.1199 67.6547 16.4083 68.2303C16.6679 68.7482 16.7833 69.3526 16.6679 69.8705C16.2064 72.4317 12.2262 72.4893 11.9955 72.4893Z" fill="black"/>
<path d="M18.1988 73.4676C18.1411 73.4676 18.1123 73.4676 18.0546 73.4388C17.9104 73.3525 17.8527 73.1798 17.9392 73.0359C17.9392 73.0359 18.2565 72.4316 18.0258 71.7122C17.8239 71.0791 17.2182 70.5324 16.2952 70.1007C16.151 70.0432 16.0933 69.8705 16.151 69.7266C16.2087 69.5827 16.3817 69.5252 16.526 69.5827C17.622 70.1007 18.3142 70.7626 18.5738 71.5683C18.891 72.518 18.4584 73.2949 18.4295 73.3525C18.4007 73.41 18.2853 73.4676 18.1988 73.4676Z" fill="black"/>
<path d="M16.4378 69.0647C16.3224 69.0647 16.2071 68.9784 16.1782 68.8633C16.1205 68.7194 16.2071 68.5467 16.3513 68.4892C18.1972 67.8849 17.8799 66.6474 17.8511 66.6187C17.8222 66.5036 17.8511 66.3885 17.9376 66.3309C18.0241 66.2446 18.1395 66.2446 18.226 66.2733C18.8029 66.4748 19.3509 66.5899 19.7835 66.5899H19.8123C20.4469 66.5899 20.966 66.1295 21.0237 65.5251C21.0526 65.2662 20.966 65.0359 20.8218 64.8345C20.245 64.1439 18.774 64.0287 18.7452 64.0287C18.601 64.0287 18.4856 63.9136 18.4856 63.7698C18.4568 63.6259 18.5433 63.5108 18.6875 63.4532H18.7163C19.2067 63.2805 19.5239 62.8777 19.6393 62.3885C19.7547 61.8705 19.5816 61.3237 19.2067 60.9208C18.2837 60.0288 16.6974 59.9424 16.6974 59.9424C16.5243 59.9424 16.409 59.7985 16.409 59.6547C16.409 59.482 16.5532 59.3669 16.6974 59.3669C16.7839 59.3669 18.5144 59.4532 19.6104 60.4892C20.1296 61.0072 20.3603 61.7554 20.2161 62.4748C20.1296 62.9064 19.8989 63.2805 19.6104 63.5395C20.1584 63.6834 20.8795 63.9424 21.2833 64.4316C21.5429 64.7482 21.6582 65.1223 21.6294 65.5539C21.5429 66.446 20.7641 67.1367 19.87 67.1367C19.4662 67.1367 19.0048 67.0791 18.4856 66.9064C18.4568 67.482 18.1683 68.4604 16.5532 69.0072C16.5243 69.0647 16.4955 69.0647 16.4378 69.0647Z" fill="black"/>
<path d="M25.2946 70.7051C25.2946 70.7051 26.4772 68.3166 24.2852 67.3669L25.2946 70.7051Z" fill="#FEFFFA"/>
<path d="M25.2951 70.9928C25.2374 70.9928 25.2085 70.9928 25.1797 70.9641C25.0355 70.9065 24.9778 70.7338 25.0355 70.59C25.0355 70.59 25.5546 69.554 25.2085 68.6619C25.0355 68.2015 24.6894 67.8561 24.1702 67.6259C24.026 67.5684 23.9683 67.3957 24.026 67.2518C24.0837 67.1079 24.2567 67.0504 24.401 67.1079C25.0932 67.3957 25.5546 67.8561 25.7565 68.4605C26.1603 69.5828 25.5835 70.7914 25.5546 70.8202C25.497 70.9353 25.4104 70.9928 25.2951 70.9928Z" fill="black"/>
</g>
<defs>
<clipPath id="clip0">
<rect width="89.6703" height="80" fill="white"/>
</clipPath>
</defs>
</svg>
