<svg width="676" height="624" viewBox="0 0 676 624" fill="none" xmlns="http://www.w3.org/2000/svg">
<path d="M641.329 184.931C661.457 204.155 691.873 329.334 663.397 352.313C657.879 359.287 662.058 339.767 652.365 343.493C642.671 347.22 649.828 381.197 633.579 384.026C622.096 386.112 625.227 361.373 618.07 367.335C604.204 379.853 618.41 403.147 618.07 418.601C615.684 454.366 540.543 537.217 531 546.162C521.456 555.107 516.69 556.294 505.952 553.315C495.213 550.335 493.424 546.759 497.604 527.088C502.967 496.094 535.118 486.28 529.808 429.33C527.418 406.677 474.348 400.117 470.169 388.794C465.989 377.471 473.153 367.692 499.987 352.313C526.82 336.938 582.892 342.303 597.796 337.531C612.699 332.76 621.645 326.205 619.266 304.152C618.664 293.422 612.706 282.692 595.409 286.269C578.112 289.845 578.119 310.707 566.783 306.537C555.447 302.367 566.786 287.463 548.891 280.31C530.996 273.157 501.779 307.134 491.639 304.155C481.498 301.176 485.681 294.019 494.025 274.352C502.37 254.684 522.655 254.084 533.386 238.586C544.118 223.089 513.713 195.664 533.386 174.209C553.06 152.753 570.365 174.205 582.287 174.209C594.21 174.212 608.538 170.629 613.3 145.596C618.063 120.564 566.178 49.0335 440.347 12.0736C399.787 -1.03803 233.994 -15.9415 218.493 53.801C217.87 59.6093 215.509 90.1637 241.154 95.5285C274.547 101.494 294.235 62.1451 321.068 56.1866C347.902 50.2281 355.663 70.4927 385.478 76.4548C415.292 82.4169 457.036 65.7288 466.583 88.3754C496.401 143.218 410.522 219.513 398.596 214.745C386.669 209.978 397.869 184.459 397.404 169.441C396.939 154.423 398.599 128.307 385.478 128.908C372.356 129.509 366.992 168.25 348.503 165.865C330.014 163.483 332.998 131.287 304.372 131.29C275.746 131.294 234.595 185.536 262.624 198.054C290.653 210.571 322.857 186.129 332.998 186.133C343.139 186.137 361.628 190.9 360.433 221.898C359.242 252.896 312.724 257.664 294.832 268.393C276.941 279.123 269.187 302.37 256.663 307.735C244.139 313.1 235.193 294.026 223.266 301.773C211.34 309.52 198.218 322.635 218.497 342.306C248.615 365.554 327.338 380.754 355.663 411.451C364.011 424.266 389.954 451.984 360.433 486.559C330.912 521.133 316.213 509.917 307.95 524.71C298.708 555.11 328.822 588.787 307.95 586.702C287.078 584.617 272.765 561.362 267.398 481.784C264.714 460.325 250.698 446.612 241.158 429.327C231.618 412.041 234.313 386.265 225.653 369.717C207.465 343.193 146.931 323.519 137.387 288.647C127.844 253.776 166.311 209.963 163.627 167.045C161.33 149.549 164.819 129.491 137.387 124.126C109.956 118.762 84.9045 165.858 84.9045 165.858C84.9045 165.858 -18.866 378.958 142.157 537.818C321.072 689.223 502.37 592.657 502.37 592.657" stroke="black" stroke-miterlimit="10"/>
<path d="M487.783 443.806H274.771C275.09 423.698 282.274 360.948 357.862 340.08C359.64 339.588 361.453 339.119 363.307 338.678H405.91C405.91 338.678 484.389 370.587 487.783 435.104C487.934 437.943 487.94 440.84 487.783 443.806Z" fill="#73B7EA"/>
<path d="M487.783 443.806H274.771C275.09 423.698 282.274 360.948 357.862 340.08C359.64 339.588 361.453 339.119 363.307 338.678H405.91C405.91 338.678 484.389 370.587 487.783 435.104C487.934 437.943 487.94 440.84 487.783 443.806Z" stroke="#2E1E00" stroke-miterlimit="10" stroke-linecap="round" stroke-linejoin="round"/>
<path d="M334.675 286.723C334.675 286.723 301.745 384.467 302.79 398.057C303.836 411.647 314.29 421.055 336.766 418.964C359.242 416.874 423.01 420.532 473.711 385.512L384.17 272.087L334.675 286.723Z" fill="#73B7EA"/>
<path d="M334.675 286.723C334.675 286.723 301.745 384.467 302.79 398.057C303.836 411.647 314.29 421.055 336.766 418.964C359.242 416.874 423.01 420.532 473.711 385.512L384.17 272.087L334.675 286.723Z" stroke="#2E1E00" stroke-miterlimit="10" stroke-linecap="round" stroke-linejoin="round"/>
<path d="M379.303 201.001C378.585 201.008 377.863 201.037 377.141 201.089C356.026 202.627 342.159 222.76 335.197 240.726C326.577 262.971 328.05 289.879 330.444 313.126C332.496 333.062 334.066 354.078 342.605 372.513C351.081 390.81 369.749 397.433 388.973 392.757C414.272 386.603 438.511 367.188 439.094 339.508C439.319 328.818 433.285 318.967 430.678 308.818C428.225 299.265 426.634 289.473 425.221 279.72C423.374 266.958 421.901 254.108 420.919 241.248C419.347 220.667 400.536 200.812 379.303 201.001Z" fill="#73B7EA"/>
<path d="M379.303 201.001C378.585 201.008 377.864 201.037 377.141 201.089C356.026 202.627 342.159 222.76 335.197 240.726C326.577 262.971 328.05 289.879 330.444 313.126C332.496 333.062 334.066 354.078 342.605 372.513C351.081 390.81 369.749 397.433 388.973 392.757C414.272 386.603 438.511 367.188 439.094 339.508C439.319 328.818 433.285 318.967 430.678 308.818C428.225 299.265 426.634 289.473 425.221 279.72C423.374 266.958 421.901 254.108 420.919 241.248C419.347 220.667 400.536 200.812 379.303 201.001Z" stroke="#2E1E00" stroke-miterlimit="10" stroke-linecap="round" stroke-linejoin="round"/>
<path d="M381.247 222.636C381.078 222.629 380.909 222.624 380.738 222.621C358.877 222.214 354.43 248.398 347.089 263.962C338.037 283.155 354.102 303.964 373.354 307.108C398.964 311.29 412.554 289.862 413.601 282.019C415.715 266.19 411.154 247.074 401.695 234.173C397.056 227.845 389.45 222.977 381.247 222.636Z" fill="#F7DEC3"/>
<path d="M381.247 222.636C381.078 222.629 380.909 222.624 380.738 222.621C358.877 222.214 354.43 248.398 347.089 263.962C338.037 283.155 354.102 303.964 373.354 307.108C398.964 311.29 412.554 289.862 413.601 282.019C415.715 266.19 411.154 247.074 401.695 234.173C397.056 227.845 389.45 222.977 381.247 222.636Z" stroke="#2E1E00" stroke-miterlimit="10" stroke-linecap="round" stroke-linejoin="round"/>
<path d="M362.696 277.096C362.696 277.096 379.116 285.33 396.508 277.096" stroke="#2E1E00" stroke-miterlimit="10" stroke-linecap="round" stroke-linejoin="round"/>
<path d="M372.439 287.581C372.439 287.581 379.646 291.767 386.854 287.581" stroke="#2E1E00" stroke-miterlimit="10" stroke-linecap="round" stroke-linejoin="round"/>
<path d="M379.601 251.702L379.362 264.542C379.33 266.303 380.749 267.749 382.51 267.749" stroke="#2E1E00" stroke-miterlimit="10" stroke-linecap="round" stroke-linejoin="round"/>
<path d="M364.355 246.24C361.794 247.994 358.976 248.333 358.059 246.996C357.143 245.659 358.476 243.152 361.036 241.397C363.596 239.643 366.415 239.305 367.332 240.641C368.248 241.978 366.915 244.485 364.355 246.24Z" fill="#2E1E00"/>
<path d="M395.793 247.028C398.354 248.783 401.172 249.121 402.089 247.784C403.005 246.447 401.672 243.94 399.112 242.186C396.551 240.432 393.733 240.093 392.816 241.43C391.9 242.766 393.233 245.273 395.793 247.028Z" fill="#2E1E00"/>
<path d="M365.652 254.669C365.652 255.72 364.8 256.574 363.747 256.574C362.695 256.574 361.842 255.72 361.842 254.669C361.842 253.617 362.695 252.764 363.747 252.764C364.799 252.764 365.652 253.616 365.652 254.669Z" fill="#2E1E00"/>
<path d="M397.452 254.237C397.452 255.289 396.6 256.143 395.547 256.143C394.495 256.143 393.642 255.289 393.642 254.237C393.642 253.186 394.495 252.332 395.547 252.332C396.6 252.332 397.452 253.186 397.452 254.237Z" fill="#2E1E00"/>
<path d="M343.34 436.448H140.562C140.815 420.297 145.718 375.284 190.343 349.629C198.66 344.849 208.355 340.742 219.66 337.618C221.353 337.149 223.079 336.702 224.844 336.282H265.399C265.399 336.282 279.71 342.105 296.072 353.807C317.1 368.843 341.52 393.588 343.34 428.157C343.482 430.862 343.488 433.622 343.34 436.448Z" fill="#FFDC38"/>
<path d="M343.339 437H140.561C140.413 437 140.272 436.941 140.168 436.835C140.064 436.73 140.008 436.587 140.01 436.439C140.132 428.655 141.372 413.101 148.304 396.391C156.7 376.15 170.751 360.255 190.068 349.15C198.801 344.131 208.708 340.071 219.513 337.086C221.263 336.601 223.014 336.15 224.716 335.745C224.758 335.736 224.801 335.73 224.844 335.73H265.399C265.47 335.73 265.541 335.744 265.607 335.771C265.75 335.83 280.165 341.753 296.393 353.358C317.042 368.124 342.045 393.081 343.89 428.128C344.036 430.889 344.036 433.698 343.89 436.477C343.874 436.77 343.633 437 343.339 437ZM141.123 435.896H342.814C342.932 433.326 342.923 430.735 342.788 428.187C340.966 393.578 316.204 368.88 295.751 354.257C280.33 343.228 266.581 337.373 265.289 336.834H224.908C223.238 337.232 221.521 337.674 219.806 338.15C209.09 341.111 199.27 345.134 190.617 350.107C171.516 361.089 157.622 376.803 149.321 396.814C142.624 412.963 141.295 428.021 141.123 435.896Z" fill="#2E1E00"/>
<path d="M246.582 344.772L211.602 381.506L190.342 349.629C198.659 344.849 208.354 340.743 219.659 337.618C221.352 337.149 223.078 336.702 224.843 336.283H226.845L246.582 344.772Z" fill="white"/>
<path d="M211.603 382.057C211.587 382.057 211.57 382.056 211.555 382.055C211.388 382.04 211.237 381.951 211.145 381.811L189.885 349.935C189.8 349.808 189.772 349.651 189.806 349.503C189.841 349.354 189.935 349.226 190.069 349.15C198.802 344.131 208.709 340.071 219.513 337.086C221.263 336.601 223.013 336.15 224.717 335.745C224.758 335.736 224.801 335.73 224.844 335.73H226.846C226.92 335.73 226.995 335.746 227.064 335.775L246.801 344.264C246.967 344.336 247.088 344.484 247.123 344.661C247.159 344.838 247.107 345.022 246.982 345.152L212.002 381.886C211.897 381.996 211.753 382.057 211.603 382.057ZM191.13 349.815L211.679 380.625L245.637 344.965L226.732 336.834H224.908C223.239 337.232 221.523 337.674 219.807 338.15C209.303 341.053 199.658 344.976 191.13 349.815Z" fill="#2E1E00"/>
<path d="M296.073 353.808L272.05 377.989L246.583 348.95L255.836 336.283H265.399C265.399 336.283 279.71 342.105 296.073 353.808Z" fill="white"/>
<path d="M272.049 378.541C272.044 378.541 272.038 378.541 272.033 378.541C271.88 378.536 271.736 378.468 271.634 378.353L246.168 349.314C245.997 349.12 245.985 348.833 246.137 348.624L255.39 335.957C255.494 335.815 255.66 335.73 255.836 335.73H265.399C265.47 335.73 265.541 335.744 265.607 335.771C265.75 335.83 280.165 341.753 296.392 353.358C296.524 353.452 296.608 353.6 296.621 353.761C296.634 353.923 296.577 354.082 296.463 354.197L272.44 378.379C272.337 378.483 272.196 378.541 272.049 378.541ZM247.289 348.918L272.074 377.181L295.223 353.88C280.023 343.098 266.567 337.368 265.29 336.834H256.117L247.289 348.918Z" fill="#2E1E00"/>
<path d="M267.152 313.884V343.011C236.33 364.527 217.823 343.011 217.823 343.011V311.715L245.684 312.94L267.152 313.884Z" fill="#DCA88B"/>
<path d="M240.586 353.117C237.381 353.117 234.09 352.661 230.763 351.606C222.232 348.9 217.598 343.595 217.404 343.371C217.318 343.271 217.271 343.143 217.271 343.011V311.714C217.271 311.564 217.332 311.419 217.442 311.315C217.55 311.211 217.701 311.157 217.847 311.163L267.176 313.332C267.471 313.345 267.704 313.588 267.704 313.883V343.011C267.704 343.191 267.615 343.361 267.468 343.464C260.656 348.218 251.088 353.117 240.586 353.117ZM218.374 342.798C219.188 343.672 223.676 348.214 231.149 350.57C241.992 353.987 254.245 351.273 266.601 342.722V314.412L218.374 312.291V342.798Z" fill="#2E1E00"/>
<path d="M245.683 312.94L217.823 342.718V311.714L245.683 312.94Z" fill="#2E1E00"/>
<path d="M203.735 265.887V244.495C203.735 242.277 204.292 240.096 205.356 238.15L212.372 225.309C214.539 221.343 218.579 218.76 223.086 218.459L228.079 218.126C230.041 217.995 231.657 216.531 231.98 214.589L232.236 213.053C232.568 211.053 234.297 209.588 236.323 209.588H236.617C238.501 209.588 240.147 210.859 240.625 212.684L241.067 214.371C241.2 214.879 241.947 214.782 241.947 214.258V213.735C241.947 211.444 243.802 209.588 246.091 209.588C248.117 209.588 249.845 211.053 250.178 213.053L250.55 215.748C250.614 216.212 251.258 216.277 251.414 215.835L252.708 212.179C253.34 210.613 254.86 209.588 256.549 209.588C259.819 209.197 262.423 212.007 261.885 214.583L260.975 218.948C260.682 220.349 261.115 221.804 262.127 222.817L278.098 238.801C280.575 241.281 281.967 244.645 281.967 248.152V278.36L203.735 265.887Z" fill="#2E1E00"/>
<path d="M281.965 278.912C281.936 278.912 281.907 278.91 281.879 278.905L203.649 266.433C203.381 266.39 203.184 266.159 203.184 265.888V244.496C203.184 242.192 203.768 239.907 204.872 237.886L211.889 225.044C214.157 220.891 218.33 218.224 223.049 217.909L228.043 217.576C229.758 217.462 231.153 216.196 231.436 214.499L231.691 212.963C232.07 210.688 234.018 209.036 236.322 209.036H236.617C238.75 209.036 240.617 210.479 241.158 212.543L241.401 213.475C241.538 211.004 243.588 209.036 246.09 209.036C248.394 209.036 250.343 210.688 250.721 212.963L251.035 215.247L252.186 211.995C252.911 210.199 254.605 209.049 256.514 209.036C258.28 208.835 260.04 209.487 261.226 210.783C262.253 211.904 262.701 213.368 262.423 214.697L261.513 219.061C261.257 220.284 261.631 221.543 262.515 222.427L278.486 238.411C281.085 241.013 282.516 244.473 282.516 248.153V278.36C282.516 278.522 282.446 278.675 282.323 278.78C282.222 278.866 282.095 278.912 281.965 278.912ZM204.286 265.417L281.413 277.713V248.153C281.413 244.768 280.096 241.586 277.705 239.192L261.734 223.208C260.587 222.059 260.1 220.424 260.433 218.835L261.343 214.471C261.548 213.488 261.2 212.389 260.412 211.528C259.459 210.486 258.039 209.965 256.612 210.136C256.59 210.139 256.569 210.14 256.547 210.14C255.076 210.14 253.769 211.022 253.217 212.386L251.932 216.02C251.776 216.463 251.356 216.731 250.89 216.681C250.423 216.634 250.066 216.289 250.002 215.823L249.631 213.129C249.343 211.404 247.853 210.14 246.089 210.14C244.108 210.14 242.497 211.753 242.497 213.736V214.258C242.497 214.767 242.13 215.184 241.626 215.249C241.12 215.315 240.661 215.004 240.532 214.512L240.09 212.823C239.676 211.244 238.248 210.14 236.616 210.14H236.321C234.558 210.14 233.067 211.404 232.778 213.145L232.522 214.681C232.155 216.885 230.343 218.528 228.114 218.677L223.12 219.01C218.78 219.3 214.942 221.754 212.855 225.574L205.838 238.415C204.822 240.274 204.286 242.377 204.286 244.496V265.417H204.286Z" fill="#2E1E00"/>
<path d="M290.878 286.197C290.878 293.013 285.357 298.544 278.547 298.544C276.666 298.544 274.885 298.125 273.291 297.368L271.774 309.109C271.107 314.319 268.14 318.956 263.696 321.749L248.514 331.281C245.718 333.037 242.486 333.97 239.183 333.97C236.663 333.97 234.203 333.429 231.958 332.413C229.714 331.397 227.678 329.907 226.013 328.014L209.386 309.143C206.845 306.256 205.317 302.613 205.046 298.771L204.893 296.591C202.973 297.833 200.69 298.545 198.241 298.545C191.43 298.545 185.911 293.014 185.911 286.197C185.911 279.38 191.431 273.855 198.241 273.855C200.215 273.855 202.079 274.319 203.734 275.147V270.538C203.734 268.269 204.175 266.017 205.03 263.92L213.247 243.696C215.701 237.652 221.299 233.468 227.784 232.827L247.979 230.824C253.074 230.321 258.137 232.066 261.837 235.604L263.056 236.768C265.996 239.578 267.87 243.326 268.356 247.366L269.938 260.398C270.22 262.761 270.986 265.046 272.183 267.105L273.517 269.412C274.4 270.93 275.045 272.564 275.436 274.253C276.429 273.994 277.471 273.856 278.547 273.856C285.357 273.855 290.878 279.38 290.878 286.197Z" fill="#DCA88B"/>
<path d="M239.182 334.521C236.592 334.521 234.085 333.981 231.729 332.916C229.371 331.848 227.307 330.322 225.598 328.379L208.972 309.507C206.362 306.543 204.772 302.744 204.495 298.81L204.404 297.523C202.526 298.555 200.413 299.096 198.239 299.096C191.136 299.096 185.358 293.309 185.358 286.196C185.358 279.087 191.137 273.302 198.239 273.302C199.962 273.302 201.62 273.633 203.181 274.286V270.537C203.181 268.184 203.63 265.887 204.518 263.71L212.735 243.487C215.273 237.235 221.019 232.94 227.728 232.277L247.923 230.274C253.186 229.755 258.396 231.552 262.217 235.204L263.435 236.369C266.461 239.261 268.403 243.142 268.902 247.3L270.485 260.331C270.758 262.631 271.489 264.816 272.658 266.826L273.993 269.135C274.806 270.533 275.427 272.03 275.838 273.588C276.724 273.399 277.632 273.302 278.545 273.302C285.648 273.302 291.428 279.087 291.428 286.196C291.428 293.309 285.648 299.096 278.545 299.096C276.875 299.096 275.262 298.785 273.742 298.17L272.32 309.18C271.63 314.57 268.592 319.323 263.987 322.216L248.805 331.749C245.916 333.563 242.587 334.521 239.182 334.521ZM204.891 296.038C204.975 296.038 205.06 296.057 205.138 296.096C205.311 296.183 205.427 296.357 205.442 296.551L205.595 298.731C205.856 302.427 207.349 305.994 209.799 308.777L226.426 327.648C228.031 329.474 229.969 330.907 232.184 331.909C234.395 332.91 236.749 333.417 239.182 333.417C242.38 333.417 245.505 332.517 248.22 330.813L263.402 321.281C267.726 318.563 270.578 314.101 271.226 309.038L272.743 297.297C272.765 297.122 272.871 296.968 273.026 296.884C273.181 296.799 273.367 296.794 273.526 296.869C275.097 297.614 276.786 297.992 278.546 297.992C285.041 297.992 290.325 292.7 290.325 286.196C290.325 279.695 285.041 274.406 278.546 274.406C277.538 274.406 276.539 274.534 275.575 274.786C275.43 274.823 275.278 274.801 275.15 274.724C275.023 274.647 274.931 274.521 274.898 274.376C274.517 272.73 273.891 271.153 273.039 269.688L271.704 267.38C270.46 265.239 269.68 262.912 269.39 260.462L267.807 247.431C267.338 243.528 265.516 239.882 262.674 237.166L261.455 236.002C257.867 232.572 252.98 230.884 248.031 231.372L227.836 233.375C221.535 233.998 216.14 238.031 213.756 243.902L205.539 264.127C204.706 266.17 204.284 268.326 204.284 270.537V275.146C204.284 275.337 204.185 275.514 204.023 275.615C203.86 275.716 203.656 275.725 203.486 275.639C201.851 274.821 200.086 274.406 198.239 274.406C191.745 274.406 186.46 279.695 186.46 286.196C186.46 292.7 191.745 297.992 198.239 297.992C200.508 297.992 202.705 297.346 204.591 296.126C204.683 296.068 204.786 296.038 204.891 296.038Z" fill="#2E1E00"/>
<path d="M235.976 302.835C227.604 302.835 221.856 300.372 221.764 300.331C221.485 300.208 221.359 299.883 221.481 299.604C221.603 299.325 221.929 299.198 222.208 299.32C222.352 299.384 236.875 305.588 253.324 297.856C253.6 297.726 253.929 297.846 254.058 298.121C254.186 298.397 254.069 298.726 253.793 298.856C247.33 301.894 241.151 302.835 235.976 302.835Z" fill="#2E1E00"/>
<path d="M236.85 309.842C232.01 309.842 228.837 308.212 228.631 308.104C228.361 307.962 228.259 307.629 228.401 307.359C228.542 307.09 228.876 306.986 229.145 307.127C229.221 307.167 236.8 311.033 246.347 306.529C246.625 306.399 246.952 306.517 247.081 306.793C247.211 307.069 247.093 307.398 246.818 307.528C243.097 309.282 239.687 309.842 236.85 309.842Z" fill="#2E1E00"/>
<path d="M203.735 286.048H193.644C193.339 286.048 193.092 285.801 193.092 285.496C193.092 285.191 193.339 284.944 193.644 284.944H203.735C204.04 284.944 204.287 285.191 204.287 285.496C204.287 285.801 204.04 286.048 203.735 286.048Z" fill="#2E1E00"/>
<path d="M284.688 286.048H274.597C274.291 286.048 274.045 285.801 274.045 285.496C274.045 285.191 274.291 284.944 274.597 284.944H284.688C284.993 284.944 285.24 285.191 285.24 285.496C285.24 285.801 284.993 286.048 284.688 286.048Z" fill="#2E1E00"/>
<path d="M240.863 289.498C240.781 289.498 240.696 289.479 240.616 289.44L237.525 287.886C237.339 287.792 237.222 287.601 237.221 287.393L237.185 266.724C237.184 266.419 237.429 266.171 237.735 266.171H237.736C238.04 266.171 238.287 266.417 238.288 266.722L238.323 287.052L241.112 288.453C241.384 288.59 241.494 288.922 241.357 289.194C241.26 289.386 241.065 289.498 240.863 289.498Z" fill="#2E1E00"/>
<path d="M225.407 296.229C225.261 296.229 225.118 296.172 225.009 296.059C224.798 295.84 224.805 295.49 225.024 295.279L228.505 291.929C228.724 291.719 229.073 291.725 229.285 291.945C229.496 292.165 229.489 292.514 229.269 292.726L225.788 296.075C225.682 296.177 225.544 296.229 225.407 296.229Z" fill="#2E1E00"/>
<path d="M234.642 297.702C234.596 297.702 234.55 297.697 234.504 297.685C234.209 297.609 234.031 297.308 234.107 297.012L235.178 292.86C235.253 292.565 235.553 292.389 235.85 292.463C236.145 292.539 236.322 292.841 236.246 293.136L235.176 297.288C235.112 297.537 234.887 297.702 234.642 297.702Z" fill="#2E1E00"/>
<path d="M252.256 296.228C252.118 296.228 251.98 296.177 251.873 296.074L248.393 292.726C248.174 292.514 248.166 292.165 248.378 291.945C248.589 291.726 248.937 291.718 249.157 291.929L252.638 295.279C252.858 295.49 252.865 295.839 252.654 296.059C252.545 296.172 252.401 296.228 252.256 296.228Z" fill="#2E1E00"/>
<path d="M243.021 297.702C242.775 297.702 242.551 297.537 242.487 297.288L241.417 293.136C241.34 292.84 241.518 292.539 241.813 292.463C242.109 292.389 242.409 292.565 242.485 292.86L243.556 297.012C243.631 297.308 243.454 297.608 243.159 297.685C243.113 297.697 243.067 297.702 243.021 297.702Z" fill="#2E1E00"/>
<path d="M211.889 302.201C211.585 302.201 211.338 301.954 211.338 301.649V298.356C211.338 298.051 211.585 297.804 211.889 297.804C212.194 297.804 212.441 298.051 212.441 298.356V301.649C212.441 301.954 212.194 302.201 211.889 302.201Z" fill="#2E1E00"/>
<path d="M220.187 315.518C219.882 315.518 219.635 315.271 219.635 314.966V310.545C219.635 310.24 219.882 309.993 220.187 309.993C220.492 309.993 220.738 310.24 220.738 310.545V314.966C220.738 315.271 220.492 315.518 220.187 315.518Z" fill="#2E1E00"/>
<path d="M233.169 319.938C232.865 319.938 232.618 319.691 232.618 319.386V314.966C232.618 314.661 232.865 314.414 233.169 314.414C233.474 314.414 233.721 314.661 233.721 314.966V319.386C233.721 319.691 233.474 319.938 233.169 319.938Z" fill="#2E1E00"/>
<path d="M211.889 302.201C211.585 302.201 211.338 301.954 211.338 301.649V298.356C211.338 298.051 211.585 297.804 211.889 297.804C212.194 297.804 212.441 298.051 212.441 298.356V301.649C212.441 301.954 212.194 302.201 211.889 302.201Z" fill="#2E1E00"/>
<path d="M220.187 315.518C219.882 315.518 219.635 315.271 219.635 314.966V310.545C219.635 310.24 219.882 309.993 220.187 309.993C220.492 309.993 220.738 310.24 220.738 310.545V314.966C220.738 315.271 220.492 315.518 220.187 315.518Z" fill="#2E1E00"/>
<path d="M233.169 319.938C232.865 319.938 232.618 319.691 232.618 319.386V314.966C232.618 314.661 232.865 314.414 233.169 314.414C233.474 314.414 233.721 314.661 233.721 314.966V319.386C233.721 319.691 233.474 319.938 233.169 319.938Z" fill="#2E1E00"/>
<path d="M211.889 302.201C211.585 302.201 211.338 301.954 211.338 301.649V298.356C211.338 298.051 211.585 297.804 211.889 297.804C212.194 297.804 212.441 298.051 212.441 298.356V301.649C212.441 301.954 212.194 302.201 211.889 302.201Z" fill="#2E1E00"/>
<path d="M220.187 315.518C219.882 315.518 219.635 315.271 219.635 314.966V310.545C219.635 310.24 219.882 309.993 220.187 309.993C220.492 309.993 220.738 310.24 220.738 310.545V314.966C220.738 315.271 220.492 315.518 220.187 315.518Z" fill="#2E1E00"/>
<path d="M233.169 319.938C232.865 319.938 232.618 319.691 232.618 319.386V314.966C232.618 314.661 232.865 314.414 233.169 314.414C233.474 314.414 233.721 314.661 233.721 314.966V319.386C233.721 319.691 233.474 319.938 233.169 319.938Z" fill="#2E1E00"/>
<path d="M266.809 302.201C266.504 302.201 266.258 301.954 266.258 301.649V298.356C266.258 298.051 266.504 297.804 266.809 297.804C267.114 297.804 267.361 298.051 267.361 298.356V301.649C267.361 301.954 267.114 302.201 266.809 302.201Z" fill="#2E1E00"/>
<path d="M258.511 315.518C258.206 315.518 257.959 315.271 257.959 314.966V310.545C257.959 310.24 258.206 309.993 258.511 309.993C258.816 309.993 259.062 310.24 259.062 310.545V314.966C259.062 315.271 258.816 315.518 258.511 315.518Z" fill="#2E1E00"/>
<path d="M245.53 319.938C245.224 319.938 244.978 319.691 244.978 319.386V314.966C244.978 314.661 245.224 314.414 245.53 314.414C245.834 314.414 246.081 314.661 246.081 314.966V319.386C246.081 319.691 245.834 319.938 245.53 319.938Z" fill="#2E1E00"/>
<path d="M238.393 329.583C238.088 329.583 237.841 329.336 237.841 329.031V324.208C237.841 323.904 238.088 323.656 238.393 323.656C238.697 323.656 238.944 323.904 238.944 324.208V329.031C238.944 329.336 238.697 329.583 238.393 329.583Z" fill="#2E1E00"/>
<path d="M220.514 263.936C218.077 265.608 215.394 265.93 214.521 264.657C213.649 263.383 214.919 260.994 217.356 259.322C219.794 257.65 222.476 257.328 223.348 258.602C224.221 259.876 222.952 262.264 220.514 263.936Z" fill="#2E1E00"/>
<path d="M254.883 265.222C257.321 266.894 260.004 267.217 260.876 265.943C261.749 264.669 260.479 262.28 258.042 260.608C255.604 258.937 252.922 258.614 252.049 259.888C251.177 261.162 252.446 263.551 254.883 265.222Z" fill="#2E1E00"/>
<path d="M222.563 271.512C222.563 272.515 221.75 273.328 220.749 273.328C219.748 273.328 218.935 272.515 218.935 271.512C218.935 270.51 219.748 269.697 220.749 269.697C221.75 269.697 222.563 270.51 222.563 271.512Z" fill="#2E1E00"/>
<path d="M256.463 272.434C256.463 273.437 255.65 274.249 254.649 274.249C253.648 274.249 252.835 273.437 252.835 272.434C252.835 271.431 253.648 270.618 254.649 270.618C255.651 270.618 256.463 271.431 256.463 272.434Z" fill="#2E1E00"/>
<path d="M421.163 516.251H208.151C208.47 496.143 215.653 433.393 291.242 412.526C293.02 412.034 294.833 411.564 296.687 411.124H339.289C339.289 411.124 417.768 443.032 421.163 507.55C421.314 510.389 421.32 513.285 421.163 516.251Z" fill="#FA6456"/>
<path d="M421.163 516.251H208.151C208.47 496.143 215.653 433.393 291.242 412.526C293.02 412.034 294.833 411.564 296.687 411.124H339.289C339.289 411.124 417.768 443.032 421.163 507.55C421.314 510.389 421.32 513.285 421.163 516.251Z" stroke="#2E1E00" stroke-miterlimit="10" stroke-linecap="round" stroke-linejoin="round"/>
<path d="M339.29 414.907L314.709 469.31L292.151 414.907L291.242 412.526C293.02 412.034 294.833 411.564 296.687 411.124H325.259L339.29 414.907Z" fill="#FDEAA7"/>
<path d="M339.29 414.907L314.709 469.31L292.151 414.907L291.242 412.526C293.02 412.034 294.833 411.564 296.687 411.124H325.259L339.29 414.907Z" stroke="#2E1E00" stroke-miterlimit="10" stroke-linecap="round" stroke-linejoin="round"/>
<path d="M339.289 376.429V414.907C316.105 428.665 292.151 414.907 292.151 414.907V386.619L318.486 380.925L339.289 376.429Z" fill="#FFF3E9"/>
<path d="M339.289 376.429V414.907C316.105 428.665 292.151 414.907 292.151 414.907V386.619L318.486 380.925L339.289 376.429Z" stroke="#2E1E00" stroke-miterlimit="10" stroke-linecap="round" stroke-linejoin="round"/>
<path d="M314.71 469.31V516.251" stroke="#2E1E00" stroke-miterlimit="10" stroke-linecap="round" stroke-linejoin="round"/>
<path d="M318.487 380.925L292.151 411.281V386.619L318.487 380.925Z" fill="#2E1E00"/>
<path d="M357.127 337.697L305.145 339.482L295.384 321.338C293.385 322.508 291.062 323.174 288.583 323.174C281.127 323.174 275.079 317.132 275.079 309.67C275.079 303.825 278.792 298.849 283.989 296.966C287.036 285.473 297.469 277.31 309.554 277.31H319.402C330.693 277.31 340.738 284.476 344.417 295.153L344.834 296.358C345.679 298.82 347.574 300.79 350.001 301.734C351.623 302.365 352.99 303.443 353.969 304.799C354.954 306.16 355.551 307.794 355.644 309.531L357.127 337.697Z" fill="#2E1E00"/>
<path d="M357.127 337.697L305.145 339.482L295.384 321.338C293.385 322.508 291.062 323.174 288.583 323.174C281.127 323.174 275.079 317.132 275.079 309.67C275.079 303.825 278.792 298.849 283.989 296.966C287.036 285.473 297.469 277.31 309.554 277.31H319.402C330.693 277.31 340.738 284.476 344.417 295.153L344.834 296.358C345.679 298.82 347.574 300.79 350.001 301.734C351.623 302.365 352.99 303.443 353.969 304.799C354.954 306.16 355.551 307.794 355.644 309.531L357.127 337.697Z" stroke="#2E1E00" stroke-miterlimit="10" stroke-linecap="round" stroke-linejoin="round"/>
<path d="M297.149 294.696C291.626 295.458 287.075 299.43 285.607 304.808C281.358 320.378 274.629 353.483 284.763 380.507C289.166 392.246 297.601 400.884 310.866 400.74C322.818 400.611 334.095 392.26 339.946 382.2C343.658 375.817 347.451 366.999 347.954 357.065C347.954 357.065 368.338 359.613 368.338 344.58C368.338 330.311 353.05 329.291 346.935 334.132L336.971 305.665C336.686 304.851 335.571 304.757 335.155 305.513L333.481 308.55C331.851 311.509 327.505 311.208 326.297 308.052L324.712 303.908C324.401 303.094 323.27 303.042 322.885 303.823L321.2 307.24C319.56 310.568 314.655 310.025 313.782 306.419L313.466 305.114C311.781 298.153 305.098 293.599 298.003 294.578L297.149 294.696Z" fill="#FFF3E9"/>
<path d="M297.149 294.696C291.626 295.458 287.075 299.43 285.607 304.808C281.358 320.378 274.629 353.483 284.763 380.506C289.166 392.246 297.601 400.884 310.866 400.74C322.818 400.611 334.095 392.26 339.946 382.2C343.658 375.817 347.451 366.999 347.954 357.065C347.954 357.065 368.338 359.613 368.338 344.58C368.338 330.311 353.05 329.291 346.935 334.132L336.971 305.665C336.686 304.851 335.571 304.757 335.155 305.513L333.481 308.55C331.851 311.509 327.505 311.208 326.297 308.052L324.712 303.908C324.401 303.094 323.27 303.042 322.885 303.823L321.2 307.24C319.56 310.568 314.655 310.025 313.782 306.419L313.466 305.114C311.781 298.153 305.098 293.599 298.003 294.578L297.149 294.696Z" stroke="#2E1E00" stroke-miterlimit="10" stroke-linecap="round" stroke-linejoin="round"/>
<path d="M293.471 370.692C293.471 370.692 307.656 378.321 324.462 370.692" stroke="#2E1E00" stroke-miterlimit="10" stroke-linecap="round" stroke-linejoin="round"/>
<path d="M300.146 379.036C300.146 379.036 309.293 383.685 316.103 379.513" stroke="#2E1E00" stroke-miterlimit="10" stroke-linecap="round" stroke-linejoin="round"/>
<path d="M276.188 332.192L346.934 334.132" stroke="#2E1E00" stroke-miterlimit="10" stroke-linecap="round" stroke-linejoin="round"/>
<path d="M306.107 347.594L303.007 361.633L306.107 362.944" stroke="#2E1E00" stroke-miterlimit="10" stroke-linecap="round" stroke-linejoin="round"/>
<path d="M303.953 332.953L303.413 342.521C303.187 346.523 299.813 349.617 295.806 349.494L283.356 349.116C279.362 348.994 276.188 345.721 276.188 341.725V332.192L303.953 332.953Z" stroke="#2E1E00" stroke-miterlimit="10" stroke-linecap="round" stroke-linejoin="round"/>
<path d="M312.336 333.183V342.579C312.336 346.56 315.488 349.826 319.466 349.968L330.95 350.378C335.133 350.527 338.606 347.176 338.606 342.989V334.132L312.336 333.183Z" stroke="#2E1E00" stroke-miterlimit="10" stroke-linecap="round" stroke-linejoin="round"/>
<path d="M350.108 344.508H361.218" stroke="#2E1E00" stroke-miterlimit="10" stroke-linecap="round" stroke-linejoin="round"/>
<path d="M291.73 327.453C289.169 329.208 286.351 329.546 285.434 328.209C284.518 326.872 285.851 324.366 288.411 322.611C290.971 320.856 293.79 320.518 294.707 321.855C295.623 323.192 294.29 325.699 291.73 327.453Z" fill="#2E1E00"/>
<path d="M323.812 328.431C326.372 330.185 329.191 330.524 330.107 329.187C331.024 327.85 329.691 325.343 327.13 323.588C324.57 321.833 321.751 321.495 320.835 322.832C319.918 324.169 321.251 326.676 323.812 328.431Z" fill="#2E1E00"/>
<path d="M292.095 339.877C292.095 340.929 291.242 341.783 290.19 341.783C289.138 341.783 288.284 340.929 288.284 339.877C288.284 338.825 289.138 337.972 290.19 337.972C291.242 337.972 292.095 338.825 292.095 339.877Z" fill="#2E1E00"/>
<path d="M325.801 340.845C325.801 341.897 324.948 342.75 323.896 342.75C322.844 342.75 321.99 341.897 321.99 340.845C321.99 339.793 322.844 338.939 323.896 338.939C324.948 338.939 325.801 339.793 325.801 340.845Z" fill="#2E1E00"/>
<path d="M286.865 362.266L285.517 364.892" stroke="#2E1E00" stroke-miterlimit="10" stroke-linecap="round" stroke-linejoin="round"/>
<path d="M333.018 362.266L333.982 365.056" stroke="#2E1E00" stroke-miterlimit="10" stroke-linecap="round" stroke-linejoin="round"/>
<path d="M340.62 360.757L341.83 363.449" stroke="#2E1E00" stroke-miterlimit="10" stroke-linecap="round" stroke-linejoin="round"/>
<path d="M296.321 364.286L294.836 367.273" stroke="#2E1E00" stroke-miterlimit="10" stroke-linecap="round" stroke-linejoin="round"/>
<path d="M324.676 364.334L325.587 367.224" stroke="#2E1E00" stroke-miterlimit="10" stroke-linecap="round" stroke-linejoin="round"/>
<path d="M326.791 386.894L327.368 389.868" stroke="#2E1E00" stroke-miterlimit="10" stroke-linecap="round" stroke-linejoin="round"/>
<path d="M306.106 366.436V369.335" stroke="#2E1E00" stroke-miterlimit="10" stroke-linecap="round" stroke-linejoin="round"/>
<path d="M316.103 365.664L316.912 368.613" stroke="#2E1E00" stroke-miterlimit="10" stroke-linecap="round" stroke-linejoin="round"/>
<path d="M290.07 375.553L288.283 379.036" stroke="#2E1E00" stroke-miterlimit="10" stroke-linecap="round" stroke-linejoin="round"/>
<path d="M323.983 376.429L324.942 380.143" stroke="#2E1E00" stroke-miterlimit="10" stroke-linecap="round" stroke-linejoin="round"/>
<path d="M331.966 373.948L333.105 377.16" stroke="#2E1E00" stroke-miterlimit="10" stroke-linecap="round" stroke-linejoin="round"/>
<path d="M334.5 382.195L335.639 385.407" stroke="#2E1E00" stroke-miterlimit="10" stroke-linecap="round" stroke-linejoin="round"/>
<path d="M338.606 370.692L340.112 374.083" stroke="#2E1E00" stroke-miterlimit="10" stroke-linecap="round" stroke-linejoin="round"/>
<path d="M296.992 386.894L296.321 390.322" stroke="#2E1E00" stroke-miterlimit="10" stroke-linecap="round" stroke-linejoin="round"/>
<path d="M307.786 389.749V392.649" stroke="#2E1E00" stroke-miterlimit="10" stroke-linecap="round" stroke-linejoin="round"/>
<path d="M313.911 395.833L314.214 398.716" stroke="#2E1E00" stroke-miterlimit="10" stroke-linecap="round" stroke-linejoin="round"/>
<path d="M300.977 393.703L300.441 396.553" stroke="#2E1E00" stroke-miterlimit="10" stroke-linecap="round" stroke-linejoin="round"/>
<path d="M318.741 388.806L319.14 391.838" stroke="#2E1E00" stroke-miterlimit="10" stroke-linecap="round" stroke-linejoin="round"/>
<path d="M249.012 516.118H36C36.3186 496.01 43.502 433.259 119.09 412.393C120.869 411.9 122.682 411.431 124.536 410.991H167.138C167.138 410.991 245.617 442.899 249.012 507.417C249.162 510.255 249.168 513.152 249.012 516.118Z" fill="#73B7EA"/>
<path d="M249.012 516.118H36C36.3186 496.01 43.502 433.259 119.09 412.393C120.869 411.9 122.682 411.431 124.536 410.991H167.138C167.138 410.991 245.617 442.899 249.012 507.417C249.162 510.255 249.168 513.152 249.012 516.118Z" stroke="#2E1E00" stroke-miterlimit="10" stroke-linecap="round" stroke-linejoin="round"/>
<path d="M167.305 378.695V403.709C167.305 417.526 156.107 428.73 142.285 428.73C129.656 428.73 119.216 419.374 117.519 407.214C117.351 406.067 117.27 404.897 117.27 403.709V378.695H167.305Z" fill="#FFF3E9"/>
<path d="M167.305 378.695V403.709C167.305 417.526 156.107 428.73 142.285 428.73C129.656 428.73 119.216 419.374 117.519 407.214C117.351 406.067 117.27 404.897 117.27 403.709V378.695H167.305Z" stroke="#2E1E00" stroke-miterlimit="10" stroke-linecap="round" stroke-linejoin="round"/>
<path d="M142.286 428.729V516.118" stroke="#2E1E00" stroke-miterlimit="10" stroke-linecap="round" stroke-linejoin="round"/>
<path d="M146.107 378.695L117.519 407.214C117.351 406.067 117.27 404.897 117.27 403.709V378.695H146.107Z" fill="#2E1E00"/>
<path d="M104.168 342.507V287.165C104.168 285.367 105.626 283.91 107.424 283.91C109.222 283.91 110.679 282.452 110.679 280.654V278.256C110.679 276.458 112.137 275 113.935 275H169.448C171.246 275 172.704 276.458 172.704 278.256V287.508C172.704 289.305 174.161 290.763 175.959 290.763H178.015C179.813 290.763 181.271 292.221 181.271 294.019V344.563L104.168 342.507Z" fill="#2E1E00"/>
<path d="M104.168 342.507V287.165C104.168 285.367 105.626 283.91 107.424 283.91C109.222 283.91 110.679 282.452 110.679 280.654V278.256C110.679 276.458 112.137 275 113.935 275H169.448C171.246 275 172.704 276.458 172.704 278.256V287.508C172.704 289.305 174.161 290.763 175.959 290.763H178.015C179.813 290.763 181.271 292.221 181.271 294.019V344.563L104.168 342.507Z" stroke="#2E1E00" stroke-miterlimit="10" stroke-linecap="round" stroke-linejoin="round"/>
<path d="M188.447 349.219C188.447 354.96 183.795 359.612 178.06 359.612C177.406 359.612 176.768 359.554 176.148 359.432V368.046C176.148 373.052 174.161 377.854 170.622 381.388L157.211 394.799C153.59 398.425 148.678 400.459 143.551 400.459H141.465C136.338 400.459 131.426 398.425 127.805 394.799L116.144 383.137C112.737 379.737 110.768 375.166 110.623 370.358L110.293 359.195C109.372 359.467 108.392 359.612 107.384 359.612C101.644 359.612 96.9917 354.96 96.9917 349.219C96.9917 343.484 101.644 338.832 107.384 338.832C108.184 338.832 108.966 338.925 109.713 339.098V315.943C109.713 309.073 115.28 303.506 122.151 303.506H163.711C170.581 303.506 176.148 309.073 176.148 315.943V339.011C176.768 338.89 177.406 338.832 178.06 338.832C183.795 338.832 188.447 343.484 188.447 349.219Z" fill="#FFF3E9"/>
<path d="M188.447 349.219C188.447 354.96 183.795 359.612 178.06 359.612C177.406 359.612 176.768 359.554 176.148 359.432V368.046C176.148 373.052 174.161 377.854 170.622 381.388L157.211 394.799C153.59 398.425 148.678 400.459 143.551 400.459H141.465C136.338 400.459 131.426 398.425 127.805 394.799L116.144 383.137C112.737 379.737 110.768 375.166 110.623 370.358L110.293 359.195C109.372 359.467 108.392 359.612 107.384 359.612C101.644 359.612 96.9917 354.96 96.9917 349.219C96.9917 343.484 101.644 338.832 107.384 338.832C108.184 338.832 108.966 338.925 109.713 339.098V315.943C109.713 309.073 115.28 303.506 122.151 303.506H163.711C170.581 303.506 176.148 309.073 176.148 315.943V339.011C176.768 338.89 177.406 338.832 178.06 338.832C183.795 338.832 188.447 343.484 188.447 349.219Z" stroke="#2E1E00" stroke-miterlimit="10" stroke-linecap="round" stroke-linejoin="round"/>
<path d="M125.052 368.736C125.052 368.736 129.064 372.657 133.442 370.286C137.819 367.915 139.552 371.171 141.376 371.048C143.028 370.936 145.355 368.138 149.579 370.235C150.87 370.876 152.295 371.22 153.731 371.087C155.013 370.968 157.464 369.617 158.429 368.736" stroke="#2E1E00" stroke-miterlimit="10" stroke-linecap="round" stroke-linejoin="round"/>
<path d="M135.989 376.013H146.206" stroke="#2E1E00" stroke-miterlimit="10" stroke-linecap="round" stroke-linejoin="round"/>
<path d="M102.351 350.102H110.3" stroke="#2E1E00" stroke-miterlimit="10" stroke-linecap="round" stroke-linejoin="round"/>
<path d="M174.405 350.102H182.353" stroke="#2E1E00" stroke-miterlimit="10" stroke-linecap="round" stroke-linejoin="round"/>
<path d="M141.097 340.101V358.05L144.66 359.333" stroke="#2E1E00" stroke-miterlimit="10" stroke-linecap="round" stroke-linejoin="round"/>
<path d="M126.837 334.061C124.277 335.816 121.458 336.154 120.542 334.817C119.625 333.48 120.958 330.974 123.519 329.219C126.079 327.464 128.898 327.126 129.814 328.463C130.731 329.8 129.398 332.307 126.837 334.061Z" fill="#2E1E00"/>
<path d="M158.92 335.039C161.48 336.793 164.299 337.132 165.215 335.795C166.131 334.457 164.798 331.951 162.238 330.196C159.678 328.441 156.859 328.103 155.943 329.44C155.026 330.777 156.36 333.284 158.92 335.039Z" fill="#2E1E00"/>
<path d="M127.202 340.573C127.202 341.625 126.349 342.478 125.297 342.478C124.245 342.478 123.392 341.625 123.392 340.573C123.392 339.521 124.245 338.667 125.297 338.667C126.349 338.667 127.202 339.521 127.202 340.573Z" fill="#2E1E00"/>
<path d="M160.909 341.54C160.909 342.592 160.056 343.445 159.003 343.445C157.951 343.445 157.098 342.592 157.098 341.54C157.098 340.489 157.951 339.635 159.003 339.635C160.055 339.635 160.909 340.488 160.909 341.54Z" fill="#2E1E00"/>
<path d="M116.906 359.899V363.427" stroke="#2E1E00" stroke-miterlimit="10" stroke-linecap="round" stroke-linejoin="round"/>
<path d="M119.484 375.165V378.692" stroke="#2E1E00" stroke-miterlimit="10" stroke-linecap="round" stroke-linejoin="round"/>
<path d="M127.895 383.575V387.103" stroke="#2E1E00" stroke-miterlimit="10" stroke-linecap="round" stroke-linejoin="round"/>
<path d="M138.206 390.695V394.223" stroke="#2E1E00" stroke-miterlimit="10" stroke-linecap="round" stroke-linejoin="round"/>
<path d="M165.956 375.165V378.692" stroke="#2E1E00" stroke-miterlimit="10" stroke-linecap="round" stroke-linejoin="round"/>
<path d="M157.544 383.575V387.103" stroke="#2E1E00" stroke-miterlimit="10" stroke-linecap="round" stroke-linejoin="round"/>
<path d="M147.233 390.695V394.223" stroke="#2E1E00" stroke-miterlimit="10" stroke-linecap="round" stroke-linejoin="round"/>
<path d="M128.493 359.899V363.427" stroke="#2E1E00" stroke-miterlimit="10" stroke-linecap="round" stroke-linejoin="round"/>
<path d="M153.982 359.899V363.427" stroke="#2E1E00" stroke-miterlimit="10" stroke-linecap="round" stroke-linejoin="round"/>
<path d="M165.568 359.899V363.427" stroke="#2E1E00" stroke-miterlimit="10" stroke-linecap="round" stroke-linejoin="round"/>
<path d="M379.814 568.269C380.453 567.671 380.945 566.934 381.251 566.114C381.556 565.294 381.667 564.415 381.574 563.545C381.482 562.675 381.188 561.839 380.717 561.102C380.245 560.365 379.609 559.747 378.859 559.298C378.108 558.849 377.263 558.581 376.391 558.514C375.519 558.448 374.643 558.585 373.833 558.914C373.022 559.244 372.3 559.758 371.722 560.415C371.144 561.071 370.727 561.854 370.503 562.699C369.736 562.351 368.901 562.178 368.058 562.194C367.216 562.21 366.387 562.415 365.634 562.793C364.881 563.171 364.222 563.713 363.706 564.379C363.189 565.045 362.828 565.818 362.65 566.642C362.471 567.465 362.479 568.318 362.673 569.138C362.867 569.958 363.243 570.725 363.771 571.381C364.3 572.037 364.969 572.566 365.729 572.93C366.49 573.294 367.322 573.483 368.164 573.483C368.919 573.485 369.667 573.334 370.362 573.038C370.468 573.94 370.791 574.804 371.303 575.555C371.815 576.306 372.501 576.922 373.302 577.351C374.103 577.78 374.996 578.01 375.904 578.02C376.813 578.03 377.711 577.821 378.521 577.41C379.332 576.999 380.031 576.398 380.56 575.659C381.088 574.919 381.431 574.063 381.558 573.164C381.685 572.264 381.592 571.346 381.289 570.49C380.985 569.633 380.479 568.862 379.814 568.243V568.269Z" fill="#FEFFFA"/>
<path d="M375.97 578.541C374.575 578.541 373.221 578.067 372.13 577.195C371.04 576.324 370.279 575.108 369.971 573.747C369.124 574.008 368.23 574.083 367.351 573.967C366.472 573.851 365.629 573.547 364.878 573.075C364.128 572.603 363.488 571.974 363.003 571.232C362.518 570.49 362.199 569.652 362.068 568.775C361.937 567.898 361.996 567.004 362.243 566.152C362.489 565.3 362.917 564.512 363.496 563.841C364.075 563.17 364.793 562.632 365.599 562.263C366.405 561.895 367.282 561.705 368.168 561.707C368.858 561.706 369.543 561.822 370.194 562.051C370.687 560.692 371.644 559.551 372.895 558.827C374.147 558.103 375.613 557.843 377.037 558.092C378.461 558.342 379.752 559.085 380.683 560.191C381.613 561.298 382.125 562.697 382.127 564.142C382.133 565.669 381.563 567.143 380.532 568.269C381.562 569.394 382.131 570.865 382.127 572.39C382.126 574.022 381.476 575.587 380.322 576.74C379.168 577.893 377.602 578.541 375.97 578.541ZM370.366 572.557C370.455 572.558 370.542 572.582 370.619 572.628C370.686 572.667 370.744 572.721 370.787 572.786C370.83 572.851 370.857 572.925 370.867 573.003C370.964 573.824 371.259 574.61 371.725 575.293C372.191 575.976 372.815 576.537 373.544 576.927C374.273 577.318 375.085 577.527 375.912 577.536C376.739 577.545 377.556 577.355 378.294 576.981C379.032 576.607 379.668 576.06 380.15 575.388C380.631 574.715 380.943 573.936 381.058 573.117C381.174 572.298 381.091 571.463 380.815 570.684C380.539 569.904 380.079 569.202 379.474 568.638C379.423 568.591 379.382 568.533 379.353 568.469C379.325 568.405 379.311 568.336 379.311 568.266C379.311 568.196 379.325 568.127 379.353 568.063C379.382 567.999 379.423 567.941 379.474 567.894C379.993 567.417 380.406 566.837 380.688 566.191C380.969 565.545 381.113 564.847 381.109 564.142C381.122 562.883 380.672 561.663 379.844 560.714C379.017 559.765 377.87 559.152 376.621 558.993C375.371 558.834 374.107 559.138 373.068 559.85C372.029 560.561 371.287 561.629 370.983 562.851C370.965 562.923 370.93 562.989 370.883 563.046C370.836 563.103 370.777 563.149 370.71 563.18C370.643 563.211 370.571 563.227 370.497 563.227C370.424 563.227 370.351 563.211 370.285 563.18C369.507 562.827 368.654 562.672 367.802 562.731C366.95 562.79 366.126 563.06 365.405 563.517C364.684 563.974 364.088 564.604 363.671 565.349C363.254 566.094 363.029 566.932 363.017 567.786C363.005 568.64 363.206 569.483 363.602 570.24C363.998 570.996 364.576 571.643 365.285 572.12C365.993 572.597 366.809 572.89 367.659 572.972C368.509 573.055 369.366 572.924 370.153 572.592C370.221 572.567 370.293 572.555 370.366 572.557Z" fill="#2E1E00"/>
<path d="M17.7874 229.254C18.4294 228.657 18.9235 227.918 19.2306 227.097C19.5376 226.276 19.6492 225.394 19.5564 224.522C19.4635 223.651 19.1689 222.812 18.6959 222.074C18.2228 221.336 17.5843 220.718 16.831 220.27C16.0777 219.821 15.2302 219.554 14.3558 219.49C13.4814 219.426 12.6041 219.566 11.7934 219.9C10.9826 220.234 10.2608 220.752 9.68514 221.413C9.10945 222.075 8.69569 222.861 8.47667 223.71C7.62276 223.322 6.68579 223.154 5.75039 223.219C4.81499 223.285 3.91061 223.582 3.11894 224.085C2.32728 224.587 1.67324 225.279 1.21592 226.097C0.758603 226.916 0.512404 227.836 0.499554 228.773C0.486704 229.711 0.707632 230.637 1.14234 231.468C1.57705 232.299 2.21187 233.008 2.98947 233.532C3.76707 234.056 4.66296 234.378 5.59622 234.469C6.52948 234.56 7.47069 234.417 8.33489 234.053C8.44244 234.956 8.76614 235.818 9.27851 236.569C9.79087 237.319 10.4768 237.935 11.2779 238.363C12.0791 238.792 12.9718 239.02 13.8802 239.03C14.7887 239.04 15.6862 238.83 16.4962 238.419C17.3063 238.007 18.0051 237.407 18.5334 236.667C19.0616 235.928 19.4036 235.072 19.5304 234.173C19.6571 233.273 19.5649 232.356 19.2614 231.5C18.958 230.643 18.4523 229.873 17.7874 229.254Z" fill="#FEFFFA"/>
<path d="M13.9481 239.546C12.552 239.545 11.1979 239.07 10.1077 238.197C9.01758 237.325 8.25621 236.109 7.94852 234.747C7.10271 235.005 6.21113 235.078 5.33457 234.961C4.45801 234.843 3.61707 234.538 2.8691 234.066C2.12113 233.594 1.48373 232.967 1.00031 232.226C0.516897 231.486 0.198845 230.649 0.0678515 229.775C-0.0631416 228.9 -0.00399999 228.008 0.241241 227.158C0.486483 226.308 0.912066 225.521 1.48896 224.851C2.06586 224.181 2.78051 223.643 3.5842 223.273C4.38789 222.904 5.26172 222.713 6.14611 222.712C6.83553 222.71 7.52037 222.824 8.17129 223.051C8.66504 221.692 9.62191 220.55 10.8739 219.826C12.1259 219.102 13.5929 218.843 15.0174 219.093C16.4418 219.343 17.7325 220.087 18.6629 221.194C19.5932 222.302 20.1037 223.701 20.1046 225.147C20.1106 226.672 19.5431 228.143 18.5149 229.269C19.5431 230.394 20.1106 231.865 20.1046 233.39C20.1033 235.022 19.4543 236.587 18.3 237.742C17.1457 238.896 15.5805 239.545 13.9481 239.546ZM8.34342 233.562C8.43211 233.561 8.5194 233.584 8.59656 233.628C8.66459 233.668 8.72244 233.723 8.7655 233.788C8.80857 233.854 8.83567 233.929 8.84464 234.008C8.94292 234.829 9.23783 235.614 9.70433 236.296C10.1708 236.979 10.7951 237.539 11.5243 237.929C12.2534 238.319 13.0659 238.527 13.8926 238.535C14.7194 238.544 15.536 238.353 16.2733 237.979C17.0105 237.605 17.6466 237.058 18.1274 236.386C18.6083 235.713 18.9198 234.934 19.0355 234.116C19.1511 233.297 19.0676 232.463 18.7918 231.683C18.5161 230.904 18.0564 230.202 17.4517 229.638C17.4011 229.591 17.3607 229.534 17.3332 229.47C17.3056 229.407 17.2914 229.338 17.2914 229.269C17.2914 229.199 17.3056 229.131 17.3332 229.067C17.3607 229.004 17.4011 228.946 17.4517 228.899C18.0345 228.356 18.4829 227.684 18.7615 226.937C19.04 226.191 19.1412 225.389 19.0568 224.597C18.9725 223.805 18.705 223.043 18.2755 222.371C17.8461 221.7 17.2663 221.138 16.5822 220.729C15.8981 220.321 15.1283 220.077 14.3336 220.017C13.539 219.957 12.7412 220.082 12.0035 220.384C11.2657 220.685 10.6082 221.154 10.0828 221.753C9.55746 222.352 9.17862 223.065 8.97628 223.836C8.9575 223.908 8.9233 223.974 8.87607 224.031C8.82884 224.088 8.76973 224.134 8.7029 224.165C8.63625 224.196 8.56367 224.212 8.49023 224.212C8.41679 224.212 8.34424 224.196 8.27759 224.165C7.5794 223.846 6.81852 223.687 6.05084 223.7C5.28316 223.714 4.52821 223.899 3.84149 224.242C3.15476 224.585 2.5537 225.078 2.08249 225.684C1.61128 226.291 1.2819 226.995 1.11854 227.745C0.955185 228.495 0.962003 229.272 1.13851 230.02C1.31501 230.767 1.65671 231.465 2.13849 232.063C2.62027 232.661 3.22986 233.143 3.92251 233.474C4.61516 233.806 5.37325 233.977 6.14104 233.977C6.82757 233.978 7.50735 233.842 8.14092 233.577C8.20372 233.553 8.2711 233.542 8.33835 233.547L8.34342 233.562Z" fill="#2E1E00"/>
<path d="M466.36 26.9687C467.16 25.7545 467.511 24.2995 467.353 22.8544C467.195 21.4093 466.538 20.0646 465.495 19.0518C464.452 18.0389 463.089 17.4214 461.64 17.3057C460.19 17.1899 458.746 17.583 457.556 18.4174C457.047 17.8235 456.421 17.3407 455.718 16.999C455.014 16.6573 454.248 16.464 453.467 16.4311C452.685 16.3982 451.906 16.5264 451.176 16.8078C450.446 17.0892 449.782 17.5177 449.225 18.0667C448.668 18.6157 448.23 19.2734 447.938 19.999C447.646 20.7246 447.507 21.5024 447.528 22.2842C447.55 23.066 447.732 23.835 448.064 24.5433C448.395 25.2517 448.869 25.8843 449.455 26.4017C448.651 26.9101 447.974 27.5952 447.474 28.4049C446.975 29.2146 446.667 30.1276 446.574 31.0743C446.481 32.021 446.605 32.9765 446.937 33.868C447.269 34.7595 447.799 35.5636 448.489 36.2189C449.179 36.8743 450.008 37.3637 450.916 37.6499C451.823 37.936 452.783 38.0114 453.724 37.8703C454.665 37.7292 455.561 37.3753 456.344 36.8355C457.128 36.2957 457.778 35.5844 458.245 34.7556C458.57 35.7642 459.147 36.6735 459.92 37.398C460.694 38.1226 461.639 38.6386 462.667 38.8976C463.694 39.1566 464.771 39.1502 465.796 38.8788C466.82 38.6075 467.759 38.0801 468.524 37.3464C469.289 36.6126 469.854 35.6964 470.168 34.684C470.481 33.6715 470.532 32.596 470.316 31.5585C470.1 30.5209 469.623 29.5553 468.931 28.7525C468.239 27.9496 467.355 27.3358 466.36 26.9687Z" fill="#FEFFFA"/>
<path d="M464.162 39.5501C462.899 39.5561 461.661 39.2076 460.587 38.5444C459.513 37.8812 458.646 36.9298 458.086 35.7985C457.498 36.5555 456.755 37.1785 455.907 37.626C455.059 38.0736 454.125 38.3355 453.168 38.3943C452.211 38.4531 451.252 38.3074 450.356 37.967C449.46 37.6266 448.646 37.0991 447.969 36.4199C447.293 35.7406 446.768 34.925 446.431 34.0273C446.094 33.1297 445.952 32.1706 446.014 31.2138C446.077 30.257 446.342 29.3244 446.793 28.4781C447.244 27.6318 447.869 26.8911 448.628 26.3055C447.63 25.177 447.081 23.7213 447.084 22.2146C447.083 20.9959 447.44 19.8038 448.112 18.7868C448.783 17.7698 449.739 16.9731 450.861 16.4958C451.982 16.0185 453.219 15.8819 454.417 16.103C455.616 16.324 456.723 16.893 457.6 17.7389C458.867 16.9535 460.357 16.609 461.84 16.7591C463.323 16.9091 464.714 17.5454 465.797 18.5687C466.881 19.592 467.595 20.9449 467.83 22.4166C468.064 23.8883 467.805 25.3962 467.093 26.7054C468.474 27.3674 469.59 28.4793 470.256 29.8587C470.922 31.2381 471.1 32.8029 470.76 34.2965C470.419 35.79 469.581 37.1235 468.383 38.0782C467.185 39.0328 465.698 39.5518 464.167 39.5501H464.162ZM458.218 34.2239H458.268C458.367 34.2331 458.461 34.271 458.539 34.3332C458.616 34.3953 458.673 34.4788 458.704 34.5733C459.004 35.4981 459.535 36.3316 460.246 36.9955C460.956 37.6594 461.824 38.1322 462.767 38.3694C463.71 38.6066 464.698 38.6006 465.638 38.3519C466.578 38.1032 467.44 37.62 468.142 36.9474C468.845 36.2749 469.365 35.4351 469.655 34.5066C469.944 33.5782 469.993 32.5914 469.797 31.6389C469.601 30.6863 469.167 29.799 468.535 29.0601C467.902 28.3212 467.093 27.7549 466.182 27.4142C466.111 27.3879 466.047 27.3461 465.994 27.2917C465.942 27.2374 465.902 27.172 465.878 27.1003C465.855 27.0279 465.848 26.9511 465.859 26.8757C465.869 26.8003 465.896 26.7283 465.939 26.6649C466.671 25.5478 466.99 24.2106 466.843 22.8832C466.696 21.5558 466.092 20.321 465.133 19.3912C464.174 18.4613 462.922 17.8944 461.59 17.7878C460.259 17.6812 458.932 18.0417 457.838 18.8072C457.737 18.8772 457.614 18.908 457.492 18.8941C457.37 18.8801 457.257 18.8222 457.175 18.7313C456.47 17.9518 455.546 17.4039 454.525 17.1599C453.503 16.9158 452.431 16.9871 451.45 17.3642C450.47 17.7413 449.626 18.4066 449.031 19.2724C448.436 20.1382 448.118 21.164 448.117 22.2146C448.115 22.9269 448.261 23.6318 448.546 24.2847C448.831 24.9375 449.249 25.5239 449.773 26.0067C449.83 26.0596 449.874 26.1249 449.901 26.1975C449.929 26.2701 449.939 26.3481 449.932 26.4254C449.925 26.5028 449.9 26.5774 449.859 26.6435C449.818 26.7096 449.763 26.7654 449.697 26.8067C448.966 27.2786 448.352 27.9103 447.902 28.6541C447.451 29.3978 447.175 30.2343 447.095 31.1002C447.015 31.9662 447.133 32.8391 447.439 33.6529C447.746 34.4668 448.233 35.2004 448.865 35.7984C449.496 36.3963 450.255 36.843 451.085 37.1047C451.914 37.3664 452.792 37.4362 453.652 37.309C454.512 37.1817 455.333 36.8607 456.051 36.3701C456.769 35.8795 457.366 35.2322 457.797 34.4771C457.84 34.4027 457.901 34.3405 457.975 34.2962C458.048 34.2519 458.132 34.227 458.218 34.2239Z" fill="#2E1E00"/>
<path d="M515.354 337.147C515.353 336.687 515.209 336.238 514.943 335.864C514.676 335.489 514.3 335.207 513.865 335.056C514.027 334.609 514.109 334.138 514.108 333.663C514.108 332.83 513.858 332.017 513.391 331.327C512.923 330.638 512.26 330.105 511.486 329.797C510.712 329.489 509.864 329.42 509.051 329.599C508.237 329.779 507.496 330.198 506.924 330.803C505.834 330.482 504.661 330.608 503.663 331.153C502.666 331.697 501.926 332.616 501.605 333.706C501.285 334.797 501.411 335.969 501.956 336.967C502.5 337.964 503.419 338.705 504.509 339.025C504.448 339.311 504.417 339.603 504.418 339.896C504.456 341.036 504.937 342.117 505.757 342.91C506.578 343.703 507.674 344.146 508.815 344.146C509.956 344.146 511.052 343.703 511.873 342.91C512.693 342.117 513.173 341.036 513.212 339.896C513.211 339.716 513.198 339.537 513.172 339.359C513.753 339.35 514.307 339.113 514.715 338.699C515.123 338.285 515.353 337.728 515.354 337.147Z" fill="#FEFFFA"/>
<path d="M508.809 344.796C507.51 344.795 506.264 344.278 505.345 343.359C504.426 342.441 503.91 341.195 503.908 339.895C503.912 339.718 503.925 339.54 503.949 339.364C502.927 338.937 502.084 338.17 501.563 337.193C501.042 336.215 500.876 335.088 501.093 334.002C501.309 332.915 501.895 331.938 502.751 331.235C503.606 330.531 504.679 330.146 505.787 330.144C506.118 330.145 506.449 330.18 506.774 330.251C507.633 329.443 508.769 328.996 509.948 329C511.186 329.001 512.373 329.493 513.249 330.368C514.125 331.243 514.619 332.43 514.621 333.668C514.621 334.044 514.576 334.418 514.485 334.782C514.966 335.053 515.353 335.464 515.595 335.96C515.836 336.456 515.922 337.014 515.839 337.56C515.756 338.105 515.508 338.613 515.13 339.015C514.752 339.417 514.26 339.694 513.72 339.809C513.72 339.84 513.72 339.87 513.72 339.901C513.716 341.2 513.197 342.446 512.276 343.363C511.356 344.281 510.109 344.796 508.809 344.796ZM505.771 331.126C504.867 331.127 503.994 331.452 503.309 332.042C502.624 332.631 502.172 333.446 502.036 334.34C501.9 335.233 502.089 336.146 502.568 336.913C503.047 337.679 503.785 338.249 504.647 338.518C504.767 338.555 504.87 338.635 504.934 338.742C504.999 338.85 505.021 338.978 504.997 339.101C504.945 339.354 504.918 339.612 504.916 339.87C504.952 340.878 505.378 341.832 506.104 342.532C506.829 343.232 507.798 343.623 508.807 343.623C509.815 343.623 510.784 343.232 511.51 342.532C512.235 341.832 512.661 340.878 512.697 339.87C512.696 339.711 512.684 339.552 512.662 339.394C512.653 339.324 512.66 339.252 512.681 339.184C512.702 339.116 512.737 339.053 512.784 338.999C512.83 338.946 512.888 338.903 512.953 338.873C513.017 338.844 513.087 338.828 513.158 338.827C513.559 338.817 513.943 338.667 514.244 338.402C514.544 338.137 514.742 337.775 514.803 337.379C514.863 336.983 514.782 336.578 514.574 336.235C514.366 335.893 514.044 335.635 513.664 335.506C513.539 335.461 513.435 335.368 513.378 335.248C513.32 335.128 513.312 334.989 513.356 334.863C513.625 334.078 513.618 333.224 513.338 332.443C513.057 331.662 512.519 330.999 511.812 330.565C511.105 330.13 510.271 329.948 509.448 330.051C508.624 330.153 507.86 330.532 507.28 331.126C507.216 331.193 507.135 331.241 507.046 331.265C506.957 331.29 506.863 331.289 506.774 331.263C506.448 331.183 506.112 331.146 505.776 331.152L505.771 331.126Z" fill="#2E1E00"/>
<path d="M123.836 83.2686C124.476 82.6715 124.967 81.9339 125.273 81.1142C125.578 80.2945 125.689 79.415 125.596 78.5451C125.504 77.6752 125.21 76.8388 124.739 76.1018C124.268 75.3648 123.632 74.7474 122.881 74.2983C122.13 73.8493 121.285 73.5808 120.413 73.5142C119.541 73.4476 118.665 73.5846 117.855 73.9144C117.044 74.2442 116.322 74.7578 115.744 75.4146C115.166 76.0715 114.749 76.8536 114.525 77.6993C113.672 77.3119 112.735 77.1433 111.799 77.2087C110.864 77.2741 109.959 77.5715 109.168 78.074C108.376 78.5765 107.722 79.2683 107.265 80.0869C106.807 80.9055 106.561 81.8252 106.548 82.7628C106.536 83.7004 106.756 84.6264 107.191 85.4572C107.626 86.2881 108.261 86.9975 109.038 87.5216C109.816 88.0456 110.712 88.3676 111.645 88.4587C112.578 88.5497 113.52 88.4068 114.384 88.0429C114.487 88.947 114.807 89.8127 115.317 90.5664C115.827 91.3201 116.511 91.9393 117.312 92.3713C118.113 92.8034 119.006 93.0354 119.916 93.0477C120.826 93.06 121.725 92.8522 122.538 92.442C123.35 92.0317 124.051 91.4312 124.581 90.6916C125.111 89.9521 125.454 89.0953 125.582 88.1943C125.71 87.2934 125.617 86.3749 125.313 85.5173C125.009 84.6596 124.503 83.8881 123.836 83.2686Z" fill="#FEFFFA"/>
<path d="M119.965 93.5414C118.57 93.5411 117.217 93.0663 116.127 92.1949C115.038 91.3236 114.277 90.1076 113.97 88.7468C113.122 89.0083 112.228 89.0833 111.348 88.9667C110.468 88.8501 109.624 88.5446 108.873 88.0712C108.122 87.5978 107.482 86.9677 106.998 86.224C106.514 85.4803 106.196 84.6406 106.066 83.7625C105.936 82.8845 105.998 81.9888 106.247 81.1368C106.496 80.2849 106.926 79.4968 107.508 78.8267C108.09 78.1565 108.81 77.6202 109.619 77.2543C110.428 76.8885 111.306 76.7018 112.193 76.7071C112.883 76.7061 113.568 76.8225 114.219 77.0514C114.712 75.6924 115.669 74.5508 116.92 73.8268C118.172 73.1028 119.638 72.8428 121.062 73.0923C122.486 73.3419 123.777 74.085 124.708 75.1914C125.638 76.2977 126.15 77.6966 126.152 79.1424C126.158 80.6694 125.588 82.1425 124.557 83.2687C125.587 84.3936 126.156 85.8647 126.152 87.3899C126.151 88.2003 125.989 89.0026 125.678 89.7506C125.366 90.4987 124.909 91.1778 124.335 91.7493C123.76 92.3207 123.078 92.7731 122.328 93.0806C121.579 93.3882 120.775 93.5447 119.965 93.5414ZM114.365 87.5621C114.454 87.5615 114.541 87.5842 114.619 87.6279C114.687 87.6675 114.744 87.7225 114.787 87.7884C114.831 87.8543 114.858 87.9294 114.867 88.0076C114.965 88.8285 115.26 89.6137 115.726 90.2963C116.193 90.9789 116.817 91.5389 117.546 91.9287C118.275 92.3185 119.088 92.5266 119.915 92.5354C120.741 92.5442 121.558 92.3533 122.295 91.979C123.033 91.6048 123.669 91.0582 124.149 90.3856C124.63 89.713 124.942 88.9343 125.057 88.1157C125.173 87.297 125.09 86.4625 124.814 85.683C124.538 84.9035 124.078 84.2021 123.474 83.6383C123.423 83.5909 123.383 83.5337 123.355 83.4701C123.328 83.4065 123.313 83.338 123.313 83.2687C123.313 83.1994 123.328 83.1308 123.355 83.0673C123.383 83.0037 123.423 82.9464 123.474 82.8991C124.056 82.3556 124.505 81.684 124.783 80.9373C125.062 80.1907 125.163 79.3895 125.079 78.5971C124.994 77.8046 124.727 77.0427 124.297 76.3714C123.868 75.7001 123.288 75.1379 122.604 74.7292C121.92 74.3205 121.15 74.0766 120.356 74.0166C119.561 73.9566 118.763 74.0822 118.025 74.3836C117.288 74.6849 116.63 75.1537 116.105 75.7529C115.579 76.3521 115.201 77.0653 114.998 77.8361C114.979 77.9076 114.945 77.9741 114.898 78.031C114.851 78.0878 114.792 78.1337 114.725 78.1652C114.658 78.1961 114.586 78.212 114.512 78.212C114.439 78.212 114.366 78.1961 114.3 78.1652C113.522 77.8114 112.669 77.6569 111.817 77.7157C110.965 77.7744 110.141 78.0445 109.42 78.5017C108.699 78.9588 108.103 79.5885 107.686 80.3338C107.269 81.0791 107.044 81.9166 107.032 82.7705C107.02 83.6244 107.221 84.4679 107.617 85.2246C108.013 85.9813 108.591 86.6274 109.3 87.1045C110.008 87.5816 110.824 87.8747 111.674 87.9572C112.524 88.0398 113.381 87.9092 114.168 87.5773C114.232 87.5593 114.299 87.5541 114.365 87.5621Z" fill="#2E1E00"/>
<path d="M207.338 146.938C208.138 145.724 208.488 144.269 208.33 142.824C208.172 141.379 207.515 140.034 206.473 139.021C205.43 138.009 204.066 137.391 202.617 137.275C201.168 137.159 199.724 137.553 198.534 138.387C198.023 137.797 197.397 137.319 196.695 136.981C195.992 136.642 195.227 136.452 194.448 136.421C193.669 136.391 192.891 136.52 192.164 136.802C191.437 137.083 190.775 137.511 190.22 138.059C189.665 138.607 189.228 139.262 188.936 139.986C188.644 140.709 188.504 141.484 188.524 142.264C188.544 143.043 188.724 143.811 189.052 144.518C189.381 145.225 189.85 145.858 190.433 146.376C189.632 146.886 188.957 147.571 188.46 148.38C187.963 149.189 187.658 150.101 187.566 151.046C187.474 151.99 187.599 152.944 187.931 153.833C188.263 154.723 188.793 155.525 189.481 156.179C190.17 156.833 190.998 157.321 191.904 157.607C192.809 157.893 193.768 157.969 194.707 157.828C195.646 157.688 196.54 157.336 197.323 156.798C198.105 156.26 198.755 155.552 199.222 154.725C199.549 155.732 200.126 156.639 200.899 157.362C201.672 158.085 202.616 158.6 203.642 158.859C204.669 159.117 205.744 159.111 206.767 158.841C207.791 158.57 208.728 158.045 209.493 157.313C210.258 156.581 210.824 155.667 211.139 154.656C211.454 153.646 211.508 152.572 211.294 151.535C211.081 150.499 210.608 149.533 209.92 148.729C209.231 147.925 208.35 147.309 207.358 146.938H207.338Z" fill="#FEFFFA"/>
<path d="M205.152 159.55C203.889 159.556 202.651 159.208 201.577 158.544C200.503 157.881 199.636 156.93 199.076 155.798C198.487 156.553 197.743 157.174 196.896 157.619C196.048 158.065 195.115 158.325 194.159 158.382C193.203 158.44 192.246 158.293 191.351 157.952C190.456 157.612 189.644 157.084 188.968 156.406C188.292 155.727 187.769 154.913 187.432 154.016C187.095 153.12 186.952 152.162 187.014 151.206C187.075 150.251 187.34 149.319 187.789 148.473C188.238 147.627 188.861 146.887 189.619 146.3C188.627 145.169 188.087 143.713 188.1 142.209C188.099 140.991 188.457 139.8 189.129 138.784C189.801 137.767 190.757 136.971 191.878 136.495C192.999 136.018 194.236 135.882 195.434 136.103C196.632 136.324 197.738 136.893 198.615 137.739C199.666 137.082 200.88 136.731 202.119 136.726C203.287 136.726 204.435 137.029 205.451 137.605C206.468 138.181 207.317 139.01 207.917 140.012C208.518 141.014 208.848 142.155 208.876 143.322C208.904 144.49 208.629 145.645 208.078 146.675C209.458 147.339 210.571 148.451 211.236 149.831C211.901 151.21 212.078 152.774 211.738 154.267C211.398 155.759 210.561 157.093 209.365 158.048C208.168 159.003 206.683 159.524 205.152 159.525V159.55ZM199.208 154.219H199.258C199.356 154.229 199.448 154.266 199.525 154.327C199.601 154.388 199.658 154.47 199.689 154.563C199.989 155.489 200.518 156.323 201.229 156.988C201.939 157.652 202.807 158.126 203.75 158.364C204.693 158.602 205.681 158.597 206.622 158.348C207.563 158.1 208.425 157.617 209.128 156.944C209.831 156.272 210.352 155.432 210.641 154.503C210.931 153.574 210.98 152.587 210.784 151.634C210.588 150.682 210.153 149.794 209.521 149.055C208.888 148.316 208.078 147.75 207.167 147.409C207.095 147.382 207.031 147.34 206.978 147.284C206.926 147.229 206.886 147.163 206.863 147.09C206.84 147.018 206.833 146.941 206.844 146.866C206.854 146.79 206.882 146.718 206.924 146.655C207.663 145.538 207.988 144.198 207.844 142.867C207.699 141.536 207.094 140.297 206.133 139.365C205.172 138.433 203.916 137.866 202.581 137.762C201.246 137.658 199.917 138.025 198.823 138.797C198.722 138.868 198.598 138.9 198.474 138.886C198.351 138.872 198.237 138.813 198.155 138.721C197.451 137.941 196.527 137.392 195.506 137.148C194.484 136.903 193.412 136.974 192.431 137.352C191.451 137.729 190.608 138.395 190.013 139.261C189.419 140.127 189.101 141.154 189.102 142.204C189.1 142.917 189.246 143.622 189.53 144.276C189.814 144.929 190.23 145.517 190.753 146.002C190.809 146.054 190.852 146.119 190.879 146.191C190.906 146.263 190.917 146.34 190.91 146.417C190.902 146.494 190.878 146.568 190.837 146.634C190.797 146.699 190.742 146.755 190.677 146.797C189.943 147.268 189.327 147.899 188.874 148.644C188.42 149.388 188.142 150.226 188.061 151.094C187.979 151.961 188.096 152.836 188.402 153.652C188.709 154.468 189.197 155.204 189.83 155.803C190.462 156.403 191.223 156.85 192.054 157.112C192.886 157.374 193.765 157.444 194.628 157.316C195.49 157.187 196.311 156.865 197.03 156.372C197.749 155.879 198.347 155.23 198.777 154.472C198.821 154.396 198.884 154.333 198.959 154.289C199.035 154.244 199.12 154.22 199.208 154.219Z" fill="#2E1E00"/>
<path d="M296.853 100.02C297.31 100.075 297.772 99.9871 298.176 99.7675C298.579 99.5479 298.905 99.2081 299.107 98.7952C299.961 99.2279 300.938 99.3523 301.874 99.1475C302.809 98.9426 303.645 98.4211 304.24 97.671C304.836 96.921 305.154 95.9883 305.141 95.0308C305.128 94.0733 304.785 93.1496 304.169 92.4158C304.579 91.3792 304.568 90.224 304.141 89.1948C303.713 88.1657 302.901 87.3435 301.878 86.9025C300.854 86.4615 299.699 86.4363 298.657 86.8322C297.616 87.2282 296.769 88.0142 296.297 89.0237C296.02 88.9346 295.735 88.8718 295.446 88.8363C294.867 88.7539 294.278 88.7879 293.712 88.9363C293.146 89.0846 292.616 89.3444 292.152 89.7003C291.688 90.0562 291.3 90.5011 291.01 91.009C290.72 91.5169 290.535 92.0775 290.464 92.658C290.394 93.2385 290.44 93.8272 290.6 94.3896C290.76 94.952 291.03 95.4769 291.396 95.9334C291.761 96.3899 292.214 96.7689 292.728 97.0482C293.242 97.3275 293.806 97.5014 294.388 97.5598C294.566 97.58 294.745 97.5902 294.924 97.5902C294.863 98.1673 295.031 98.7455 295.392 99.2001C295.752 99.6547 296.277 99.9493 296.853 100.02Z" fill="#FEFFFA"/>
<path d="M297.121 100.542C297.012 100.549 296.902 100.549 296.792 100.542C296.176 100.464 295.605 100.179 295.173 99.734C294.74 99.2887 294.472 98.7094 294.412 98.0914H294.321C293.028 97.935 291.85 97.2713 291.047 96.2463C290.243 95.2213 289.879 93.9191 290.036 92.626C290.192 91.3329 290.856 90.1549 291.881 89.3511C292.906 88.5474 294.208 88.1838 295.501 88.3402C295.678 88.3402 295.855 88.3959 296.007 88.4364C296.595 87.3963 297.549 86.6131 298.684 86.2399C299.819 85.8668 301.052 85.9307 302.142 86.419C303.232 86.9074 304.101 87.7851 304.578 88.8802C305.055 89.9754 305.106 91.2092 304.721 92.3399C305.43 93.318 305.732 94.5328 305.564 95.7291C305.396 96.9253 304.771 98.0098 303.819 98.7547C303.337 99.1341 302.785 99.4144 302.194 99.5795C301.603 99.7446 300.986 99.7912 300.377 99.7166C300.004 99.6707 299.638 99.5789 299.288 99.4432C299.037 99.7819 298.71 100.057 298.334 100.248C297.958 100.439 297.543 100.539 297.121 100.542ZM294.904 89.3072C293.909 89.3026 292.951 89.6791 292.225 90.3594C291.5 91.0397 291.063 91.9721 291.004 92.9648C290.945 93.9575 291.269 94.9351 291.908 95.6965C292.548 96.458 293.455 96.9454 294.443 97.0586C294.747 97.094 295.096 97.0282 295.293 97.251C295.341 97.3035 295.376 97.3654 295.398 97.4325C295.42 97.4997 295.427 97.5706 295.42 97.6408C295.376 98.0901 295.511 98.5386 295.795 98.8892C296.079 99.2398 296.49 99.4643 296.939 99.5141C297.291 99.557 297.648 99.4894 297.96 99.3207C298.272 99.152 298.524 98.8905 298.681 98.5724C298.739 98.4515 298.843 98.3586 298.969 98.3142C299.031 98.2884 299.097 98.2752 299.164 98.2752C299.231 98.2752 299.297 98.2884 299.359 98.3142C299.73 98.5015 300.131 98.6231 300.544 98.6737C301.27 98.7625 302.007 98.6311 302.658 98.2964C303.309 97.9617 303.845 97.4393 304.196 96.7966C304.547 96.154 304.696 95.4208 304.626 94.6921C304.555 93.9634 304.267 93.2727 303.799 92.7095C303.743 92.6395 303.706 92.5556 303.693 92.4667C303.679 92.3777 303.69 92.2867 303.723 92.2032C303.854 91.8871 303.942 91.5551 303.987 91.2159C304.103 90.3155 303.891 89.4034 303.39 88.6462C302.889 87.8889 302.133 87.3371 301.259 87.0914C300.385 86.8457 299.452 86.9226 298.63 87.308C297.808 87.6935 297.152 88.3617 296.782 89.1908C296.731 89.3055 296.638 89.397 296.523 89.4476C296.408 89.4981 296.278 89.504 296.159 89.4641C295.914 89.3839 295.661 89.328 295.405 89.2971C295.238 89.2895 295.07 89.2928 294.904 89.3072Z" fill="#2E1E00"/>
</svg>
