<svg width="60" height="61" viewBox="0 0 60 61" fill="none" xmlns="http://www.w3.org/2000/svg">
<path d="M39.9997 20.9998C51.0455 20.9998 60 29.9539 60 40.9999C60 52.0457 51.0455 61 39.9997 61L39.9997 20.9998Z" fill="black"/>
<path d="M35.0006 40.9993C37.762 40.9993 40 43.2384 40 45.9996C40 48.7608 37.762 51.0002 35.0006 51.0002C37.762 51.0002 40 53.2384 40 55.9996C40 58.7618 37.762 61 35.0006 61L24.9999 61C22.2387 61 20.0007 58.7618 20.0007 55.9996C20.0007 53.2384 22.2387 51.0002 24.9999 51.0002C22.2387 51.0002 20.0007 48.7608 20.0007 45.9996C20.0007 43.2384 22.2387 40.9993 24.9999 40.9993C22.2387 40.9993 20.0007 38.7611 20.0007 35.9999C20.0007 33.2375 22.2387 30.9995 24.9999 30.9995L5.00057 30.9995C2.23837 30.9995 0.000191413 28.7613 0.000191172 25.9989C0.000190931 23.2377 2.23837 20.9998 5.00057 20.9998L35.0006 20.9998C37.762 20.9998 40 23.2377 40 25.9989C40 28.7613 37.762 30.9995 35.0006 30.9995C37.762 30.9995 40 33.2375 40 35.9999C40 38.7611 37.7618 40.9993 35.0006 40.9993Z" fill="black"/>
<path d="M50 15.9987C50 17.2782 49.512 18.5581 48.5356 19.5343C46.5832 21.4867 43.4173 21.4867 41.4645 19.5343L31.4647 9.53413C29.5119 7.58171 29.5119 4.41562 31.4647 2.463C33.4171 0.510382 36.583 0.510382 38.5356 2.463L48.5356 12.463C49.512 13.4394 50 14.7192 50 15.9987Z" fill="black"/>
</svg>
