<svg width="751" height="670" viewBox="0 0 751 670" fill="none" xmlns="http://www.w3.org/2000/svg">
<path d="M425.058 140H607C607 140 601.444 83.431 561.564 99.1115C561.564 99.1115 562.556 35 509.581 35C456.605 35 463.153 95.3403 463.153 95.3403C463.153 95.3403 423.273 96.5312 425.058 140Z" fill="#ADF0E7" stroke="#2E1E00" stroke-width="4" stroke-miterlimit="10" stroke-linecap="round" stroke-linejoin="round"/>
<path d="M427.299 61.6002C472.167 55.2624 513.338 87.4199 518.054 132.487L551.997 456.831C556.006 495.143 532.144 530.872 495.219 541.844L159.635 641.563C111.852 655.762 62.8588 623.276 57.3399 573.734L15.5049 198.189C10.7146 155.187 40.9815 116.17 83.8237 110.118L427.299 61.6002Z" fill="#FFF7D9"/>
<path d="M164.041 57.2944C174.099 23.3141 205.314 0 240.751 0H590.053C628.574 0 661.625 27.4518 668.694 65.3182L735.194 421.514C743.542 466.23 712.973 508.9 667.947 515.38L123.525 593.724C65.7961 602.032 18.8667 547.76 35.4203 491.834L164.041 57.2944Z" fill="#FDEAA7"/>
<path d="M467.106 176.6C466.801 176.6 466.497 176.448 466.42 176.143L462.004 166.167C461.851 165.787 462.004 165.33 462.384 165.178C462.765 165.025 463.222 165.178 463.374 165.558L467.791 175.534C467.943 175.915 467.791 176.372 467.41 176.524C467.258 176.524 467.182 176.6 467.106 176.6Z" fill="#2E1E00"/>
<path d="M554.984 255.111H625.195C625.195 255.111 628.393 239.653 612.401 239.424C612.401 239.424 613.163 215.741 591.917 215.741C570.671 215.741 574.631 239.12 574.631 239.12C574.631 239.12 554.679 237.064 554.984 255.111Z" fill="#ADF0E7"/>
<path d="M625.19 255.873H554.979C554.598 255.873 554.217 255.568 554.217 255.111C554.141 249.857 555.74 245.745 558.863 242.851C563.812 238.358 571.123 238.206 573.788 238.282C573.484 235.388 572.95 226.555 577.976 220.539C581.099 216.808 585.82 214.904 591.912 214.904C598.004 214.904 602.954 216.808 606.533 220.539C612.473 226.707 613.082 235.845 613.158 238.587C617.727 238.815 621.23 240.338 623.438 243.08C627.322 247.953 625.951 254.883 625.875 255.187C625.875 255.644 625.571 255.873 625.19 255.873ZM555.74 254.35H624.504C624.733 252.598 625.037 247.649 622.22 244.146C620.164 241.633 616.889 240.262 612.32 240.186C612.092 240.186 611.94 240.11 611.787 239.957C611.635 239.805 611.559 239.577 611.559 239.424C611.559 239.348 611.863 228.382 605.391 221.681C602.04 218.254 597.547 216.503 591.836 216.503C586.201 216.503 581.936 218.178 579.043 221.529C573.484 228.078 575.235 238.891 575.311 238.967C575.387 239.196 575.311 239.424 575.083 239.653C574.93 239.805 574.702 239.881 574.473 239.881C574.397 239.881 565.259 238.967 559.776 243.993C557.187 246.43 555.817 249.933 555.74 254.35Z" fill="#2E1E00"/>
<path d="M258.569 258.061H311.325C311.325 258.061 313.728 246.445 301.712 246.274C301.712 246.274 302.284 228.479 286.32 228.479C270.356 228.479 273.331 246.045 273.331 246.045C273.331 246.045 258.34 244.5 258.569 258.061Z" fill="#ADF0E7"/>
<path d="M311.326 258.633H258.57C258.284 258.633 257.998 258.404 257.998 258.061C257.941 254.113 259.142 251.023 261.488 248.849C265.208 245.473 270.701 245.358 272.703 245.415C272.474 243.241 272.074 236.604 275.85 232.084C278.196 229.28 281.744 227.849 286.321 227.849C290.899 227.849 294.618 229.28 297.307 232.084C301.77 236.718 302.228 243.584 302.285 245.644C305.718 245.816 308.35 246.96 310.01 249.02C312.928 252.682 311.898 257.889 311.841 258.118C311.841 258.461 311.612 258.633 311.326 258.633ZM259.142 257.489H310.811C310.982 256.173 311.211 252.453 309.094 249.821C307.549 247.933 305.089 246.903 301.656 246.846C301.484 246.846 301.37 246.789 301.255 246.674C301.141 246.56 301.084 246.388 301.084 246.274C301.084 246.217 301.313 237.977 296.449 232.942C293.931 230.367 290.555 229.051 286.264 229.051C282.03 229.051 278.826 230.31 276.651 232.827C272.474 237.748 273.79 245.873 273.848 245.93C273.905 246.102 273.848 246.274 273.676 246.445C273.561 246.56 273.39 246.617 273.218 246.617C273.161 246.617 266.295 245.93 262.175 249.707C260.23 251.538 259.2 254.17 259.142 257.489Z" fill="#2E1E00"/>
<path d="M446.859 162.208H517.07C517.07 162.208 520.268 146.749 504.276 146.52C504.276 146.52 505.038 122.838 483.792 122.838C462.546 122.838 466.506 146.216 466.506 146.216C466.506 146.216 446.554 144.16 446.859 162.208Z" fill="#ADF0E7"/>
<path d="M517.069 162.969H446.858C446.477 162.969 446.096 162.664 446.096 162.208C446.02 156.953 447.619 152.841 450.742 149.947C455.691 145.454 463.002 145.302 465.667 145.378C465.362 142.485 464.829 133.651 469.855 127.635C472.977 123.904 477.699 122 483.791 122C489.883 122 494.833 123.904 498.412 127.635C504.352 133.803 504.961 142.941 505.037 145.683C509.606 145.911 513.109 147.434 515.317 150.176C519.201 155.049 517.83 161.979 517.754 162.284C517.754 162.741 517.449 162.969 517.069 162.969ZM447.619 161.446H516.383C516.612 159.695 516.916 154.745 514.099 151.242C512.043 148.729 508.768 147.358 504.199 147.282C503.971 147.282 503.819 147.206 503.666 147.054C503.514 146.901 503.438 146.673 503.438 146.521C503.438 146.444 503.742 135.479 497.27 128.777C493.919 125.351 489.426 123.599 483.715 123.599C478.08 123.599 473.815 125.274 470.921 128.625C465.362 135.174 467.114 145.987 467.19 146.064C467.266 146.292 467.19 146.521 466.962 146.749C466.809 146.901 466.581 146.977 466.352 146.977C466.276 146.977 457.138 146.064 451.655 151.09C449.066 153.526 447.696 157.029 447.619 161.446Z" fill="#2E1E00"/>
<path d="M340.39 352.965C340.086 359.209 335.517 364.007 329.882 364.464C329.349 364.464 328.892 364.464 328.359 364.464L275.434 360.732C275.205 359.666 274.977 358.524 274.749 357.458C273.226 350.68 271.474 343.294 269.418 335.603L329.577 339.791C335.897 340.248 340.695 346.111 340.39 352.965Z" fill="#FA6456"/>
<path d="M329.118 365.225C328.814 365.225 328.585 365.225 328.281 365.225L275.356 361.494C275.052 361.494 274.747 361.189 274.671 360.885C274.442 359.971 274.29 358.981 274.062 357.991L273.985 357.534C272.31 349.919 270.482 342.608 268.655 335.755C268.579 335.526 268.655 335.298 268.807 335.069C268.959 334.841 269.188 334.765 269.416 334.765L329.652 339.029C336.353 339.486 341.531 345.731 341.15 352.965C340.846 359.514 335.972 364.768 329.956 365.149C329.652 365.225 329.347 365.225 329.118 365.225ZM276.041 359.971L328.357 363.702C328.814 363.702 329.271 363.702 329.728 363.702C335.058 363.321 339.246 358.676 339.551 352.965C339.856 346.568 335.363 341.085 329.499 340.628L270.33 336.44C272.082 342.989 273.833 349.995 275.432 357.229L275.508 357.686C275.737 358.448 275.889 359.209 276.041 359.971Z" fill="#2E1E00"/>
<path d="M456.14 456.606L431.848 462.013C430.934 462.241 430.097 462.318 429.183 462.318C423.624 462.318 418.598 458.51 417.38 452.799C415.933 446.25 420.045 439.777 426.594 438.33L454.846 432.01C455.074 434.675 455.226 436.883 455.15 438.406C454.846 445.184 455.379 451.428 456.14 456.606Z" fill="#ADF0E7"/>
<path d="M429.182 463.079C423.166 463.079 417.912 458.814 416.618 452.951C415.856 449.6 416.465 446.173 418.293 443.203C420.12 440.31 423.014 438.254 426.365 437.568L454.617 431.248C454.845 431.171 455.074 431.248 455.226 431.4C455.378 431.552 455.531 431.705 455.531 431.933C455.759 434.674 455.911 436.883 455.835 438.406C455.607 444.269 455.911 450.361 456.825 456.454C456.901 456.834 456.597 457.215 456.216 457.291L431.924 462.698C431.086 463.002 430.096 463.079 429.182 463.079ZM454.16 432.999L426.746 439.091C423.776 439.777 421.263 441.528 419.587 444.117C417.988 446.706 417.455 449.752 418.064 452.722C419.207 457.9 423.852 461.632 429.182 461.632C430.02 461.632 430.858 461.556 431.695 461.327L455.302 456.073C454.464 450.133 454.16 444.193 454.388 438.482C454.388 437.111 454.312 435.284 454.16 432.999Z" fill="#2E1E00"/>
<path d="M573.261 572.735C562.219 572.659 541.354 572.659 517.214 572.811C485.764 573.04 498.481 511.358 498.481 511.358H473.199C474.646 541.894 472.209 557.962 469.392 566.415C467.488 571.974 462.233 575.781 456.37 575.705C443.424 575.629 434.134 575.324 427.661 575.02C424.615 574.867 422.254 573.573 420.579 571.593C415.705 565.958 419.208 557.048 426.519 555.754L437.104 553.85L442.282 493.386C441.368 493.386 440.531 493.462 439.693 493.462C429.26 493.462 422.102 491.711 421.645 491.559C415.172 489.96 411.213 483.334 412.812 476.862C414.411 470.389 421.036 466.429 427.509 468.028C427.89 468.104 439.997 470.922 454.161 467.571C455.456 467.267 456.751 466.886 458.045 466.505C457.436 463.992 456.674 460.642 456.141 456.606C455.38 451.427 454.923 445.183 455.151 438.406C455.228 436.883 455.075 434.674 454.847 432.009C452.105 402.767 432.459 313.595 432.459 313.595L450.963 329.053C457.284 320.905 477.007 320.753 477.007 320.753L489.952 298.517C543.638 375.353 533.587 544.788 533.587 544.788L573.794 546.083C580.495 546.311 586.13 551.413 586.74 558.038C586.74 558.19 586.74 558.267 586.74 558.419C587.425 566.415 581.181 572.811 573.261 572.735Z" fill="#ADF0E7"/>
<path d="M456.446 576.467H456.37C445.252 576.391 435.581 576.162 427.585 575.782C424.539 575.629 421.874 574.335 419.97 572.126C417.61 569.309 416.924 565.577 418.143 562.074C419.437 558.419 422.559 555.754 426.367 555.069L436.419 553.317L441.445 494.3C440.836 494.3 440.226 494.3 439.693 494.3C429.413 494.3 422.255 492.625 421.417 492.397C414.487 490.645 410.299 483.639 412.051 476.71C413.802 469.856 420.808 465.668 427.661 467.343C428.956 467.648 440.531 470.008 453.933 466.886C455 466.658 456.066 466.353 457.056 466.048C456.37 463.079 455.761 459.956 455.304 456.758C454.39 450.59 454.086 444.422 454.314 438.406C454.39 436.959 454.238 434.827 454.01 432.085C451.268 403.224 431.774 314.661 431.621 313.747C431.545 313.443 431.697 313.138 432.002 312.91C432.307 312.757 432.611 312.757 432.916 312.986L450.887 327.987C457.284 320.829 473.58 320.068 476.55 319.992L489.343 298.136C489.496 297.908 489.724 297.756 489.953 297.756C490.181 297.756 490.486 297.832 490.638 298.06C518.433 337.887 528.866 402.92 532.749 450.361C536.633 497.956 534.805 538.011 534.501 544.027L573.947 545.321C581.105 545.55 586.969 551.033 587.654 558.038V558.419C587.959 562.379 586.588 566.11 583.923 569.004C581.257 571.822 577.45 573.497 573.414 573.497H573.338C561.763 573.421 540.897 573.421 517.291 573.573C517.215 573.573 517.138 573.573 517.062 573.573C511.046 573.573 506.249 571.365 502.67 567.024C490.638 552.403 496.426 518.288 497.644 512.12H474.037C475.179 537.249 473.885 555.525 470.154 566.643C468.174 572.507 462.615 576.467 456.446 576.467ZM442.282 492.701C442.511 492.701 442.663 492.777 442.815 492.93C442.968 493.082 443.044 493.31 443.044 493.539L437.866 554.002C437.866 554.383 437.561 554.612 437.256 554.688L426.672 556.592C423.397 557.201 420.732 559.409 419.666 562.607C418.6 565.577 419.133 568.852 421.189 571.213C422.331 572.583 424.387 574.182 427.738 574.335C435.657 574.715 445.328 574.944 456.446 575.02H456.523C462.082 575.02 467.031 571.517 468.783 566.263C471.296 558.724 474.037 543.037 472.59 511.51C472.59 511.282 472.666 511.13 472.819 510.977C472.971 510.825 473.123 510.749 473.352 510.749H498.634C498.862 510.749 499.091 510.825 499.243 511.054C499.395 511.206 499.472 511.434 499.395 511.663C499.319 512.043 491.476 551.033 503.964 566.187C507.239 570.146 511.656 572.202 517.215 572.202C517.291 572.202 517.367 572.202 517.367 572.202C540.974 572.05 561.839 572.05 573.414 572.126H573.49C577.145 572.126 580.42 570.679 582.856 568.09C585.217 565.577 586.436 562.227 586.131 558.648V558.495C586.131 558.419 586.131 558.343 586.131 558.267C585.522 552.023 580.267 547.225 573.871 546.997L533.587 545.702C533.359 545.702 533.206 545.626 533.054 545.474C532.902 545.321 532.826 545.093 532.826 544.941C532.826 544.484 535.262 501.992 531.15 450.666C527.343 403.757 517.138 339.715 490.029 300.116L477.692 321.362C477.54 321.591 477.312 321.743 477.007 321.743C476.779 321.743 457.589 322.048 451.573 329.739C451.42 329.891 451.268 330.043 451.04 330.043C450.811 330.043 450.659 329.967 450.507 329.891L433.677 315.803C436.723 329.663 453.172 405.737 455.609 432.161C455.837 434.903 455.99 437.111 455.913 438.634C455.685 444.498 455.99 450.59 456.903 456.682C457.36 460.109 458.046 463.383 458.807 466.582C458.883 466.962 458.655 467.343 458.274 467.495C456.979 467.876 455.685 468.257 454.314 468.561C440.531 471.836 428.651 469.323 427.357 469.018C421.265 467.495 415.097 471.227 413.574 477.243C412.051 483.335 415.782 489.503 421.798 491.026C422.559 491.178 429.565 492.854 439.693 492.854C440.531 492.777 441.369 492.777 442.282 492.701Z" fill="#2E1E00"/>
<path d="M511.656 512.12H498.558C498.101 512.12 497.797 511.815 497.797 511.358C497.797 510.901 498.101 510.597 498.558 510.597H511.656C512.113 510.597 512.418 510.901 512.418 511.358C512.418 511.815 512.037 512.12 511.656 512.12Z" fill="#2E1E00"/>
<path d="M511.653 473.74H494.215C493.758 473.74 493.453 473.435 493.453 472.978C493.453 472.521 493.758 472.217 494.215 472.217H511.653C512.11 472.217 512.415 472.521 512.415 472.978C512.415 473.435 512.034 473.74 511.653 473.74Z" fill="#2E1E00"/>
<path d="M468.094 410.535C458.27 410.535 451.797 408.326 451.493 408.25C451.112 408.098 450.884 407.717 451.036 407.26C451.188 406.88 451.569 406.651 452.026 406.803C452.102 406.803 462.078 410.154 475.633 408.555C488.121 407.108 506.321 401.016 522.085 380.455C522.313 380.151 522.846 380.075 523.151 380.303C523.455 380.531 523.531 381.064 523.303 381.369C507.159 402.387 488.578 408.555 475.785 410.078C473.044 410.459 470.454 410.535 468.094 410.535Z" fill="#FEFFFA"/>
<path d="M308.708 547.682L311.221 569.156C303.606 566.263 298.961 562.227 298.961 557.886C299.037 554.079 302.616 550.499 308.708 547.682Z" fill="#2E1E00"/>
<path d="M311.299 569.918C311.223 569.918 311.147 569.918 310.994 569.842C302.77 566.643 298.277 562.455 298.277 557.886C298.277 553.85 301.78 550.043 308.405 546.997C308.634 546.92 308.862 546.92 309.091 546.997C309.319 547.149 309.471 547.301 309.471 547.606L312.061 569.08C312.061 569.309 311.984 569.613 311.756 569.766C311.604 569.842 311.451 569.918 311.299 569.918ZM308.101 548.9C302.77 551.566 299.8 554.764 299.8 557.962C299.8 561.618 303.532 565.197 310.385 568.014L308.101 548.9Z" fill="#2E1E00"/>
<path d="M387.827 557.886C387.827 565.502 373.739 571.898 354.625 573.726L361.326 542.961C376.937 545.474 387.827 551.185 387.827 557.886Z" fill="#2E1E00"/>
<path d="M354.629 574.487C354.401 574.487 354.172 574.411 354.096 574.259C353.944 574.107 353.868 573.802 353.944 573.574L360.645 542.809C360.721 542.428 361.102 542.123 361.483 542.199C378.236 544.941 388.669 550.957 388.669 557.887C388.592 565.882 374.962 572.584 354.629 574.487ZM361.864 543.799L355.543 572.888C373.895 570.984 387.069 564.74 387.069 557.963C387.069 552.023 377.018 546.388 361.864 543.799Z" fill="#2E1E00"/>
<path d="M362.469 537.554L361.326 542.885L354.625 573.65C351.046 574.03 347.315 574.183 343.431 574.183C330.79 574.183 319.367 572.203 311.295 569.081L308.782 547.606L305.965 524.837L325.612 529.558L334.141 324.028L352.645 326.769L341.756 532.681L362.469 537.554Z" fill="#FEFFFA"/>
<path d="M343.433 575.02C331.02 575.02 319.521 573.193 310.993 569.918C310.764 569.842 310.536 569.613 310.536 569.309L305.281 524.989C305.281 524.761 305.357 524.532 305.51 524.304C305.662 524.152 305.967 524.075 306.195 524.152L325.004 528.644L333.533 324.028C333.533 323.799 333.609 323.647 333.838 323.495C333.99 323.342 334.219 323.266 334.447 323.342L352.952 326.084C353.332 326.16 353.637 326.465 353.637 326.845L342.519 532.071L362.623 536.793C363.003 536.869 363.308 537.326 363.156 537.706L355.312 573.878C355.236 574.183 355.008 574.411 354.627 574.487C351.048 574.868 347.24 575.02 343.433 575.02ZM311.983 568.624C320.283 571.746 331.477 573.497 343.433 573.497C347.012 573.497 350.515 573.345 354.018 573.04L361.633 538.163L341.605 533.442C341.224 533.366 340.996 533.061 340.996 532.68L351.962 327.454L334.98 324.942L326.451 529.634C326.451 529.863 326.299 530.091 326.147 530.244C325.994 530.396 325.766 530.396 325.537 530.396L306.957 525.903L311.983 568.624Z" fill="#2E1E00"/>
<path d="M412.43 506.103L380.904 531.005L412.43 518.516L422.482 543.265L429.64 513.261L461.319 528.949L439.844 506.103L437.103 289.912C437.103 289.912 478.757 278.261 482.793 217.34L476.549 214.599C476.549 214.599 473.351 258.005 437.027 276.281C437.027 276.281 429.64 254.121 447.307 214.599C464.974 175.077 463.679 149.338 463.679 149.338H455.303C455.303 149.338 447.916 188.86 434.742 212.01C421.568 235.159 422.177 269.884 422.177 269.884L415.095 156.115L406.414 156.42L407.023 221.3L389.737 181.169L382.655 186.956L400.322 230.667L414.867 286.333C414.867 286.333 394.687 288.389 379.533 222.062L371.918 229.677C371.918 229.677 375.421 286.028 416.618 299.202L412.43 506.103Z" fill="#FEFFFA"/>
<path d="M422.558 544.027C422.253 544.027 421.949 543.874 421.873 543.57L412.049 519.506L381.208 531.69C380.827 531.843 380.447 531.69 380.294 531.386C380.142 531.081 380.218 530.624 380.447 530.396L411.668 505.723L415.933 299.812C404.053 295.852 388.138 285.724 378.238 259.833C372.222 244.145 371.309 229.905 371.309 229.753C371.309 229.525 371.385 229.296 371.537 229.144L379.152 221.529C379.381 221.3 379.609 221.224 379.914 221.3C380.142 221.376 380.371 221.605 380.447 221.833C393.392 278.261 409.993 284.734 414.029 285.419L399.637 230.895L381.97 187.261C381.817 186.956 381.97 186.576 382.198 186.423L389.28 180.636C389.432 180.484 389.737 180.407 389.965 180.484C390.194 180.56 390.422 180.712 390.499 180.94L406.338 217.645L405.729 156.496C405.729 156.115 406.033 155.735 406.49 155.735L415.171 155.43C415.628 155.43 415.933 155.735 415.933 156.115L422.101 255.949C423.243 243.612 426.213 225.489 434.057 211.705C447.002 188.936 454.465 149.643 454.541 149.262C454.617 148.881 454.922 148.653 455.303 148.653H463.679C464.06 148.653 464.441 148.957 464.441 149.414C464.441 149.643 465.507 175.762 447.992 214.98C438.93 235.236 436.646 250.771 436.265 260.289C435.96 268.209 437.027 273.387 437.483 275.291C472.208 257.167 475.711 215.056 475.787 214.675C475.787 214.447 475.94 214.218 476.168 214.066C476.396 213.914 476.625 213.914 476.853 213.99L483.098 216.731C483.402 216.884 483.555 217.188 483.555 217.493C481.422 249.171 469.01 267.448 458.958 277.119C449.363 286.409 440.225 289.836 437.864 290.597L440.606 505.875L461.852 528.492C462.08 528.797 462.156 529.177 461.928 529.482C461.699 529.786 461.319 529.863 461.014 529.71L430.249 514.48L423.319 543.57C423.167 543.722 422.939 544.027 422.558 544.027ZM412.43 517.755C412.735 517.755 413.039 517.907 413.115 518.212L422.33 540.752L428.955 513.033C429.031 512.805 429.183 512.653 429.335 512.5C429.564 512.424 429.792 512.424 430.021 512.5L457.892 526.284L439.311 506.484C439.159 506.332 439.083 506.18 439.083 505.951L436.341 289.76C436.341 289.379 436.57 289.074 436.874 288.998C436.95 288.998 447.307 285.952 457.968 275.672C467.715 266.229 479.823 248.486 481.955 217.645L477.158 215.513C476.32 222.29 470.457 260.061 437.331 276.814C437.103 276.89 436.874 276.89 436.722 276.814C436.494 276.738 436.341 276.586 436.265 276.357C435.96 275.443 428.955 253.436 446.545 214.142C460.1 183.834 463.146 159.39 462.918 149.947H455.988C454.998 155.125 447.612 190.84 435.427 212.238C422.482 234.931 423.015 269.351 423.015 269.656C423.015 270.037 422.71 270.417 422.253 270.417C421.796 270.417 421.492 270.113 421.492 269.732L414.486 156.725L407.328 156.953L407.937 221.148C407.937 221.529 407.709 221.833 407.328 221.91C406.947 221.986 406.642 221.833 406.49 221.453L389.509 182.235L383.645 187.032L401.084 230.21V230.286L415.628 285.952C415.704 286.181 415.628 286.409 415.552 286.561C415.4 286.714 415.248 286.866 415.019 286.866C414.181 286.942 394.306 288.237 379.152 223.356L372.755 229.753C372.908 231.961 374.202 244.907 379.609 259.071C389.432 284.81 405.348 294.557 416.923 298.289C417.227 298.365 417.456 298.669 417.456 299.05L413.191 505.875C413.191 506.104 413.115 506.332 412.887 506.484L385.396 528.187L412.125 517.602C412.278 517.755 412.354 517.755 412.43 517.755Z" fill="#2E1E00"/>
<path d="M510.816 340.705L494.977 360.047L515.385 354.564L510.816 340.705Z" fill="#2E1E00"/>
<path d="M494.977 360.808C494.749 360.808 494.444 360.656 494.368 360.428C494.216 360.123 494.216 359.818 494.444 359.514L510.36 340.172C510.512 339.943 510.816 339.867 511.121 339.943C511.426 340.019 511.654 340.172 511.73 340.476L516.223 354.336C516.299 354.564 516.299 354.716 516.147 354.945C515.995 355.173 515.842 355.249 515.69 355.326L495.282 360.808C495.053 360.808 495.053 360.808 494.977 360.808ZM510.588 342.228L497.109 358.676L514.472 353.955L510.588 342.228Z" fill="#2E1E00"/>
<path d="M516.298 362.636L506.703 370.784H519.725L516.298 362.636Z" fill="#2E1E00"/>
<path d="M519.724 371.545H506.702C506.398 371.545 506.093 371.317 506.017 371.012C505.941 370.708 506.017 370.403 506.245 370.175L515.84 361.95C515.993 361.798 516.297 361.722 516.526 361.798C516.754 361.874 516.983 362.027 517.059 362.255L520.485 370.479C520.562 370.708 520.562 371.012 520.409 371.165C520.257 371.469 520.029 371.545 519.724 371.545ZM508.758 370.022H518.582L515.993 363.854L508.758 370.022Z" fill="#2E1E00"/>
<path d="M476.75 352.189C477.644 349.919 474.974 346.743 470.786 345.095C466.599 343.446 462.48 343.95 461.587 346.22C460.693 348.49 463.363 351.666 467.551 353.314C471.738 354.963 475.857 354.459 476.75 352.189Z" fill="#2E1E00"/>
<path d="M444.049 357.983C448.001 355.831 450.26 352.35 449.093 350.207C447.927 348.065 443.777 348.072 439.824 350.224C435.872 352.376 433.614 355.858 434.78 358C435.947 360.142 440.096 360.135 444.049 357.983Z" fill="#2E1E00"/>
<path d="M453.017 379.998C454.825 379.998 456.291 378.532 456.291 376.724C456.291 374.915 454.825 373.449 453.017 373.449C451.208 373.449 449.742 374.915 449.742 376.724C449.742 378.532 451.208 379.998 453.017 379.998Z" fill="#2E1E00"/>
<path d="M463.831 365.149C465.429 365.149 466.725 363.853 466.725 362.255C466.725 360.657 465.429 359.362 463.831 359.362C462.233 359.362 460.938 360.657 460.938 362.255C460.938 363.853 462.233 365.149 463.831 365.149Z" fill="#2E1E00"/>
<path d="M446.392 366.367C447.864 366.367 449.057 365.174 449.057 363.702C449.057 362.23 447.864 361.037 446.392 361.037C444.92 361.037 443.727 362.23 443.727 363.702C443.727 365.174 444.92 366.367 446.392 366.367Z" fill="#2E1E00"/>
<path d="M462.078 384.491C461.697 384.491 461.316 384.187 461.316 383.806C461.316 383.425 461.621 383.044 462.002 382.968C462.002 382.968 465.505 382.664 467.485 379.846C469.16 377.561 469.465 374.211 468.475 369.946C468.398 369.566 468.627 369.109 469.008 369.033C469.388 368.957 469.845 369.185 469.921 369.566C471.064 374.287 470.683 378.018 468.703 380.684C466.266 384.11 462.306 384.415 462.078 384.491Z" fill="#2E1E00"/>
<path d="M197.15 451.199C196.008 451.047 194.942 450.742 193.876 450.285C168.822 439.015 152.755 422.871 146.129 402.31C135.773 370.175 152.907 339.791 153.668 338.496C156.791 333.013 163.796 331.186 169.279 334.308C174.762 337.43 176.59 344.436 173.468 349.843C173.239 350.3 160.598 373.145 167.909 395.381C172.021 407.946 181.92 418.378 197.303 426.45C197.379 434.751 197.303 442.975 197.15 451.199Z" fill="#FA6456"/>
<path d="M197.152 451.961H197.075C195.857 451.808 194.639 451.504 193.572 450.971C168.367 439.624 152.146 423.328 145.369 402.539C134.86 370.099 152.223 339.41 152.984 338.116C154.583 335.298 157.249 333.318 160.371 332.404C163.493 331.567 166.767 332.024 169.585 333.623C175.372 336.973 177.428 344.436 174.078 350.224C173.545 351.137 161.513 373.526 168.595 395.152C172.631 407.489 182.378 417.845 197.608 425.841C197.837 425.993 197.989 426.222 197.989 426.526C198.141 434.142 198.065 442.213 197.913 451.199C197.913 451.428 197.837 451.58 197.685 451.732C197.456 451.885 197.304 451.961 197.152 451.961ZM163.493 333.47C162.579 333.47 161.665 333.623 160.675 333.851C157.934 334.613 155.649 336.364 154.203 338.801C153.441 340.095 136.459 370.175 146.74 402.006C153.365 422.414 169.28 438.33 194.105 449.524C194.791 449.828 195.552 450.133 196.314 450.285C196.466 441.833 196.542 434.141 196.39 426.983C181.084 418.835 171.184 408.25 167.072 395.685C159.762 373.449 172.174 350.452 172.707 349.538C175.601 344.436 173.849 337.887 168.747 334.993C167.148 334.003 165.321 333.47 163.493 333.47Z" fill="#2E1E00"/>
<path d="M356.462 385.329C356.462 392.944 350.294 399.112 342.679 399.112H281.683C284.272 432.695 293.334 572.736 266.072 574.259C242.693 575.553 247.491 457.901 247.491 457.901C241.17 461.175 234.545 457.596 234.545 457.596C234.545 457.596 233.784 574.259 209.72 574.259C189.312 574.259 195.937 521.563 196.394 510.368C197.079 490.645 198.221 470.922 198.678 451.199C198.831 442.975 198.907 434.751 198.755 426.527C198.755 425.232 198.678 423.861 198.678 422.567C198.45 414.799 198.069 406.956 197.46 399.188C196.698 389.974 195.632 380.76 194.262 371.622C192.129 357.915 189.312 344.284 185.657 330.881C180.859 313.138 174.919 294.938 165.934 278.794L190.683 287.475C199.744 271.408 220.381 272.398 220.381 272.398V251.38C243.455 259.376 259.142 298.594 268.813 333.623C268.965 334.308 269.194 334.993 269.346 335.603C271.402 343.218 273.154 350.681 274.677 357.458C274.905 358.6 275.134 359.666 275.362 360.732C276.2 364.616 276.961 368.271 277.57 371.622H342.603C350.294 371.546 356.462 377.714 356.462 385.329Z" fill="#FA6456"/>
<path d="M265.691 575.02C263.559 575.02 261.655 574.106 259.904 572.431C243.836 556.592 246.273 470.999 246.73 459.119C242.009 461.023 237.44 459.652 235.307 458.814C235.231 464.602 234.774 490.417 231.957 516.08C227.692 555.221 220.153 575.096 209.721 575.096C206.522 575.096 203.781 573.878 201.573 571.517C191.978 561.237 194.186 530.853 195.252 516.232C195.404 513.719 195.557 511.739 195.633 510.368C195.937 502.906 196.242 495.291 196.547 487.904C197.08 475.872 197.613 463.383 197.917 451.199C198.146 442.214 198.146 434.142 197.994 426.527C197.994 425.232 197.917 423.861 197.917 422.567C197.689 414.723 197.308 406.88 196.699 399.188C195.937 389.898 194.871 380.684 193.501 371.698C191.368 357.915 188.551 344.284 184.972 331.034C180.86 315.88 174.92 296.309 165.325 279.099C165.173 278.794 165.173 278.49 165.401 278.261C165.63 278.033 165.934 277.957 166.239 278.033L190.455 286.486C198.755 272.55 215.813 271.56 219.696 271.56V251.304C219.696 251.076 219.849 250.847 220.001 250.695C220.229 250.542 220.458 250.542 220.686 250.619C244.522 258.919 260.437 300.193 269.575 333.394C269.727 334.08 269.956 334.765 270.108 335.374C271.936 342.228 273.763 349.614 275.439 357.229L275.515 357.686C275.743 358.676 275.972 359.59 276.124 360.58C276.809 363.778 277.495 367.129 278.256 370.86H342.68C350.676 370.86 357.224 377.409 357.224 385.405C357.224 393.401 350.676 399.95 342.68 399.95H282.521C285.186 435.741 292.116 549.586 273.078 571.289C271.022 573.65 268.661 574.868 266.148 575.02C265.996 575.02 265.844 575.02 265.691 575.02ZM247.491 457.139C247.644 457.139 247.796 457.215 247.872 457.291C248.101 457.444 248.253 457.672 248.253 457.977C248.177 458.967 244.445 555.145 260.894 571.365C262.493 572.964 264.168 573.65 265.996 573.573C268.128 573.421 270.108 572.355 271.86 570.375C279.932 561.161 284.12 533.518 284.348 488.285C284.501 451.885 281.988 413.962 280.845 399.265C280.845 399.036 280.922 398.808 281.074 398.655C281.226 398.503 281.455 398.427 281.607 398.427H342.604C349.762 398.427 355.625 392.563 355.625 385.405C355.625 378.247 349.762 372.383 342.604 372.383H277.571C277.19 372.383 276.886 372.155 276.809 371.774C276.048 367.814 275.286 364.311 274.601 360.885C274.373 359.971 274.22 358.981 273.992 357.991L273.916 357.534C272.24 349.919 270.413 342.609 268.585 335.755C268.433 335.07 268.204 334.384 268.052 333.775C259.142 301.411 243.76 261.28 221.143 252.446V272.398C221.143 272.626 221.067 272.778 220.915 272.931C220.763 273.083 220.534 273.159 220.382 273.159C220.153 273.159 200.126 272.398 191.368 287.856C191.216 288.161 190.835 288.313 190.455 288.237L167.533 280.241C176.671 297.147 182.383 316.032 186.342 330.729C189.922 343.979 192.815 357.686 194.947 371.546C196.318 380.608 197.46 389.898 198.222 399.188C198.831 406.88 199.288 414.799 199.44 422.643C199.44 423.937 199.517 425.308 199.517 426.603C199.669 434.218 199.593 442.29 199.44 451.276C199.136 463.536 198.603 476.024 198.07 488.056C197.765 495.443 197.384 502.982 197.156 510.521C197.08 511.891 196.927 513.871 196.775 516.384C195.709 530.777 193.577 560.704 202.715 570.451C204.695 572.507 206.979 573.573 209.721 573.573C219.163 573.573 226.322 553.622 230.434 515.927C233.556 487.142 233.784 457.977 233.784 457.672C233.784 457.368 233.937 457.139 234.165 456.987C234.394 456.835 234.698 456.835 234.927 456.987C235.003 456.987 241.323 460.337 247.187 457.291C247.263 457.139 247.415 457.139 247.491 457.139Z" fill="#2E1E00"/>
<path d="M277.648 372.307H227.769C227.312 372.307 227.008 372.002 227.008 371.545C227.008 371.089 227.312 370.784 227.769 370.784H277.648C278.105 370.784 278.409 371.089 278.409 371.545C278.409 372.002 278.029 372.307 277.648 372.307Z" fill="#2E1E00"/>
<path d="M281.683 399.874H229.824C229.367 399.874 229.062 399.569 229.062 399.112C229.062 398.655 229.367 398.351 229.824 398.351H281.759C282.216 398.351 282.52 398.655 282.52 399.112C282.52 399.569 282.139 399.874 281.683 399.874Z" fill="#2E1E00"/>
<path d="M213.679 359.133C200.962 359.133 191.672 357.382 191.519 357.382C191.139 357.306 190.834 356.925 190.91 356.468C190.986 356.087 191.367 355.783 191.824 355.859C192.357 355.935 243.378 365.454 270.031 339.258C270.335 338.953 270.792 338.953 271.097 339.258C271.401 339.563 271.401 340.02 271.097 340.324C255.257 355.859 231.194 359.133 213.679 359.133Z" fill="#FEFFFA"/>
<path d="M183.68 324.028L200.89 326.236L186.878 335.527L183.68 324.028Z" fill="#2E1E00"/>
<path d="M186.878 336.288C186.802 336.288 186.726 336.288 186.574 336.212C186.345 336.136 186.193 335.907 186.117 335.679L182.995 324.104C182.919 323.876 182.995 323.571 183.147 323.419C183.299 323.19 183.604 323.114 183.832 323.19L201.042 325.475C201.347 325.551 201.652 325.779 201.652 326.084C201.728 326.388 201.575 326.693 201.347 326.922L187.335 336.212C187.183 336.288 187.031 336.288 186.878 336.288ZM184.746 324.942L187.335 334.384L198.758 326.769L184.746 324.942Z" fill="#2E1E00"/>
<path d="M188.473 342.227L211.013 339.334L192.28 353.574L188.473 342.227Z" fill="#2E1E00"/>
<path d="M192.279 354.335C192.203 354.335 192.127 354.335 192.051 354.335C191.822 354.259 191.594 354.107 191.518 353.878L187.71 342.532C187.634 342.304 187.634 342.075 187.786 341.847C187.939 341.618 188.091 341.542 188.319 341.466L210.86 338.648C211.241 338.572 211.545 338.801 211.698 339.105C211.85 339.41 211.698 339.791 211.469 340.019L192.736 354.183C192.66 354.259 192.432 354.335 192.279 354.335ZM189.538 342.837L192.736 352.279L208.347 340.476L189.538 342.837Z" fill="#2E1E00"/>
<path d="M242.311 318.012C235 318.012 232.411 310.244 232.411 310.168C232.259 309.787 232.487 309.33 232.868 309.178C233.249 309.026 233.706 309.254 233.858 309.635C233.934 309.94 236.599 317.783 244.29 316.184C244.671 316.108 245.128 316.336 245.204 316.793C245.28 317.25 245.052 317.631 244.595 317.707C243.757 317.935 242.996 318.012 242.311 318.012Z" fill="#2E1E00"/>
<path d="M181.237 316.565C180.932 316.565 180.628 316.336 180.552 316.032C180.399 315.651 180.628 315.194 181.009 315.042L209.489 305.371C209.87 305.218 210.326 305.447 210.479 305.828C210.631 306.208 210.403 306.665 210.022 306.818L181.542 316.489C181.389 316.565 181.313 316.565 181.237 316.565Z" fill="#2E1E00"/>
<path d="M202.941 302.858L229.746 292.197C229.746 292.197 239.037 306.361 226.472 309.94C213.907 313.519 202.941 302.858 202.941 302.858Z" fill="#2E1E00"/>
<path d="M221.137 311.463C210.857 311.463 202.785 303.772 202.404 303.391C202.252 303.239 202.176 302.934 202.176 302.706C202.252 302.477 202.404 302.249 202.633 302.172L229.438 291.511C229.742 291.359 230.123 291.511 230.352 291.816C230.58 292.121 235.377 299.583 233.245 305.295C232.255 307.884 230.047 309.711 226.696 310.701C224.793 311.234 222.965 311.463 221.137 311.463ZM204.384 303.086C207.202 305.447 216.34 312.072 226.316 309.178C229.209 308.341 231.113 306.818 231.875 304.686C233.474 300.497 230.504 294.786 229.438 293.111L204.384 303.086Z" fill="#2E1E00"/>
<path d="M229.821 292.197C229.821 292.197 239.111 306.361 226.546 309.94C213.981 313.519 203.016 302.858 203.016 302.858" fill="#2E1E00"/>
<path d="M221.137 311.463C210.857 311.463 202.785 303.772 202.404 303.391C202.1 303.086 202.1 302.629 202.404 302.325C202.709 302.02 203.166 302.02 203.47 302.325C203.547 302.401 214.284 312.681 226.316 309.254C229.209 308.417 231.113 306.894 231.875 304.762C233.778 299.736 229.209 292.73 229.133 292.654C228.905 292.273 228.981 291.816 229.362 291.587C229.742 291.359 230.199 291.435 230.428 291.816C230.656 292.121 235.454 299.583 233.321 305.295C232.331 307.884 230.123 309.711 226.772 310.701C224.793 311.234 222.965 311.463 221.137 311.463Z" fill="#2E1E00"/>
<path d="M242.691 287.856C242.691 287.856 247.413 303.467 257.541 297.984C267.669 292.501 266.527 278.261 266.527 278.261L242.691 287.856Z" fill="#2E1E00"/>
<path d="M253.352 299.888C252.362 299.888 251.372 299.66 250.382 299.279C244.671 296.918 242.081 288.389 241.929 288.009C241.853 287.628 242.005 287.247 242.386 287.095L266.145 277.5C266.374 277.424 266.602 277.424 266.83 277.576C267.059 277.728 267.135 277.957 267.211 278.185C267.211 278.337 267.516 281.916 266.526 286.257C265.231 292.045 262.185 296.309 257.845 298.67C256.398 299.431 254.875 299.888 253.352 299.888ZM243.681 288.237C244.366 290.217 246.803 296.157 250.991 297.832C252.895 298.593 254.951 298.441 257.159 297.223C265.155 292.882 265.764 282.602 265.764 279.251L243.681 288.237Z" fill="#2E1E00"/>
<path d="M231.042 298.441C230.737 298.441 230.432 298.289 230.356 297.908C230.204 297.528 230.432 297.071 230.813 296.918L247.414 290.75C247.795 290.598 248.252 290.826 248.404 291.207C248.556 291.588 248.328 292.045 247.947 292.197L231.346 298.365C231.194 298.365 231.118 298.441 231.042 298.441Z" fill="#2E1E00"/>
<path d="M214.783 292.117C217.787 289.114 218.896 285.353 217.26 283.717C215.625 282.082 211.864 283.191 208.86 286.194C205.857 289.198 204.748 292.958 206.383 294.594C208.019 296.23 211.78 295.121 214.783 292.117Z" fill="#2E1E00"/>
<path d="M250.359 278.525C250.563 276.221 247.298 274.05 243.067 273.676C238.836 273.302 235.24 274.867 235.037 277.171C234.833 279.475 238.098 281.646 242.329 282.02C246.56 282.394 250.156 280.829 250.359 278.525Z" fill="#2E1E00"/>
<path d="M245.814 311.006C247.538 311.006 248.936 309.608 248.936 307.884C248.936 306.159 247.538 304.761 245.814 304.761C244.089 304.761 242.691 306.159 242.691 307.884C242.691 309.608 244.089 311.006 245.814 311.006Z" fill="#2E1E00"/>
<path d="M356.23 362.56C364.81 362.56 371.765 356.934 371.765 349.995C371.765 343.056 364.81 337.43 356.23 337.43C347.65 337.43 340.695 343.056 340.695 349.995C340.695 356.934 347.65 362.56 356.23 362.56Z" fill="#FA6456"/>
<path d="M356.226 363.321C347.24 363.321 339.93 357.382 339.93 349.995C339.93 342.608 347.24 336.669 356.226 336.669C365.212 336.669 372.522 342.608 372.522 349.995C372.522 357.382 365.212 363.321 356.226 363.321ZM356.226 338.192C348.078 338.192 341.453 343.446 341.453 349.995C341.453 356.468 348.078 361.798 356.226 361.798C364.374 361.798 370.999 356.544 370.999 349.995C370.999 343.522 364.374 338.192 356.226 338.192Z" fill="#2E1E00"/>
<path d="M516.306 439.777C502.066 475.111 477.012 487.447 458.508 491.559C452.72 492.854 447.161 493.387 442.212 493.539C441.298 493.539 440.46 493.615 439.623 493.615C429.19 493.615 422.032 491.864 421.575 491.712C415.102 490.112 411.142 483.487 412.741 477.014C414.341 470.542 420.966 466.582 427.438 468.181C427.819 468.257 439.927 471.075 454.091 467.724C455.386 467.419 456.68 467.039 457.975 466.658C474.195 461.556 486.227 449.524 493.766 430.791" fill="#ADF0E7"/>
<path d="M439.693 494.301C429.413 494.301 422.255 492.625 421.417 492.397C414.487 490.645 410.299 483.639 412.051 476.71C413.802 469.856 420.808 465.668 427.661 467.343C428.956 467.648 440.531 470.008 453.933 466.886C455.228 466.582 456.523 466.201 457.741 465.82C473.733 460.794 485.612 448.915 493.075 430.41C493.227 430.029 493.684 429.801 494.065 429.953C494.446 430.106 494.674 430.562 494.522 430.943C486.907 449.905 474.646 462.089 458.274 467.267C456.979 467.648 455.685 468.029 454.314 468.333C440.531 471.608 428.651 469.095 427.357 468.79C421.265 467.267 415.097 470.998 413.574 477.014C412.051 483.106 415.782 489.275 421.798 490.798C422.559 490.95 429.565 492.625 439.693 492.625C440.531 492.625 441.369 492.625 442.282 492.549C447.765 492.397 453.172 491.711 458.426 490.569C476.779 486.533 501.528 474.349 515.692 439.244C515.844 438.863 516.301 438.634 516.682 438.787C517.062 438.939 517.291 439.396 517.138 439.777C502.746 475.415 477.464 487.828 458.807 492.016C453.477 493.158 447.994 493.844 442.435 493.996C441.369 494.3 440.531 494.301 439.693 494.301Z" fill="#2E1E00"/>
<path d="M415.552 463.459C423.838 463.459 430.554 458.038 430.554 451.351C430.554 444.664 423.838 439.243 415.552 439.243C407.267 439.243 400.551 444.664 400.551 451.351C400.551 458.038 407.267 463.459 415.552 463.459Z" fill="#ADF0E7"/>
<path d="M415.548 464.221C406.867 464.221 399.785 458.434 399.785 451.352C399.785 444.27 406.867 438.482 415.548 438.482C424.23 438.482 431.311 444.27 431.311 451.352C431.311 458.434 424.23 464.221 415.548 464.221ZM415.548 440.005C407.705 440.005 401.308 445.107 401.308 451.352C401.308 457.596 407.705 462.698 415.548 462.698C423.392 462.698 429.788 457.596 429.788 451.352C429.788 445.107 423.392 440.005 415.548 440.005Z" fill="#2E1E00"/>
<path d="M524.069 551.413C523.84 551.413 523.536 551.261 523.383 551.033C523.155 550.652 523.307 550.195 523.612 549.967L533.131 544.103C533.512 543.874 533.968 544.027 534.197 544.331C534.425 544.636 534.273 545.169 533.968 545.397L524.45 551.261C524.373 551.413 524.221 551.413 524.069 551.413Z" fill="#2E1E00"/>
<path d="M261.498 360.656C261.194 360.656 260.889 360.504 260.813 360.199L256.929 350.832C256.777 350.452 256.929 349.995 257.31 349.843C257.691 349.69 258.148 349.843 258.3 350.223L262.184 359.59C262.336 359.971 262.184 360.427 261.803 360.58C261.651 360.656 261.575 360.656 261.498 360.656Z" fill="#FEFFFA"/>
<path d="M271.856 364.083C274.293 364.464 275.968 366.672 275.588 369.109C275.283 371.241 273.379 372.84 271.323 372.84C271.475 373.373 271.475 373.906 271.399 374.516C271.019 376.952 268.81 378.628 266.373 378.247C264.927 378.018 263.784 377.181 263.175 375.962C262.947 376.191 262.718 376.419 262.49 376.648C260.51 378.095 257.768 377.714 256.321 375.734C254.875 373.754 255.332 371.013 257.235 369.566C257.616 369.337 257.997 369.109 258.378 368.957C256.093 368.5 254.57 366.291 254.875 363.931C255.255 361.494 257.464 359.818 259.901 360.199C260.967 360.352 261.881 360.885 262.49 361.57C262.947 359.209 265.155 357.61 267.516 357.991C269.952 358.372 271.628 360.656 271.247 363.017C271.171 363.321 271.095 363.702 271.019 364.007C271.171 364.007 271.475 364.007 271.856 364.083Z" fill="#FEFFFA"/>
<path d="M266.907 379.085C266.679 379.085 266.374 379.085 266.146 379.008C264.851 378.78 263.709 378.171 262.872 377.181C262.795 377.181 262.795 377.257 262.719 377.257C261.577 378.095 260.206 378.399 258.835 378.171C257.465 377.942 256.246 377.257 255.409 376.115C254.571 374.972 254.266 373.602 254.495 372.231C254.723 370.936 255.333 369.794 256.323 368.957C254.571 367.89 253.505 365.834 253.81 363.702C254.266 360.885 256.856 358.905 259.749 359.362C260.511 359.438 261.272 359.742 261.882 360.199C262.795 358.143 265.004 356.849 267.364 357.229C270.182 357.686 272.162 360.352 271.705 363.169C271.705 363.245 271.705 363.245 271.705 363.321C271.781 363.321 271.781 363.321 271.857 363.321C273.228 363.55 274.446 364.235 275.284 365.377C276.122 366.52 276.426 367.89 276.198 369.261C275.893 371.47 274.142 373.221 272.01 373.602C272.01 373.983 272.01 374.363 271.933 374.668C271.629 377.257 269.42 379.085 266.907 379.085ZM263.024 375.201H263.1C263.328 375.201 263.557 375.353 263.709 375.582C264.242 376.572 265.232 377.257 266.374 377.485C268.354 377.79 270.258 376.419 270.563 374.439C270.639 373.983 270.639 373.526 270.487 373.069C270.41 372.84 270.487 372.612 270.639 372.46C270.791 372.307 271.02 372.155 271.248 372.155C273.076 372.155 274.523 370.784 274.827 369.033C274.979 368.043 274.751 367.129 274.142 366.291C273.533 365.454 272.695 364.997 271.705 364.844C271.4 364.768 271.172 364.768 270.867 364.844C270.639 364.844 270.334 364.768 270.182 364.54C270.03 364.311 269.954 364.083 270.106 363.778C270.182 363.55 270.258 363.245 270.334 363.017C270.639 361.037 269.268 359.133 267.288 358.829C265.308 358.524 263.481 359.819 263.1 361.798C263.024 362.103 262.871 362.331 262.567 362.408C262.262 362.484 261.958 362.408 261.805 362.179C261.272 361.57 260.435 361.113 259.673 361.037C257.693 360.732 255.789 362.103 255.485 364.083C255.18 365.987 256.475 367.814 258.379 368.195C258.683 368.271 258.988 368.576 258.988 368.88C258.988 369.185 258.835 369.566 258.455 369.642C258.15 369.794 257.846 369.947 257.541 370.099C256.779 370.708 256.246 371.546 256.094 372.536C255.942 373.526 256.17 374.439 256.779 375.277C257.389 376.039 258.226 376.572 259.216 376.724C260.206 376.876 261.12 376.648 261.958 376.039C262.186 375.886 262.415 375.658 262.567 375.506C262.567 375.353 262.795 375.201 263.024 375.201Z" fill="#2E1E00"/>
<path d="M470.453 420.434C470.072 420.434 469.767 420.13 469.691 419.825L468.168 409.849C468.092 409.469 468.396 409.012 468.777 409.012C469.158 408.936 469.615 409.24 469.615 409.621L471.138 419.597C471.214 419.977 470.909 420.434 470.529 420.434H470.453Z" fill="#FEFFFA"/>
<path d="M479.518 426.146C481.802 427.059 482.868 429.648 481.955 431.933C481.117 433.989 478.985 435.055 476.852 434.598C476.852 435.131 476.7 435.664 476.548 436.197C475.634 438.482 473.045 439.548 470.76 438.634C469.39 438.101 468.476 436.959 468.171 435.664C467.943 435.817 467.638 436.045 467.334 436.121C465.049 437.035 462.46 435.969 461.546 433.761C460.632 431.476 461.699 428.887 463.907 427.973C464.288 427.821 464.745 427.669 465.125 427.669C462.993 426.679 462.003 424.166 462.917 421.957C463.831 419.673 466.42 418.607 468.704 419.52C469.694 419.901 470.456 420.663 470.913 421.5C471.903 419.292 474.416 418.302 476.624 419.216C478.909 420.13 479.975 422.719 479.061 425.003C478.909 425.308 478.756 425.612 478.604 425.917C478.909 425.917 479.213 425.993 479.518 426.146Z" fill="#FEFFFA"/>
<path d="M472.436 439.7C471.751 439.7 471.066 439.548 470.457 439.32C469.238 438.786 468.324 437.949 467.715 436.73C467.639 436.73 467.639 436.807 467.563 436.807C466.268 437.34 464.898 437.34 463.603 436.807C462.308 436.274 461.318 435.284 460.785 433.989C459.719 431.4 460.862 428.506 463.375 427.288C461.928 425.841 461.395 423.633 462.232 421.576C463.298 418.911 466.344 417.693 469.01 418.759C469.695 419.063 470.38 419.52 470.913 420.053C472.284 418.226 474.797 417.54 477.005 418.454C479.671 419.52 480.889 422.566 479.823 425.232C479.823 425.232 479.823 425.308 479.747 425.308C479.747 425.308 479.823 425.308 479.823 425.384C481.118 425.917 482.108 426.907 482.641 428.202C483.174 429.496 483.174 430.867 482.641 432.161C481.803 434.217 479.747 435.512 477.539 435.36C477.462 435.74 477.386 436.045 477.234 436.426C476.701 437.72 475.711 438.71 474.416 439.243C473.807 439.548 473.122 439.7 472.436 439.7ZM468.172 434.903C468.248 434.903 468.324 434.903 468.4 434.979C468.629 435.055 468.781 435.284 468.857 435.512C469.162 436.654 469.923 437.568 470.99 437.949C471.903 438.33 472.893 438.33 473.807 437.949C474.721 437.568 475.406 436.883 475.787 435.969C475.939 435.512 476.092 435.055 476.092 434.598C476.092 434.37 476.168 434.141 476.396 433.989C476.549 433.837 476.777 433.761 477.005 433.837C478.757 434.217 480.508 433.304 481.194 431.628C481.575 430.715 481.575 429.725 481.194 428.811C480.813 427.897 480.128 427.212 479.214 426.831C478.985 426.755 478.681 426.679 478.452 426.602C478.224 426.526 477.995 426.374 477.843 426.146C477.767 425.917 477.767 425.612 477.919 425.384C478.072 425.156 478.224 424.927 478.3 424.622C479.062 422.719 478.148 420.586 476.32 419.825C474.493 419.063 472.36 419.901 471.599 421.729C471.446 421.957 471.218 422.186 470.913 422.186C470.609 422.186 470.38 422.033 470.228 421.805C469.847 421.043 469.162 420.51 468.4 420.13C466.497 419.368 464.364 420.282 463.603 422.109C462.841 423.937 463.679 425.993 465.431 426.831C465.735 426.983 465.887 427.288 465.887 427.669C465.811 427.973 465.583 428.278 465.202 428.278C464.898 428.278 464.517 428.43 464.212 428.506C462.308 429.268 461.471 431.476 462.232 433.304C462.613 434.217 463.298 434.903 464.212 435.284C465.126 435.664 466.116 435.664 467.03 435.284C467.258 435.207 467.487 435.055 467.715 434.903C467.867 434.903 468.02 434.903 468.172 434.903Z" fill="#2E1E00"/>
<path d="M470.532 281.536C470.303 281.536 470.075 281.459 469.923 281.231L463.069 272.778C462.841 272.474 462.841 271.941 463.145 271.712C463.45 271.484 463.983 271.484 464.211 271.788L471.065 280.241C471.293 280.546 471.293 281.079 470.989 281.307C470.913 281.459 470.684 281.536 470.532 281.536Z" fill="#2E1E00"/>
<path d="M481.575 300.192C481.575 300.192 459.415 286.942 471.827 281.078C482.26 276.129 481.575 300.192 481.575 300.192Z" fill="#FDEAA7"/>
<path d="M481.575 300.954C481.423 300.954 481.271 300.954 481.194 300.878C480.585 300.497 466.954 292.273 467.259 285.571C467.335 283.439 468.782 281.688 471.447 280.469C473.579 279.479 475.483 279.479 477.082 280.545C482.641 284.201 482.261 299.659 482.261 300.268C482.261 300.573 482.108 300.802 481.88 300.878C481.804 300.954 481.728 300.954 481.575 300.954ZM474.417 281.155C473.732 281.155 472.97 281.383 472.133 281.764C469.924 282.754 468.858 284.048 468.782 285.571C468.553 289.988 476.549 296.08 480.814 298.822C480.814 293.872 479.976 284.125 476.321 281.764C475.712 281.383 475.102 281.155 474.417 281.155Z" fill="#2E1E00"/>
<path d="M460.714 285.572C460.637 285.572 460.561 285.572 460.485 285.572C460.104 285.496 459.876 285.039 459.952 284.658L462.77 274.149C462.846 273.768 463.303 273.54 463.683 273.616C464.064 273.692 464.293 274.149 464.217 274.53L461.399 285.039C461.323 285.343 461.018 285.572 460.714 285.572Z" fill="#2E1E00"/>
<path d="M451.343 305.066C451.343 305.066 449.134 279.327 461.166 286.029C471.294 291.664 451.343 305.066 451.343 305.066Z" fill="#FDEAA7"/>
<path d="M451.346 305.828C451.27 305.828 451.117 305.828 451.041 305.752C450.813 305.599 450.66 305.371 450.584 305.142C450.508 304.457 449.214 288.542 454.925 284.886C456.752 283.744 458.961 283.896 461.55 285.343C463.606 286.485 464.748 288.085 464.824 289.988C465.129 296.69 452.336 305.371 451.803 305.752C451.65 305.828 451.498 305.828 451.346 305.828ZM457.59 285.648C456.905 285.648 456.296 285.8 455.762 286.181C452.031 288.541 451.803 298.593 452.031 303.695C455.991 300.802 463.454 294.481 463.301 290.065C463.225 288.694 462.464 287.552 460.865 286.714C459.57 286.029 458.504 285.648 457.59 285.648Z" fill="#2E1E00"/>
<path d="M382.887 289.074C382.734 289.074 382.582 288.998 382.43 288.922C382.125 288.694 382.049 288.161 382.277 287.856L388.75 279.099C388.979 278.794 389.512 278.718 389.816 278.946C390.121 279.175 390.197 279.708 389.969 280.012L383.496 288.77C383.343 288.922 383.115 289.074 382.887 289.074Z" fill="#2E1E00"/>
<path d="M366.812 303.772C366.812 303.772 374.123 279.023 382.88 289.608C390.267 298.517 366.812 303.772 366.812 303.772Z" fill="#FDEAA7"/>
<path d="M366.817 304.533C366.588 304.533 366.436 304.457 366.284 304.305C366.131 304.076 366.055 303.848 366.131 303.543C366.36 302.858 370.929 287.628 377.554 286.257C379.61 285.8 381.666 286.79 383.57 289.075C385.093 290.902 385.55 292.73 384.941 294.557C382.808 300.878 367.731 304.305 367.121 304.457C366.893 304.533 366.893 304.533 366.817 304.533ZM378.468 287.704C378.239 287.704 378.011 287.704 377.782 287.78C373.442 288.694 369.558 297.908 367.959 302.706C372.757 301.487 381.971 298.289 383.418 294.101C383.875 292.806 383.494 291.511 382.352 290.065C380.981 288.542 379.762 287.704 378.468 287.704Z" fill="#2E1E00"/>
<path d="M392.781 297.832H392.705C392.324 297.756 392.02 297.375 392.02 296.994L393.162 286.181C393.238 285.8 393.543 285.495 393.999 285.495C394.38 285.572 394.685 285.952 394.685 286.333L393.543 297.146C393.466 297.527 393.162 297.832 392.781 297.832Z" fill="#2E1E00"/>
<path d="M386.692 318.545C386.692 318.545 380.524 293.415 393.394 298.136C404.283 302.172 386.692 318.545 386.692 318.545Z" fill="#FDEAA7"/>
<path d="M386.691 319.306C386.614 319.306 386.538 319.306 386.462 319.306C386.234 319.23 386.005 319.001 385.929 318.773C385.777 318.088 382.045 302.629 386.995 298.136C388.594 296.689 390.803 296.537 393.62 297.527C395.829 298.365 397.199 299.735 397.58 301.563C398.875 308.112 387.681 318.697 387.224 319.154C387.071 319.23 386.919 319.306 386.691 319.306ZM390.498 298.364C389.508 298.364 388.747 298.669 388.061 299.202C384.787 302.172 386.081 312.072 387.147 317.098C390.65 313.595 396.971 306.208 396.133 301.867C395.829 300.497 394.915 299.583 393.163 298.898C392.173 298.517 391.26 298.364 390.498 298.364Z" fill="#2E1E00"/>
<path d="M450.358 189.089C450.358 189.089 441.601 164.796 454.851 168.147C466.121 170.965 450.358 189.089 450.358 189.089Z" fill="#FDEAA7"/>
<path d="M450.357 189.85C450.281 189.85 450.281 189.85 450.204 189.85C449.976 189.774 449.747 189.622 449.595 189.393C449.367 188.784 444.036 173.706 448.529 168.756C449.976 167.157 452.184 166.7 455.002 167.462C457.286 168.071 458.733 169.289 459.343 171.117C461.322 177.514 451.271 189.165 450.89 189.698C450.737 189.774 450.585 189.85 450.357 189.85ZM452.565 168.528C451.347 168.528 450.357 168.909 449.671 169.67C446.701 172.945 449.062 182.692 450.585 187.566C453.707 183.758 459.19 175.686 457.896 171.498C457.515 170.203 456.449 169.366 454.621 168.909C453.86 168.68 453.174 168.528 452.565 168.528Z" fill="#2E1E00"/>
<path d="M454.004 164.721C453.851 164.721 453.699 164.644 453.547 164.568C453.242 164.34 453.166 163.807 453.395 163.502L460.172 154.973C460.4 154.669 460.933 154.593 461.238 154.821C461.543 155.05 461.619 155.583 461.39 155.887L454.613 164.416C454.461 164.645 454.232 164.721 454.004 164.721Z" fill="#2E1E00"/>
<path d="M437.41 178.885C437.41 178.885 445.558 154.364 453.935 165.254C461.017 174.468 437.41 178.885 437.41 178.885Z" fill="#FDEAA7"/>
<path d="M437.409 179.646C437.18 179.646 436.952 179.57 436.799 179.417C436.647 179.189 436.571 178.961 436.647 178.656C436.876 178.047 441.978 162.893 448.603 161.751C450.735 161.37 452.715 162.436 454.542 164.797C455.989 166.7 456.37 168.528 455.685 170.356C453.324 176.6 438.17 179.57 437.485 179.646C437.485 179.646 437.485 179.646 437.409 179.646ZM449.44 163.274C449.288 163.274 449.06 163.274 448.907 163.35C444.567 164.111 440.302 173.173 438.551 177.971C443.348 176.905 452.715 174.011 454.238 169.899C454.695 168.604 454.39 167.31 453.324 165.863C452.106 164.035 450.811 163.274 449.44 163.274Z" fill="#2E1E00"/>
<path d="M462.916 168.528C462.535 168.528 462.23 168.299 462.154 167.919L459.718 157.334C459.641 156.953 459.87 156.496 460.327 156.42C460.708 156.344 461.164 156.572 461.241 157.029L463.677 167.614C463.754 167.995 463.525 168.452 463.068 168.528C463.068 168.528 462.992 168.528 462.916 168.528Z" fill="#2E1E00"/>
<path d="M464.29 190.079C464.29 190.079 450.202 168.376 463.909 168.604C475.484 168.833 464.29 190.079 464.29 190.079Z" fill="#FDEAA7"/>
<path d="M464.289 190.84C464.06 190.84 463.756 190.688 463.68 190.459C463.299 189.926 454.694 176.448 457.968 170.584C459.034 168.68 461.014 167.766 463.984 167.843C466.345 167.919 468.02 168.756 469.01 170.432C472.437 176.219 465.279 189.85 464.974 190.459C464.822 190.688 464.593 190.84 464.289 190.84ZM463.756 169.366C461.471 169.366 460.024 169.975 459.263 171.345C457.131 175.229 461.624 184.215 464.213 188.555C466.345 184.139 469.924 175.001 467.716 171.193C467.03 169.975 465.812 169.442 463.984 169.366C463.832 169.366 463.832 169.366 463.756 169.366Z" fill="#2E1E00"/>
<path d="M480.656 171.727C480.656 171.727 454.841 172.26 462.227 160.685C468.472 150.938 480.656 171.727 480.656 171.727Z" fill="#FDEAA7"/>
<path d="M480.049 172.488C476.927 172.488 463.753 172.183 460.783 166.853C459.717 165.025 460.021 162.741 461.62 160.304C462.915 158.324 464.514 157.334 466.418 157.334C473.119 157.486 480.963 170.736 481.267 171.346C481.42 171.574 481.42 171.879 481.267 172.107C481.115 172.336 480.886 172.488 480.582 172.488C480.582 172.488 480.353 172.488 480.049 172.488ZM466.342 158.857C464.971 158.857 463.905 159.619 462.915 161.142C461.62 163.121 461.316 164.797 462.077 166.167C464.209 170.051 474.261 170.965 479.287 170.965C476.622 166.777 470.835 158.933 466.418 158.857C466.342 158.857 466.342 158.857 466.342 158.857Z" fill="#2E1E00"/>
<path d="M459.489 172.869C459.489 172.869 440.452 155.354 453.854 152.156C465.124 149.491 459.489 172.869 459.489 172.869Z" fill="#FDEAA7"/>
<path d="M459.488 173.63C459.335 173.63 459.107 173.554 458.955 173.402C458.422 172.945 446.771 162.055 448.446 155.582C448.979 153.526 450.73 152.156 453.624 151.394C455.909 150.861 457.812 151.242 459.183 152.613C463.904 157.334 460.402 172.336 460.249 173.021C460.173 173.249 460.021 173.478 459.716 173.554C459.64 173.63 459.564 173.63 459.488 173.63ZM455.528 152.765C455.071 152.765 454.538 152.841 454.005 152.993C451.644 153.526 450.35 154.516 449.969 156.039C448.827 160.304 455.452 167.919 459.031 171.422C460.021 166.624 461.239 156.877 458.117 153.755C457.432 153.07 456.594 152.765 455.528 152.765Z" fill="#2E1E00"/>
<path d="M425.902 167.081C425.902 167.081 439.99 145.454 445.397 158.095C449.89 168.756 425.902 167.081 425.902 167.081Z" fill="#FDEAA7"/>
<path d="M429.254 167.919C427.35 167.919 426.055 167.843 425.903 167.843C425.599 167.843 425.37 167.69 425.294 167.386C425.142 167.157 425.218 166.853 425.37 166.624C425.751 166.091 434.508 152.689 441.209 153.298C443.342 153.45 445.017 154.973 446.159 157.715C447.073 159.923 446.997 161.827 445.855 163.35C442.961 167.386 434.127 167.919 429.254 167.919ZM427.35 166.396C432.3 166.548 442.047 166.091 444.56 162.512C445.322 161.37 445.398 159.999 444.712 158.324C443.799 156.116 442.58 154.973 441.057 154.821C436.564 154.516 430.244 162.284 427.35 166.396Z" fill="#2E1E00"/>
<path d="M444.414 169.365C444.414 169.365 438.093 144.312 451.039 148.957C461.852 152.917 444.414 169.365 444.414 169.365Z" fill="#FDEAA7"/>
<path d="M444.411 170.127C444.334 170.127 444.258 170.127 444.182 170.127C443.954 170.051 443.725 169.822 443.649 169.594C443.497 168.909 439.613 153.45 444.639 148.957C446.238 147.51 448.446 147.282 451.264 148.348C453.472 149.186 454.843 150.48 455.224 152.384C456.595 158.933 445.4 169.594 444.944 170.051C444.791 170.051 444.563 170.127 444.411 170.127ZM448.066 149.186C447.076 149.186 446.314 149.49 445.629 150.023C442.354 152.993 443.725 162.969 444.791 167.919C448.294 164.416 454.539 156.953 453.701 152.612C453.396 151.242 452.482 150.328 450.731 149.719C449.741 149.338 448.903 149.186 448.066 149.186Z" fill="#2E1E00"/>
<path d="M479.9 154.516C479.9 154.516 458.73 169.365 458.502 155.582C458.273 144.007 479.9 154.516 479.9 154.516Z" fill="#FDEAA7"/>
<path d="M463.601 162.131C462.535 162.131 461.469 161.979 460.631 161.522C458.727 160.532 457.737 158.552 457.661 155.582C457.585 153.222 458.423 151.47 460.022 150.48C465.657 146.901 479.592 153.526 480.125 153.831C480.354 153.983 480.506 154.212 480.582 154.44C480.582 154.745 480.506 154.973 480.278 155.125C479.821 155.43 470.15 162.131 463.601 162.131ZM464.515 150.937C463.068 150.937 461.773 151.166 460.859 151.775C459.717 152.536 459.184 153.755 459.184 155.582C459.26 157.943 459.946 159.466 461.316 160.228C465.276 162.207 474.033 157.41 478.298 154.669C474.947 153.146 468.931 150.937 464.515 150.937Z" fill="#2E1E00"/>
<path d="M472.585 142.789C472.585 142.789 455.528 162.208 452.025 148.958C449.131 137.763 472.585 142.789 472.585 142.789Z" fill="#FDEAA7"/>
<path d="M456.821 154.288C456.364 154.288 455.983 154.212 455.603 154.136C453.546 153.679 452.1 151.927 451.338 149.034C450.729 146.749 451.11 144.845 452.404 143.475C457.049 138.601 472.127 141.799 472.736 141.952C472.965 142.028 473.193 142.18 473.269 142.485C473.346 142.789 473.269 143.018 473.117 143.246C472.736 143.703 463.37 154.288 456.821 154.288ZM462.151 142.409C458.572 142.409 455.069 142.942 453.47 144.617C452.557 145.607 452.252 146.978 452.785 148.729C453.394 151.014 454.46 152.384 455.907 152.689C460.172 153.679 467.634 146.901 471.061 143.246C468.853 142.866 465.426 142.409 462.151 142.409Z" fill="#2E1E00"/>
<path d="M474.342 253.132C474.342 253.132 465.585 228.84 478.835 232.19C490.105 234.932 474.342 253.132 474.342 253.132Z" fill="#FDEAA7"/>
<path d="M474.341 253.893C474.265 253.893 474.265 253.893 474.189 253.893C473.96 253.817 473.732 253.665 473.58 253.436C473.351 252.827 468.021 237.749 472.513 232.799C473.96 231.2 476.169 230.743 478.986 231.505C481.271 232.114 482.718 233.332 483.327 235.16C485.307 241.557 475.255 253.208 474.874 253.741C474.722 253.817 474.57 253.893 474.341 253.893ZM476.549 232.571C475.331 232.571 474.341 232.952 473.656 233.713C470.686 236.988 473.047 246.735 474.57 251.609C477.692 247.801 483.175 239.729 481.88 235.541C481.499 234.246 480.433 233.409 478.606 232.952C477.92 232.723 477.159 232.571 476.549 232.571Z" fill="#2E1E00"/>
<path d="M474.875 229.373C474.723 229.373 474.57 229.297 474.418 229.22C474.113 228.992 474.037 228.459 474.266 228.154L481.043 219.625C481.272 219.321 481.805 219.245 482.109 219.473C482.414 219.702 482.49 220.235 482.261 220.539L475.484 229.068C475.332 229.297 475.103 229.373 474.875 229.373Z" fill="#2E1E00"/>
<path d="M458.273 243.536C458.273 243.536 466.422 219.016 474.798 229.905C481.88 239.043 458.273 243.536 458.273 243.536Z" fill="#FDEAA7"/>
<path d="M458.272 244.298C458.043 244.298 457.815 244.222 457.663 244.07C457.51 243.841 457.434 243.613 457.51 243.308C457.739 242.699 462.841 227.545 469.466 226.403C471.598 226.022 473.578 227.088 475.406 229.449C476.853 231.352 477.233 233.18 476.548 235.008C474.187 241.252 459.033 244.222 458.348 244.298C458.348 244.298 458.348 244.298 458.272 244.298ZM470.304 227.926C470.151 227.926 469.923 227.926 469.771 228.002C465.43 228.763 461.166 237.825 459.414 242.623C464.212 241.557 473.578 238.663 475.101 234.551C475.558 233.256 475.253 231.962 474.187 230.515C472.969 228.687 471.674 227.926 470.304 227.926Z" fill="#2E1E00"/>
<path d="M486.908 232.571C486.527 232.571 486.223 232.342 486.147 231.961L483.71 221.376C483.634 220.996 483.862 220.539 484.319 220.463C484.7 220.387 485.157 220.615 485.233 221.072L487.67 231.657C487.746 232.038 487.517 232.494 487.06 232.571C487.06 232.571 486.984 232.571 486.908 232.571Z" fill="#2E1E00"/>
<path d="M488.278 254.122C488.278 254.122 474.19 232.419 487.897 232.647C499.548 232.876 488.278 254.122 488.278 254.122Z" fill="#FDEAA7"/>
<path d="M488.277 254.883C488.049 254.883 487.744 254.731 487.668 254.502C487.287 253.969 478.682 240.491 481.957 234.627C483.023 232.723 485.003 231.809 487.973 231.885C490.333 231.962 492.008 232.799 492.998 234.475C496.425 240.262 489.267 253.893 488.962 254.502C488.81 254.731 488.582 254.883 488.277 254.883C488.353 254.883 488.277 254.883 488.277 254.883ZM487.744 233.409C485.46 233.409 484.013 234.018 483.251 235.388C481.119 239.272 485.612 248.258 488.201 252.598C490.333 248.182 493.912 239.044 491.704 235.236C491.019 234.018 489.8 233.485 487.973 233.409C487.896 233.409 487.82 233.409 487.744 233.409Z" fill="#2E1E00"/>
<path d="M504.578 238.739C504.578 238.739 478.763 239.272 486.149 227.697C492.394 218.026 504.578 238.739 504.578 238.739Z" fill="#FDEAA7"/>
<path d="M503.967 239.577C500.845 239.577 487.671 239.272 484.701 233.941C483.635 232.114 483.939 229.829 485.538 227.393C486.833 225.413 488.356 224.423 490.26 224.423H490.336C497.037 224.575 504.881 237.825 505.185 238.434C505.337 238.663 505.337 238.967 505.185 239.196C505.033 239.424 504.804 239.577 504.5 239.577C504.5 239.577 504.271 239.577 503.967 239.577ZM490.26 225.946C488.889 225.946 487.823 226.707 486.833 228.23C485.538 230.21 485.234 231.885 485.995 233.256C488.127 237.14 498.179 238.054 503.205 238.054C500.54 233.865 494.753 226.022 490.336 225.946H490.26Z" fill="#2E1E00"/>
<path d="M483.407 239.957C483.407 239.957 464.37 222.443 477.772 219.244C489.042 216.579 483.407 239.957 483.407 239.957Z" fill="#FDEAA7"/>
<path d="M483.406 240.719C483.253 240.719 483.025 240.643 482.873 240.49C482.34 240.033 470.689 229.144 472.364 222.671C472.897 220.615 474.648 219.244 477.542 218.483C479.827 217.95 481.73 218.331 483.101 219.701C487.822 224.423 484.319 239.424 484.167 240.11C484.091 240.338 483.939 240.566 483.634 240.643C483.558 240.719 483.482 240.719 483.406 240.719ZM479.446 219.777C478.989 219.777 478.456 219.854 477.923 220.006C475.562 220.539 474.268 221.529 473.887 223.052C472.745 227.316 479.37 234.931 482.949 238.434C483.939 233.637 485.157 223.89 482.035 220.767C481.35 220.158 480.512 219.777 479.446 219.777Z" fill="#2E1E00"/>
<path d="M449.82 234.17C449.82 234.17 463.908 212.543 469.315 225.184C473.808 235.769 449.82 234.17 449.82 234.17Z" fill="#FDEAA7"/>
<path d="M453.168 235.008C451.264 235.008 449.97 234.931 449.817 234.931C449.513 234.931 449.284 234.779 449.208 234.475C449.056 234.246 449.132 233.941 449.284 233.713C449.665 233.18 458.422 219.854 465.124 220.387C467.256 220.539 468.931 222.062 470.073 224.803C470.987 227.012 470.911 228.916 469.769 230.439C466.951 234.475 458.118 235.008 453.168 235.008ZM451.264 233.485C456.214 233.637 465.961 233.18 468.474 229.601C469.236 228.459 469.312 227.088 468.626 225.413C467.713 223.204 466.494 222.062 464.971 221.91C460.554 221.605 454.158 229.296 451.264 233.485Z" fill="#2E1E00"/>
<path d="M468.324 236.454C468.324 236.454 462.003 211.401 474.949 216.046C485.839 220.006 468.324 236.454 468.324 236.454Z" fill="#FDEAA7"/>
<path d="M468.321 237.216C468.245 237.216 468.168 237.216 468.092 237.216C467.864 237.14 467.635 236.912 467.559 236.683C467.407 235.998 463.523 220.539 468.549 216.046C470.148 214.599 472.357 214.371 475.174 215.437C477.383 216.275 478.753 217.569 479.134 219.473C480.505 226.022 469.311 236.683 468.854 237.14C468.701 237.14 468.473 237.216 468.321 237.216ZM472.052 216.275C471.062 216.275 470.301 216.579 469.615 217.112C466.341 220.082 467.711 230.058 468.778 235.008C472.28 231.505 478.525 224.042 477.687 219.702C477.383 218.331 476.469 217.417 474.717 216.808C473.651 216.427 472.814 216.275 472.052 216.275Z" fill="#2E1E00"/>
<path d="M503.802 221.605C503.802 221.605 482.633 236.455 482.404 222.671C482.176 211.096 503.802 221.605 503.802 221.605Z" fill="#FDEAA7"/>
<path d="M487.581 229.22C486.515 229.22 485.449 229.068 484.611 228.611C482.708 227.621 481.718 225.641 481.641 222.671C481.565 220.311 482.403 218.559 484.002 217.569C489.637 213.99 503.573 220.615 504.106 220.92C504.334 221.072 504.487 221.301 504.563 221.529C504.563 221.834 504.487 222.062 504.258 222.214C503.801 222.519 494.13 229.22 487.581 229.22ZM488.495 217.95C487.048 217.95 485.754 218.178 484.84 218.788C483.698 219.549 483.165 220.767 483.165 222.595C483.241 224.956 483.926 226.479 485.297 227.24C489.257 229.22 498.014 224.423 502.278 221.681C498.852 220.158 492.836 217.95 488.495 217.95Z" fill="#2E1E00"/>
<path d="M496.499 209.802C496.499 209.802 479.442 229.22 475.939 215.97C473.045 204.776 496.499 209.802 496.499 209.802Z" fill="#FDEAA7"/>
<path d="M480.735 221.377C480.278 221.377 479.897 221.301 479.517 221.224C477.461 220.768 476.014 219.016 475.252 216.122C474.643 213.838 475.024 211.934 476.318 210.563C480.963 205.69 496.041 208.888 496.651 209.04C496.879 209.116 497.107 209.269 497.184 209.573C497.26 209.878 497.184 210.106 497.031 210.335C496.651 210.792 487.36 221.377 480.735 221.377ZM486.066 209.497C482.486 209.497 478.984 210.03 477.384 211.706C476.471 212.696 476.166 214.066 476.699 215.818C477.308 218.102 478.374 219.473 479.821 219.778C484.086 220.768 491.548 213.99 494.975 210.335C492.767 209.954 489.34 209.497 486.066 209.497Z" fill="#2E1E00"/>
<path d="M358.137 259.681C358.137 259.681 361.487 234.018 371.768 243.156C380.449 250.771 358.137 259.681 358.137 259.681Z" fill="#FDEAA7"/>
<path d="M358.133 260.442C357.98 260.442 357.828 260.366 357.676 260.29C357.447 260.138 357.371 259.833 357.371 259.605C357.447 258.919 359.579 243.156 365.9 240.795C367.88 240.034 370.012 240.643 372.297 242.623C374.048 244.222 374.81 245.974 374.505 247.877C373.363 254.502 359.046 260.214 358.437 260.442C358.361 260.442 358.209 260.442 358.133 260.442ZM367.651 241.938C367.271 241.938 366.89 242.014 366.509 242.166C362.397 243.689 359.96 253.436 359.123 258.462C363.615 256.482 372.297 251.913 372.982 247.573C373.21 246.202 372.677 244.984 371.307 243.765C369.936 242.547 368.718 241.938 367.651 241.938Z" fill="#2E1E00"/>
<path d="M373.216 238.511C372.912 238.511 372.607 238.359 372.531 238.054C372.379 237.673 372.531 237.216 372.912 237.064L383.192 232.647C383.573 232.495 384.03 232.647 384.182 233.028C384.334 233.409 384.182 233.866 383.801 234.018L373.521 238.435C373.445 238.511 373.369 238.511 373.216 238.511Z" fill="#2E1E00"/>
<path d="M350.906 243.309C350.906 243.309 370.02 225.413 372.609 238.968C374.818 250.314 350.906 243.309 350.906 243.309Z" fill="#FDEAA7"/>
<path d="M364.306 246.202C358.138 246.202 351.132 244.146 350.675 244.07C350.446 243.994 350.218 243.765 350.142 243.537C350.066 243.308 350.142 243.004 350.37 242.775C350.903 242.318 362.707 231.277 369.408 233.409C371.464 234.094 372.835 235.922 373.368 238.816C373.825 241.1 373.292 242.928 371.921 244.222C370.246 245.669 367.352 246.202 364.306 246.202ZM352.426 242.928C357.452 244.222 367.504 246.05 370.855 243.004C371.845 242.09 372.149 240.795 371.845 239.044C371.388 236.683 370.398 235.313 368.875 234.779C364.534 233.409 356.31 239.501 352.426 242.928Z" fill="#2E1E00"/>
<path d="M379.151 247.345C379.075 247.345 378.999 247.345 378.999 247.345C378.618 247.268 378.314 246.812 378.466 246.431L381.207 235.922C381.283 235.541 381.74 235.237 382.121 235.389C382.502 235.465 382.806 235.922 382.654 236.303L379.913 246.812C379.76 247.116 379.456 247.345 379.151 247.345Z" fill="#2E1E00"/>
<path d="M370.089 266.992C370.089 266.992 367.576 241.253 379.608 247.802C389.812 253.285 370.089 266.992 370.089 266.992Z" fill="#FDEAA7"/>
<path d="M370.091 267.753C370.015 267.753 369.862 267.753 369.786 267.677C369.558 267.601 369.405 267.296 369.329 267.068C369.253 266.382 367.73 250.543 373.365 246.812C375.117 245.593 377.401 245.746 379.99 247.116C382.046 248.259 383.189 249.782 383.265 251.685C383.646 258.387 371.005 267.22 370.472 267.601C370.395 267.677 370.243 267.753 370.091 267.753ZM376.107 247.497C375.421 247.497 374.812 247.649 374.203 248.03C370.548 250.467 370.395 260.519 370.7 265.545C374.66 262.575 381.97 256.178 381.742 251.762C381.666 250.391 380.828 249.325 379.229 248.411C378.087 247.802 377.02 247.497 376.107 247.497Z" fill="#2E1E00"/>
<path d="M393.015 258.158C393.015 258.158 369.789 246.735 381.745 239.882C391.797 234.17 393.015 258.158 393.015 258.158Z" fill="#FDEAA7"/>
<path d="M393.011 258.919C392.858 258.919 392.782 258.919 392.706 258.843C392.097 258.539 377.78 251.456 377.628 244.679C377.552 242.547 378.847 240.719 381.436 239.196C383.492 238.054 385.396 237.902 387.071 238.816C392.934 242.014 393.848 257.396 393.848 258.082C393.848 258.386 393.696 258.615 393.544 258.767C393.315 258.919 393.163 258.919 393.011 258.919ZM384.71 239.805C383.949 239.805 383.111 240.034 382.197 240.567C380.141 241.785 379.151 243.08 379.151 244.679C379.303 249.096 387.756 254.502 392.249 256.863C391.792 251.913 390.193 242.318 386.385 240.186C385.776 239.958 385.243 239.805 384.71 239.805Z" fill="#2E1E00"/>
<path d="M373.737 249.476C373.737 249.476 364.904 225.184 378.23 228.535C389.424 231.353 373.737 249.476 373.737 249.476Z" fill="#FDEAA7"/>
<path d="M373.738 250.238C373.662 250.238 373.662 250.238 373.586 250.238C373.357 250.162 373.129 250.01 372.976 249.781C372.748 249.172 367.341 234.094 371.91 229.144C373.357 227.545 375.489 227.088 378.383 227.85C380.668 228.459 382.114 229.677 382.724 231.505C384.78 237.902 374.728 249.629 374.271 250.086C374.119 250.162 373.966 250.238 373.738 250.238ZM375.946 228.992C374.728 228.992 373.738 229.373 373.053 230.134C370.083 233.409 372.443 243.156 374.043 247.954C377.165 244.146 382.648 236.074 381.353 231.886C380.972 230.591 379.906 229.754 378.078 229.297C377.241 229.068 376.555 228.992 375.946 228.992Z" fill="#2E1E00"/>
<path d="M346.566 228.916C346.566 228.916 369.031 216.199 367.965 229.83C367.127 241.405 346.566 228.916 346.566 228.916Z" fill="#FDEAA7"/>
<path d="M362.554 235.465C356.005 235.465 346.638 229.83 346.182 229.525C345.953 229.373 345.801 229.145 345.801 228.84C345.801 228.535 345.953 228.307 346.182 228.155C346.791 227.85 360.65 220.006 366.361 223.662C368.189 224.804 368.951 226.86 368.722 229.83C368.57 232.191 367.58 233.866 365.905 234.704C364.991 235.313 363.848 235.465 362.554 235.465ZM348.161 228.916C352.426 231.353 361.336 235.465 365.219 233.409C366.438 232.8 367.123 231.581 367.275 229.754C367.428 227.393 366.895 225.794 365.6 224.956C361.869 222.672 352.654 226.555 348.161 228.916Z" fill="#2E1E00"/>
<path d="M361.945 239.425C361.945 239.425 367.885 214.296 377.175 224.347C385.019 232.876 361.945 239.425 361.945 239.425Z" fill="#FDEAA7"/>
<path d="M361.942 240.186C361.714 240.186 361.562 240.11 361.409 239.958C361.181 239.806 361.105 239.501 361.181 239.196C361.333 238.511 365.065 223.053 371.537 221.301C373.593 220.768 375.65 221.606 377.706 223.738C379.305 225.489 379.838 227.317 379.381 229.145C377.553 235.617 362.78 239.882 362.171 240.034C362.095 240.186 362.019 240.186 361.942 240.186ZM372.832 222.748C372.527 222.748 372.299 222.748 371.994 222.824C367.73 223.966 364.379 233.409 363.009 238.283C367.73 236.76 376.716 233.028 377.934 228.84C378.315 227.545 377.858 226.251 376.639 224.88C375.269 223.433 374.05 222.748 372.832 222.748Z" fill="#2E1E00"/>
<path d="M400.323 242.547C400.323 242.547 374.736 245.974 380.828 233.637C385.93 223.281 400.323 242.547 400.323 242.547Z" fill="#FDEAA7"/>
<path d="M393.24 243.765C388.29 243.765 382.274 243.08 379.989 239.958C378.771 238.206 378.771 235.998 380.142 233.332C381.208 231.2 382.731 230.058 384.635 229.906C391.26 229.296 400.55 241.633 400.931 242.166C401.083 242.394 401.159 242.699 401.007 242.927C400.855 243.156 400.702 243.384 400.398 243.384C400.093 243.384 396.971 243.765 393.24 243.765ZM385.091 231.352C384.939 231.352 384.863 231.352 384.711 231.352C383.34 231.505 382.274 232.342 381.436 233.942C380.37 236.074 380.294 237.749 381.208 239.044C383.797 242.623 393.849 242.394 398.875 241.937C395.829 238.206 389.432 231.352 385.091 231.352Z" fill="#2E1E00"/>
<path d="M399.25 228.764C399.25 228.764 375.186 238.207 378.156 224.804C380.669 213.534 399.25 228.764 399.25 228.764Z" fill="#FDEAA7"/>
<path d="M384.785 232.724C382.424 232.724 380.292 232.267 378.845 231.048C377.246 229.677 376.713 227.469 377.398 224.575C377.931 222.291 379.073 220.768 380.901 220.159C387.222 217.95 399.177 227.698 399.71 228.154C399.939 228.307 400.015 228.611 400.015 228.84C399.939 229.144 399.786 229.297 399.558 229.449C399.025 229.677 391.105 232.724 384.785 232.724ZM383.033 221.377C382.424 221.377 381.967 221.453 381.434 221.605C380.139 222.062 379.302 223.129 378.921 224.956C378.388 227.317 378.693 228.916 379.911 229.906C383.262 232.8 392.933 230.211 397.73 228.535C394.227 225.87 387.374 221.377 383.033 221.377Z" fill="#2E1E00"/>
<path d="M380.982 183.987C380.602 183.987 380.297 183.758 380.221 183.378L377.784 172.793C377.708 172.412 377.936 171.955 378.393 171.879C378.774 171.803 379.231 172.031 379.307 172.488L381.744 183.073C381.82 183.454 381.592 183.911 381.135 183.987C381.135 183.987 381.058 183.987 380.982 183.987Z" fill="#2E1E00"/>
<path d="M382.356 205.538C382.356 205.538 368.268 183.835 381.975 184.063C393.55 184.292 382.356 205.538 382.356 205.538Z" fill="#FDEAA7"/>
<path d="M382.355 206.299C382.127 206.299 381.822 206.147 381.746 205.918C381.365 205.385 372.76 191.907 376.035 186.043C377.101 184.139 379.081 183.225 382.051 183.302C384.411 183.378 386.087 184.215 387.077 185.891C390.503 191.678 383.345 205.309 383.041 205.918C382.888 206.147 382.66 206.299 382.355 206.299ZM381.822 184.825C379.538 184.825 378.091 185.434 377.329 186.804C375.197 190.688 379.69 199.674 382.279 204.014C384.411 199.598 387.99 190.46 385.782 186.652C385.097 185.434 383.878 184.901 382.051 184.825C381.898 184.825 381.822 184.825 381.822 184.825Z" fill="#2E1E00"/>
<path d="M386.541 181.245C386.237 181.245 386.008 181.093 385.856 180.788L381.058 171.041C380.906 170.66 381.058 170.203 381.439 170.051C381.82 169.899 382.277 170.051 382.429 170.432L387.227 180.179C387.379 180.56 387.227 181.017 386.846 181.169C386.77 181.169 386.617 181.245 386.541 181.245Z" fill="#2E1E00"/>
<path d="M392.943 201.806C392.943 201.806 374.286 183.91 387.688 181.017C398.959 178.58 392.943 201.806 392.943 201.806Z" fill="#FDEAA7"/>
<path d="M392.94 202.567C392.711 202.567 392.559 202.491 392.407 202.339C391.95 201.882 380.451 190.764 382.279 184.291C382.888 182.235 384.639 180.865 387.533 180.255C389.818 179.722 391.721 180.179 393.016 181.626C397.661 186.424 393.854 201.425 393.625 202.034C393.549 202.263 393.321 202.491 393.092 202.567C393.092 202.567 393.016 202.567 392.94 202.567ZM389.285 181.626C388.828 181.626 388.371 181.702 387.838 181.778C385.477 182.311 384.182 183.225 383.726 184.748C382.507 189.013 388.98 196.704 392.483 200.359C393.549 195.562 394.92 185.89 391.874 182.692C391.264 181.931 390.351 181.626 389.285 181.626Z" fill="#2E1E00"/>
<path d="M374.428 183.682C374.352 183.682 374.276 183.682 374.2 183.606C373.819 183.454 373.591 183.073 373.743 182.616L377.246 172.336C377.398 171.955 377.779 171.726 378.236 171.879C378.617 172.031 378.845 172.412 378.693 172.869L375.19 183.149C375.038 183.53 374.733 183.682 374.428 183.682Z" fill="#2E1E00"/>
<path d="M363.844 202.568C363.844 202.568 363.311 176.753 374.809 184.139C384.633 190.46 363.844 202.568 363.844 202.568Z" fill="#FDEAA7"/>
<path d="M363.838 203.329C363.686 203.329 363.61 203.329 363.458 203.253C363.229 203.101 363.077 202.872 363.077 202.568C363.077 201.882 362.772 185.967 368.636 182.616C370.464 181.55 372.748 181.855 375.185 183.454C377.165 184.748 378.155 186.348 378.155 188.251C378.002 194.953 364.752 202.796 364.219 203.101C364.143 203.329 363.991 203.329 363.838 203.329ZM371.073 183.606C370.464 183.606 369.93 183.758 369.474 184.063C365.59 186.195 364.752 196.247 364.676 201.273C368.864 198.608 376.632 192.744 376.784 188.404C376.784 187.033 376.099 185.891 374.5 184.901C373.205 183.987 372.063 183.606 371.073 183.606Z" fill="#2E1E00"/>
<path d="M402.308 184.596C402.308 184.596 376.493 185.129 383.88 173.554C390.2 163.883 402.308 184.596 402.308 184.596Z" fill="#FDEAA7"/>
<path d="M401.697 185.357C398.575 185.357 385.401 185.053 382.431 179.722C381.365 177.895 381.67 175.61 383.269 173.173C384.563 171.193 386.162 170.203 388.066 170.203C394.768 170.356 402.611 183.606 402.916 184.215C403.068 184.444 403.068 184.748 402.916 184.977C402.763 185.205 402.535 185.357 402.23 185.357C402.23 185.357 402.078 185.357 401.697 185.357ZM387.99 171.726C386.619 171.726 385.553 172.488 384.563 174.011C383.269 175.991 382.964 177.666 383.726 179.037C385.858 182.921 395.91 183.834 400.936 183.834C398.27 179.646 392.483 171.803 388.066 171.726H387.99Z" fill="#2E1E00"/>
<path d="M376.715 191.678C376.715 191.678 370.394 166.625 383.34 171.27C394.153 175.153 376.715 191.678 376.715 191.678Z" fill="#FDEAA7"/>
<path d="M376.711 192.44C376.635 192.44 376.559 192.44 376.483 192.44C376.254 192.363 376.026 192.135 375.95 191.906C375.797 191.221 371.914 175.763 376.94 171.27C378.539 169.823 380.747 169.594 383.565 170.66C385.773 171.498 387.144 172.793 387.525 174.696C388.895 181.245 377.701 191.906 377.244 192.363C377.092 192.363 376.864 192.44 376.711 192.44ZM380.367 171.422C379.377 171.422 378.615 171.727 377.93 172.26C374.655 175.23 376.026 185.205 377.092 190.155C380.595 186.652 386.839 179.189 386.002 174.849C385.697 173.478 384.783 172.564 383.032 171.955C382.042 171.65 381.128 171.422 380.367 171.422Z" fill="#2E1E00"/>
<path d="M358.59 188.176C358.59 188.176 367.652 163.96 375.648 175.154C382.349 184.52 358.59 188.176 358.59 188.176Z" fill="#FDEAA7"/>
<path d="M358.588 188.937C358.36 188.937 358.131 188.861 357.979 188.632C357.827 188.404 357.751 188.175 357.827 187.871C358.055 187.261 363.69 172.336 370.392 171.422C372.524 171.118 374.428 172.26 376.179 174.62C377.55 176.524 377.854 178.428 377.093 180.179C374.504 186.348 359.274 188.708 358.588 188.861C358.664 188.937 358.664 188.937 358.588 188.937ZM371.153 172.945C371.001 172.945 370.849 172.945 370.696 172.945C366.356 173.554 361.787 182.464 359.807 187.185C364.68 186.272 374.123 183.759 375.798 179.646C376.331 178.352 376.103 177.057 375.037 175.534C373.742 173.783 372.524 172.945 371.153 172.945Z" fill="#2E1E00"/>
<path d="M405.422 146.064C405.346 146.064 405.346 146.064 405.269 146.064C404.889 145.987 404.584 145.53 404.66 145.15L407.097 134.565C407.173 134.184 407.63 133.879 408.011 133.956C408.392 134.032 408.696 134.489 408.62 134.869L406.183 145.454C406.107 145.759 405.802 146.064 405.422 146.064Z" fill="#2E1E00"/>
<path d="M404.044 167.538C404.044 167.538 418.132 145.835 404.425 146.064C392.85 146.292 404.044 167.538 404.044 167.538Z" fill="#FDEAA7"/>
<path d="M404.046 168.3C403.742 168.3 403.513 168.147 403.361 167.919C403.056 167.31 395.898 153.679 399.325 147.891C400.315 146.216 401.99 145.378 404.351 145.302C407.321 145.226 409.377 146.14 410.367 148.044C413.641 153.907 405.036 167.386 404.656 167.919C404.579 168.147 404.351 168.3 404.046 168.3ZM404.656 146.825C404.579 146.825 404.503 146.825 404.427 146.825C402.6 146.825 401.381 147.434 400.696 148.653C398.487 152.46 401.99 161.522 404.199 166.015C406.788 161.675 411.281 152.689 409.149 148.805C408.387 147.511 406.94 146.825 404.656 146.825Z" fill="#2E1E00"/>
<path d="M396.13 145.226C396.054 145.226 395.902 145.226 395.826 145.15C395.445 144.998 395.293 144.541 395.445 144.16L400.243 134.413C400.395 134.032 400.852 133.88 401.233 134.032C401.613 134.184 401.766 134.641 401.613 135.022L396.816 144.769C396.74 144.998 396.435 145.226 396.13 145.226Z" fill="#2E1E00"/>
<path d="M389.733 165.787C389.733 165.787 408.39 147.891 394.987 144.998C383.717 142.561 389.733 165.787 389.733 165.787Z" fill="#FDEAA7"/>
<path d="M389.733 166.548C389.657 166.548 389.581 166.548 389.505 166.548C389.276 166.472 389.048 166.244 388.972 166.015C388.819 165.406 385.012 150.404 389.581 145.607C390.875 144.236 392.779 143.779 395.064 144.236C397.957 144.845 399.709 146.216 400.318 148.272C402.146 154.745 390.647 165.863 390.19 166.32C390.114 166.472 389.961 166.548 389.733 166.548ZM393.388 145.607C392.322 145.607 391.408 145.988 390.723 146.673C387.677 149.871 389.048 159.543 390.114 164.34C393.617 160.685 400.09 152.994 398.871 148.729C398.414 147.206 397.12 146.292 394.759 145.759C394.302 145.607 393.845 145.607 393.388 145.607Z" fill="#2E1E00"/>
<path d="M411.974 145.759C411.67 145.759 411.365 145.531 411.289 145.226L407.786 134.946C407.634 134.565 407.862 134.108 408.243 133.956C408.624 133.804 409.081 134.032 409.233 134.413L412.736 144.693C412.888 145.074 412.66 145.531 412.279 145.683C412.127 145.683 412.05 145.759 411.974 145.759Z" fill="#2E1E00"/>
<path d="M422.562 164.645C422.562 164.645 423.095 138.83 411.596 146.216C401.849 152.46 422.562 164.645 422.562 164.645Z" fill="#FDEAA7"/>
<path d="M422.558 165.406C422.406 165.406 422.254 165.406 422.178 165.33C421.645 165.025 408.318 157.106 408.242 150.481C408.166 148.577 409.232 146.902 411.212 145.683C413.725 144.084 415.933 143.779 417.761 144.845C423.625 148.12 423.396 164.112 423.32 164.797C423.32 165.102 423.168 165.33 422.939 165.482C422.787 165.33 422.635 165.406 422.558 165.406ZM415.324 145.607C414.334 145.607 413.192 145.988 411.973 146.825C410.45 147.815 409.689 148.958 409.689 150.328C409.765 154.745 417.609 160.609 421.797 163.198C421.721 158.096 420.807 148.12 416.999 145.988C416.466 145.759 415.933 145.607 415.324 145.607Z" fill="#2E1E00"/>
<path d="M386.305 150.024C386.305 150.024 412.12 150.557 404.733 138.982C398.413 129.311 386.305 150.024 386.305 150.024Z" fill="#FDEAA7"/>
<path d="M386.917 150.785C386.536 150.785 386.384 150.785 386.307 150.785C386.003 150.785 385.774 150.633 385.622 150.404C385.47 150.176 385.47 149.871 385.622 149.643C385.927 149.11 393.77 135.783 400.471 135.631C402.375 135.555 404.051 136.545 405.269 138.601C406.868 141.114 407.173 143.322 406.107 145.15C403.213 150.48 390.039 150.785 386.917 150.785ZM400.624 137.154H400.548C396.131 137.23 390.267 145.074 387.678 149.262C392.78 149.186 402.756 148.272 404.888 144.465C405.65 143.094 405.345 141.495 404.05 139.439C403.061 137.916 401.918 137.154 400.624 137.154Z" fill="#2E1E00"/>
<path d="M409.771 153.679C409.771 153.679 416.091 128.625 403.146 133.27C392.256 137.23 409.771 153.679 409.771 153.679Z" fill="#FDEAA7"/>
<path d="M409.769 154.44C409.541 154.44 409.389 154.364 409.236 154.212C408.78 153.755 397.585 143.17 398.956 136.545C399.337 134.641 400.708 133.27 402.916 132.509C405.734 131.519 407.942 131.747 409.541 133.118C414.567 137.611 410.683 153.146 410.531 153.755C410.455 153.983 410.303 154.212 409.998 154.288C409.922 154.44 409.846 154.44 409.769 154.44ZM406.038 133.499C405.277 133.499 404.363 133.651 403.373 134.032C401.621 134.641 400.708 135.631 400.403 136.926C399.489 141.266 405.81 148.729 409.313 152.232C410.379 147.282 411.749 137.306 408.475 134.336C407.79 133.803 407.028 133.499 406.038 133.499Z" fill="#2E1E00"/>
<path d="M427.808 150.175C427.808 150.175 418.746 125.959 410.75 137.154C404.049 146.596 427.808 150.175 427.808 150.175Z" fill="#FDEAA7"/>
<path d="M427.811 150.937C427.811 150.937 427.735 150.937 427.659 150.937C426.973 150.861 411.743 148.424 409.154 142.256C408.393 140.504 408.697 138.601 410.068 136.697C411.819 134.26 413.723 133.194 415.855 133.499C422.557 134.412 428.192 149.262 428.42 149.947C428.496 150.176 428.496 150.48 428.268 150.709C428.268 150.861 428.039 150.937 427.811 150.937ZM415.322 135.022C413.952 135.022 412.657 135.859 411.439 137.687C410.372 139.21 410.144 140.504 410.677 141.799C412.429 145.835 421.795 148.424 426.669 149.338C424.765 144.693 420.196 135.707 415.779 135.098C415.627 135.022 415.475 135.022 415.322 135.022Z" fill="#2E1E00"/>
</svg>
