<svg width="73" height="80" viewBox="0 0 73 80" fill="none" xmlns="http://www.w3.org/2000/svg">
<g clip-path="url(#clip0)">
<path d="M51.3916 15.362C51.3916 23.6934 44.6507 30.4142 36.3638 30.4142C28.0768 30.4142 21.3359 23.6934 21.3359 15.362C21.3359 7.06153 28.0768 0.309692 36.3638 0.309692C44.6816 0.309692 51.3916 7.06153 51.3916 15.362Z" fill="#FDEAA7"/>
<path d="M36.3644 30.724C27.8919 30.724 21.0273 23.8482 21.0273 15.362C21.0273 6.9067 27.8919 0 36.3644 0C44.8369 0 51.7014 6.9067 51.7014 15.362C51.7014 23.8482 44.8369 30.724 36.3644 30.724ZM36.3644 0.619435C28.232 0.619435 21.6458 7.24739 21.6458 15.362C21.6458 23.5076 28.263 30.1045 36.3644 30.1045C44.4967 30.1045 51.083 23.4766 51.083 15.362C51.083 7.24739 44.4967 0.619435 36.3644 0.619435Z" fill="black"/>
<path d="M72.4174 14.6187H0.308594V79.6903H72.4174V14.6187Z" fill="#ADF0E7"/>
<path d="M72.4181 80H0.309215C0.123686 80 0 79.8761 0 79.6903V14.6496C0 14.4638 0.123686 14.3399 0.309215 14.3399H72.4181C72.6036 14.3399 72.7273 14.4638 72.7273 14.6496V79.7213C72.7273 79.8761 72.6036 80 72.4181 80ZM0.618429 79.3806H72.1088V14.9284H0.618429V79.3806Z" fill="black"/>
<path d="M63.1116 23.043H9.64844V71.266H63.1116V23.043Z" fill="#ADF0E7"/>
<path d="M63.0813 71.5756H9.64906C9.46353 71.5756 9.33984 71.4518 9.33984 71.2659V23.0429C9.33984 22.8571 9.46353 22.7332 9.64906 22.7332H63.0813C63.2669 22.7332 63.3905 22.8571 63.3905 23.0429V71.2659C63.3905 71.4518 63.2669 71.5756 63.0813 71.5756ZM9.95827 70.9562H62.7721V23.3527H9.95827V70.9562Z" fill="black"/>
<path d="M46.3809 47.1699C46.3809 52.7139 41.8972 57.2048 36.3623 57.2048C30.8274 57.2048 26.3438 52.7139 26.3438 47.1699C26.3438 41.626 30.8274 37.1351 36.3623 37.1351C41.8972 37.1041 46.3809 41.626 46.3809 47.1699Z" fill="#ADF0E7"/>
<path d="M36.3629 57.5145C30.6734 57.5145 26.0352 52.8687 26.0352 47.1699C26.0352 41.4711 30.6734 36.8254 36.3629 36.8254C42.0525 36.8254 46.6907 41.4711 46.6907 47.1699C46.6907 52.8687 42.0525 57.5145 36.3629 57.5145ZM36.3629 37.4138C31.0135 37.4138 26.6536 41.7809 26.6536 47.139C26.6536 52.4971 31.0135 56.8641 36.3629 56.8641C41.7123 56.8641 46.0723 52.4971 46.0723 47.139C46.0723 41.7809 41.7123 37.4138 36.3629 37.4138Z" fill="black"/>
<path d="M9.6484 32.6133H5.96875V42.6481H9.6484V32.6133Z" fill="#ADF0E7"/>
<path d="M9.64512 42.9578H5.96546C5.77994 42.9578 5.65625 42.8339 5.65625 42.6481V32.6132C5.65625 32.4274 5.77994 32.3035 5.96546 32.3035H9.64512C9.83065 32.3035 9.95433 32.4274 9.95433 32.6132V42.6481C9.95433 42.8339 9.79973 42.9578 9.64512 42.9578ZM6.27468 42.3384H9.33591V32.923H6.27468V42.3384Z" fill="black"/>
<path d="M9.6484 52.1874H5.96875V62.2222H9.6484V52.1874Z" fill="#ADF0E7"/>
<path d="M9.64512 62.532H5.96546C5.77994 62.532 5.65625 62.4081 5.65625 62.2222V52.1874C5.65625 52.0016 5.77994 51.8777 5.96546 51.8777H9.64512C9.83065 51.8777 9.95433 52.0016 9.95433 52.1874V62.2222C9.95433 62.4081 9.79973 62.532 9.64512 62.532ZM6.27468 61.9125H9.33591V52.4971H6.27468V61.9125Z" fill="black"/>
</g>
<defs>
<clipPath id="clip0">
<rect width="72.7273" height="80" fill="white"/>
</clipPath>
</defs>
</svg>
