<svg width="243" height="259" viewBox="0 0 243 259" fill="none" xmlns="http://www.w3.org/2000/svg">
<path d="M241.635 18.902H1.89893V258.176H241.635V18.902Z" fill="#73B7EA"/>
<path d="M241.635 18.902H1.89893V258.176H241.635V18.902Z" stroke="#2E1E00" stroke-miterlimit="10" stroke-linecap="round" stroke-linejoin="round"/>
<path d="M241.088 248.109C237.533 180.54 160.813 144.76 150.18 140.118L148.118 124.741L187.276 119.214C187.276 119.214 180.597 105.35 175.721 87.2215C178.877 84.4963 180.878 80.4692 180.878 75.9681C180.878 69.5425 176.799 64.0686 171.089 61.9941C170.765 58.1939 170.636 54.3903 170.764 50.6481C171.842 19.2879 150.683 -4.35254 123.045 2.30521C121.882 2.58555 120.684 2.69629 119.487 2.66239C113.491 2.49288 94.0551 3.37567 84.3547 20.9289C79.6658 29.4147 77.2412 45.1482 74.5082 62.1388C68.9947 64.3124 65.0908 69.6833 65.0908 75.9688C65.0908 80.3636 66.9977 84.3098 70.026 87.0297C66.4631 103.5 61.4079 118.389 52.4331 126.051H96.6648L94.874 141.17C9.80774 164.653 1.72283 235.273 1.36426 257.902H241.088C241.264 254.563 241.258 251.304 241.088 248.109Z" fill="#FCE9AB" stroke="black" stroke-miterlimit="10"/>
</svg>
