<svg width="227" height="258" viewBox="0 0 227 258" fill="none" xmlns="http://www.w3.org/2000/svg">
<path d="M225.643 32.5931H1.23682V256.566H225.643V32.5931Z" fill="#FA6456"/>
<path d="M225.643 257.176H1.23673C0.899863 257.176 0.626465 256.903 0.626465 256.566V32.5938C0.626465 32.2557 0.899863 31.9835 1.23673 31.9835H225.643C225.98 31.9835 226.253 32.2557 226.253 32.5938V256.566C226.253 256.903 225.98 257.176 225.643 257.176ZM1.84699 255.956H225.032V33.2035H1.84699V255.956Z" fill="#2E1E00"/>
<path d="M225.643 256.566H1.24902C1.58467 235.383 9.15193 169.28 88.779 147.298C90.6526 146.779 92.5627 146.285 94.5155 145.821H139.394C139.394 145.821 222.067 179.435 225.643 247.4C225.801 250.39 225.807 253.441 225.643 256.566Z" fill="#73B7EA"/>
<path d="M225.643 257.176H1.249C1.08545 257.176 0.928608 257.111 0.813878 256.994C0.699149 256.877 0.636299 256.72 0.63874 256.556C0.813276 245.552 2.87779 223.823 14.7431 201.941C29.4853 174.755 54.3401 156.173 88.6167 146.71C90.5531 146.173 92.4906 145.675 94.3745 145.228C94.4209 145.217 94.4679 145.211 94.5155 145.211H139.394C139.473 145.211 139.551 145.226 139.624 145.256C139.832 145.34 160.617 153.887 181.559 170.646C193.869 180.5 203.832 191.224 211.17 202.522C220.357 216.668 225.431 231.756 226.252 247.366C226.414 250.421 226.414 253.527 226.252 256.597C226.235 256.922 225.967 257.176 225.643 257.176ZM1.87085 255.955H225.062C225.192 253.117 225.183 250.252 225.034 247.432C224.223 232.037 219.214 217.152 210.146 203.188C202.879 191.999 193.005 181.371 180.796 171.6C160.772 155.575 140.919 147.119 139.273 146.432H94.5869C92.7396 146.871 90.8405 147.36 88.9419 147.886C54.9973 157.257 30.3939 175.64 15.8166 202.523C4.29359 223.773 2.11129 244.881 1.87085 255.955Z" fill="#2E1E00"/>
<path d="M64.3532 91.0893C64.3532 91.0893 29.664 194.056 30.7649 208.372C31.8664 222.688 42.8786 232.599 66.5556 230.396C90.2326 228.195 157.409 232.048 210.819 195.157L116.493 75.6716L64.3532 91.0893Z" fill="#73B7EA"/>
<path d="M60.1564 231.317C50.6705 231.317 43.2399 229.096 38.01 224.686C33.3915 220.79 30.6758 215.165 30.1565 208.419C29.058 194.143 62.3564 95.103 63.7746 90.8946C63.8381 90.7061 63.9895 90.5602 64.1799 90.5035L116.32 75.0864C116.559 75.015 116.817 75.0974 116.971 75.2933L211.297 194.779C211.402 194.91 211.447 195.081 211.422 195.248C211.397 195.414 211.305 195.563 211.165 195.659C166.11 226.78 110.718 229.022 80.9597 230.227C75.2745 230.457 70.3643 230.656 66.6118 231.004C64.3648 231.213 62.2124 231.317 60.1564 231.317ZM64.831 91.5842C62.761 97.7503 30.3243 194.674 31.3739 208.325C31.8744 214.83 34.3722 220.02 38.7978 223.753C44.9011 228.9 54.2228 230.931 66.4995 229.789C70.2837 229.437 75.2085 229.237 80.9108 229.007C110.428 227.812 165.268 225.594 209.936 195.023L116.27 76.3741L64.831 91.5842Z" fill="#2E1E00"/>
<path d="M111.366 0.787427C110.609 0.79414 109.85 0.82525 109.088 0.880174C86.8457 2.50042 72.2373 23.7083 64.9037 42.6344C55.823 66.0679 57.3749 94.4139 59.8959 118.903C62.0581 139.905 63.7119 162.043 72.7072 181.464C81.6359 200.738 101.301 207.715 121.553 202.789C148.203 196.307 173.737 175.854 174.352 146.695C174.589 135.433 168.233 125.057 165.487 114.365C162.902 104.301 161.226 93.9862 159.738 83.7124C157.792 70.2683 156.241 56.7321 155.206 43.1848C153.55 21.5034 133.733 0.587871 111.366 0.787427Z" fill="#73B7EA"/>
<path d="M109.173 204.931C103.331 204.931 97.7499 203.872 92.6511 201.765C83.5802 198.018 76.4926 191.086 72.1536 181.719C63.7948 163.675 61.7505 143.375 59.7738 123.745C59.6133 122.147 59.4528 120.553 59.2893 118.966C56.6054 92.8957 55.3592 65.5779 64.3343 42.4135C68.9967 30.3822 82.6862 2.1911 109.043 0.271826C109.815 0.215682 110.595 0.18393 111.361 0.177217C111.469 0.176607 111.578 0.176025 111.687 0.176025C122.365 0.176025 132.934 4.84453 141.483 13.3479C149.775 21.5956 154.998 32.454 155.814 43.1385C156.803 56.0773 158.326 69.6978 160.342 83.6252C161.766 93.459 163.447 103.971 166.078 114.213C167.03 117.921 168.453 121.677 169.829 125.308C172.43 132.172 175.119 139.268 174.962 146.707C174.673 160.426 168.857 173.212 158.142 183.682C148.623 192.985 135.68 199.981 121.697 203.382C117.446 204.416 113.246 204.931 109.173 204.931ZM111.372 1.39774C110.631 1.40446 109.878 1.43559 109.132 1.4893C99.1462 2.21551 89.9678 6.99205 81.8513 15.684C73.5865 24.5347 68.3828 35.3448 65.4724 42.8547C56.5901 65.7774 57.835 92.9226 60.5031 118.841C60.6667 120.429 60.8278 122.024 60.9883 123.623C62.9551 143.153 64.9885 163.348 73.2606 181.206C77.469 190.29 84.3351 197.009 93.1168 200.637C101.529 204.112 111.313 204.652 121.409 202.196C135.181 198.846 147.924 191.962 157.29 182.809C167.771 172.567 173.46 160.074 173.742 146.681C173.894 139.48 171.248 132.495 168.688 125.741C167.3 122.078 165.865 118.291 164.895 114.517C162.25 104.218 160.563 93.6677 159.134 83.8003C157.114 69.8466 155.588 56.1969 154.597 43.2306C153.803 32.8336 148.709 22.2572 140.622 14.2127C132.219 5.85634 121.816 1.30193 111.372 1.39774ZM111.366 0.78748H111.372H111.366Z" fill="#2E1E00"/>
<path d="M113.414 23.5783C113.236 23.571 113.057 23.5655 112.878 23.5624C89.8484 23.1334 85.1634 50.7167 77.4302 67.1127C67.8948 87.3307 84.8186 109.252 105.099 112.564C132.078 116.969 146.394 94.3957 147.497 86.1346C149.723 69.4598 144.919 49.3223 134.954 35.7311C130.068 29.0658 122.055 23.9378 113.414 23.5783Z" fill="#F7DEC3"/>
<path d="M111.844 113.733C109.682 113.733 107.402 113.557 105.001 113.165C93.6146 111.307 83.1748 103.749 77.7557 93.4443C73.1934 84.7694 72.8815 75.3256 76.8781 66.8521C78.4245 63.5726 79.8379 59.872 81.3336 55.9528C87.244 40.4729 93.935 22.9474 112.341 22.9474C112.523 22.9474 112.705 22.9486 112.889 22.9522C113.074 22.9559 113.256 22.9614 113.44 22.9694C121.656 23.3111 130.089 28.0632 135.446 35.3699C145.284 48.7883 150.37 69.2224 148.102 86.2152C147.54 90.4223 143.239 99.6263 134.09 106.412C129.319 109.95 121.871 113.733 111.844 113.733ZM112.354 24.1679C94.7741 24.1679 88.2437 41.276 82.4742 56.3886C80.9693 60.3296 79.5486 64.0516 77.9815 67.3733C74.1527 75.4916 74.456 84.5486 78.8358 92.8768C84.0804 102.85 94.1821 110.163 105.197 111.961C118.311 114.102 127.753 109.591 133.363 105.432C142.21 98.8702 146.357 90.0635 146.892 86.0547C149.122 69.3518 144.126 49.2735 134.462 36.0924C129.318 29.0768 121.244 24.5151 113.389 24.1886H113.388C113.215 24.1807 113.04 24.1758 112.865 24.1728C112.694 24.1685 112.523 24.1679 112.354 24.1679Z" fill="#2E1E00"/>
<path d="M112.175 85.384C101.539 85.384 93.7142 81.5515 93.5976 81.4929C93.2962 81.3415 93.1747 80.9754 93.3255 80.674C93.4762 80.3731 93.843 80.251 94.1444 80.4018C94.3147 80.4872 111.401 88.8356 129.228 80.3957C129.534 80.2522 129.897 80.3823 130.041 80.6862C130.185 80.9907 130.055 81.355 129.751 81.499C123.597 84.4124 117.529 85.384 112.175 85.384Z" fill="#2E1E00"/>
<path d="M111.989 94.5787C107.451 94.5787 104.042 92.6448 103.829 92.521C103.538 92.3525 103.439 91.9791 103.608 91.688C103.776 91.3963 104.15 91.2962 104.442 91.4658C104.515 91.5073 111.829 95.6394 119.014 91.4658C119.305 91.2968 119.679 91.3957 119.848 91.6874C120.018 91.9791 119.919 92.3525 119.627 92.521C116.971 94.0649 114.329 94.5787 111.989 94.5787Z" fill="#2E1E00"/>
<path d="M114.745 71.7117C113.683 71.7117 112.687 71.2931 111.943 70.5357C111.198 69.7772 110.799 68.7739 110.819 67.7121L111.07 54.1862C111.077 53.8481 111.353 53.604 111.692 53.5869C112.029 53.5936 112.297 53.8719 112.291 54.2087L112.039 67.7346C112.026 68.467 112.301 69.1577 112.813 69.6807C113.327 70.2025 114.013 70.4912 114.745 70.4912C115.082 70.4912 115.355 70.7646 115.355 71.1014C115.355 71.4383 115.081 71.7117 114.745 71.7117Z" fill="#2E1E00"/>
<path d="M95.6187 48.4429C92.9213 50.2914 89.9524 50.6478 88.9869 49.2393C88.0215 47.8309 89.4257 45.1902 92.1225 43.3417C94.8198 41.4939 97.7894 41.1375 98.7548 42.5454C99.7196 43.9533 98.316 46.5944 95.6187 48.4429Z" fill="#2E1E00"/>
<path d="M128.738 49.2735C131.435 51.122 134.404 51.4784 135.37 50.0699C136.335 48.6614 134.931 46.0208 132.233 44.1723C129.536 42.3245 126.567 41.968 125.602 43.3759C124.636 44.7838 126.04 47.425 128.738 49.2735Z" fill="#2E1E00"/>
<path d="M96.986 57.3229C96.986 58.4305 96.0877 59.33 94.9788 59.33C93.8706 59.33 92.9717 58.4305 92.9717 57.3229C92.9717 56.2146 93.8706 55.3157 94.9788 55.3157C96.0871 55.3157 96.986 56.214 96.986 57.3229Z" fill="#2E1E00"/>
<path d="M130.486 56.8682C130.486 57.9764 129.587 58.8753 128.478 58.8753C127.37 58.8753 126.471 57.9764 126.471 56.8682C126.471 55.7605 127.37 54.861 128.478 54.861C129.587 54.861 130.486 55.7605 130.486 56.8682Z" fill="#2E1E00"/>
</svg>
