<svg width="231" height="258" viewBox="0 0 231 258" fill="none" xmlns="http://www.w3.org/2000/svg">
<path d="M1.72119 31.9878H228.912V256.078H1.72119V31.9878Z" fill="#FFDC38" stroke="#111827"/>
<path d="M229.441 256.556H1.43628C1.77733 235.033 9.46637 167.865 90.3749 145.53C92.2786 145.003 94.2194 144.501 96.2037 144.029H141.805C141.805 144.029 225.807 178.184 229.441 247.242C229.603 250.281 229.609 253.381 229.441 256.556Z" fill="#FA6456"/>
<path d="M229.441 257.176H1.43632C1.27013 257.176 1.11077 257.11 0.994197 256.991C0.877622 256.873 0.813751 256.712 0.816232 256.546C0.993576 245.365 3.0907 223.287 15.1476 201.052C30.127 173.428 55.3818 154.547 90.21 144.932C92.1782 144.387 94.1469 143.88 96.0605 143.426C96.1076 143.415 96.1554 143.409 96.2037 143.409H141.805C141.884 143.409 141.963 143.425 142.038 143.455C142.249 143.541 163.368 152.225 184.648 169.254C197.157 179.266 207.279 190.163 214.735 201.643C224.069 216.017 229.225 231.348 230.06 247.209C230.225 250.31 230.225 253.466 230.06 256.589C230.043 256.917 229.771 257.176 229.441 257.176ZM2.0688 255.936H228.851C228.984 253.049 228.974 250.138 228.822 247.275C228 231.633 222.91 216.508 213.695 202.319C206.311 190.95 196.278 180.151 183.872 170.223C163.526 153.939 143.354 145.348 141.681 144.649H96.2763C94.3999 145.096 92.4702 145.593 90.5399 146.128C56.049 155.648 31.0503 174.327 16.2377 201.643C4.5293 223.235 2.31311 244.684 2.0688 255.936Z" fill="#2E1E00"/>
<path d="M141.805 148.078L115.495 206.311L91.3485 148.078L90.375 145.53C92.2787 145.003 94.2195 144.501 96.2038 144.029H126.786L141.805 148.078Z" fill="#FDEAA7"/>
<path d="M115.495 206.931H115.485C115.238 206.927 115.017 206.777 114.922 206.548L90.7761 148.316L89.7957 145.752C89.7337 145.588 89.743 145.407 89.8218 145.25C89.9005 145.095 90.0413 144.979 90.2099 144.933C92.1787 144.388 94.1475 143.881 96.0611 143.427C96.1076 143.415 96.1559 143.41 96.2043 143.41H126.787C126.841 143.41 126.895 143.417 126.948 143.431L141.966 147.48C142.142 147.527 142.288 147.649 142.366 147.814C142.443 147.978 142.445 148.168 142.37 148.334L116.06 206.566C115.96 206.789 115.738 206.931 115.495 206.931ZM91.1983 145.947L91.9282 147.857L115.519 204.75L140.94 148.487L126.704 144.649H96.2768C94.6132 145.046 92.9085 145.481 91.1983 145.947Z" fill="#2E1E00"/>
<path d="M141.805 106.893V148.079C116.989 162.806 91.3486 148.079 91.3486 148.079V117.8L119.538 111.704L141.805 106.893Z" fill="#FFF3E9"/>
<path d="M117.777 155.198C102.757 155.198 91.2127 148.715 91.0403 148.616C90.8474 148.506 90.729 148.3 90.729 148.078V117.8C90.729 117.508 90.933 117.255 91.2182 117.193L141.674 106.286C141.859 106.246 142.049 106.292 142.195 106.409C142.34 106.527 142.425 106.705 142.425 106.892V148.078C142.425 148.297 142.31 148.499 142.122 148.612C133.798 153.551 125.346 155.198 117.777 155.198ZM91.9692 147.709C94.9381 149.283 118.522 160.946 141.185 147.724V107.661L91.9692 118.299V147.709Z" fill="#2E1E00"/>
<path d="M115.495 257.176C115.153 257.176 114.875 256.898 114.875 256.556V206.311C114.875 205.968 115.153 205.69 115.495 205.69C115.838 205.69 116.115 205.968 116.115 206.311V256.556C116.115 256.898 115.837 257.176 115.495 257.176Z" fill="#2E1E00"/>
<path d="M119.538 111.704L91.3486 144.197V117.8L119.538 111.704Z" fill="#2E1E00"/>
<path d="M160.897 65.4342L105.257 67.344L94.8084 47.923C92.6691 49.1756 90.1826 49.8887 87.5286 49.8887C79.5481 49.8887 73.0745 43.4212 73.0745 35.4345C73.0745 29.1779 77.0492 23.8514 82.6114 21.8361C85.873 9.53361 97.0407 0.796631 109.976 0.796631H120.517C132.603 0.796631 143.355 8.46707 147.292 19.8952L147.739 21.185C148.644 23.8204 150.672 25.9286 153.27 26.9394C155.006 27.6153 156.47 28.7686 157.518 30.2196C158.572 31.6768 159.21 33.4254 159.31 35.2857L160.897 65.4342Z" fill="#2E1E00"/>
<path d="M105.258 67.9636C105.029 67.9636 104.82 67.839 104.711 67.6368L94.5611 48.7701C92.4069 49.9092 89.9892 50.5082 87.5293 50.5082C79.2171 50.5082 72.4551 43.7462 72.4551 35.434C72.4551 29.2158 76.3163 23.6034 82.0968 21.3668C85.5575 8.8727 96.9751 0.176025 109.976 0.176025H120.518C132.861 0.176025 143.857 8.01885 147.879 19.6932L148.325 20.9817C149.174 23.4527 151.058 25.4134 153.495 26.3609C155.317 27.0709 156.882 28.2789 158.02 29.8563C159.166 31.4388 159.826 33.3053 159.929 35.2523L161.517 65.4008C161.525 65.5682 161.467 65.7301 161.355 65.8528C161.242 65.9756 161.085 66.0475 160.919 66.0537L105.279 67.963C105.272 67.9636 105.264 67.9636 105.258 67.9636ZM94.8091 47.3024C94.8655 47.3024 94.922 47.3098 94.9772 47.3253C95.139 47.3712 95.2754 47.4804 95.3554 47.6286L105.621 66.7104L160.245 64.8359L158.691 35.318C158.6 33.6097 158.02 31.9721 157.016 30.5825C156.016 29.1991 154.644 28.1387 153.046 27.5168C150.268 26.4366 148.12 24.2018 147.153 21.386L146.707 20.0975C142.857 8.92355 132.332 1.41619 120.518 1.41619H109.976C97.4302 1.41619 86.4237 9.87848 83.2111 21.9949C83.159 22.1909 83.0145 22.3496 82.8229 22.4191C77.363 24.3971 73.6952 29.6282 73.6952 35.4346C73.6952 43.0629 79.901 49.2687 87.5293 49.2687C89.9855 49.2687 92.3945 48.6182 94.496 47.388C94.5915 47.3309 94.6993 47.3024 94.8091 47.3024Z" fill="#2E1E00"/>
<path d="M96.698 19.406C90.7867 20.2214 85.9147 24.4734 84.344 30.2302C79.7951 46.8956 72.5934 82.3309 83.4406 111.257C88.1532 123.823 97.1816 133.068 111.381 132.914C124.173 132.777 136.244 123.837 142.507 113.069C146.481 106.237 150.54 96.7987 151.079 86.1649C151.079 86.1649 172.898 88.892 172.898 72.8008C172.898 57.5276 156.534 56.4362 149.988 61.6183L139.323 31.1473C139.018 30.2755 137.824 30.1756 137.379 30.9849L135.588 34.2353C133.842 37.4027 129.19 37.0803 127.898 33.7027L126.202 29.2666C125.869 28.3954 124.658 28.3396 124.245 29.1761L122.442 32.8333C120.686 36.3957 115.436 35.8147 114.502 31.954L114.164 30.557C112.36 23.1067 105.206 18.2322 97.612 19.2802L96.698 19.406Z" fill="#FFF3E9"/>
<path d="M111.043 133.536C98.1991 133.537 88.1996 125.715 82.8594 111.474C78.0928 98.7626 76.289 83.4968 77.5 66.1028C78.5157 51.511 81.4568 38.452 83.7455 30.0666C85.3819 24.0704 90.4331 19.6449 96.6129 18.7916L97.5269 18.6658C105.465 17.5738 112.88 22.62 114.766 30.4114L115.104 31.8084C115.546 33.6315 117.009 34.4258 118.232 34.561C119.454 34.698 121.056 34.2416 121.886 32.5587L123.689 28.9015C123.991 28.2901 124.607 27.9273 125.282 27.9614C125.963 27.9931 126.537 28.4085 126.781 29.0453L128.477 33.4814C128.988 34.8158 130.19 35.7063 131.616 35.8049C133.039 35.9029 134.355 35.1879 135.044 33.9366L136.835 30.6855C137.161 30.0939 137.784 29.7646 138.455 29.818C139.128 29.8738 139.685 30.3054 139.908 30.9416L150.297 60.6262C154.5 57.8135 161.245 57.3931 166.096 59.7401C170.882 62.0555 173.518 66.6937 173.518 72.7997C173.518 76.8929 172.149 80.1762 169.45 82.5592C163.841 87.5118 154.271 87.0716 151.661 86.8465C150.96 97.7159 146.609 107.249 143.043 113.38C137.271 123.304 125.245 133.384 111.387 133.534C111.273 133.536 111.158 133.536 111.043 133.536ZM99.6854 19.7571C99.0287 19.7571 98.3646 19.8017 97.6968 19.8941L96.7828 20.0206C91.0954 20.805 86.4478 24.8765 84.9423 30.3934C73.5203 72.2416 79.4626 98.8829 84.0208 111.039C90.6731 128.779 102.54 132.403 111.374 132.294C124.744 132.15 136.375 122.379 141.971 112.757C145.539 106.623 149.908 97.0239 150.46 86.1334C150.468 85.9616 150.548 85.8004 150.68 85.69C150.813 85.5784 150.987 85.5282 151.155 85.5493C151.271 85.5635 162.652 86.9103 168.631 81.6278C171.051 79.491 172.277 76.5208 172.277 72.8003C172.277 65.6167 168.621 62.3408 165.556 60.8575C160.269 58.2997 153.684 59.4828 150.373 62.1045C150.215 62.2291 150.007 62.2688 149.815 62.2143C149.623 62.1578 149.469 62.0127 149.402 61.8236L138.738 31.3527C138.651 31.1046 138.439 31.0606 138.352 31.0538C138.266 31.0482 138.049 31.0538 137.922 31.2838L136.131 34.5343C135.206 36.2135 133.437 37.1709 131.53 37.0419C129.617 36.9099 128.004 35.715 127.319 33.9248L125.622 29.4881C125.527 29.2407 125.312 29.2047 125.224 29.2004C125.137 29.1966 124.918 29.2121 124.801 29.4503L122.998 33.1075C122.081 34.9678 120.156 36.0244 118.096 35.7937C116.035 35.5655 114.387 34.1158 113.899 32.1005L113.56 30.7034C111.984 24.1888 106.209 19.7571 99.6854 19.7571ZM96.6978 19.4061H96.704H96.6978Z" fill="#2E1E00"/>
<path d="M109.402 104.973C99.4722 104.973 92.5713 101.353 92.4684 101.297C92.167 101.135 92.0535 100.759 92.216 100.458C92.3778 100.156 92.7524 100.043 93.0556 100.205C93.2044 100.285 108.194 108.123 125.678 100.186C125.99 100.046 126.358 100.183 126.499 100.495C126.641 100.806 126.502 101.174 126.19 101.316C120.15 104.058 114.393 104.973 109.402 104.973Z" fill="#2E1E00"/>
<path d="M109.833 112.687C104.538 112.687 99.9068 110.379 99.6259 110.235C99.3202 110.08 99.1993 109.707 99.3537 109.402C99.5094 109.097 99.8826 108.975 100.187 109.13C100.283 109.178 109.76 113.891 116.662 109.664C116.954 109.485 117.336 109.577 117.515 109.869C117.693 110.161 117.602 110.543 117.31 110.722C114.923 112.184 112.305 112.687 109.833 112.687Z" fill="#2E1E00"/>
<path d="M149.989 62.2384C149.983 62.2384 149.977 62.2384 149.971 62.2384L74.2454 60.1611C73.9025 60.1518 73.6328 59.8665 73.6421 59.5243C73.6514 59.1814 73.931 58.898 74.2789 58.9215L150.005 60.9982C150.348 61.0081 150.617 61.2927 150.608 61.635C150.598 61.9717 150.324 62.2384 149.989 62.2384Z" fill="#2E1E00"/>
<path d="M106.286 93.0788C106.205 93.0788 106.123 93.0633 106.044 93.0292L102.727 91.6259C102.452 91.5094 102.299 91.2136 102.363 90.9215L105.68 75.8938C105.754 75.5596 106.087 75.3481 106.42 75.4219C106.754 75.4957 106.965 75.8268 106.892 76.1611L103.686 90.6853L106.528 91.8876C106.843 92.0209 106.991 92.3843 106.857 92.6999C106.757 92.9368 106.528 93.0788 106.286 93.0788Z" fill="#2E1E00"/>
<path d="M95.5123 78.6854C95.4224 78.6854 95.3325 78.6841 95.242 78.681L81.9158 78.2755C77.2757 78.1335 73.6414 74.387 73.6414 69.7456V59.5409C73.6414 59.3735 73.7089 59.2135 73.8292 59.0963C73.9489 58.9797 74.1095 58.9072 74.2782 58.9215L103.998 59.7362C104.165 59.7406 104.324 59.8131 104.437 59.9365C104.551 60.0599 104.609 60.2236 104.6 60.3911L104.022 70.6317C103.765 75.1968 100.051 78.6854 95.5123 78.6854ZM74.8821 60.1784V69.7456C74.8821 73.7129 77.9881 76.915 81.9536 77.036L95.2804 77.4415C99.2651 77.5668 102.56 74.5414 102.785 70.5623L103.327 60.9584L74.8821 60.1784Z" fill="#2E1E00"/>
<path d="M133.169 79.6329C133.065 79.6329 132.96 79.631 132.856 79.6273L120.564 79.1889C115.95 79.0239 112.334 75.2774 112.334 70.6602V60.6025C112.334 60.4344 112.403 60.2732 112.524 60.1566C112.645 60.0394 112.806 59.9712 112.977 59.983L141.096 60.9987C141.429 61.0117 141.694 61.2846 141.694 61.6188V71.0986C141.694 73.4357 140.768 75.6166 139.086 77.2393C137.479 78.7895 135.389 79.6329 133.169 79.6329ZM113.575 61.2455V70.6602C113.575 74.6065 116.664 77.8079 120.608 77.9487L132.9 78.3877C134.896 78.4634 136.787 77.7342 138.224 76.347C139.662 74.9599 140.453 73.0959 140.453 71.0986V62.2165L113.575 61.2455Z" fill="#2E1E00"/>
<path d="M165.277 73.3434H153.385C153.043 73.3434 152.765 73.0656 152.765 72.7234C152.765 72.3811 153.043 72.1033 153.385 72.1033H165.277C165.62 72.1033 165.898 72.3811 165.898 72.7234C165.898 73.0663 165.62 73.3434 165.277 73.3434Z" fill="#2E1E00"/>
<path d="M90.8978 54.4694C88.157 56.3476 85.1403 56.7098 84.1593 55.2786C83.1783 53.8475 84.6051 51.1643 87.3459 49.2861C90.0861 47.4079 93.1034 47.0457 94.0844 48.4769C95.0654 49.9081 93.6385 52.5912 90.8978 54.4694Z" fill="#2E1E00"/>
<path d="M125.238 55.5153C127.979 57.3935 130.995 57.7556 131.976 56.3245C132.957 54.8933 131.531 52.2102 128.79 50.332C126.05 48.4538 123.032 48.0916 122.051 49.5228C121.07 50.954 122.497 53.637 125.238 55.5153Z" fill="#2E1E00"/>
<path d="M91.2884 67.7677C91.2884 68.8938 90.375 69.8072 89.2489 69.8072C88.1229 69.8072 87.2095 68.8938 87.2095 67.7677C87.2095 66.6417 88.1229 65.7283 89.2489 65.7283C90.375 65.7283 91.2884 66.6417 91.2884 67.7677Z" fill="#2E1E00"/>
<path d="M127.367 68.8031C127.367 69.9292 126.453 70.8426 125.327 70.8426C124.201 70.8426 123.288 69.9292 123.288 68.8031C123.288 67.677 124.201 66.7637 125.327 66.7637C126.453 66.7637 127.367 67.677 127.367 68.8031Z" fill="#2E1E00"/>
<path d="M84.2467 95.163C84.1512 95.163 84.0544 95.1413 83.9639 95.0948C83.6595 94.9379 83.5392 94.5646 83.6954 94.2596L85.139 91.4487C85.2952 91.1449 85.6679 91.0233 85.9742 91.1808C86.2787 91.3371 86.399 91.711 86.2421 92.0155L84.7992 94.8263C84.6882 95.0402 84.4711 95.163 84.2467 95.163Z" fill="#2E1E00"/>
<path d="M136.124 95.3386C135.867 95.3386 135.627 95.1774 135.538 94.9206L134.506 91.9349C134.393 91.6112 134.565 91.2578 134.889 91.1462C135.211 91.0352 135.566 91.2057 135.678 91.5294L136.71 94.5157C136.822 94.8394 136.65 95.1922 136.327 95.3045C136.259 95.328 136.191 95.3386 136.124 95.3386Z" fill="#2E1E00"/>
<path d="M144.524 93.6195C144.287 93.6195 144.062 93.4831 143.958 93.2531L142.663 90.3709C142.523 90.059 142.663 89.6919 142.975 89.5512C143.287 89.411 143.654 89.5499 143.794 89.8631L145.09 92.7452C145.23 93.0571 145.09 93.4248 144.778 93.565C144.695 93.6015 144.609 93.6195 144.524 93.6195Z" fill="#2E1E00"/>
<path d="M94.2227 97.7116C94.1303 97.7116 94.036 97.6905 93.9474 97.6471C93.6404 97.4939 93.5158 97.1219 93.6677 96.8156L95.2576 93.6184C95.4095 93.3121 95.7822 93.1874 96.0891 93.3394C96.3955 93.4919 96.5207 93.864 96.3682 94.1709L94.7783 97.3674C94.6704 97.5857 94.4509 97.7116 94.2227 97.7116Z" fill="#2E1E00"/>
<path d="M127.137 97.6602C126.874 97.6602 126.629 97.4909 126.546 97.2261L125.572 94.1331C125.469 93.8063 125.65 93.4585 125.976 93.3555C126.303 93.2526 126.651 93.4337 126.754 93.7598L127.729 96.8534C127.832 97.1802 127.651 97.5281 127.324 97.631C127.262 97.6509 127.2 97.6602 127.137 97.6602Z" fill="#2E1E00"/>
<path d="M129.044 121.897C128.753 121.897 128.493 121.691 128.436 121.396L127.817 118.212C127.752 117.875 127.972 117.55 128.308 117.485C128.644 117.417 128.969 117.639 129.035 117.975L129.653 121.159C129.719 121.495 129.499 121.82 129.163 121.886C129.123 121.894 129.083 121.897 129.044 121.897Z" fill="#2E1E00"/>
<path d="M106.286 99.9191C105.944 99.9191 105.666 99.6413 105.666 99.2991V96.1955C105.666 95.8532 105.944 95.5754 106.286 95.5754C106.629 95.5754 106.906 95.8532 106.906 96.1955V99.2991C106.906 99.6413 106.628 99.9191 106.286 99.9191Z" fill="#2E1E00"/>
<path d="M117.852 99.147C117.58 99.147 117.33 98.9659 117.254 98.6906L116.388 95.5338C116.298 95.2033 116.492 94.8622 116.822 94.7717C117.152 94.6799 117.493 94.8752 117.584 95.2057L118.451 98.3626C118.541 98.6931 118.347 99.0341 118.017 99.1247C117.962 99.1396 117.906 99.147 117.852 99.147Z" fill="#2E1E00"/>
<path d="M87.2081 110.303C87.1132 110.303 87.0159 110.281 86.9253 110.235C86.6209 110.079 86.5006 109.705 86.6568 109.4L88.5692 105.672C88.7261 105.368 89.0994 105.247 89.4044 105.404C89.7089 105.56 89.8292 105.933 89.6729 106.238L87.7606 109.966C87.6502 110.18 87.4332 110.303 87.2081 110.303Z" fill="#2E1E00"/>
<path d="M126.446 111.488C126.17 111.488 125.918 111.302 125.846 111.023L124.821 107.047C124.736 106.715 124.935 106.377 125.267 106.292C125.599 106.207 125.936 106.406 126.022 106.737L127.047 110.713C127.133 111.045 126.933 111.383 126.601 111.468C126.55 111.482 126.498 111.488 126.446 111.488Z" fill="#2E1E00"/>
<path d="M135.185 108.295C134.93 108.295 134.691 108.136 134.601 107.882L133.381 104.444C133.267 104.121 133.435 103.766 133.758 103.652C134.082 103.537 134.435 103.706 134.55 104.029L135.769 107.467C135.884 107.79 135.716 108.144 135.392 108.259C135.324 108.283 135.254 108.295 135.185 108.295Z" fill="#2E1E00"/>
<path d="M137.898 117.122C137.642 117.122 137.403 116.963 137.314 116.709L136.094 113.271C135.979 112.948 136.148 112.594 136.471 112.48C136.794 112.365 137.148 112.534 137.263 112.857L138.482 116.294C138.596 116.617 138.428 116.971 138.105 117.086C138.037 117.111 137.966 117.122 137.898 117.122Z" fill="#2E1E00"/>
<path d="M142.686 105.001C142.449 105.001 142.222 104.863 142.119 104.632L140.507 101.003C140.368 100.69 140.51 100.323 140.823 100.184C141.135 100.045 141.502 100.186 141.641 100.499L143.253 104.129C143.392 104.441 143.25 104.808 142.937 104.947C142.855 104.983 142.77 105.001 142.686 105.001Z" fill="#2E1E00"/>
<path d="M95.8132 122.383C95.7741 122.383 95.7338 122.38 95.6935 122.372C95.3574 122.306 95.1386 121.98 95.2043 121.644L95.9217 117.975C95.9868 117.638 96.3105 117.42 96.6491 117.485C96.9852 117.551 97.2047 117.877 97.1389 118.213L96.4209 121.882C96.3632 122.178 96.104 122.383 95.8132 122.383Z" fill="#2E1E00"/>
<path d="M108.083 124.874C107.741 124.874 107.463 124.596 107.463 124.254V121.15C107.463 120.808 107.741 120.53 108.083 120.53C108.426 120.53 108.703 120.808 108.703 121.15V124.254C108.703 124.596 108.426 124.874 108.083 124.874Z" fill="#2E1E00"/>
<path d="M114.964 131.369C114.651 131.369 114.381 131.132 114.347 130.813L114.023 127.727C113.987 127.386 114.234 127.081 114.575 127.045C114.92 127.009 115.22 127.257 115.256 127.597L115.581 130.684C115.617 131.024 115.37 131.329 115.029 131.365C115.006 131.367 114.985 131.369 114.964 131.369Z" fill="#2E1E00"/>
<path d="M100.223 129.052C100.185 129.052 100.146 129.049 100.108 129.041C99.7712 128.978 99.5498 128.654 99.6131 128.317L100.187 125.267C100.25 124.931 100.573 124.71 100.911 124.772C101.248 124.835 101.469 125.159 101.406 125.496L100.832 128.546C100.776 128.844 100.516 129.052 100.223 129.052Z" fill="#2E1E00"/>
<path d="M120.236 124.007C119.93 124.007 119.663 123.78 119.623 123.467L119.195 120.222C119.151 119.883 119.389 119.571 119.729 119.526C120.063 119.481 120.38 119.72 120.424 120.06L120.852 123.306C120.897 123.645 120.658 123.957 120.318 124.001C120.29 124.005 120.264 124.007 120.236 124.007Z" fill="#2E1E00"/>
</svg>
