<svg width="221" height="259" viewBox="0 0 221 259" fill="none" xmlns="http://www.w3.org/2000/svg">
<path d="M220.035 39.4106H0.84668V258.176H220.035V39.4106Z" fill="#ADF0E7"/>
<path d="M220.035 39.4106H0.84668V258.176H220.035V39.4106Z" stroke="#2E1E00" stroke-miterlimit="10" stroke-linecap="round" stroke-linejoin="round"/>
<path d="M220.035 249.221C217.781 206.428 183.433 177.582 159.302 162.478C159.295 162.473 159.289 162.469 159.281 162.465C158.529 161.994 157.785 161.535 157.053 161.091C144.858 153.693 135.791 150.004 135.791 150.004L134.746 149.278L133.479 114.317C133.479 114.317 133.479 114.317 133.479 114.317C139.261 107.045 142.939 97.3286 144.387 87.7258C146.348 89.0789 148.727 89.8658 151.29 89.8658C158.031 89.8658 163.497 84.4058 163.497 77.6642C163.497 72.6506 160.471 68.3499 156.148 66.4728C156.148 66.4722 156.149 66.4674 156.149 66.4674C160.538 50.8938 160.688 35.2726 150.667 21.7334C141.152 8.87911 124.029 -0.803496 107.74 1.52238C102.857 2.21979 98.1088 3.97043 93.9309 6.59017C93.4308 6.9037 89.6976 10.2202 89.2744 10.1081C70.1542 5.07784 74.1795 25.2044 74.1795 25.2044C58.3746 28.7605 67.389 54.6515 71.9913 65.6115C66.1152 66.4871 61.5987 71.5395 61.5987 77.6642C61.5987 84.4058 67.0648 89.8658 73.8004 89.8658C75.5469 89.8658 77.2039 89.5028 78.706 88.8406V89.6153C78.706 91.3678 79.0756 93.3236 79.6836 95.3622L79.6896 95.3681C80.8102 99.1293 82.7594 103.17 84.7502 106.741V150.34C84.7502 150.86 84.7872 151.375 84.842 151.885C74.4817 154.854 65.382 158.589 57.4084 162.891V162.892C6.62887 190.299 1.13904 240.411 0.858887 258.174H220.035C220.196 255.122 220.19 252.141 220.035 249.221Z" fill="#FA6456" stroke="black" stroke-miterlimit="10"/>
</svg>
