<svg width="233" height="258" viewBox="0 0 233 258" fill="none" xmlns="http://www.w3.org/2000/svg">
<path d="M232.186 25.4958H0.688477V256.546H232.186V25.4958Z" fill="#FA6456"/>
<path d="M232.186 257.175H0.688631C0.34049 257.175 0.059082 256.894 0.059082 256.546V25.4958C0.059082 25.1476 0.34049 24.8662 0.688631 24.8662H232.186C232.534 24.8662 232.816 25.1476 232.816 25.4958V256.546C232.816 256.894 232.534 257.175 232.186 257.175ZM1.31818 255.916H231.557V26.1247H1.31818V255.916Z" fill="#2E1E00"/>
<path d="M232.186 256.546H0.701172C1.04742 234.695 8.85379 166.502 90.9973 143.826C92.93 143.291 94.9005 142.781 96.9151 142.302H143.212C143.212 142.302 228.497 176.978 232.186 247.091C232.35 250.175 232.356 253.323 232.186 256.546Z" fill="#FDEAA7"/>
<path d="M232.186 257.176H0.700389C0.5323 257.176 0.37119 257.109 0.252205 256.988C0.13385 256.868 0.0689522 256.705 0.0708409 256.536C0.251521 245.184 2.38131 222.768 14.6216 200.196C29.8296 172.15 55.4699 152.981 90.8297 143.219C92.826 142.666 94.8255 142.152 96.7696 141.69C96.8174 141.679 96.8652 141.673 96.915 141.673H143.212C143.293 141.673 143.373 141.688 143.449 141.719C143.663 141.806 165.105 150.623 186.709 167.912C199.409 178.076 209.686 189.14 217.256 200.796C226.733 215.388 231.967 230.953 232.815 247.057C232.982 250.211 232.982 253.415 232.815 256.58C232.797 256.913 232.521 257.176 232.186 257.176ZM1.34193 255.917H231.586C231.72 252.991 231.711 250.036 231.557 247.124C230.722 231.249 225.558 215.898 216.209 201.497C208.717 189.957 198.535 178.994 185.948 168.916C165.29 152.378 144.786 143.642 143.085 142.932H96.988C95.0811 143.386 93.1225 143.891 91.1646 144.433C56.1473 154.099 30.7671 173.063 15.7284 200.796C3.84189 222.716 1.5906 244.492 1.34193 255.917Z" fill="#2E1E00"/>
<path d="M144.501 146.838C144.501 146.838 140 155.859 118.582 158.484C97.1651 161.116 87.4014 147.965 87.4014 147.965V107.39L115.769 106.118L137.746 105.136L144.501 146.838Z" fill="#FFF3E9"/>
<path d="M113.089 159.458C95.3731 159.458 86.9862 148.462 86.8949 148.34C86.815 148.231 86.7715 148.1 86.7715 147.964V107.39C86.7715 107.053 87.0366 106.776 87.3728 106.761L137.718 104.507C138.039 104.496 138.316 104.72 138.367 105.036L145.122 146.737C145.143 146.867 145.123 147.001 145.064 147.118C144.874 147.499 140.164 156.473 118.659 159.109C116.71 159.348 114.852 159.458 113.089 159.458ZM88.0306 147.746C88.5846 148.428 90.9907 151.201 95.3315 153.698C99.9096 156.333 107.645 159.194 118.506 157.859C129.363 156.529 135.705 153.518 139.115 151.227C142.21 149.147 143.506 147.271 143.844 146.718L137.215 105.79L88.0313 107.992V147.746H88.0306Z" fill="#2E1E00"/>
<path d="M205.404 187.008H24.3102C23.9621 187.008 23.6807 186.726 23.6807 186.379C23.6807 186.031 23.9621 185.749 24.3102 185.749H205.404C205.752 185.749 206.033 186.031 206.033 186.379C206.033 186.726 205.752 187.008 205.404 187.008Z" fill="#2E1E00"/>
<path d="M230.511 231.997H3.73941C3.39127 231.997 3.10986 231.715 3.10986 231.368C3.10986 231.02 3.39127 230.738 3.73941 230.738H230.511C230.859 230.738 231.141 231.02 231.141 231.368C231.141 231.716 230.859 231.997 230.511 231.997Z" fill="#2E1E00"/>
<path d="M115.768 106.118L87.4014 135.701V107.391L115.768 106.118Z" fill="#2E1E00"/>
<path d="M68.5205 64.5562L66.0603 51.3905C63.8713 39.6803 72.8563 28.8608 84.7692 28.8608L78.3818 64.5562L76.1274 72.4457L68.5205 64.5562Z" fill="#2E1E00"/>
<path d="M76.1271 73.0746C75.9577 73.0746 75.7941 73.0066 75.6738 72.8826L68.067 64.9931C67.9814 64.9043 67.9234 64.7922 67.9008 64.6714L65.4405 51.5056C64.3627 45.7396 65.8938 39.8445 69.6415 35.3319C73.3892 30.8193 78.9022 28.2312 84.7683 28.2312C84.9547 28.2312 85.1316 28.3137 85.2505 28.4566C85.3708 28.5995 85.4211 28.7884 85.3884 28.9716L79.001 64.667C78.9972 64.6877 78.9921 64.7085 78.9871 64.7287L76.7327 72.6182C76.6704 72.8347 76.4979 73.0015 76.2788 73.0557C76.2291 73.0683 76.1781 73.0746 76.1271 73.0746ZM69.1045 64.2546L75.8224 71.2218L77.7677 64.4132L84.0141 29.5054C78.8078 29.7169 73.9571 32.1067 70.611 36.1364C67.1038 40.3601 65.6703 45.8774 66.6789 51.2746L69.1045 64.2546Z" fill="#2E1E00"/>
<path d="M151.23 64.5562L153.689 51.3905C155.879 39.6803 146.893 28.8608 134.98 28.8608L141.368 64.5562L143.622 72.4457L151.23 64.5562Z" fill="#2E1E00"/>
<path d="M143.622 73.0747C143.571 73.0747 143.52 73.0684 143.47 73.0558C143.251 73.0017 143.079 72.8342 143.017 72.6183L140.762 64.7288C140.757 64.708 140.751 64.6872 140.748 64.6665L134.361 28.9717C134.328 28.7879 134.377 28.599 134.498 28.4567C134.617 28.3138 134.795 28.2307 134.98 28.2307C140.846 28.2307 146.36 30.8188 150.107 35.3314C153.854 39.844 155.386 45.7391 154.309 51.5058L151.848 64.6715C151.826 64.7924 151.767 64.9038 151.682 64.9926L144.076 72.8821C143.955 73.0067 143.792 73.0747 143.622 73.0747ZM141.982 64.414L143.927 71.222L150.646 64.2547L153.071 51.2747C154.08 45.8782 152.646 40.3602 149.139 36.1366C145.793 32.1068 140.942 29.7171 135.737 29.5062L141.982 64.414ZM151.229 64.5563H151.235H151.229Z" fill="#2E1E00"/>
<path d="M144.5 36.6251C144.5 56.408 128.463 72.4445 108.681 72.4445C88.8984 72.4445 72.8613 56.408 72.8613 36.6251C72.8613 16.8422 88.899 0.805664 108.681 0.805664C128.463 0.805664 144.5 16.8428 144.5 36.6251Z" fill="#2E1E00"/>
<path d="M108.68 73.0746C88.5821 73.0746 72.2314 56.7233 72.2314 36.625C72.2314 16.5273 88.5827 0.176025 108.68 0.176025C128.778 0.176025 145.129 16.5273 145.129 36.625C145.129 56.7233 128.779 73.0746 108.68 73.0746ZM108.68 1.43512C89.2765 1.43512 73.4905 17.2217 73.4905 36.625C73.4905 56.0289 89.2765 71.8155 108.68 71.8155C128.084 71.8155 143.87 56.0289 143.87 36.625C143.87 17.2217 128.084 1.43512 108.68 1.43512Z" fill="#2E1E00"/>
<path d="M162.034 76.857C162.034 83.6561 156.526 89.1646 149.733 89.1646C148.625 89.1646 147.548 89.0198 146.522 88.7365L146.389 90.1027L144.003 100.389C140.56 115.266 127.314 125.798 112.041 125.798C104.738 125.798 97.8827 123.387 92.3364 119.219C86.7964 115.058 82.5652 109.14 80.5324 102.127L76.5032 88.2266L76.2577 86.4261C74.1424 88.1385 71.4473 89.1646 68.5205 89.1646C61.7214 89.1646 56.2129 83.6561 56.2129 76.857C56.2129 70.0641 61.7214 64.5556 68.5205 64.5556C70.2952 64.5556 71.9768 64.9333 73.5003 65.6132V49.5094C73.5003 29.389 89.805 13.0774 109.925 13.0774C119.148 13.0774 127.641 16.5273 134.106 22.2625C140.572 27.9977 145.004 36.0181 146.099 45.1781L148.429 64.6248C148.857 64.5808 149.291 64.5556 149.732 64.5556C156.526 64.5556 162.034 70.0641 162.034 76.857Z" fill="#FFF3E9"/>
<path d="M112.041 126.428C104.74 126.428 97.7957 124.109 91.9585 119.722C86.1207 115.337 81.96 109.313 79.9278 102.302L75.8987 88.4017C75.8905 88.3721 75.8843 88.3419 75.8799 88.311L75.7785 87.565C73.6456 89.0086 71.1085 89.7942 68.5217 89.7942C61.3883 89.7942 55.5845 83.9904 55.5845 76.8564C55.5845 69.7267 61.3883 63.9261 68.5217 63.9261C70.0213 63.9261 71.4799 64.1798 72.8718 64.6815V49.5088C72.8718 29.073 89.4938 12.4473 109.926 12.4473C118.997 12.4473 127.733 15.7656 134.525 21.791C141.315 27.8139 145.648 36.0925 146.725 45.1026L148.982 63.9481C149.237 63.933 149.488 63.9255 149.733 63.9255C156.863 63.9255 162.664 69.7261 162.664 76.8558C162.664 83.9898 156.863 89.7936 149.733 89.7936C148.829 89.7936 147.94 89.7011 147.079 89.5191L147.016 90.1625C147.013 90.1902 147.009 90.2173 147.003 90.2444L144.617 100.531C141.087 115.779 127.692 126.428 112.041 126.428ZM77.1207 88.0957L81.1378 101.951C83.0932 108.699 87.0971 114.496 92.7152 118.716C98.3321 122.937 105.016 125.169 112.042 125.169C127.102 125.169 139.994 114.92 143.391 100.247L145.767 90.0007L145.896 88.6755C145.913 88.4904 146.013 88.323 146.166 88.2178C146.319 88.1121 146.51 88.08 146.69 88.1297C147.664 88.3985 148.688 88.5351 149.733 88.5351C156.169 88.5351 161.405 83.296 161.405 76.8564C161.405 70.4211 156.169 65.1852 149.733 65.1852C149.334 65.1852 148.917 65.2072 148.494 65.2507C148.153 65.2872 147.845 65.0404 147.804 64.6992L145.475 45.253C144.435 36.5489 140.248 28.5511 133.689 22.7335C127.127 16.9127 118.687 13.707 109.925 13.707C90.1876 13.707 74.1303 29.768 74.1303 49.5094V65.6133C74.1303 65.8261 74.0221 66.025 73.8433 66.1408C73.6645 66.2573 73.4372 66.2743 73.2446 66.1881C71.7538 65.5226 70.1642 65.1852 68.521 65.1852C62.0814 65.1852 56.843 70.4211 56.843 76.8564C56.843 83.296 62.0808 88.5351 68.521 88.5351C71.1847 88.5351 73.7922 87.6122 75.8622 85.9364C76.0378 85.7941 76.2784 85.7569 76.4899 85.8407C76.7014 85.9244 76.8506 86.1158 76.8821 86.3412L77.1207 88.0957Z" fill="#2E1E00"/>
<path d="M72.8605 77.6402H62.6398C62.2917 77.6402 62.0103 77.3582 62.0103 77.0107C62.0103 76.6631 62.2917 76.3811 62.6398 76.3811H72.8605C73.2087 76.3811 73.4901 76.6631 73.4901 77.0107C73.4901 77.3582 73.2087 77.6402 72.8605 77.6402Z" fill="#2E1E00"/>
<path d="M156.59 77.6402H146.37C146.022 77.6402 145.74 77.3582 145.74 77.0107C145.74 76.6631 146.022 76.3811 146.37 76.3811H156.59C156.939 76.3811 157.22 76.6631 157.22 77.0107C157.22 77.3582 156.939 77.6402 156.59 77.6402Z" fill="#2E1E00"/>
<path d="M95.8115 87.8911H130.31C130.31 87.8911 126.595 98.7716 113.061 99.3023C99.5271 99.833 95.8115 87.8911 95.8115 87.8911Z" fill="#FFF3E9"/>
<path d="M112.199 99.9483C99.0571 99.9483 95.2484 88.199 95.2106 88.0775C95.1514 87.8868 95.1854 87.6784 95.3044 87.5172C95.4228 87.356 95.6109 87.261 95.8118 87.261H130.31C130.514 87.261 130.705 87.3592 130.823 87.5241C130.941 87.6897 130.972 87.9019 130.907 88.0939C130.868 88.2066 126.892 99.3899 113.085 99.9307C112.786 99.9432 112.489 99.9483 112.199 99.9483ZM96.719 88.5201C97.8163 91.1541 102.062 99.0927 113.036 98.6728C123.804 98.2504 128.171 91.0112 129.358 88.5201H96.719Z" fill="#2E1E00"/>
<path d="M114.653 77.6401H110.673C110.325 77.6401 110.043 77.3581 110.043 77.0106V67.4572C110.043 67.109 110.325 66.8276 110.673 66.8276C111.021 66.8276 111.303 67.109 111.303 67.4572V76.381H114.653C115.001 76.381 115.283 76.6631 115.283 77.0106C115.283 77.3581 115.001 77.6401 114.653 77.6401Z" fill="#2E1E00"/>
<path d="M90.0007 71.2607C85.835 71.2607 82.3794 69.9664 79.7183 67.4073C74.0347 61.9403 73.9895 52.7187 73.9907 52.329C73.9907 51.9815 74.2728 51.7007 74.6203 51.7007H105.267C105.438 51.7007 105.603 51.7712 105.722 51.8958C105.84 52.0199 105.904 52.1873 105.896 52.3592C105.887 52.5418 104.911 70.6652 90.8557 71.2438C90.568 71.2551 90.2828 71.2607 90.0007 71.2607ZM75.2718 52.9598C75.3895 55.099 76.1154 62.199 80.5953 66.5039C83.179 68.9862 86.6144 70.1553 90.804 69.9847C102.24 69.5138 104.266 56.1126 104.584 52.9598H75.2718ZM105.267 52.9598H105.273H105.267Z" fill="#2E1E00"/>
<path d="M132.066 71.2609C131.784 71.2609 131.499 71.2552 131.21 71.2433C117.156 70.6647 116.179 52.5413 116.171 52.3587C116.163 52.1868 116.227 52.0194 116.344 51.8954C116.463 51.7713 116.628 51.7002 116.8 51.7002H147.446C147.793 51.7002 148.075 51.981 148.076 52.3285C148.077 52.7182 148.032 61.9398 142.348 67.4068C139.687 69.9666 136.231 71.2609 132.066 71.2609ZM117.483 52.9599C117.801 56.1127 119.826 69.5139 131.262 69.9848C135.452 70.156 138.887 68.987 141.471 66.504C145.951 62.1992 146.678 55.0991 146.794 52.9599H117.483Z" fill="#2E1E00"/>
<path d="M117.873 58.9564H104.192C103.844 58.9564 103.562 58.6743 103.562 58.3268C103.562 57.9793 103.844 57.6973 104.192 57.6973H117.873C118.222 57.6973 118.503 57.9793 118.503 58.3268C118.503 58.6743 118.222 58.9564 117.873 58.9564Z" fill="#2E1E00"/>
<path d="M84.4346 61.7177C84.1947 61.7177 83.9655 61.5798 83.8604 61.3475C83.7168 61.0302 83.8579 60.6575 84.1745 60.514C84.4238 60.4006 90.3461 57.7767 94.8813 60.5505C95.1778 60.7324 95.2716 61.1196 95.0903 61.4161C94.909 61.7126 94.5212 61.8064 94.2246 61.6251C90.2522 59.1957 84.7481 61.6377 84.6934 61.6616C84.6084 61.6994 84.5209 61.7177 84.4346 61.7177Z" fill="#2E1E00"/>
<path d="M126.614 61.7177C126.374 61.7177 126.145 61.5798 126.04 61.3475C125.897 61.0302 126.038 60.6575 126.354 60.514C126.604 60.4006 132.526 57.7767 137.061 60.5505C137.358 60.7324 137.451 61.1196 137.27 61.4161C137.089 61.7126 136.701 61.8064 136.404 61.6251C132.432 59.1957 126.928 61.6377 126.873 61.6616C126.788 61.6994 126.701 61.7177 126.614 61.7177Z" fill="#2E1E00"/>
<path d="M91.7466 46.5027C88.964 48.4096 85.9012 48.7772 84.9053 47.3242C83.9093 45.8712 85.3579 43.1472 88.1399 41.2403C90.9225 39.3334 93.9858 38.9657 94.9818 40.4187C95.9777 41.8717 94.5292 44.5964 91.7466 46.5027Z" fill="#2E1E00"/>
<path d="M129.869 46.5027C132.652 48.4096 135.715 48.7772 136.711 47.3242C137.707 45.8712 136.258 43.1472 133.476 41.2403C130.694 39.3334 127.63 38.9657 126.634 40.4187C125.638 41.8717 127.087 44.5964 129.869 46.5027Z" fill="#2E1E00"/>
</svg>
