<svg width="225" height="259" viewBox="0 0 225 259" fill="none" xmlns="http://www.w3.org/2000/svg">
<path d="M223.8 35.8844H1.08008V258.174H223.8V35.8844Z" fill="#ADF0E7"/>
<path d="M223.8 35.8844H1.08008V258.174H223.8V35.8844Z" stroke="#2E1E00" stroke-miterlimit="10" stroke-linecap="round" stroke-linejoin="round"/>
<path d="M223.799 249.079C222.145 217.699 203.509 193.696 184.042 176.997C184.033 176.989 184.023 176.981 184.014 176.973C179.996 165.353 165.647 122.625 165.206 103.728C164.698 81.7421 158.865 -7.22537 112.44 3.50664C91.5898 -6.22903 70.5279 16.6069 62.7256 33.7864C54.5944 51.6884 53.8336 72.7659 58.3792 91.5504C61.9364 106.25 62.9133 121.812 54.0644 134.915C43.3136 150.838 36.0576 162.309 35.676 177.609C5.18013 205.852 1.32801 243.252 1.0918 258.176H223.8C223.963 255.076 223.957 252.047 223.799 249.079Z" fill="#FEDB4B" stroke="black" stroke-miterlimit="10"/>
</svg>
