<svg width="221" height="258" viewBox="0 0 221 258" fill="none" xmlns="http://www.w3.org/2000/svg">
<path d="M219.529 38.8273H1.35254V256.583H219.529V38.8273Z" fill="#FFDC38"/>
<path d="M219.529 257.176H1.3526C1.02449 257.176 0.759277 256.91 0.759277 256.583V38.8273C0.759277 38.4998 1.02449 38.234 1.3526 38.234H219.529C219.857 38.234 220.123 38.4998 220.123 38.8273V256.583C220.123 256.91 219.857 257.176 219.529 257.176ZM1.94592 255.989H218.936V39.4207H1.94592V255.989Z" fill="#2E1E00"/>
<path d="M219.53 256.58H1.36523C1.6441 238.899 7.10859 189.019 57.6538 161.738C65.9781 157.246 75.5187 153.366 86.4655 150.346C88.287 149.841 90.1441 149.361 92.0427 148.91H135.676C135.676 148.91 144.7 152.582 156.84 159.946C180.911 174.566 217.216 203.733 219.53 247.669C219.684 250.576 219.69 253.543 219.53 256.58Z" fill="#ADF0E7"/>
<path d="M219.53 257.174H1.36487C1.20586 257.174 1.05337 257.11 0.941827 256.997C0.830282 256.883 0.769178 256.73 0.771551 256.57C0.906829 247.98 2.30112 230.835 10.114 212.526C19.606 190.281 35.5052 173.017 57.3716 161.215C66.0762 156.519 75.812 152.67 86.3073 149.774C88.1882 149.253 90.072 148.769 91.9053 148.333C91.9504 148.323 91.9961 148.317 92.0424 148.317H135.675C135.752 148.317 135.828 148.331 135.899 148.361C135.99 148.397 145.107 152.135 157.147 159.438C168.146 166.119 183.952 177.264 196.796 192.43C211.243 209.489 219.091 228.063 220.122 247.637C220.28 250.607 220.28 253.626 220.122 256.612C220.106 256.926 219.845 257.174 219.53 257.174ZM1.96946 255.987H218.965C219.092 253.227 219.083 250.441 218.938 247.699C217.921 228.39 210.166 210.054 195.89 193.197C183.149 178.153 167.454 167.087 156.531 160.452C145.269 153.622 136.605 149.941 135.557 149.503H92.1118C90.314 149.932 88.4676 150.407 86.6236 150.918C76.2131 153.79 66.5615 157.606 57.9352 162.26C36.3116 173.932 20.5891 191 11.2051 212.992C3.65033 230.697 2.15932 247.302 1.96946 255.987Z" fill="#2E1E00"/>
<path d="M159.078 161.326C152.231 171.763 136.895 183.995 112.108 185.47C80.9768 187.323 64.2451 170.809 57.6533 161.737C65.9776 157.246 75.5183 153.366 86.4651 150.345C88.2866 149.841 90.1437 149.361 92.0423 148.91H135.675C135.675 148.911 146.938 153.963 159.078 161.326Z" fill="#73B7EA"/>
<path d="M107.364 186.207C77.9988 186.207 62.5938 169.545 57.1743 162.086C57.0735 161.949 57.0379 161.773 57.0759 161.606C57.1139 161.439 57.2218 161.297 57.3725 161.215C66.0772 156.519 75.8124 152.669 86.3083 149.774C88.1891 149.254 90.0723 148.769 91.9063 148.333C91.9508 148.323 91.9971 148.317 92.0434 148.317H135.676C135.76 148.317 135.843 148.334 135.919 148.369C136.032 148.419 147.355 153.522 159.386 160.819C159.524 160.902 159.622 161.038 159.657 161.195C159.693 161.353 159.663 161.517 159.575 161.652C156.117 166.923 142.479 184.258 112.145 186.063C110.513 186.16 108.917 186.207 107.364 186.207ZM58.5384 161.937C64.493 169.89 80.9186 186.734 112.074 184.878C140.935 183.161 154.36 167.19 158.24 161.513C147.121 154.816 136.749 150.05 135.548 149.503H92.1128C90.315 149.932 88.4686 150.407 86.6245 150.918C76.4556 153.723 67.0105 157.429 58.5384 161.937Z" fill="#2E1E00"/>
<path d="M127.099 162.033C112.991 169.298 100.403 165.817 92.7169 161.985C87.8944 159.58 84.8696 154.633 84.8696 149.244V97.3147L132.952 101.824L133.374 113.388L134.662 148.92C134.86 154.378 131.956 159.532 127.099 162.033Z" fill="#FFF3E9"/>
<path d="M110.161 166.879C103.16 166.879 97.0715 164.819 92.4518 162.516C87.4086 160.002 84.2759 154.916 84.2759 149.244V97.3159C84.2759 97.1492 84.3465 96.9895 84.4699 96.8774C84.5933 96.7647 84.7583 96.7083 84.9244 96.7249L133.007 101.234C133.304 101.262 133.534 101.505 133.545 101.803L135.254 148.898C135.462 154.624 132.368 159.987 127.371 162.561L127.099 162.033L127.371 162.561C121.273 165.7 115.456 166.879 110.161 166.879ZM85.4631 97.9662V149.243C85.4631 154.463 88.3443 159.141 92.9817 161.453C100.85 165.376 113.108 168.57 126.828 161.504C131.418 159.141 134.26 154.209 134.069 148.941L132.379 102.366L85.4631 97.9662Z" fill="#2E1E00"/>
<path d="M74.3479 69.7666C74.3479 69.7666 54.3126 29.1952 74.3479 24.6871C74.3479 24.6871 70.3413 4.653 89.3733 9.66064C89.7945 9.7716 93.5105 6.47095 94.0083 6.15887C98.1669 3.55121 102.893 1.80862 107.753 1.11443C123.968 -1.20072 141.012 8.43661 150.483 21.2322C160.457 34.7084 160.308 50.2582 155.939 65.7593C155.939 65.7611 152.986 76.2362 152.986 76.2362L74.3479 69.7666Z" fill="#2E1E00"/>
<path d="M152.987 76.829C152.971 76.829 152.955 76.8285 152.938 76.8273L74.3001 70.3576C74.0924 70.3404 73.9085 70.2164 73.8165 70.0295C73.7833 69.9613 70.4387 63.1547 67.8679 54.9164C64.3892 43.7679 63.9045 35.4353 66.4285 30.1493C67.8726 27.1234 70.3076 25.1388 73.6699 24.2428C73.3454 22.1318 72.5604 14.7099 76.7813 10.7353C79.5112 8.16498 83.747 7.59658 89.3711 9.04666C89.895 8.77017 91.5592 7.38832 92.384 6.70422C93.1179 6.09488 93.5101 5.77091 93.6934 5.6558C97.9256 3.00246 102.758 1.22903 107.67 0.527129C115.452 -0.584165 123.834 0.954313 131.912 4.97585C139.342 8.67463 146.107 14.3225 150.96 20.8793C159.851 32.8923 161.667 47.6251 156.511 65.9208C156.491 65.9902 153.558 76.3971 153.558 76.3971C153.486 76.654 153.251 76.829 152.987 76.829ZM74.7356 69.203L152.548 75.605C155.372 65.5873 155.372 65.5868 155.377 65.5719C160.418 47.6803 158.665 33.2833 150.006 21.5853C139.796 7.79059 122.456 -0.384227 107.838 1.7019C103.089 2.38006 98.4163 4.09537 94.3235 6.66149C94.1983 6.73981 93.6371 7.20617 93.1416 7.61734C90.1341 10.114 89.6873 10.3555 89.2227 10.2345C83.9445 8.84553 80.0333 9.30355 77.5972 11.5967C73.2267 15.7097 74.913 24.4831 74.9302 24.5709C74.9931 24.8872 74.7937 25.1957 74.4787 25.2663C71.2047 26.0026 68.8563 27.8176 67.4994 30.6596C62.0972 41.9749 73.3134 66.2198 74.7356 69.203Z" fill="#2E1E00"/>
<path d="M163.253 76.9043C163.253 83.6148 157.812 89.0497 151.102 89.0497C148.551 89.0497 146.183 88.2665 144.231 86.9196C142.79 96.4781 139.129 106.149 133.374 113.388C127.387 120.911 119.134 125.812 108.733 125.236C103.162 124.928 98.5751 122.721 94.7719 119.357C92.4342 117.304 90.3932 114.806 88.6073 112.047C87.4919 110.326 86.1688 108.19 84.8694 105.847C82.8877 102.293 80.9475 98.2693 79.8321 94.526L79.8261 94.5201C79.2209 92.4909 78.8531 90.5448 78.8531 88.8005V88.0291C77.3579 88.6877 75.7085 89.0497 73.97 89.0497C67.2655 89.0497 61.8247 83.6148 61.8247 76.9043C61.8247 70.1938 67.2655 64.759 73.97 64.759C75.7085 64.759 77.3579 65.1209 78.8531 65.7795V65.7617L89.7524 32.2034C90.7195 29.2131 93.5081 27.1898 96.6468 27.1898C98.6523 27.1898 100.462 28.0027 101.773 29.3139C103.084 30.6252 103.897 32.4407 103.897 34.4402V38.9079C103.897 40.8125 105.292 42.4323 107.172 42.7171C107.368 42.7467 107.57 42.7645 107.766 42.7645C109.421 42.7645 110.922 41.6906 111.432 40.0649L113.266 34.2682C113.646 33.0696 114.82 32.2983 116.078 32.4407C116.749 32.5119 117.33 32.8323 117.751 33.301C118.173 33.7698 118.428 34.3868 118.428 35.0632V40.6998C118.428 42.4204 119.721 43.8622 121.43 44.052C121.555 44.0639 121.679 44.0758 121.81 44.0758C122.634 44.0758 123.435 43.7732 124.058 43.2095L125.554 41.8686C127.642 39.9937 130.591 39.4182 133.225 40.3735C134.394 40.7947 135.426 41.4889 136.245 42.373C137.064 43.263 137.669 44.3428 137.995 45.5472L143.472 65.7617C143.596 66.2245 143.715 66.6992 143.822 67.1798C145.851 65.6609 148.373 64.759 151.102 64.759C157.812 64.7596 163.253 70.1938 163.253 76.9043Z" fill="#FFF3E9"/>
<path d="M110.363 125.875C109.812 125.875 109.258 125.859 108.7 125.829C103.386 125.534 98.568 123.506 94.3791 119.801C92.1363 117.832 90.0265 115.331 88.1094 112.369C86.7258 110.235 85.4608 108.137 84.3507 106.134C81.9715 101.868 80.2657 98.0374 79.2796 94.7498C79.2713 94.7302 79.2636 94.71 79.2577 94.6898C78.6092 92.5153 78.2739 90.5692 78.2603 88.9044C76.8915 89.395 75.4521 89.643 73.97 89.643C66.9462 89.643 61.2319 83.9287 61.2319 76.9044C61.2319 69.8806 66.9462 64.1658 73.97 64.1658C75.5322 64.1658 77.0463 64.4417 78.481 64.9863L89.1881 32.0201C90.2371 28.7764 93.2346 26.5966 96.6468 26.5966C98.7412 26.5966 100.711 27.4124 102.193 28.8945C103.675 30.376 104.491 32.3459 104.491 34.4403V38.908C104.491 40.5058 105.682 41.8918 107.261 42.1309C107.439 42.1576 107.61 42.1713 107.766 42.1713C109.192 42.1713 110.438 41.2534 110.866 39.8876L112.7 34.089C113.166 32.6194 114.615 31.6802 116.145 31.851C116.929 31.9347 117.658 32.3085 118.193 32.9048C118.727 33.4993 119.021 34.2659 119.021 35.0633V40.6999C119.021 42.1179 120.085 43.3057 121.496 43.4629C121.592 43.4718 121.699 43.4825 121.81 43.4825C122.495 43.4825 123.152 43.2298 123.66 42.77L125.158 41.4273C127.414 39.4023 130.582 38.784 133.427 39.8158C134.663 40.2608 135.788 41.006 136.681 41.9702C137.572 42.939 138.224 44.1221 138.569 45.3924L144.045 65.607C144.097 65.8016 144.148 65.9974 144.198 66.1955C146.256 64.8653 148.625 64.1658 151.102 64.1658C158.129 64.1658 163.847 69.8806 163.847 76.9044C163.847 83.9287 158.129 89.643 151.102 89.643C148.819 89.643 146.616 89.0456 144.676 87.9064C143.036 97.857 139.205 107.008 133.838 113.757C127.51 121.71 119.423 125.875 110.363 125.875ZM80.3791 94.2971C80.3874 94.3166 80.3945 94.3368 80.401 94.357C81.3592 97.5728 83.0371 101.342 85.3879 105.558C86.4855 107.538 87.7362 109.612 89.105 111.724C90.9627 114.594 93.0014 117.012 95.1635 118.911C99.1494 122.437 103.725 124.365 108.765 124.644C118.098 125.158 126.447 121.141 132.909 113.019C138.309 106.226 142.122 96.9267 143.644 86.8313C143.675 86.629 143.808 86.4569 143.996 86.3756C144.184 86.2943 144.4 86.3157 144.568 86.4314C146.488 87.7563 148.748 88.4564 151.102 88.4564C157.475 88.4564 162.66 83.2743 162.66 76.9044C162.66 70.5345 157.475 65.3524 151.102 65.3524C148.584 65.3524 146.19 66.1486 144.177 67.6551C144.016 67.7761 143.805 67.8064 143.616 67.7364C143.427 67.6664 143.286 67.505 143.243 67.3086C143.138 66.8369 143.021 66.3706 142.899 65.9161L137.423 45.7028C137.129 44.6152 136.57 43.603 135.808 42.7753C135.046 41.9512 134.082 41.3133 133.024 40.9318C130.59 40.049 127.88 40.5782 125.95 42.3101L124.455 43.6516C123.73 44.3072 122.79 44.6692 121.81 44.6692C121.66 44.6692 121.516 44.6567 121.374 44.6431C119.352 44.4182 117.834 42.7237 117.834 40.6999V35.0633C117.834 34.559 117.648 34.0742 117.31 33.698C116.971 33.3207 116.511 33.0834 116.016 33.0312C115.047 32.9172 114.126 33.5171 113.831 34.4474L111.998 40.2442C111.414 42.106 109.713 43.3579 107.766 43.3579C107.55 43.3579 107.321 43.3395 107.084 43.3039C104.929 42.9776 103.304 41.0879 103.304 38.908V34.4403C103.304 32.6627 102.611 30.9913 101.354 29.7334C100.096 28.4756 98.4244 27.7832 96.6468 27.7832C93.7513 27.7832 91.2072 29.6332 90.3172 32.3862L79.4244 65.9232C79.3864 66.0632 79.2992 66.1884 79.1776 66.2679C79.0091 66.3771 78.7972 66.4026 78.6139 66.3225C77.1525 65.6793 75.5903 65.3524 73.97 65.3524C67.6001 65.3524 62.4186 70.5345 62.4186 76.9044C62.4186 83.2743 67.6001 88.4564 73.97 88.4564C75.5903 88.4564 77.1531 88.1301 78.6139 87.4863C78.7978 87.4056 79.0091 87.4228 79.1776 87.5326C79.3449 87.6418 79.4463 87.8286 79.4463 88.0292V88.8005C79.4463 90.3604 79.7602 92.2092 80.3791 94.2971Z" fill="#2E1E00"/>
<path d="M109.395 81.8385C108.558 81.8385 107.759 81.4807 107.202 80.8578C106.644 80.2342 106.378 79.4 106.471 78.5687L108.4 61.3855C108.436 61.0598 108.737 60.8254 109.056 60.8622C109.382 60.899 109.616 61.1921 109.579 61.5178L107.65 78.7004C107.595 79.1965 107.754 79.6943 108.086 80.0669C108.419 80.4389 108.896 80.6519 109.395 80.6519C109.722 80.6519 109.988 80.9177 109.988 81.2452C109.988 81.5721 109.722 81.8385 109.395 81.8385Z" fill="#2E1E00"/>
<path d="M107.698 98.4871C102.511 98.4871 98.4062 96.4046 98.1493 96.2711C97.8586 96.1204 97.7453 95.7626 97.8954 95.4718C98.0461 95.1811 98.4033 95.0666 98.6952 95.2173C98.7854 95.2642 107.765 99.8049 115.633 95.2315C115.917 95.0666 116.28 95.1627 116.444 95.4463C116.609 95.7299 116.513 96.0925 116.23 96.2574C113.352 97.93 110.38 98.4871 107.698 98.4871Z" fill="#2E1E00"/>
<path d="M108.221 106.14C103.772 106.14 100.179 103.842 99.9626 103.701C99.6879 103.522 99.6108 103.155 99.79 102.881C99.968 102.606 100.335 102.528 100.611 102.707C100.682 102.754 107.832 107.309 114.051 103.226C114.326 103.046 114.693 103.123 114.873 103.396C115.053 103.67 114.976 104.038 114.703 104.218C112.525 105.647 110.282 106.14 108.221 106.14Z" fill="#2E1E00"/>
<path d="M104.646 87.7515L91.3078 90.9477C87.5972 91.8371 86.0397 96.2585 88.3738 99.2774C90.4071 101.907 94.3409 102.013 96.513 99.4969L105.476 89.1149C106.008 88.4985 105.438 87.5616 104.646 87.7515Z" fill="#2E1E00"/>
<path d="M110.948 88.2694L124.286 91.4657C127.997 92.3551 129.554 96.7765 127.22 99.7953C125.187 102.425 121.253 102.531 119.081 100.015L110.118 89.6329C109.586 89.0164 110.156 88.0796 110.948 88.2694Z" fill="#2E1E00"/>
<path d="M77.5297 76.829H67.8912C67.5637 76.829 67.2979 76.5632 67.2979 76.2357C67.2979 75.9081 67.5637 75.6423 67.8912 75.6423H77.5297C77.8572 75.6423 78.123 75.9081 78.123 76.2357C78.123 76.5638 77.8572 76.829 77.5297 76.829Z" fill="#2E1E00"/>
<path d="M156.442 76.829H146.803C146.476 76.829 146.21 76.5632 146.21 76.2357C146.21 75.9081 146.476 75.6423 146.803 75.6423H156.442C156.769 75.6423 157.035 75.9081 157.035 76.2357C157.035 76.5638 156.769 76.829 156.442 76.829Z" fill="#2E1E00"/>
<path d="M94.5697 54.9954C91.9472 56.7926 89.0607 57.1391 88.122 55.7697C87.1834 54.4003 88.5486 51.833 91.1711 50.0358C93.7936 48.2386 96.6801 47.8921 97.6187 49.2615C98.5574 50.6315 97.1927 53.1988 94.5697 54.9954Z" fill="#2E1E00"/>
<path d="M127.428 56.9023C130.051 58.6994 132.937 59.0459 133.876 57.6765C134.815 56.3072 133.449 53.7398 130.827 51.9427C128.205 50.1455 125.318 49.799 124.379 51.1684C123.441 52.5378 124.806 55.1051 127.428 56.9023Z" fill="#2E1E00"/>
<path d="M95.3184 63.8364C95.3184 64.9139 94.4444 65.7879 93.367 65.7879C92.2895 65.7879 91.4155 64.9139 91.4155 63.8364C91.4155 62.759 92.2895 61.885 93.367 61.885C94.4444 61.885 95.3184 62.759 95.3184 63.8364Z" fill="#2E1E00"/>
<path d="M126.585 64.8084C126.585 65.8858 125.712 66.7598 124.634 66.7598C123.556 66.7598 122.682 65.8858 122.682 64.8084C122.682 63.7309 123.556 62.8569 124.634 62.8569C125.712 62.8569 126.585 63.7309 126.585 64.8084Z" fill="#2E1E00"/>
<path d="M102.303 113.538C101.975 113.538 101.709 113.273 101.709 112.945V109.487C101.709 109.16 101.975 108.894 102.303 108.894C102.63 108.894 102.896 109.16 102.896 109.487V112.946C102.896 113.273 102.63 113.538 102.303 113.538Z" fill="#2E1E00"/>
<path d="M105.27 121.845C104.942 121.845 104.676 121.579 104.676 121.252V117.794C104.676 117.466 104.942 117.2 105.27 117.2C105.597 117.2 105.863 117.466 105.863 117.794V121.252C105.863 121.58 105.597 121.845 105.27 121.845Z" fill="#2E1E00"/>
<path d="M111.203 122.438C110.875 122.438 110.609 122.173 110.609 121.845V118.387C110.609 118.06 110.875 117.794 111.203 117.794C111.53 117.794 111.796 118.06 111.796 118.387V121.846C111.796 122.173 111.53 122.438 111.203 122.438Z" fill="#2E1E00"/>
<path d="M108.236 113.538C107.908 113.538 107.643 113.273 107.643 112.945V109.487C107.643 109.16 107.908 108.894 108.236 108.894C108.563 108.894 108.829 109.16 108.829 109.487V112.946C108.829 113.273 108.563 113.538 108.236 113.538Z" fill="#2E1E00"/>
<path d="M114.169 113.538C113.842 113.538 113.576 113.273 113.576 112.945V109.487C113.576 109.16 113.842 108.894 114.169 108.894C114.497 108.894 114.763 109.16 114.763 109.487V112.946C114.763 113.273 114.497 113.538 114.169 113.538Z" fill="#2E1E00"/>
<path d="M94.7722 119.357L84.8696 128.441V105.847C86.169 108.191 87.4921 110.327 88.6076 112.048C90.394 114.806 92.4351 117.304 94.7722 119.357Z" fill="#2E1E00"/>
</svg>
