<svg width="231" height="258" viewBox="0 0 231 258" fill="none" xmlns="http://www.w3.org/2000/svg">
<path d="M229.833 28.2092H1.0459V256.554H229.833V28.2092Z" fill="#ADF0E7"/>
<path d="M229.832 257.176H1.046C0.702563 257.176 0.423828 256.897 0.423828 256.554V28.2091C0.423828 27.8656 0.702563 27.5869 1.046 27.5869H229.833C230.177 27.5869 230.455 27.8656 230.455 28.2091V256.554C230.455 256.897 230.176 257.176 229.832 257.176ZM1.66818 255.932H229.211V28.8313H1.66818V255.932Z" fill="#2E1E00"/>
<path d="M229.831 256.554H1.05713C1.34333 238.349 6.87448 187.611 57.2209 158.692C66.6033 153.304 77.5412 148.675 90.2958 145.153C92.2059 144.625 94.1533 144.121 96.1443 143.648H141.899C141.899 143.648 158.044 150.212 176.504 163.402C200.228 180.35 227.778 208.242 229.831 247.209C229.992 250.257 229.999 253.368 229.831 256.554Z" fill="#FFDC38"/>
<path d="M229.831 257.176H1.0573C0.889939 257.176 0.730654 257.109 0.613685 256.991C0.496716 256.872 0.43264 256.711 0.435128 256.544C0.573251 247.769 1.97194 230.237 9.79207 211.402C19.2647 188.586 35.1177 170.67 56.9106 158.152C66.7634 152.494 77.9408 147.919 90.1305 144.554C92.1046 144.007 94.08 143.499 96.0007 143.042C96.048 143.032 96.0959 143.026 96.1444 143.026H141.899C141.979 143.026 142.059 143.041 142.134 143.072C142.296 143.138 158.558 149.814 176.866 162.896C200.163 179.539 228.37 207.671 230.453 247.176C230.618 250.287 230.618 253.454 230.453 256.587C230.435 256.917 230.162 257.176 229.831 257.176ZM1.69072 255.932H229.238C229.372 253.035 229.362 250.114 229.209 247.242C227.153 208.231 199.217 180.392 176.143 163.908C158.744 151.477 143.233 144.878 141.775 144.27H96.2166C94.3333 144.718 92.3964 145.217 90.4615 145.753C78.3714 149.09 67.2922 153.626 57.5297 159.231C35.98 171.61 20.3049 189.323 10.94 211.879C3.38426 230.082 1.88484 247.055 1.69072 255.932Z" fill="#2E1E00"/>
<path d="M120.67 153.217L81.2052 194.623L57.2197 158.693C66.6021 153.304 77.54 148.676 90.2946 145.154C92.2047 144.625 94.152 144.121 96.143 143.648H98.4015L120.67 153.217Z" fill="white"/>
<path d="M81.2062 195.245C81.1881 195.245 81.1694 195.244 81.1526 195.242C80.9635 195.226 80.7936 195.125 80.6891 194.968L56.7036 159.037C56.6078 158.894 56.5761 158.717 56.6146 158.55C56.6545 158.382 56.7609 158.238 56.9115 158.152C66.7642 152.494 77.941 147.919 90.1306 144.554C92.1048 144.007 94.0796 143.498 96.0015 143.042C96.0482 143.032 96.0961 143.026 96.1446 143.026H98.4031C98.4871 143.026 98.5717 143.043 98.6495 143.076L120.916 152.645C121.104 152.726 121.24 152.893 121.281 153.092C121.321 153.291 121.262 153.499 121.121 153.646L81.6566 195.052C81.5384 195.176 81.3754 195.245 81.2062 195.245ZM58.1091 158.902L81.292 193.631L119.603 153.435L98.2749 144.27H96.2174C94.334 144.718 92.3978 145.217 90.4622 145.753C78.611 149.025 67.7298 153.448 58.1091 158.902Z" fill="#2E1E00"/>
<path d="M176.505 163.402L149.402 190.66L120.67 157.927L131.11 143.648H141.899C141.899 143.648 158.045 150.212 176.505 163.402Z" fill="white"/>
<path d="M149.401 191.281C149.395 191.281 149.389 191.281 149.383 191.281C149.211 191.276 149.048 191.199 148.933 191.07L120.202 158.337C120.01 158.118 119.995 157.795 120.167 157.56L130.607 143.281C130.724 143.121 130.911 143.026 131.11 143.026H141.898C141.979 143.026 142.058 143.041 142.133 143.072C142.295 143.138 158.558 149.815 176.865 162.896C177.014 163.002 177.109 163.168 177.123 163.35C177.138 163.532 177.074 163.711 176.945 163.841L149.842 191.099C149.727 191.216 149.567 191.281 149.401 191.281ZM121.467 157.891L149.43 189.749L175.546 163.483C158.397 151.331 143.217 144.872 141.775 144.27H131.427L121.467 157.891Z" fill="#2E1E00"/>
<path d="M143.877 118.4V151.233C109.103 175.485 88.2231 151.233 88.2231 151.233V115.955L119.656 117.337L143.877 118.4Z" fill="#DCA88B"/>
<path d="M113.905 162.623C110.289 162.623 106.576 162.109 102.823 160.92C93.1976 157.87 87.9694 151.891 87.7517 151.638C87.6546 151.525 87.6011 151.381 87.6011 151.232V115.955C87.6011 115.785 87.6702 115.622 87.794 115.505C87.9159 115.388 88.0858 115.327 88.2507 115.333L143.904 117.778C144.236 117.793 144.499 118.067 144.499 118.4V151.232C144.499 151.435 144.4 151.626 144.233 151.743C136.548 157.101 125.754 162.623 113.905 162.623ZM88.8454 150.992C89.7638 151.977 94.827 157.097 103.259 159.753C115.491 163.604 129.315 160.545 143.255 150.906V118.995L88.8454 116.605V150.992Z" fill="#2E1E00"/>
<path d="M119.655 117.336L88.2231 150.902V115.955L119.655 117.336Z" fill="#2E1E00"/>
<path d="M72.3296 64.299V40.186C72.3296 37.6861 72.958 35.2266 74.1575 33.0341L82.0735 18.5592C84.5186 14.0895 89.0767 11.1777 94.1605 10.8386L99.7943 10.4628C102.008 10.3154 103.83 8.66472 104.195 6.47591L104.484 4.74502C104.859 2.49025 106.809 0.838375 109.095 0.838375H109.427C111.552 0.838375 113.409 2.27187 113.949 4.32816L114.447 6.23015C114.597 6.80255 115.44 6.69367 115.44 6.1026V5.5134C115.44 2.93137 117.532 0.838375 120.115 0.838375C122.4 0.838375 124.351 2.49025 124.727 4.74502L125.146 7.78186C125.218 8.30511 125.945 8.37914 126.121 7.88078L127.58 3.75949C128.294 1.99375 130.008 0.838375 131.913 0.838375C135.604 0.397874 138.541 3.56599 137.934 6.46969L136.907 11.3892C136.577 12.9689 137.066 14.609 138.207 15.7501L156.225 33.7676C159.02 36.5631 160.591 40.3546 160.591 44.3079V78.3584L72.3296 64.299Z" fill="#2E1E00"/>
<path d="M160.589 78.9806C160.556 78.9806 160.524 78.9781 160.492 78.9725L72.233 64.9138C71.9306 64.8659 71.7085 64.6052 71.7085 64.2997V40.1867C71.7085 37.5904 72.3667 35.0139 73.6123 32.7361L81.5289 18.2612C84.0885 13.58 88.7959 10.573 94.1199 10.2184L99.7543 9.84256C101.689 9.71377 103.263 8.28713 103.582 6.37394L103.87 4.64305C104.298 2.07844 106.496 0.216263 109.095 0.216263H109.427C111.834 0.216263 113.941 1.84263 114.55 4.17019L114.825 5.2198C114.979 2.43494 117.292 0.216263 120.114 0.216263C122.714 0.216263 124.913 2.07844 125.339 4.64305L125.694 7.2176L126.992 3.55237C127.811 1.52719 129.721 0.231195 131.875 0.216263C133.868 -0.0095869 135.854 0.724581 137.192 2.18545C138.35 3.44971 138.856 5.0991 138.542 6.5973L137.515 11.5168C137.227 12.8956 137.649 14.3141 138.645 15.3109L156.663 33.3284C159.596 36.2614 161.211 40.1612 161.211 44.3086V78.3584C161.211 78.5407 161.132 78.7137 160.993 78.8319C160.879 78.9283 160.736 78.9806 160.589 78.9806ZM72.9522 63.7684L159.966 77.6292V44.3086C159.966 40.4934 158.481 36.9066 155.783 34.2082L137.765 16.1906C136.471 14.8959 135.921 13.053 136.297 11.2617L137.324 6.34283C137.555 5.23535 137.162 3.99598 136.273 3.02601C135.198 1.85072 133.596 1.26339 131.985 1.45688C131.961 1.45937 131.937 1.46061 131.912 1.46061C130.253 1.46061 128.778 2.45485 128.155 3.99287L126.706 8.08865C126.53 8.58826 126.056 8.89002 125.53 8.83402C125.003 8.78051 124.601 8.39165 124.528 7.86716L124.109 4.83032C123.785 2.8854 122.104 1.46061 120.114 1.46061C117.879 1.46061 116.061 3.27923 116.061 5.51409V6.10267C116.061 6.67693 115.648 7.14668 115.079 7.2201C114.508 7.29414 113.99 6.94323 113.845 6.38887L113.346 4.48563C112.879 2.70496 111.267 1.46061 109.426 1.46061H109.094C107.105 1.46061 105.423 2.8854 105.096 4.84774L104.808 6.57926C104.393 9.0636 102.349 10.9164 99.8345 11.0838L94.2002 11.4596C89.3036 11.7862 84.9739 14.5518 82.619 18.8585L74.7024 33.3328C73.5564 35.4283 72.9516 37.7982 72.9516 40.1867V63.7684H72.9522Z" fill="#2E1E00"/>
<path d="M170.643 87.1914C170.643 94.8753 164.415 101.109 156.732 101.109C154.61 101.109 152.6 100.637 150.802 99.7842L149.091 113.018C148.338 118.891 144.991 124.118 139.977 127.266L122.849 138.011C119.694 139.989 116.048 141.041 112.321 141.041C109.478 141.041 106.703 140.432 104.171 139.286C101.639 138.141 99.3421 136.461 97.4637 134.327L78.7051 113.056C75.8375 109.802 74.1134 105.696 73.8086 101.365L73.635 98.9076C71.4699 100.307 68.894 101.11 66.131 101.11C58.4471 101.11 52.2197 94.8759 52.2197 87.192C52.2197 79.5081 58.4477 73.2802 66.131 73.2802C68.3583 73.2802 70.4613 73.8028 72.3278 74.7361V69.5409C72.3278 66.9837 72.8256 64.4453 73.7906 62.081L83.0603 39.2845C85.829 32.4717 92.1447 27.7556 99.4609 27.0339L122.245 24.7754C127.993 24.2092 133.705 26.1753 137.88 30.1634L139.255 31.4762C142.571 34.6431 144.686 38.8676 145.234 43.422L147.019 58.1115C147.337 60.7744 148.202 63.3502 149.552 65.671L151.057 68.2717C152.053 69.9826 152.781 71.8243 153.222 73.7288C154.342 73.4363 155.518 73.2808 156.732 73.2808C164.415 73.2802 170.643 79.5075 170.643 87.1914Z" fill="#DCA88B"/>
<path d="M112.32 141.663C109.399 141.663 106.57 141.054 103.913 139.853C101.252 138.65 98.9236 136.929 96.9955 134.739L78.2376 113.467C75.2935 110.126 73.4997 105.844 73.1874 101.409L73.0847 99.9585C70.9656 101.121 68.582 101.732 66.1294 101.732C58.1158 101.732 51.5967 95.2088 51.5967 87.1915C51.5967 79.1772 58.1164 72.6574 66.1294 72.6574C68.0725 72.6574 69.9434 73.0301 71.7048 73.7662V69.5403C71.7048 66.8874 72.2118 64.2985 73.2135 61.8453L82.4833 39.0494C85.3472 32.0026 91.829 27.1609 99.399 26.4142L122.182 24.1557C128.12 23.5715 133.998 25.5961 138.309 29.713L139.684 31.0258C143.097 34.286 145.288 38.6611 145.851 43.3474L147.637 58.0363C147.945 60.6289 148.77 63.0915 150.088 65.3575L151.595 67.9594C152.512 69.536 153.212 71.2227 153.676 72.9797C154.676 72.7657 155.7 72.6574 156.731 72.6574C164.744 72.6574 171.265 79.1772 171.265 87.1915C171.265 95.2088 164.744 101.732 156.731 101.732C154.847 101.732 153.027 101.381 151.311 100.688L149.707 113.098C148.929 119.174 145.502 124.531 140.306 127.793L123.178 138.538C119.918 140.582 116.163 141.663 112.32 141.663ZM73.6341 98.2849C73.7287 98.2849 73.8245 98.3066 73.9122 98.3502C74.1082 98.4485 74.2389 98.6439 74.2551 98.8629L74.4286 101.32C74.7223 105.486 76.4065 109.507 79.1709 112.644L97.9295 133.916C99.7406 135.973 101.927 137.589 104.426 138.719C106.92 139.846 109.576 140.418 112.32 140.418C115.929 140.418 119.455 139.403 122.517 137.483L139.646 126.738C144.524 123.675 147.742 118.646 148.473 112.938L150.184 99.704C150.21 99.5062 150.328 99.3332 150.503 99.238C150.679 99.1422 150.888 99.1366 151.068 99.2212C152.84 100.061 154.745 100.487 156.731 100.487C164.059 100.487 170.021 94.5226 170.021 87.1909C170.021 79.8629 164.059 73.9012 156.731 73.9012C155.594 73.9012 154.467 74.0455 153.38 74.3292C153.216 74.3709 153.044 74.346 152.9 74.2595C152.757 74.1724 152.653 74.0312 152.616 73.8676C152.186 72.0123 151.48 70.2347 150.519 68.5834L149.013 65.9815C147.608 63.5687 146.729 60.945 146.401 58.1838L144.616 43.4954C144.086 39.0954 142.031 34.9866 138.824 31.9249L137.449 30.6121C133.402 26.7465 127.888 24.8433 122.304 25.3933L99.5204 27.6517C92.4114 28.3536 86.3247 32.8998 83.6356 39.5173L74.3652 62.3144C73.4257 64.6183 72.9491 67.0485 72.9491 69.5397V74.7349C72.9491 74.9508 72.8371 75.1505 72.6542 75.2637C72.4707 75.3776 72.2411 75.3876 72.0488 75.2911C70.2041 74.3691 68.2125 73.9012 66.1288 73.9012C58.8021 73.9012 52.8403 79.8629 52.8403 87.1909C52.8403 94.5226 58.8021 100.487 66.1288 100.487C68.689 100.487 71.1678 99.7594 73.2957 98.3838C73.3989 98.3185 73.5159 98.2849 73.6341 98.2849Z" fill="#2E1E00"/>
<path d="M108.704 105.946C99.2582 105.946 92.7739 103.17 92.67 103.124C92.3552 102.985 92.2133 102.618 92.3508 102.304C92.4889 101.99 92.8566 101.847 93.1708 101.984C93.3332 102.056 109.718 109.049 128.277 100.334C128.588 100.187 128.959 100.322 129.104 100.633C129.249 100.944 129.116 101.315 128.805 101.461C121.513 104.885 114.543 105.946 108.704 105.946Z" fill="#2E1E00"/>
<path d="M109.69 113.844C104.229 113.844 100.649 112.008 100.417 111.886C100.113 111.725 99.9974 111.35 100.157 111.046C100.317 110.742 100.694 110.625 100.997 110.784C101.083 110.829 109.634 115.187 120.405 110.11C120.718 109.963 121.087 110.097 121.233 110.408C121.379 110.719 121.246 111.089 120.936 111.236C116.738 113.213 112.89 113.844 109.69 113.844Z" fill="#2E1E00"/>
<path d="M72.3297 87.0241H60.9444C60.6004 87.0241 60.3223 86.7454 60.3223 86.402C60.3223 86.0585 60.6004 85.7798 60.9444 85.7798H72.3297C72.6731 85.7798 72.9518 86.0585 72.9518 86.402C72.9518 86.7454 72.6731 87.0241 72.3297 87.0241Z" fill="#2E1E00"/>
<path d="M163.661 87.0241H152.275C151.931 87.0241 151.653 86.7454 151.653 86.402C151.653 86.0585 151.931 85.7798 152.275 85.7798H163.661C164.005 85.7798 164.283 86.0585 164.283 86.402C164.283 86.7454 164.005 87.0241 163.661 87.0241Z" fill="#2E1E00"/>
<path d="M114.218 90.9125C114.125 90.9125 114.029 90.8914 113.939 90.8472L110.452 89.0952C110.242 88.9894 110.109 88.7747 110.108 88.5402L110.067 65.2416C110.067 64.8981 110.344 64.6188 110.688 64.6182H110.69C111.032 64.6182 111.311 64.8956 111.312 65.2391L111.352 88.1551L114.499 89.7348C114.805 89.8891 114.929 90.2636 114.775 90.5703C114.665 90.7869 114.446 90.9125 114.218 90.9125Z" fill="#2E1E00"/>
<path d="M96.7795 98.4994C96.6158 98.4994 96.454 98.4353 96.3308 98.3084C96.0925 98.0608 96.1007 97.6669 96.3483 97.4286L100.275 93.6533C100.522 93.4156 100.916 93.4225 101.155 93.6713C101.393 93.919 101.385 94.3128 101.137 94.5511L97.21 98.3258C97.0899 98.4416 96.935 98.4994 96.7795 98.4994Z" fill="#2E1E00"/>
<path d="M107.198 100.161C107.147 100.161 107.095 100.155 107.043 100.141C106.71 100.055 106.51 99.7159 106.596 99.3831L107.803 94.7024C107.888 94.3696 108.226 94.1711 108.561 94.2551C108.894 94.3409 109.094 94.6807 109.008 95.0135L107.801 99.6942C107.729 99.9748 107.475 100.161 107.198 100.161Z" fill="#2E1E00"/>
<path d="M127.071 98.4995C126.916 98.4995 126.76 98.4416 126.64 98.3259L122.713 94.5511C122.466 94.3128 122.457 93.919 122.696 93.6714C122.934 93.4237 123.327 93.4156 123.575 93.6533L127.503 97.4287C127.75 97.667 127.758 98.0608 127.52 98.3084C127.397 98.436 127.234 98.4995 127.071 98.4995Z" fill="#2E1E00"/>
<path d="M116.652 100.161C116.375 100.161 116.121 99.9745 116.049 99.6939L114.842 95.0133C114.756 94.6805 114.956 94.3407 115.289 94.2549C115.623 94.1715 115.961 94.3694 116.047 94.7022L117.255 99.3829C117.34 99.7157 117.14 100.055 116.808 100.141C116.755 100.154 116.703 100.161 116.652 100.161Z" fill="#2E1E00"/>
<path d="M81.5294 105.231C81.186 105.231 80.9072 104.953 80.9072 104.609V100.897C80.9072 100.554 81.186 100.275 81.5294 100.275C81.8728 100.275 82.1516 100.554 82.1516 100.897V104.609C82.1516 104.953 81.8728 105.231 81.5294 105.231Z" fill="#2E1E00"/>
<path d="M90.8902 120.242C90.5468 120.242 90.2681 119.963 90.2681 119.62V114.637C90.2681 114.293 90.5468 114.015 90.8902 114.015C91.2343 114.015 91.5124 114.293 91.5124 114.637V119.62C91.5124 119.964 91.2343 120.242 90.8902 120.242Z" fill="#2E1E00"/>
<path d="M105.537 125.225C105.194 125.225 104.915 124.946 104.915 124.603V119.62C104.915 119.276 105.194 118.998 105.537 118.998C105.881 118.998 106.159 119.276 106.159 119.62V124.603C106.159 124.946 105.881 125.225 105.537 125.225Z" fill="#2E1E00"/>
<path d="M81.5294 105.231C81.186 105.231 80.9072 104.953 80.9072 104.609V100.897C80.9072 100.554 81.186 100.275 81.5294 100.275C81.8728 100.275 82.1516 100.554 82.1516 100.897V104.609C82.1516 104.953 81.8728 105.231 81.5294 105.231Z" fill="#2E1E00"/>
<path d="M90.8902 120.242C90.5468 120.242 90.2681 119.963 90.2681 119.62V114.637C90.2681 114.293 90.5468 114.015 90.8902 114.015C91.2343 114.015 91.5124 114.293 91.5124 114.637V119.62C91.5124 119.964 91.2343 120.242 90.8902 120.242Z" fill="#2E1E00"/>
<path d="M105.537 125.225C105.194 125.225 104.915 124.946 104.915 124.603V119.62C104.915 119.276 105.194 118.998 105.537 118.998C105.881 118.998 106.159 119.276 106.159 119.62V124.603C106.159 124.946 105.881 125.225 105.537 125.225Z" fill="#2E1E00"/>
<path d="M81.5294 105.231C81.186 105.231 80.9072 104.953 80.9072 104.609V100.897C80.9072 100.554 81.186 100.275 81.5294 100.275C81.8728 100.275 82.1516 100.554 82.1516 100.897V104.609C82.1516 104.953 81.8728 105.231 81.5294 105.231Z" fill="#2E1E00"/>
<path d="M90.8902 120.242C90.5468 120.242 90.2681 119.963 90.2681 119.62V114.637C90.2681 114.293 90.5468 114.015 90.8902 114.015C91.2343 114.015 91.5124 114.293 91.5124 114.637V119.62C91.5124 119.964 91.2343 120.242 90.8902 120.242Z" fill="#2E1E00"/>
<path d="M105.537 125.225C105.194 125.225 104.915 124.946 104.915 124.603V119.62C104.915 119.276 105.194 118.998 105.537 118.998C105.881 118.998 106.159 119.276 106.159 119.62V124.603C106.159 124.946 105.881 125.225 105.537 125.225Z" fill="#2E1E00"/>
<path d="M143.49 105.231C143.146 105.231 142.868 104.953 142.868 104.609V100.897C142.868 100.554 143.146 100.275 143.49 100.275C143.834 100.275 144.112 100.554 144.112 100.897V104.609C144.112 104.953 143.834 105.231 143.49 105.231Z" fill="#2E1E00"/>
<path d="M134.128 120.242C133.784 120.242 133.506 119.963 133.506 119.62V114.637C133.506 114.293 133.784 114.015 134.128 114.015C134.472 114.015 134.75 114.293 134.75 114.637V119.62C134.75 119.964 134.472 120.242 134.128 120.242Z" fill="#2E1E00"/>
<path d="M119.482 125.225C119.137 125.225 118.86 124.946 118.86 124.603V119.62C118.86 119.276 119.137 118.998 119.482 118.998C119.826 118.998 120.104 119.276 120.104 119.62V124.603C120.104 124.946 119.826 125.225 119.482 125.225Z" fill="#2E1E00"/>
<path d="M111.431 136.096C111.087 136.096 110.809 135.818 110.809 135.474V130.038C110.809 129.695 111.087 129.416 111.431 129.416C111.774 129.416 112.053 129.695 112.053 130.038V135.474C112.053 135.818 111.774 136.096 111.431 136.096Z" fill="#2E1E00"/>
<path d="M91.2599 62.0997C88.5099 63.9843 85.4829 64.3477 84.4987 62.9117C83.5144 61.4757 84.9466 58.7835 87.6967 56.899C90.4467 55.0144 93.4729 54.6511 94.4572 56.087C95.4415 57.523 94.0099 60.2152 91.2599 62.0997Z" fill="#2E1E00"/>
<path d="M130.035 63.5494C132.785 65.434 135.812 65.7974 136.797 64.3614C137.781 62.9254 136.349 60.2332 133.599 58.3487C130.849 56.4641 127.822 56.1008 126.838 57.5367C125.854 58.9727 127.285 61.6655 130.035 63.5494Z" fill="#2E1E00"/>
<path d="M93.5712 70.6396C93.5712 71.7695 92.6547 72.6859 91.5248 72.6859C90.3956 72.6859 89.4785 71.7695 89.4785 70.6396C89.4785 69.5097 90.3956 68.5933 91.5248 68.5933C92.6547 68.5933 93.5712 69.5097 93.5712 70.6396Z" fill="#2E1E00"/>
<path d="M131.818 71.6782C131.818 72.8087 130.901 73.7245 129.771 73.7245C128.642 73.7245 127.725 72.8087 127.725 71.6782C127.725 70.5483 128.642 69.6318 129.771 69.6318C130.901 69.6318 131.818 70.5483 131.818 71.6782Z" fill="#2E1E00"/>
</svg>
