<svg width="223" height="258" viewBox="0 0 223 258" fill="none" xmlns="http://www.w3.org/2000/svg">
<path d="M222.276 257.173H0.60478C0.27202 257.173 0.00195312 256.904 0.00195312 256.57V35.3278C0.00195312 34.9944 0.27202 34.725 0.60478 34.725H222.276C222.609 34.725 222.879 34.9944 222.879 35.3278V256.571C222.879 256.904 222.609 257.173 222.276 257.173ZM1.20761 255.967H221.674V35.93H1.20761V255.967Z" fill="#2E1E00"/>
<path d="M222.276 256.573H0.616211C0.851314 241.72 4.68529 204.495 35.0376 176.385C47.4378 164.901 64.2627 154.936 87.0797 148.637C88.3818 148.275 89.708 147.926 91.0463 147.594C91.607 147.45 92.1736 147.311 92.7463 147.179H137.078C137.078 147.179 160.432 156.673 182.706 175.776C202.081 192.396 220.63 216.286 222.276 247.519C222.433 250.473 222.439 253.487 222.276 256.573Z" fill="#FDEAA7"/>
<path d="M222.276 257.176H0.616811C0.455253 257.176 0.300328 257.112 0.186997 256.996C0.0736651 256.881 0.0115724 256.725 0.0139837 256.563C0.248483 241.744 4.0903 204.225 34.6283 175.943C48.3589 163.227 65.9518 153.845 86.92 148.055C88.2546 147.685 89.5947 147.333 90.9016 147.009C91.4617 146.865 92.0331 146.724 92.6113 146.591C92.6559 146.581 92.7011 146.575 92.7469 146.575H137.079C137.157 146.575 137.234 146.59 137.306 146.62C137.541 146.715 161.006 156.371 183.099 175.319C208.102 196.766 221.485 221.046 222.878 247.487C223.038 250.502 223.038 253.569 222.878 256.605C222.861 256.925 222.596 257.176 222.276 257.176ZM1.23109 255.97H221.702C221.831 253.164 221.822 250.334 221.674 247.551C220.299 221.452 207.057 197.458 182.314 176.233C161.133 158.068 138.706 148.51 136.959 147.78H92.8156C92.2707 147.908 91.7311 148.04 91.1976 148.177C89.8955 148.5 88.5663 148.849 87.2413 149.218C66.4606 154.955 49.0353 164.244 35.4476 176.828C5.66187 204.413 1.55964 240.909 1.23109 255.97Z" fill="#2E1E00"/>
<path d="M135.264 147.179H92.7464C92.1737 147.311 91.607 147.45 91.0464 147.594C94.157 136.098 96.3392 122.522 95.1516 108.868C97.0023 109.604 99.064 110.152 101.361 110.484C114.864 112.455 124.787 109.917 131.737 104.245C133.227 111.666 136.059 128.659 135.264 147.179Z" fill="#FCDDC0"/>
<path d="M91.0462 148.197C90.8877 148.197 90.7322 148.134 90.6176 148.018C90.4669 147.865 90.4085 147.644 90.4645 147.437C94.199 133.636 95.5741 120.677 94.5511 108.92C94.533 108.712 94.624 108.509 94.7922 108.384C94.9592 108.259 95.1792 108.23 95.3745 108.308C97.2168 109.04 99.2598 109.571 101.447 109.887C114.069 111.729 124.131 109.674 131.356 103.777C131.52 103.644 131.743 103.605 131.941 103.677C132.14 103.748 132.287 103.919 132.328 104.126C133.663 110.776 136.679 128.286 135.866 147.203C135.853 147.526 135.587 147.78 135.264 147.78H92.8155C92.2706 147.906 91.7311 148.04 91.197 148.177C91.1475 148.191 91.0969 148.197 91.0462 148.197ZM95.8297 109.766C96.6905 121.126 95.3667 133.563 91.8926 146.761C92.1313 146.702 92.3707 146.647 92.6112 146.591C92.6552 146.581 92.701 146.576 92.7468 146.576H134.686C135.375 128.862 132.721 112.473 131.336 105.328C123.906 110.974 113.799 112.909 101.274 111.081C99.343 110.802 97.5164 110.361 95.8297 109.766Z" fill="#2E1E00"/>
<path d="M58.7071 257.174C58.3743 257.174 58.1042 256.903 58.1042 256.571V159.731C58.1042 159.398 58.3743 159.128 58.7071 159.128C59.0398 159.128 59.3099 159.398 59.3099 159.731V256.571C59.3099 256.903 59.0398 257.174 58.7071 257.174Z" fill="#2E1E00"/>
<path d="M114.555 257.176C114.223 257.176 113.953 256.906 113.953 256.573V147.594C113.953 147.261 114.223 146.991 114.555 146.991C114.888 146.991 115.158 147.261 115.158 147.594V256.573C115.158 256.906 114.888 257.176 114.555 257.176Z" fill="#2E1E00"/>
<path d="M162.976 257.176C162.643 257.176 162.373 256.906 162.373 256.573V160.954C162.373 160.621 162.643 160.351 162.976 160.351C163.308 160.351 163.578 160.621 163.578 160.954V256.573C163.578 256.906 163.308 257.176 162.976 257.176Z" fill="#2E1E00"/>
<path d="M135.264 147.179C136.059 128.66 133.226 111.666 131.737 104.245C131.231 101.726 130.881 100.309 130.881 100.309L93.7288 99.2902C94.41 102.467 94.8682 105.668 95.1515 108.869C96.3391 122.523 94.1568 136.099 91.0462 147.595C86.1453 165.716 78.9294 178.677 78.9294 178.677L34.9833 178.273C34.8145 176.253 34.9833 178.273 35.0376 176.386C35.4173 161.158 42.6392 149.741 53.3394 133.893C62.1467 120.852 61.1743 105.364 57.6339 90.7337C53.1097 72.0376 53.8669 51.0586 61.9598 33.2408C69.7254 16.1422 90.6882 -6.58613 111.44 3.10371C157.647 -7.57839 163.452 80.9709 163.958 102.854C164.465 124.567 183.425 177.906 183.708 178.701L131.169 178.466C133.899 169.592 134.878 156.275 135.264 147.179Z" fill="#2E1E00"/>
<path d="M183.708 179.303H183.706L131.166 179.069C130.975 179.068 130.796 178.977 130.683 178.823C130.57 178.67 130.536 178.471 130.593 178.289C132.708 171.416 134.077 160.94 134.661 147.153C135.469 128.367 132.472 110.971 131.146 104.364C130.81 102.691 130.542 101.5 130.402 100.898L94.4752 99.9135C95.0503 102.746 95.4795 105.737 95.752 108.815C96.787 120.714 95.3999 133.814 91.628 147.752C86.7644 165.736 79.5287 178.839 79.4557 178.969C79.3496 179.16 79.1483 179.279 78.9295 179.279H78.924L34.9779 178.875C34.6663 178.872 34.4083 178.633 34.3824 178.323C34.2998 177.327 34.2775 177.064 34.4095 176.908C34.4179 176.8 34.4276 176.632 34.4348 176.368C34.811 161.305 41.6392 150.145 52.8403 133.555C60.1412 122.744 61.4782 109.182 57.0481 90.8753C52.2043 70.8584 53.7946 49.7607 61.4107 32.9906C66.806 21.1113 78.2404 6.91294 91.6226 1.96976C98.525 -0.578992 105.213 -0.410816 111.506 2.46949C120.727 0.389136 128.972 2.10902 136.016 7.57847C161.546 27.4018 164.274 90.4093 164.561 102.839C165.06 124.257 183.492 176.294 184.276 178.499C184.342 178.684 184.313 178.889 184.2 179.05C184.087 179.208 183.904 179.303 183.708 179.303ZM131.976 177.867L182.855 178.094C180.367 171.022 163.832 123.284 163.356 102.867C163.223 97.1381 162.456 76.8385 158.144 56.1561C153.213 32.5084 145.52 16.4846 135.276 8.53092C128.481 3.25437 120.507 1.62555 111.576 3.69023C111.444 3.72098 111.307 3.70591 111.185 3.64924C105.139 0.826204 98.698 0.641719 92.0404 3.10065C82.6326 6.57595 69.8527 17.3196 62.5085 33.4892C55.0015 50.0187 53.4383 70.8313 58.22 90.5914C61.0611 102.333 63.6984 119.631 53.8392 134.229C42.761 150.638 36.0082 161.664 35.6399 176.4C35.6254 176.915 35.6157 177.255 35.5235 177.489C35.5271 177.539 35.5319 177.6 35.538 177.675L78.5726 178.071C79.689 175.987 86.0555 163.739 90.4646 147.437C94.1991 133.637 95.5735 120.678 94.5511 108.922C94.2588 105.62 93.7837 102.421 93.1393 99.4167C93.1007 99.2365 93.1472 99.0478 93.2653 98.9056C93.3841 98.7633 93.5637 98.6807 93.7458 98.6879L130.897 99.7067C131.169 99.714 131.401 99.902 131.466 100.165C131.47 100.179 131.825 101.623 132.328 104.127C133.663 110.778 136.679 128.287 135.866 147.205C135.298 160.588 133.991 170.896 131.976 177.867Z" fill="#2E1E00"/>
<path d="M143.094 85.0393C141.045 93.0087 137.368 99.6578 131.737 104.245C124.787 109.918 114.864 112.456 101.361 110.485C99.0639 110.153 97.0022 109.605 95.1515 108.869C77.3018 101.786 78.9717 77.1423 78.9717 55.0125C78.9717 40.418 89.1474 29.8143 97.3398 23.6473C106.093 17.0584 117.908 15.8106 127.59 20.9407C150.202 32.9122 146.814 70.5648 143.094 85.0393Z" fill="#FCDDC0"/>
<path d="M109.982 111.748C107.225 111.748 104.322 111.526 101.274 111.081C98.9942 110.752 96.8589 110.195 94.9293 109.428C78.099 102.75 78.2262 81.1493 78.3485 60.2601C78.3588 58.5017 78.369 56.7486 78.369 55.0119C78.369 40.268 88.4887 29.5557 96.9777 23.1651C106.036 16.3453 118.164 15.2627 127.873 20.4072C137.775 25.6506 143.98 36.5684 145.815 51.9797C147.311 64.5359 145.599 77.7168 143.679 85.1888H143.678C141.497 93.6706 137.608 100.24 132.118 104.712C126.382 109.393 118.96 111.748 109.982 111.748ZM114.765 18.3889C108.774 18.3889 102.744 20.3331 97.7029 24.1285C89.4327 30.3538 79.5747 40.7653 79.5747 55.0119C79.5747 56.7511 79.5644 58.5059 79.5542 60.2667C79.4336 80.7514 79.3094 101.933 95.3742 108.308C97.217 109.04 99.26 109.572 101.448 109.887C114.068 111.729 124.131 109.674 131.356 103.778C136.642 99.471 140.395 93.116 142.511 84.8886C144.405 77.5172 146.094 64.513 144.618 52.1225C143.372 41.6617 139.358 27.8527 127.308 21.473C123.407 19.4065 119.095 18.3889 114.765 18.3889ZM143.095 85.0393H143.101H143.095Z" fill="#2E1E00"/>
<path d="M108.541 87.8696C102.368 87.8696 97.669 86.4916 97.5786 86.4644C97.2603 86.3686 97.08 86.0322 97.1759 85.7133C97.2723 85.395 97.6075 85.2142 97.927 85.31C98.0964 85.3612 115 90.3038 126.476 81.0287C126.735 80.8202 127.114 80.86 127.324 81.1192C127.533 81.3778 127.493 81.7576 127.233 81.9668C121.434 86.6543 114.337 87.8696 108.541 87.8696Z" fill="#2E1E00"/>
<path d="M110.636 94.2908C106.963 94.2908 104.425 93.512 104.237 93.4529C103.92 93.3522 103.744 93.0141 103.844 92.697C103.944 92.3799 104.281 92.2039 104.6 92.3033C104.679 92.3274 112.614 94.746 120.74 90.8198C121.039 90.6745 121.4 90.8005 121.544 91.1007C121.689 91.4003 121.564 91.7608 121.264 91.9055C117.407 93.7694 113.641 94.2908 110.636 94.2908Z" fill="#2E1E00"/>
<path d="M115.204 73.2041H111.276C110.952 73.2041 110.686 72.9473 110.674 72.6235L110.018 54.5972C110.006 54.2644 110.266 53.9847 110.599 53.9727C110.927 53.9655 111.211 54.2204 111.223 54.5532L111.858 71.9978H115.204C115.537 71.9978 115.807 72.2679 115.807 72.6007C115.807 72.934 115.537 73.2041 115.204 73.2041Z" fill="#2E1E00"/>
<path d="M92.8891 47.7865C90.2246 49.6124 87.2919 49.9645 86.3382 48.5731C85.3845 47.1818 86.7716 44.5734 89.4361 42.7474C92.1 40.9214 95.0334 40.5694 95.9871 41.9607C96.9407 43.3521 95.5536 45.9605 92.8891 47.7865Z" fill="#2E1E00"/>
<path d="M126.493 47.0389C129.158 48.8649 132.09 49.2169 133.044 47.8256C133.998 46.4343 132.611 43.8258 129.946 41.9999C127.282 40.1739 124.349 39.8218 123.395 41.2132C122.441 42.6045 123.829 45.2135 126.493 47.0389Z" fill="#2E1E00"/>
<path d="M95.1275 56.5575C95.1275 57.6523 94.2395 58.5402 93.1448 58.5402C92.0501 58.5402 91.1621 57.6523 91.1621 56.5575C91.1621 55.4628 92.0501 54.5748 93.1448 54.5748C94.2395 54.5748 95.1275 55.4628 95.1275 56.5575Z" fill="#2E1E00"/>
<path d="M128.22 54.127C128.22 55.2217 127.332 56.1097 126.237 56.1097C125.142 56.1097 124.254 55.2217 124.254 54.127C124.254 53.0323 125.142 52.1443 126.237 52.1443C127.332 52.1443 128.22 53.0323 128.22 54.127Z" fill="#2E1E00"/>
</svg>
