<svg width="229" height="258" viewBox="0 0 229 258" fill="none" xmlns="http://www.w3.org/2000/svg">
<path d="M227.424 31.0283H1.45459V256.561H227.424V31.0283Z" fill="#FDEAA7"/>
<path d="M227.424 257.176H1.45436C1.11515 257.176 0.839844 256.901 0.839844 256.561V31.0283C0.839844 30.6891 1.11515 30.4138 1.45436 30.4138H227.424C227.764 30.4138 228.039 30.6891 228.039 31.0283V256.561C228.039 256.901 227.764 257.176 227.424 257.176ZM2.06887 255.947H226.809V31.6428H2.06887V255.947Z" fill="#2E1E00"/>
<path d="M227.424 256.561H1.4668C1.80478 235.232 9.42476 168.667 89.6067 146.533C91.4932 146.01 93.4166 145.512 95.3831 145.045H140.575C140.575 145.045 223.823 178.893 227.424 247.331C227.584 250.343 227.59 253.415 227.424 256.561Z" fill="#73B7EA"/>
<path d="M227.424 257.176H1.46663C1.30194 257.176 1.14401 257.11 1.02848 256.993C0.912949 256.875 0.849662 256.716 0.85212 256.552C1.02787 245.471 3.10616 223.591 15.0548 201.556C29.8996 174.18 54.9276 155.469 89.443 145.94C91.3929 145.4 93.344 144.899 95.241 144.448C95.2877 144.437 95.335 144.431 95.3829 144.431H140.574C140.654 144.431 140.732 144.446 140.806 144.476C141.015 144.561 161.945 153.167 183.032 170.044C195.429 179.965 205.461 190.765 212.85 202.142C222.101 216.386 227.21 231.58 228.038 247.299C228.201 250.375 228.201 253.502 228.038 256.594C228.02 256.92 227.751 257.176 227.424 257.176ZM2.09281 255.947H226.839C226.97 253.088 226.961 250.204 226.81 247.364C225.994 231.868 220.954 216.883 211.829 202.826C204.516 191.562 194.577 180.861 182.29 171.024C162.125 154.88 142.111 146.353 140.452 145.66H95.4548C93.5947 146.102 91.6823 146.595 89.7706 147.125C55.5888 156.56 30.8146 175.071 16.1351 202.142C4.53183 223.54 2.33493 244.796 2.09281 255.947Z" fill="#2E1E00"/>
<path d="M140.751 110.787V137.322C140.751 151.978 128.873 163.863 114.211 163.863C100.814 163.863 89.7405 153.938 87.94 141.039C87.7618 139.823 87.6758 138.581 87.6758 137.322V110.787H140.751Z" fill="#FFF3E9"/>
<path d="M114.21 164.477C100.745 164.477 89.1886 154.438 87.3309 141.124C87.1515 139.901 87.0605 138.621 87.0605 137.322V110.787C87.0605 110.448 87.3358 110.172 87.6751 110.172H140.751C141.09 110.172 141.365 110.448 141.365 110.787V137.322C141.366 152.295 129.183 164.477 114.21 164.477ZM88.2902 111.401V137.322C88.2902 138.561 88.3768 139.782 88.5477 140.95C90.3224 153.663 101.355 163.248 114.21 163.248C128.506 163.248 140.137 151.617 140.137 137.322V111.401H88.2902Z" fill="#2E1E00"/>
<path d="M114.212 257.176C113.873 257.176 113.598 256.901 113.598 256.562V163.863C113.598 163.523 113.873 163.248 114.212 163.248C114.551 163.248 114.827 163.523 114.827 163.863V256.562C114.827 256.901 114.551 257.176 114.212 257.176Z" fill="#2E1E00"/>
<path d="M118.266 110.787L87.9395 141.039C87.7613 139.823 87.6753 138.581 87.6753 137.322V110.787H118.266Z" fill="#2E1E00"/>
<path d="M73.7778 72.4006V13.6947C73.7778 11.7879 75.3239 10.2418 77.2314 10.2418C79.1382 10.2418 80.6843 8.69565 80.6843 6.78819V4.2441C80.6843 2.33664 82.2305 0.790527 84.1379 0.790527H143.025C144.932 0.790527 146.478 2.33664 146.478 4.2441V14.0585C146.478 15.9654 148.024 17.5115 149.932 17.5115H152.113C154.02 17.5115 155.566 19.0576 155.566 20.9651V74.5815L73.7778 72.4006Z" fill="#2E1E00"/>
<path d="M155.566 75.196C155.561 75.196 155.555 75.196 155.55 75.1954L73.7615 73.0145C73.429 73.0059 73.1636 72.7337 73.1636 72.4006V13.6947C73.1636 11.4518 74.9887 9.62726 77.2317 9.62726C78.7968 9.62726 80.0701 8.35338 80.0701 6.78821V4.2435C80.0701 2.00175 81.8946 0.176025 84.1376 0.176025H143.025C145.268 0.176025 147.093 2.00113 147.093 4.2435V14.0585C147.093 15.6237 148.367 16.897 149.932 16.897H152.113C154.356 16.897 156.181 18.7221 156.181 20.9645V74.5815C156.181 74.7474 156.114 74.906 155.995 75.0215C155.88 75.1333 155.726 75.196 155.566 75.196ZM74.3926 71.802L154.952 73.9504V20.9645C154.952 19.3999 153.678 18.126 152.113 18.126H149.932C147.689 18.126 145.864 16.3015 145.864 14.0585V4.2435C145.864 2.67833 144.59 1.40506 143.025 1.40506H84.1376C82.573 1.40506 81.2991 2.67833 81.2991 4.2435V6.78821C81.2991 9.03119 79.4746 10.8563 77.2317 10.8563C75.6659 10.8563 74.3926 12.1296 74.3926 13.6947V71.802Z" fill="#2E1E00"/>
<path d="M163.179 79.5197C163.179 85.6095 158.244 90.5441 152.16 90.5441C151.466 90.5441 150.79 90.4826 150.132 90.3536V99.4914C150.132 104.801 148.025 109.895 144.27 113.644L130.044 127.87C126.203 131.717 120.992 133.874 115.554 133.874H113.341C107.903 133.874 102.692 131.717 98.8511 127.87L86.4809 115.5C82.8676 111.892 80.7782 107.044 80.6246 101.943L80.2743 90.1016C79.2972 90.3905 78.2587 90.5441 77.1894 90.5441C71.0996 90.5441 66.165 85.6095 66.165 79.5197C66.165 73.436 71.0996 68.5014 77.1894 68.5014C78.0375 68.5014 78.867 68.5998 79.6598 68.7841V44.222C79.6598 36.9338 85.5653 31.0283 92.8534 31.0283H136.939C144.227 31.0283 150.132 36.9338 150.132 44.222V68.6919C150.79 68.5629 151.466 68.5014 152.16 68.5014C158.244 68.5014 163.179 73.436 163.179 79.5197Z" fill="#FFF3E9"/>
<path d="M115.554 134.488H113.342C107.698 134.488 102.398 132.292 98.4163 128.304L86.0467 115.934C82.3135 112.207 80.1695 107.245 80.0103 101.962L79.6834 90.8882C78.8704 91.0683 78.0347 91.1586 77.1897 91.1586C70.7723 91.1586 65.5508 85.9377 65.5508 79.5197C65.5508 73.1054 70.7723 67.8869 77.1897 67.8869C77.8122 67.8869 78.4334 67.9373 79.0455 68.0369V44.222C79.0455 36.6081 85.2398 30.4138 92.8537 30.4138H136.939C144.553 30.4138 150.747 36.6081 150.747 44.222V67.9724C151.207 67.9152 151.679 67.8869 152.161 67.8869C158.575 67.8869 163.793 73.1054 163.793 79.5197C163.793 85.9377 158.575 91.1586 152.161 91.1586C151.679 91.1586 151.207 91.1303 150.747 91.0732V99.4914C150.747 104.927 148.545 110.244 144.705 114.079L130.479 128.304C126.498 132.292 121.197 134.488 115.554 134.488ZM80.2745 89.4871C80.4024 89.4871 80.5289 89.5271 80.6346 89.6039C80.7895 89.7157 80.8829 89.8927 80.8891 90.0832L81.2387 101.925C81.3887 106.893 83.4043 111.559 86.9156 115.065L99.2858 127.435C103.036 131.191 108.027 133.259 113.342 133.259H115.554C120.869 133.259 125.86 131.191 129.61 127.435L143.836 113.209C147.447 109.603 149.518 104.604 149.518 99.4914V90.3536C149.518 90.1699 149.6 89.996 149.742 89.8792C149.884 89.7624 150.07 89.7151 150.251 89.7508C150.857 89.8694 151.499 89.9296 152.161 89.9296C157.897 89.9296 162.564 85.2599 162.564 79.5197C162.564 73.7832 157.897 69.116 152.161 69.116C151.499 69.116 150.857 69.1762 150.251 69.2954C150.07 69.3298 149.884 69.2837 149.742 69.1664C149.6 69.0496 149.518 68.8757 149.518 68.692V44.222C149.518 37.2859 143.875 31.6428 136.939 31.6428H92.8537C85.9176 31.6428 80.2745 37.2859 80.2745 44.222V68.7841C80.2745 68.9715 80.1891 69.1485 80.0423 69.2653C79.8954 69.382 79.7024 69.4244 79.5205 69.3827C78.7604 69.2057 77.9763 69.116 77.1897 69.116C71.4495 69.116 66.7798 73.7832 66.7798 79.5197C66.7798 85.2599 71.4495 89.9296 77.1897 89.9296C78.1846 89.9296 79.1641 89.7895 80.1 89.5123C80.1578 89.4957 80.2162 89.4871 80.2745 89.4871Z" fill="#2E1E00"/>
<path d="M125.709 103.361C124.38 103.361 123 103.021 121.674 102.363C118.758 100.916 116.81 101.852 115.245 102.606C114.53 102.949 113.913 103.246 113.288 103.288C112.477 103.343 111.753 102.947 110.986 102.528C109.565 101.752 107.955 100.873 105.123 102.407C100.139 105.107 95.5463 100.707 95.5014 100.662C95.2587 100.425 95.2544 100.037 95.491 99.7943C95.727 99.551 96.1165 99.5461 96.3593 99.7827C96.5203 99.9387 100.357 103.591 104.538 101.326C107.958 99.4742 110.049 100.616 111.575 101.45C112.207 101.795 112.755 102.097 113.204 102.062C113.594 102.035 114.112 101.787 114.712 101.498C116.327 100.722 118.768 99.5473 122.221 101.262C123.576 101.935 124.986 102.225 126.296 102.106C127.459 101.997 129.928 100.676 130.921 99.7691C131.173 99.5399 131.561 99.5584 131.79 99.8085C132.019 100.059 132.001 100.448 131.75 100.676C130.692 101.643 127.982 103.183 126.409 103.329C126.178 103.351 125.944 103.361 125.709 103.361Z" fill="#2E1E00"/>
<path d="M118.37 108.557H107.532C107.193 108.557 106.917 108.281 106.917 107.942C106.917 107.603 107.193 107.328 107.532 107.328H118.37C118.709 107.328 118.984 107.603 118.984 107.942C118.984 108.281 118.709 108.557 118.37 108.557Z" fill="#2E1E00"/>
<path d="M80.2822 81.0708H71.8499C71.5107 81.0708 71.2354 80.7955 71.2354 80.4563C71.2354 80.1171 71.5107 79.8418 71.8499 79.8418H80.2822C80.6214 79.8418 80.8967 80.1171 80.8967 80.4563C80.8967 80.7955 80.6208 81.0708 80.2822 81.0708Z" fill="#2E1E00"/>
<path d="M156.715 81.0708H148.283C147.944 81.0708 147.668 80.7955 147.668 80.4563C147.668 80.1171 147.944 79.8418 148.283 79.8418H156.715C157.055 79.8418 157.33 80.1171 157.33 80.4563C157.33 80.7955 157.054 81.0708 156.715 81.0708Z" fill="#2E1E00"/>
<path d="M116.731 90.8636C116.662 90.8636 116.591 90.8513 116.523 90.8267L112.743 89.4668C112.499 89.3789 112.336 89.1479 112.336 88.8885V69.8484C112.336 69.5092 112.611 69.2339 112.951 69.2339C113.29 69.2339 113.565 69.5092 113.565 69.8484V88.4565L116.939 89.6708C117.258 89.7863 117.424 90.1372 117.309 90.4568C117.219 90.7075 116.983 90.8636 116.731 90.8636Z" fill="#2E1E00"/>
<path d="M97.8242 63.4409C95.1081 65.3023 92.1184 65.6612 91.1463 64.2429C90.1741 62.8246 91.5881 60.1655 94.3043 58.3042C97.0204 56.4428 100.01 56.0839 100.982 57.5022C101.954 58.9205 100.54 61.5796 97.8242 63.4409Z" fill="#2E1E00"/>
<path d="M131.856 64.4775C134.573 66.3389 137.562 66.6978 138.534 65.2795C139.507 63.8612 138.093 61.2022 135.376 59.3408C132.661 57.4794 129.671 57.1206 128.698 58.5389C127.726 59.9572 129.141 62.6162 131.856 64.4775Z" fill="#2E1E00"/>
<path d="M98.2117 70.348C98.2117 71.4646 97.3065 72.3692 96.1906 72.3692C95.0746 72.3692 94.1694 71.4646 94.1694 70.348C94.1694 69.2321 95.0746 68.3269 96.1906 68.3269C97.3065 68.3269 98.2117 69.2327 98.2117 70.348Z" fill="#2E1E00"/>
<path d="M133.967 71.3744C133.967 72.4904 133.061 73.3955 131.945 73.3955C130.829 73.3955 129.924 72.4904 129.924 71.3744C129.924 70.2591 130.829 69.3533 131.945 69.3533C133.061 69.3533 133.967 70.2584 133.967 71.3744Z" fill="#2E1E00"/>
<path d="M87.2898 95.2052C86.9506 95.2052 86.6753 94.9299 86.6753 94.5907V90.8489C86.6753 90.5097 86.9506 90.2344 87.2898 90.2344C87.629 90.2344 87.9043 90.5097 87.9043 90.8489V94.5907C87.9043 94.9299 87.629 95.2052 87.2898 95.2052Z" fill="#2E1E00"/>
<path d="M90.0247 111.398C89.6855 111.398 89.4102 111.123 89.4102 110.784V107.042C89.4102 106.703 89.6855 106.427 90.0247 106.427C90.3639 106.427 90.6392 106.703 90.6392 107.042V110.784C90.6392 111.123 90.3639 111.398 90.0247 111.398Z" fill="#2E1E00"/>
<path d="M98.9465 120.32C98.6073 120.32 98.332 120.045 98.332 119.706V115.964C98.332 115.625 98.6073 115.35 98.9465 115.35C99.2858 115.35 99.5611 115.625 99.5611 115.964V119.706C99.5611 120.045 99.2858 120.32 98.9465 120.32Z" fill="#2E1E00"/>
<path d="M109.884 127.873C109.544 127.873 109.269 127.598 109.269 127.258V123.517C109.269 123.177 109.544 122.902 109.884 122.902C110.223 122.902 110.498 123.177 110.498 123.517V127.258C110.498 127.598 110.223 127.873 109.884 127.873Z" fill="#2E1E00"/>
<path d="M139.32 111.398C138.981 111.398 138.706 111.123 138.706 110.784V107.042C138.706 106.703 138.981 106.427 139.32 106.427C139.659 106.427 139.935 106.703 139.935 107.042V110.784C139.935 111.123 139.659 111.398 139.32 111.398Z" fill="#2E1E00"/>
<path d="M130.397 120.32C130.058 120.32 129.783 120.045 129.783 119.706V115.964C129.783 115.625 130.058 115.35 130.397 115.35C130.736 115.35 131.012 115.625 131.012 115.964V119.706C131.012 120.045 130.736 120.32 130.397 120.32Z" fill="#2E1E00"/>
<path d="M119.46 127.873C119.121 127.873 118.846 127.598 118.846 127.258V123.517C118.846 123.177 119.121 122.902 119.46 122.902C119.799 122.902 120.075 123.177 120.075 123.517V127.258C120.075 127.598 119.799 127.873 119.46 127.873Z" fill="#2E1E00"/>
<path d="M99.5798 95.2052C99.2406 95.2052 98.9653 94.9299 98.9653 94.5907V90.8489C98.9653 90.5097 99.2406 90.2344 99.5798 90.2344C99.9191 90.2344 100.194 90.5097 100.194 90.8489V94.5907C100.194 94.9299 99.9191 95.2052 99.5798 95.2052Z" fill="#2E1E00"/>
<path d="M126.619 95.2052C126.28 95.2052 126.004 94.9299 126.004 94.5907V90.8489C126.004 90.5097 126.28 90.2344 126.619 90.2344C126.958 90.2344 127.233 90.5097 127.233 90.8489V94.5907C127.233 94.9299 126.958 95.2052 126.619 95.2052Z" fill="#2E1E00"/>
<path d="M138.909 95.2052C138.57 95.2052 138.294 94.9299 138.294 94.5907V90.8489C138.294 90.5097 138.57 90.2344 138.909 90.2344C139.248 90.2344 139.523 90.5097 139.523 90.8489V94.5907C139.523 94.9299 139.248 95.2052 138.909 95.2052Z" fill="#2E1E00"/>
</svg>
