<svg width="241" height="258" viewBox="0 0 241 258" fill="none" xmlns="http://www.w3.org/2000/svg">
<path d="M240.036 18.4474H1.49561V256.527H240.036V18.4474Z" fill="#73B7EA"/>
<path d="M240.036 257.176H1.49538C1.13665 257.176 0.84668 256.885 0.84668 256.527V18.4474C0.84668 18.0887 1.13665 17.7987 1.49538 17.7987H240.036C240.395 17.7987 240.684 18.0887 240.684 18.4474V256.527C240.684 256.885 240.395 257.176 240.036 257.176ZM2.14408 255.879H239.387V19.0961H2.14408V255.879Z" fill="#2E1E00"/>
<path d="M239.492 256.255H0.964355C1.32114 233.738 9.365 163.471 94.0075 140.105C95.9991 139.553 98.0295 139.028 100.105 138.535H147.811C147.811 138.535 235.69 174.265 239.492 246.511C239.66 249.69 239.667 252.934 239.492 256.255Z" fill="#FA6456"/>
<path d="M239.492 256.904H0.964204C0.789703 256.904 0.623627 256.834 0.501672 256.71C0.379716 256.586 0.312908 256.418 0.315503 256.244C0.501031 244.547 2.69555 221.449 15.3082 198.19C30.9783 169.29 57.3992 149.538 93.8348 139.479C95.8912 138.909 97.9509 138.38 99.9554 137.903C100.005 137.892 100.055 137.886 100.105 137.886H147.811C147.894 137.886 147.977 137.902 148.055 137.934C148.276 138.024 170.369 147.108 192.631 164.924C205.717 175.397 216.307 186.797 224.106 198.807C233.872 213.844 239.265 229.882 240.14 246.476C240.312 249.72 240.312 253.021 240.14 256.288C240.122 256.633 239.836 256.904 239.492 256.904ZM1.62518 255.606H238.874C239.013 252.586 239.003 249.54 238.844 246.546C237.983 230.187 232.662 214.369 223.029 199.53C215.309 187.639 204.818 176.343 191.847 165.958C170.561 148.916 149.433 139.915 147.682 139.184H100.181C98.2156 139.651 96.1968 140.171 94.1807 140.73C58.0973 150.69 31.9449 170.231 16.4493 198.807C4.20056 221.396 1.88077 243.834 1.62518 255.606Z" fill="#2E1E00"/>
<path d="M122.038 1.93346C120.881 2.2124 119.688 2.32271 118.498 2.28897C112.532 2.12031 93.1927 2.99866 83.5407 20.4643C72.0405 41.274 74.2312 105.894 51.7783 125.062H137.757L185.948 118.26C185.948 118.26 168.423 81.897 169.519 50.036C170.591 18.8322 149.538 -4.69107 122.038 1.93346Z" fill="#2E1E00"/>
<path d="M137.755 125.71H51.7774C51.5056 125.71 51.2623 125.541 51.1689 125.286C51.0742 125.031 51.1494 124.744 51.3557 124.568C64.7916 113.099 69.3371 84.805 73.3461 59.843C75.9409 43.693 78.391 28.4388 82.9715 20.1503C92.8246 2.32074 112.664 1.46963 118.516 1.64089C119.685 1.67527 120.817 1.5598 121.884 1.30292C133.448 -1.48261 144.666 0.935744 153.465 8.11622C164.515 17.1332 170.758 32.8123 170.166 50.0587C169.089 81.3896 186.357 117.616 186.531 117.978C186.622 118.165 186.617 118.383 186.519 118.565C186.422 118.748 186.243 118.874 186.038 118.902L137.846 125.704C137.817 125.708 137.786 125.71 137.755 125.71ZM53.4549 124.413H137.71L184.99 117.74C182.449 112.202 167.871 79.0641 168.871 50.0139C169.449 33.1704 163.383 17.8831 152.645 9.1217C144.169 2.20395 133.351 -0.12295 122.189 2.56397C121.011 2.8481 119.763 2.97528 118.479 2.93766C112.82 2.77418 93.6063 3.59023 84.1087 20.7776C79.6372 28.8682 77.2039 44.0134 74.6286 60.0487C70.7085 84.4528 66.2817 112.012 53.4549 124.413ZM122.038 1.93344H122.044H122.038Z" fill="#2E1E00"/>
<path d="M99.4216 94.3942L94.0068 140.105L114.88 201.219C116.755 206.704 124.43 206.929 126.621 201.562L149.804 144.776L143.78 99.8705L99.4216 94.3942Z" fill="#FFF3E9"/>
<path d="M120.834 206.112C120.761 206.112 120.686 206.111 120.613 206.109C117.654 206.023 115.222 204.229 114.266 201.429L93.3935 140.314C93.361 140.222 93.3512 140.125 93.3623 140.028L98.777 94.3175C98.7978 94.1463 98.8853 93.9906 99.0209 93.8835C99.1571 93.7772 99.3271 93.7279 99.5009 93.7499L143.859 99.2263C144.152 99.2626 144.384 99.4916 144.423 99.7841L150.446 144.691C150.462 144.803 150.447 144.917 150.405 145.022L127.221 201.808C126.131 204.479 123.696 206.112 120.834 206.112ZM94.6688 140.035L115.494 201.009C116.424 203.729 118.767 204.757 120.651 204.812C122.515 204.864 124.934 203.978 126.02 201.317L149.138 144.691L143.204 100.453L99.9901 95.118L94.6688 140.035Z" fill="#2E1E00"/>
<path d="M179.583 75.2296C179.583 83.4032 172.96 90.02 164.792 90.02C161.607 90.02 158.655 89.0145 156.248 87.3019C155.931 88.6382 155.587 89.9681 155.217 91.2784C151.377 104.94 144.293 116.727 128.848 118.089C108.005 119.938 92.3715 106.503 87.6944 87.3084C85.2877 89.021 82.3426 90.02 79.164 90.02C70.9968 90.02 64.3735 83.4032 64.3735 75.2296C64.3735 67.0624 70.9968 60.4392 79.164 60.4392C80.6949 60.4392 82.1674 60.6727 83.5563 61.1008L83.5427 60.9906C83.5427 60.9906 88.4735 16.6324 125.163 14.4398C161.855 12.2472 159.662 57.7017 159.662 57.7017C159.662 58.9212 159.643 60.1473 159.603 61.3733C161.218 60.77 162.964 60.4392 164.793 60.4392C172.96 60.4385 179.583 67.0618 179.583 75.2296Z" fill="#FFF3E9"/>
<path d="M125.168 118.901C107.089 118.902 92.2125 107.037 87.2901 88.356C84.8608 89.8714 82.0707 90.668 79.1632 90.668C70.6503 90.668 63.7241 83.7419 63.7241 75.2289C63.7241 66.7154 70.6503 59.7898 79.1632 59.7898C80.4535 59.7898 81.7353 59.9501 82.9854 60.266C83.3545 57.7068 85.0119 48.0152 90.0166 38.2406C97.7407 23.157 109.881 14.7025 125.124 13.7917C134.819 13.2124 142.715 15.8728 148.608 21.6981C155.249 28.2636 158.076 37.7197 159.278 44.496C160.576 51.8089 160.311 57.6738 160.309 57.7321C160.309 58.6183 160.299 59.5362 160.277 60.4593C161.736 60.0143 163.25 59.7898 164.792 59.7898C173.305 59.7898 180.231 66.7154 180.231 75.2289C180.231 83.7419 173.305 90.668 164.792 90.668C161.886 90.668 159.094 89.8708 156.66 88.3547C156.401 89.4069 156.126 90.4462 155.841 91.4536C151.01 108.638 142.199 117.562 128.905 118.735C127.647 118.846 126.399 118.901 125.168 118.901ZM87.6937 86.6597C87.7702 86.6597 87.8461 86.6733 87.9201 86.7006C88.1225 86.7758 88.2729 86.9458 88.3242 87.1547C90.6459 96.6841 95.5851 104.611 102.607 110.078C109.914 115.768 118.962 118.314 128.791 117.443C141.661 116.308 149.86 107.938 154.592 91.1026C154.954 89.8241 155.298 88.4949 155.617 87.1521C155.666 86.9419 155.818 86.7706 156.02 86.6947C156.222 86.6182 156.448 86.648 156.625 86.7732C159.013 88.4728 161.838 89.3713 164.792 89.3713C172.59 89.3713 178.933 83.027 178.933 75.2296C178.933 67.4315 172.59 61.0879 164.792 61.0879C163.086 61.0879 161.416 61.3883 159.83 61.9812C159.627 62.0564 159.402 62.0266 159.225 61.9007C159.049 61.7742 158.948 61.5692 158.955 61.3525C158.993 60.1323 159.012 58.9037 159.012 57.7017C159.024 57.4422 159.962 34.7422 147.693 22.6179C142.073 17.0644 134.499 14.5293 125.202 15.0872C110.243 15.9811 98.7994 23.9595 91.1876 38.7998C85.7203 49.4606 84.3152 60.0234 84.1952 60.9912L84.1991 61.0243C84.2257 61.2423 84.1387 61.4583 83.9701 61.599C83.8014 61.7392 83.5731 61.7846 83.3642 61.7204C82.0006 61.3007 80.5878 61.0879 79.1626 61.0879C71.3652 61.0879 65.0209 67.4315 65.0209 75.2296C65.0209 83.027 71.3652 89.3713 79.1626 89.3713C82.1149 89.3713 84.9347 88.4748 87.3168 86.7797C87.429 86.7006 87.5607 86.6597 87.6937 86.6597Z" fill="#2E1E00"/>
<path d="M126.627 90.4753C117.565 90.4753 110.18 86.5909 110.07 86.5312C109.755 86.3619 109.636 85.9687 109.805 85.6535C109.974 85.3376 110.367 85.2189 110.684 85.3882C110.843 85.4744 126.839 93.8693 140.228 85.4115C140.532 85.2208 140.932 85.311 141.123 85.6133C141.315 85.9169 141.224 86.3171 140.921 86.5085C136.209 89.4847 131.204 90.4753 126.627 90.4753Z" fill="#2E1E00"/>
<path d="M126.236 99.3437C121.463 99.3437 117.601 97.1199 117.359 96.9785C117.05 96.7969 116.948 96.3999 117.129 96.0911C117.311 95.7823 117.709 95.6792 118.017 95.8601C118.1 95.9088 126.39 100.664 133.276 95.8861C133.57 95.6818 133.974 95.7557 134.179 96.0496C134.383 96.3441 134.309 96.7482 134.016 96.9526C131.429 98.7462 128.709 99.3437 126.236 99.3437Z" fill="#2E1E00"/>
<path d="M83.5802 74.2435H71.1926C70.8346 74.2435 70.5439 73.9528 70.5439 73.5947C70.5439 73.2367 70.8346 72.946 71.1926 72.946H83.5802C83.9383 72.946 84.2289 73.2367 84.2289 73.5947C84.2289 73.9528 83.9383 74.2435 83.5802 74.2435Z" fill="#2E1E00"/>
<path d="M171.804 74.2435H159.416C159.058 74.2435 158.768 73.9528 158.768 73.5947C158.768 73.2367 159.058 72.946 159.416 72.946H171.804C172.163 72.946 172.453 73.2367 172.453 73.5947C172.453 73.9528 172.163 74.2435 171.804 74.2435Z" fill="#2E1E00"/>
<path d="M128.31 75.0401C128.247 75.0401 128.186 75.031 128.123 75.0122C126.266 74.4523 125.019 72.7729 125.019 70.8339V56.0571C125.019 55.6991 125.309 55.4084 125.667 55.4084C126.026 55.4084 126.316 55.6991 126.316 56.0571V70.8339C126.316 72.1968 127.192 73.3768 128.497 73.7699C128.839 73.8737 129.035 74.235 128.931 74.5782C128.847 74.8597 128.588 75.0401 128.31 75.0401Z" fill="#2E1E00"/>
<path d="M107.704 49.0324C104.837 50.9973 101.681 51.3762 100.654 49.879C99.6282 48.3818 101.122 45.5748 103.989 43.6099C106.856 41.645 110.012 41.2662 111.038 42.7634C112.064 44.2606 110.571 47.0675 107.704 49.0324Z" fill="#2E1E00"/>
<path d="M141.734 49.818C144.602 51.7829 147.758 52.1617 148.784 50.6645C149.81 49.1673 148.317 46.3604 145.45 44.3955C142.582 42.4305 139.427 42.0517 138.401 43.5489C137.374 45.0461 138.867 47.8524 141.734 49.818Z" fill="#2E1E00"/>
<path d="M108.523 58.6988C108.523 59.8768 107.567 60.8323 106.389 60.8323C105.212 60.8323 104.256 59.8768 104.256 58.6988C104.256 57.5207 105.212 56.5652 106.389 56.5652C107.567 56.5652 108.523 57.5207 108.523 58.6988Z" fill="#2E1E00"/>
<path d="M142.708 59.7607C142.708 60.9387 141.753 61.8942 140.575 61.8942C139.397 61.8942 138.441 60.9387 138.441 59.7607C138.441 58.5826 139.397 57.6271 140.575 57.6271C141.753 57.6271 142.708 58.5826 142.708 59.7607Z" fill="#2E1E00"/>
</svg>
