<svg width="231" height="258" viewBox="0 0 231 258" fill="none" xmlns="http://www.w3.org/2000/svg">
<path d="M229.481 28.9122H1.39673V256.555H229.481V28.9122Z" fill="#FDEAA7"/>
<path d="M229.48 257.176H1.39614C1.05376 257.176 0.775879 256.899 0.775879 256.556V28.9123C0.775879 28.5699 1.05376 28.292 1.39614 28.292H229.48C229.823 28.292 230.1 28.5699 230.1 28.9123V256.556C230.1 256.898 229.823 257.176 229.48 257.176ZM2.01701 255.936H228.86V29.5331H2.01701V255.936Z" fill="#2E1E00"/>
<path d="M229.48 256.556H1.40894C1.75008 235.026 9.44131 167.839 90.3733 145.497C92.2775 144.97 94.2189 144.468 96.2038 143.996H141.818C141.818 143.996 225.845 178.16 229.48 247.239C229.641 250.278 229.647 253.379 229.48 256.556Z" fill="#ADF0E7"/>
<path d="M229.48 257.176H1.4094C1.24254 257.176 1.08375 257.11 0.96714 256.991C0.85053 256.873 0.786651 256.712 0.789132 256.545C0.966528 245.361 3.06486 223.276 15.124 201.035C30.1077 173.403 55.3704 154.517 90.2088 144.899C92.1676 144.356 94.1369 143.85 96.061 143.392C96.1081 143.381 96.1559 143.376 96.2042 143.376H141.818C141.898 143.376 141.978 143.391 142.052 143.422C142.263 143.508 163.388 152.194 184.674 169.228C197.186 179.242 207.312 190.143 214.77 201.626C224.108 216.004 229.264 231.339 230.101 247.205C230.266 250.313 230.266 253.469 230.101 256.587C230.083 256.918 229.811 257.176 229.48 257.176ZM2.0414 255.936H228.89C229.023 253.053 229.013 250.141 228.861 247.272C228.038 231.631 222.95 216.506 213.739 202.317C206.358 190.947 196.327 180.147 183.924 170.218C163.571 153.923 143.37 145.316 141.695 144.616H96.2769C94.39 145.066 92.4604 145.563 90.5394 146.096C56.0385 155.619 31.0319 174.303 16.2157 201.626C4.50387 223.225 2.28578 244.679 2.0414 255.936Z" fill="#2E1E00"/>
<path d="M141.817 143.997C141.817 143.997 141.029 162.052 115.505 163.733C89.9814 165.408 83.5747 147.532 83.5747 147.532L84.2377 140.207L86.4769 115.452L111.598 112.562L133.753 110.006L141.817 143.997Z" fill="#FFF3E9"/>
<path d="M112.231 164.463C89.2607 164.463 83.0531 147.917 82.9905 147.741C82.9601 147.657 82.9483 147.567 82.9563 147.476L85.8592 115.396C85.8859 115.103 86.1141 114.868 86.4062 114.835L133.683 109.389C133.992 109.356 134.285 109.558 134.356 109.863L142.42 143.854C142.433 143.91 142.439 143.967 142.437 144.023C142.428 144.211 141.327 162.655 115.546 164.352C114.404 164.427 113.299 164.463 112.231 164.463ZM84.2049 147.444C84.5008 148.179 86.2208 152.12 90.4305 155.842C94.711 159.628 102.53 163.966 115.464 163.115C139.485 161.533 141.096 145.514 141.192 144.053L133.276 110.686L87.0488 116.011L84.2049 147.444Z" fill="#2E1E00"/>
<path d="M111.598 112.562L84.238 140.207L86.4778 115.452L111.598 112.562Z" fill="#2E1E00"/>
<path d="M66.7194 77.7264C64.2297 77.7264 68.4034 41.9769 68.9486 39.5716C74.5887 14.6959 101.653 -5.25742 127.434 2.48347C155.259 10.8384 159.474 44.3872 158.084 69.1109C157.922 71.9877 157.682 74.8608 157.382 77.7264H66.7194Z" fill="#2E1E00"/>
<path d="M157.382 78.3466H66.7187C66.4396 78.3466 66.1798 78.2139 65.9875 77.9733C63.6596 75.0586 68.27 39.7575 68.3438 39.4344C71.3633 26.1142 80.5556 13.8529 92.9311 6.63363C103.993 0.181026 116.308 -1.50612 127.612 1.8892C140.279 5.69266 149.258 14.9669 154.3 29.455C159.02 43.017 159.3 58.5242 158.703 69.1456C158.548 71.8965 158.311 74.8043 157.999 77.7909C157.965 78.1066 157.7 78.3466 157.382 78.3466ZM66.898 77.1061H156.823C157.105 74.3347 157.32 71.6366 157.465 69.0768C158.64 48.169 156.277 11.7923 127.256 3.07764C116.285 -0.215963 104.319 1.42777 93.5564 7.70546C81.4724 14.7548 72.499 26.719 69.554 39.7092C68.6335 43.7651 65.5031 74.421 66.898 77.1061Z" fill="#2E1E00"/>
<path d="M165.506 81.4622C165.506 88.2665 159.991 93.7744 153.193 93.7744C151.289 93.7744 149.477 93.3402 147.871 92.5648C146.023 102.173 142.568 111.415 137.655 119.906C131.651 130.271 119.543 135.68 107.802 133.31C97.9644 131.325 91.2593 123.808 86.4771 115.453C83.2207 109.765 75.7093 98.6925 74.9892 92.323C74.9892 92.323 74.983 92.261 74.9706 92.1369C73.1662 93.1789 71.0698 93.7744 68.8362 93.7744C62.0381 93.7744 56.5239 88.2665 56.5239 81.4622C56.5239 74.6641 62.0381 69.1493 68.8362 69.1493C70.1202 69.1493 71.3607 69.3478 72.5205 69.7075C71.5585 50.3491 82.9162 30.0169 101.331 22.9397C119.598 15.9189 144.092 23.2932 149.935 43.5634C152.41 52.1237 151.901 60.7137 150.915 69.3608C151.653 69.2238 152.416 69.1493 153.191 69.1493C159.991 69.1493 165.506 74.6641 165.506 81.4622Z" fill="#FFF3E9"/>
<path d="M113.396 134.49C111.502 134.49 109.589 134.303 107.679 133.917C99.0466 132.176 91.9353 126.237 85.9393 115.76C85.2911 114.629 84.4531 113.25 83.5674 111.791C80.097 106.075 75.3997 98.3402 74.4768 93.1009C72.7301 93.9494 70.7974 94.3948 68.8367 94.3948C61.7062 94.3948 55.9036 88.5935 55.9036 81.4623C55.9036 74.3311 61.7056 68.5291 68.8367 68.5291C69.8595 68.5291 70.8755 68.6488 71.8673 68.8851C71.2223 48.6348 83.4129 29.1616 101.11 22.3605C111.425 18.3945 123.971 18.9856 133.852 23.9012C142.18 28.0439 148.104 34.9661 150.533 43.3917C153.07 52.1672 152.473 60.9744 151.624 68.6247C152.149 68.5614 152.673 68.5291 153.193 68.5291C160.324 68.5291 166.126 74.3311 166.126 81.4623C166.126 88.5935 160.324 94.3948 153.193 94.3948C151.527 94.3948 149.861 94.0691 148.33 93.4464C146.432 102.864 143.023 111.866 138.192 120.217C133.004 129.172 123.49 134.49 113.396 134.49ZM74.9711 91.5167C75.0679 91.5167 75.1646 91.5397 75.2539 91.5844C75.4413 91.6805 75.5672 91.8647 75.5883 92.0744L75.6069 92.2598C76.1663 97.2114 81.0571 105.266 84.628 111.146C85.5181 112.613 86.3592 113.999 87.0154 115.144C92.8235 125.292 99.6638 131.034 107.924 132.701C119.492 135.037 131.225 129.768 137.118 119.595C142.01 111.138 145.423 102.005 147.261 92.4471C147.298 92.2573 147.42 92.0967 147.592 92.0099C147.765 91.9243 147.967 91.9224 148.141 92.0055C149.697 92.7566 151.444 93.1536 153.193 93.1536C159.64 93.1536 164.885 87.9086 164.885 81.4616C164.885 75.014 159.64 69.7691 153.193 69.7691C152.479 69.7691 151.75 69.8367 151.03 69.9694C150.837 70.0054 150.638 69.9471 150.494 69.8131C150.35 69.6785 150.279 69.4844 150.301 69.2896C151.18 61.5748 151.905 52.6007 149.341 43.7353C146.353 33.3682 138.967 27.8311 133.3 25.0108C123.719 20.2453 111.556 19.6734 101.556 23.5185C84.0958 30.2272 72.1458 49.6396 73.1407 69.676C73.1513 69.8782 73.0613 70.073 72.9013 70.1971C72.7419 70.3211 72.531 70.3595 72.3374 70.2994C71.2036 69.9477 70.0252 69.7691 68.8367 69.7691C62.3897 69.7691 57.1441 75.014 57.1441 81.4616C57.1441 87.9086 62.3897 93.1536 68.8367 93.1536C70.8861 93.1536 72.9001 92.6159 74.661 91.5993C74.7565 91.5441 74.8638 91.5167 74.9711 91.5167Z" fill="#2E1E00"/>
<path d="M113.286 103.774C112.607 103.774 111.972 103.72 111.368 103.614C106.709 102.796 102.121 100.849 98.6429 99.2433C98.3321 99.0994 98.1963 98.7316 98.3395 98.4202C98.4828 98.1089 98.8525 97.973 99.1626 98.1169C102.572 99.6905 107.064 101.598 111.582 102.392C115.241 103.033 120.613 101.457 129.549 97.1164C129.858 96.9669 130.227 97.0959 130.377 97.4036C130.527 97.7119 130.399 98.0828 130.09 98.2323C122.189 102.069 117.086 103.774 113.286 103.774Z" fill="#2E1E00"/>
<path d="M113.989 110.896C108.586 110.896 104.307 108.434 104.243 108.397C103.947 108.223 103.848 107.843 104.022 107.549C104.195 107.252 104.576 107.153 104.871 107.327C104.961 107.381 113.96 112.539 121.964 107.342C122.253 107.156 122.636 107.237 122.823 107.524C123.01 107.812 122.928 108.196 122.641 108.382C119.736 110.268 116.718 110.896 113.989 110.896Z" fill="#2E1E00"/>
<path d="M72.8586 81.3834H62.6713C62.3283 81.3834 62.051 81.1055 62.051 80.7631C62.051 80.4208 62.3283 80.1429 62.6713 80.1429H72.8586C73.2016 80.1429 73.4788 80.4208 73.4788 80.7631C73.4788 81.1055 73.2009 81.3834 72.8586 81.3834Z" fill="#2E1E00"/>
<path d="M158.455 81.3834H148.268C147.924 81.3834 147.647 81.1055 147.647 80.7631C147.647 80.4208 147.924 80.1429 148.268 80.1429H158.455C158.798 80.1429 159.075 80.4208 159.075 80.7631C159.075 81.1055 158.797 81.3834 158.455 81.3834Z" fill="#2E1E00"/>
<path d="M114.922 90.9131C114.834 90.9131 114.746 90.8945 114.662 90.8554L113.406 90.2736C111.222 89.2613 109.811 87.0526 109.811 84.6453V68.2741C109.811 67.9317 110.089 67.6538 110.432 67.6538C110.774 67.6538 111.052 67.9317 111.052 68.2741V84.6453C111.052 86.5706 112.181 88.339 113.927 89.1485L115.183 89.7303C115.494 89.8742 115.629 90.2426 115.485 90.5534C115.38 90.7804 115.156 90.9131 114.922 90.9131Z" fill="#2E1E00"/>
<path d="M90.8646 58.1099C88.1231 59.9887 85.1055 60.351 84.1242 58.9194C83.143 57.4879 84.5703 54.8039 87.3112 52.9252C90.054 51.047 93.0709 50.6848 94.0522 52.1158C95.0334 53.5467 93.6062 56.2312 90.8646 58.1099Z" fill="#2E1E00"/>
<path d="M131.455 58.954C134.196 60.8327 137.214 61.195 138.195 59.7634C139.176 58.3319 137.749 55.648 135.008 53.7692C132.266 51.891 129.249 51.5282 128.267 52.9598C127.287 54.3913 128.713 57.0752 131.455 58.954Z" fill="#2E1E00"/>
<path d="M95.5567 67.1354C95.5567 68.2611 94.6436 69.1754 93.5166 69.1754C92.3902 69.1754 91.4766 68.2611 91.4766 67.1354C91.4766 66.009 92.3902 65.0953 93.5166 65.0953C94.6442 65.0953 95.5567 66.0083 95.5567 67.1354Z" fill="#2E1E00"/>
<path d="M132.038 65.8092C132.038 66.935 131.124 67.8493 129.998 67.8493C128.872 67.8493 127.958 66.935 127.958 65.8092C127.958 64.6828 128.872 63.7692 129.998 63.7692C131.124 63.7692 132.038 64.6828 132.038 65.8092Z" fill="#2E1E00"/>
<path d="M119.826 182.269C119.826 184.978 117.63 187.173 114.923 187.173C112.214 187.173 110.019 184.978 110.019 182.269C110.019 179.561 112.214 177.365 114.923 177.365C117.63 177.365 119.826 179.561 119.826 182.269Z" fill="#73B7EA"/>
<path d="M114.922 187.793C111.876 187.793 109.398 185.315 109.398 182.269C109.398 179.223 111.876 176.745 114.922 176.745C117.968 176.745 120.446 179.223 120.446 182.269C120.446 185.315 117.968 187.793 114.922 187.793ZM114.922 177.986C112.56 177.986 110.639 179.907 110.639 182.269C110.639 184.632 112.56 186.553 114.922 186.553C117.284 186.553 119.206 184.631 119.206 182.269C119.206 179.907 117.285 177.986 114.922 177.986Z" fill="#2E1E00"/>
<path d="M119.826 200.877C119.826 203.586 117.63 205.781 114.923 205.781C112.214 205.781 110.019 203.586 110.019 200.877C110.019 198.169 112.214 195.973 114.923 195.973C117.63 195.973 119.826 198.169 119.826 200.877Z" fill="#73B7EA"/>
<path d="M114.922 206.401C111.876 206.401 109.398 203.923 109.398 200.877C109.398 197.831 111.876 195.353 114.922 195.353C117.968 195.353 120.446 197.831 120.446 200.877C120.446 203.923 117.968 206.401 114.922 206.401ZM114.922 196.594C112.56 196.594 110.639 198.515 110.639 200.877C110.639 203.24 112.56 205.161 114.922 205.161C117.284 205.161 119.206 203.239 119.206 200.877C119.206 198.515 117.285 196.594 114.922 196.594Z" fill="#2E1E00"/>
<path d="M119.826 219.485C119.826 222.194 117.63 224.389 114.923 224.389C112.214 224.389 110.019 222.194 110.019 219.485C110.019 216.776 112.214 214.581 114.923 214.581C117.63 214.581 119.826 216.776 119.826 219.485Z" fill="#73B7EA"/>
<path d="M114.922 225.009C111.876 225.009 109.398 222.531 109.398 219.484C109.398 216.439 111.876 213.961 114.922 213.961C117.968 213.961 120.446 216.439 120.446 219.484C120.446 222.531 117.968 225.009 114.922 225.009ZM114.922 215.202C112.56 215.202 110.639 217.123 110.639 219.484C110.639 221.848 112.56 223.769 114.922 223.769C117.284 223.769 119.206 221.847 119.206 219.484C119.206 217.122 117.285 215.202 114.922 215.202Z" fill="#2E1E00"/>
</svg>
