<svg width="247" height="56" viewBox="0 0 247 56" fill="none" xmlns="http://www.w3.org/2000/svg">
<g clip-path="url(#clip0_3538_33734)">
<path d="M52.024 24.8047C50.8135 24.8047 49.7588 24.6672 48.8601 24.392C47.9614 24.1169 47.2094 23.6217 46.604 22.9063C45.9988 22.1727 45.5495 21.1273 45.256 19.77C44.9626 18.3944 44.8159 16.6153 44.8159 14.4326C44.8159 12.3784 44.9626 10.6819 45.256 9.34295C45.5678 8.00402 46.0264 6.95857 46.6316 6.20658C47.2552 5.45458 48.0256 4.93185 48.9426 4.63839C49.8597 4.34492 50.9234 4.19819 52.134 4.19819C53.1611 4.19819 54.2158 4.28073 55.2979 4.4458C56.3983 4.59253 57.3429 4.77595 58.1316 4.99604V7.08695C57.6548 7.01359 56.9028 6.93106 55.8756 6.83934C54.8486 6.7293 53.7664 6.67428 52.6292 6.67428C51.7121 6.67428 50.9326 6.78433 50.2908 7.00442C49.6488 7.20618 49.1261 7.59135 48.7225 8.15993C48.319 8.71017 48.0256 9.49885 47.8421 10.526C47.6588 11.5348 47.567 12.8462 47.567 14.4602C47.567 16.111 47.6496 17.4498 47.8147 18.477C47.998 19.5041 48.2824 20.3019 48.6675 20.8705C49.0527 21.4208 49.5662 21.8059 50.2082 22.026C50.8501 22.2277 51.648 22.3286 52.6018 22.3286C53.9773 22.3286 55.1053 22.2919 55.9857 22.2185C56.866 22.1452 57.5814 22.0718 58.1316 21.9985V24.1169C57.3063 24.3187 56.3617 24.4837 55.2979 24.6121C54.2524 24.7406 53.1611 24.8047 52.024 24.8047ZM61.2413 24.6397V9.9207H63.3598L63.9926 12.3968C64.6162 11.6447 65.3132 11.012 66.0835 10.4985C66.8539 9.9849 67.7526 9.72812 68.7797 9.72812C69.2932 9.72812 69.7334 9.78314 70.1002 9.89319V12.7269C69.8435 12.6903 69.5683 12.6627 69.2749 12.6443C68.9998 12.6077 68.7246 12.5893 68.4495 12.5893C67.5141 12.5893 66.707 12.7636 66.0284 13.1121C65.3682 13.4422 64.6896 13.9375 63.9926 14.5977V24.6397H61.2413ZM76.8411 31.16L78.6294 24.6397C77.749 24.6397 76.942 24.3736 76.2083 23.8418C75.4747 23.2915 74.9153 22.3562 74.5301 21.0356L71.2287 9.9207H74.1174L77.0888 20.4578C77.3088 21.1181 77.5657 21.5767 77.8591 21.8334C78.1525 22.0718 78.4276 22.2185 78.6844 22.2737C78.9412 22.3103 79.0972 22.3286 79.1521 22.3286L82.5911 9.9207H85.4249L80.3626 28.4363L79.042 31.16H76.8411ZM87.8131 31.16V9.9207H90.069L90.5643 11.4064C91.0778 11.0395 91.7473 10.6727 92.5727 10.3059C93.4164 9.9207 94.2784 9.72812 95.1587 9.72812C96.4243 9.72812 97.4423 10.0674 98.2126 10.7461C98.983 11.4064 99.5424 12.3143 99.8909 13.4698C100.239 14.6069 100.414 15.8725 100.414 17.2665C100.414 19.7058 100.01 21.5767 99.2031 22.8789C98.396 24.1811 97.048 24.8323 95.1587 24.8323C94.3884 24.8323 93.5998 24.7222 92.7927 24.5021C91.9858 24.2637 91.2429 23.9519 90.5643 23.5667V31.16H87.8131ZM94.3334 22.5212C94.957 22.5212 95.5165 22.3653 96.0116 22.0536C96.5069 21.7418 96.9012 21.2098 97.1947 20.4578C97.5065 19.6875 97.6624 18.6237 97.6624 17.2665C97.6624 15.9641 97.5065 14.9279 97.1947 14.1576C96.8829 13.3872 96.4793 12.837 95.9842 12.5068C95.4889 12.1584 94.9478 11.9841 94.361 11.9841C93.5906 11.9841 92.8845 12.1034 92.2425 12.3417C91.6189 12.5802 91.0595 12.8278 90.5643 13.0846V21.4758C91.1145 21.7876 91.7198 22.0444 92.38 22.2461C93.0404 22.4296 93.6914 22.5212 94.3334 22.5212ZM108.862 24.6397C107.358 24.6397 106.248 24.2729 105.533 23.5391C104.836 22.8055 104.506 21.5399 104.543 19.7425L104.653 12.1767H102.314V10.3884L104.708 9.9207L105.12 5.79389H107.294V9.9207H111.283V12.1767H107.294V19.715C107.294 20.467 107.395 21.0356 107.596 21.4208C107.798 21.7876 108.055 22.0444 108.367 22.1911C108.678 22.3195 108.981 22.402 109.275 22.4387L111.09 22.6037V24.6397H108.862ZM120.06 24.8047C118.556 24.8047 117.327 24.5938 116.373 24.1719C115.42 23.7318 114.713 22.9706 114.255 21.8885C113.797 20.788 113.567 19.2473 113.567 17.2665C113.567 15.2122 113.797 13.644 114.255 12.5619C114.732 11.4798 115.447 10.7369 116.401 10.3334C117.355 9.92987 118.575 9.72812 120.06 9.72812C121.527 9.72812 122.738 9.93905 123.692 10.3609C124.663 10.7644 125.379 11.5072 125.838 12.5893C126.314 13.6715 126.553 15.2305 126.553 17.2665C126.553 19.2839 126.324 20.8338 125.865 21.9159C125.407 22.9981 124.7 23.7501 123.747 24.1719C122.793 24.5938 121.564 24.8047 120.06 24.8047ZM120.06 22.5487C120.665 22.5487 121.197 22.4937 121.656 22.3836C122.133 22.2737 122.527 22.0444 122.839 21.6958C123.169 21.329 123.408 20.7972 123.554 20.1002C123.719 19.3848 123.802 18.431 123.802 17.2389C123.802 16.065 123.719 15.1296 123.554 14.4326C123.408 13.7174 123.169 13.1854 122.839 12.837C122.527 12.4885 122.133 12.2592 121.656 12.1492C121.197 12.0208 120.665 11.9565 120.06 11.9565C119.436 11.9565 118.886 12.0208 118.409 12.1492C117.951 12.2592 117.566 12.4885 117.254 12.837C116.942 13.1854 116.712 13.7174 116.566 14.4326C116.419 15.1296 116.346 16.065 116.346 17.2389C116.346 18.431 116.419 19.3848 116.566 20.1002C116.712 20.7972 116.942 21.329 117.254 21.6958C117.566 22.0444 117.951 22.2737 118.409 22.3836C118.886 22.4937 119.436 22.5487 120.06 22.5487ZM129.997 24.6397V8.60012C129.997 7.51799 130.207 6.66511 130.629 6.0415C131.052 5.4179 131.584 4.98688 132.225 4.74843C132.867 4.49166 133.527 4.36326 134.206 4.36326C134.958 4.38161 135.81 4.39995 136.765 4.41829C137.718 4.41829 138.709 4.43663 139.736 4.47331C140.763 4.50999 141.772 4.57419 142.762 4.66589V6.92189H134.893C134.216 6.92189 133.693 7.1053 133.325 7.47212C132.959 7.83896 132.775 8.37085 132.775 9.06783V13.7724L141.524 13.9375V16.0834L132.775 16.2485V24.6397H129.997ZM150.957 24.8047C149.453 24.8047 148.225 24.5938 147.27 24.1719C146.317 23.7318 145.61 22.9706 145.152 21.8885C144.693 20.788 144.465 19.2473 144.465 17.2665C144.465 15.2122 144.693 13.644 145.152 12.5619C145.63 11.4798 146.344 10.7369 147.298 10.3334C148.251 9.92987 149.471 9.72812 150.957 9.72812C152.425 9.72812 153.635 9.93905 154.588 10.3609C155.561 10.7644 156.276 11.5072 156.734 12.5893C157.211 13.6715 157.45 15.2305 157.45 17.2665C157.45 19.2839 157.22 20.8338 156.762 21.9159C156.304 22.9981 155.598 23.7501 154.644 24.1719C153.69 24.5938 152.462 24.8047 150.957 24.8047ZM150.957 22.5487C151.562 22.5487 152.094 22.4937 152.553 22.3836C153.029 22.2737 153.425 22.0444 153.736 21.6958C154.066 21.329 154.305 20.7972 154.452 20.1002C154.616 19.3848 154.699 18.431 154.699 17.2389C154.699 16.065 154.616 15.1296 154.452 14.4326C154.305 13.7174 154.066 13.1854 153.736 12.837C153.425 12.4885 153.029 12.2592 152.553 12.1492C152.094 12.0208 151.562 11.9565 150.957 11.9565C150.334 11.9565 149.784 12.0208 149.306 12.1492C148.848 12.2592 148.463 12.4885 148.151 12.837C147.839 13.1854 147.61 13.7174 147.463 14.4326C147.316 15.1296 147.243 16.065 147.243 17.2389C147.243 18.431 147.316 19.3848 147.463 20.1002C147.61 20.7972 147.839 21.329 148.151 21.6958C148.463 22.0444 148.848 22.2737 149.306 22.3836C149.784 22.4937 150.334 22.5487 150.957 22.5487ZM165.131 24.8047C163.737 24.8047 162.664 24.4379 161.912 23.7042C161.159 22.9523 160.784 21.8151 160.784 20.2927V9.9207H163.535V19.5499C163.535 20.6504 163.782 21.3932 164.278 21.7784C164.792 22.1636 165.507 22.3562 166.423 22.3562C167.157 22.3562 167.855 22.2461 168.514 22.026C169.175 21.8059 169.835 21.4849 170.496 21.063V9.9207H173.246V24.6397H171.046L170.496 23.044C169.78 23.5209 168.955 23.9335 168.019 24.282C167.102 24.6305 166.14 24.8047 165.131 24.8047ZM177.039 24.6397V9.9207H179.24L179.791 11.5164C180.432 11.0395 181.212 10.6177 182.129 10.2508C183.046 9.86567 183.991 9.67309 184.963 9.67309C186.063 9.67309 186.943 9.91153 187.604 10.3884C188.282 10.8469 188.769 11.4614 189.062 12.2317C189.355 13.0021 189.502 13.8366 189.502 14.7353V24.6397H186.751V15.0654C186.751 14.2034 186.503 13.5064 186.008 12.9745C185.513 12.4426 184.834 12.1767 183.973 12.1767C183.147 12.1767 182.414 12.2959 181.771 12.5344C181.129 12.7728 180.469 13.0938 179.791 13.4972V24.6397H177.039ZM198.054 24.8047C196.275 24.8047 194.945 24.2177 194.065 23.044C193.203 21.8701 192.771 19.9901 192.771 17.404C192.771 15.5881 192.946 14.1208 193.294 13.0021C193.662 11.8649 194.249 11.0395 195.055 10.526C195.863 9.99406 196.954 9.72812 198.329 9.72812C199.099 9.72812 199.861 9.81065 200.613 9.97573C201.365 10.1408 202.034 10.3242 202.621 10.526V3.64795H205.373V24.6397H203.116L202.621 23.1815C202.327 23.4383 201.924 23.695 201.41 23.9519C200.897 24.1903 200.347 24.392 199.76 24.5571C199.173 24.7222 198.604 24.8047 198.054 24.8047ZM198.935 22.5487C199.686 22.5487 200.365 22.4296 200.97 22.1911C201.594 21.9527 202.145 21.705 202.621 21.4482V12.5068C202.053 12.3417 201.493 12.195 200.943 12.0666C200.411 11.9199 199.815 11.8466 199.154 11.8466C198.274 11.8466 197.568 12.0025 197.036 12.3143C196.522 12.6261 196.147 13.1763 195.909 13.9649C195.67 14.7536 195.55 15.8541 195.55 17.2665C195.55 19.2289 195.808 20.6045 196.321 21.3932C196.835 22.1636 197.705 22.5487 198.935 22.5487ZM214.951 24.8047C213.392 24.8047 212.144 24.5755 211.209 24.1169C210.292 23.6584 209.632 22.8881 209.228 21.8059C208.843 20.7054 208.651 19.1923 208.651 17.2665C208.651 15.3039 208.843 13.7816 209.228 12.6994C209.632 11.5989 210.292 10.8286 211.209 10.3884C212.126 9.94821 213.364 9.72812 214.923 9.72812C216.262 9.72812 217.353 9.87485 218.197 10.1683C219.041 10.4618 219.655 10.9662 220.04 11.6815C220.443 12.3968 220.646 13.3872 220.646 14.6527C220.646 16.0284 220.252 16.9913 219.462 17.5415C218.674 18.0734 217.61 18.3394 216.271 18.3394H211.402C211.419 19.4032 211.539 20.2561 211.759 20.8981C211.997 21.5216 212.411 21.9801 212.998 22.2737C213.602 22.5487 214.483 22.6863 215.638 22.6863H220.233V24.337C219.444 24.447 218.637 24.5479 217.811 24.6397C217.005 24.7497 216.051 24.8047 214.951 24.8047ZM211.374 16.6061H216.024C216.757 16.6061 217.298 16.4686 217.647 16.1934C217.995 15.9 218.17 15.3956 218.17 14.6803C218.17 13.5615 217.922 12.8002 217.427 12.3968C216.931 11.9749 216.097 11.764 214.923 11.764C214.006 11.764 213.291 11.9016 212.777 12.1767C212.264 12.4518 211.897 12.9471 211.677 13.6623C211.474 14.3593 211.374 15.3406 211.374 16.6061ZM224.003 24.6397V9.9207H226.122L226.754 12.3968C227.378 11.6447 228.075 11.012 228.846 10.4985C229.616 9.9849 230.514 9.72812 231.541 9.72812C232.055 9.72812 232.496 9.78314 232.862 9.89319V12.7269C232.605 12.6903 232.33 12.6627 232.036 12.6443C231.762 12.6077 231.486 12.5893 231.211 12.5893C230.276 12.5893 229.469 12.7636 228.791 13.1121C228.13 13.4422 227.451 13.9375 226.754 14.5977V24.6397H224.003ZM240.593 24.8047C240.08 24.8047 239.437 24.7864 238.668 24.7497C237.915 24.713 237.191 24.658 236.494 24.5847C235.797 24.5113 235.274 24.4288 234.926 24.337V22.6863H241.116C241.905 22.6863 242.529 22.5763 242.987 22.3562C243.464 22.136 243.702 21.6225 243.702 20.8155V20.2102C243.702 19.66 243.519 19.2289 243.152 18.9171C242.785 18.6053 242.18 18.4494 241.336 18.4494H239.19C238.329 18.4494 237.558 18.3394 236.879 18.1193C236.218 17.8809 235.697 17.4865 235.311 16.9363C234.944 16.386 234.76 15.6433 234.76 14.7078V13.9099C234.76 12.516 235.165 11.4798 235.971 10.8011C236.796 10.1225 238.191 9.78314 240.153 9.78314C240.703 9.78314 241.318 9.81065 241.997 9.86567C242.675 9.90235 243.326 9.95738 243.95 10.0308C244.592 10.1041 245.106 10.1867 245.491 10.2784V11.9291H239.658C238.85 11.9291 238.228 12.0666 237.788 12.3417C237.365 12.6169 237.155 13.1396 237.155 13.9099V14.4602C237.155 15.1938 237.374 15.6615 237.814 15.8633C238.274 16.065 238.887 16.166 239.658 16.166H241.859C243.234 16.166 244.28 16.4961 244.995 17.1564C245.728 17.7984 246.096 18.7062 246.096 19.8801V21.008C246.096 21.9985 245.866 22.7688 245.408 23.3191C244.968 23.8693 244.335 24.2545 243.51 24.4746C242.684 24.6946 241.712 24.8047 240.593 24.8047ZM45.6136 54.8797V34.6033H47.8696L57.8015 50.1475V34.6033H60.5528V54.8797H58.3242L48.3924 39.3354V54.8797H45.6136ZM70.0019 55.0447C68.4428 55.0447 67.1956 54.8155 66.2602 54.3569C65.3431 53.8984 64.6828 53.1281 64.2793 52.0459C63.8942 50.9454 63.7015 49.4323 63.7015 47.5065C63.7015 45.5439 63.8942 44.0216 64.2793 42.9394C64.6828 41.8389 65.3431 41.0686 66.2602 40.6284C67.1772 40.1882 68.4153 39.9681 69.9743 39.9681C71.3133 39.9681 72.4045 40.1148 73.2482 40.4084C74.092 40.7018 74.7064 41.2061 75.0916 41.9215C75.495 42.6368 75.6968 43.6272 75.6968 44.8927C75.6968 46.2684 75.3025 47.2313 74.5138 47.7815C73.7251 48.3134 72.6613 48.5794 71.3223 48.5794H66.4528C66.4711 49.6432 66.5903 50.4961 66.8104 51.1381C67.0489 51.7616 67.4615 52.2201 68.0485 52.5136C68.6537 52.7887 69.5341 52.9263 70.6896 52.9263H75.2841V54.577C74.4954 54.687 73.6884 54.7879 72.863 54.8797C72.056 54.9897 71.1023 55.0447 70.0019 55.0447ZM66.4252 46.8461H71.0748C71.8084 46.8461 72.3495 46.7086 72.698 46.4334C73.0465 46.1399 73.2207 45.6356 73.2207 44.9203C73.2207 43.8015 72.9731 43.0402 72.4778 42.6368C71.9827 42.2149 71.1482 42.004 69.9743 42.004C69.0572 42.004 68.3419 42.1416 67.8284 42.4167C67.3148 42.6918 66.948 43.1871 66.7279 43.9023C66.5262 44.5993 66.4252 45.5806 66.4252 46.8461ZM84.1441 54.8797C82.6401 54.8797 81.5305 54.5128 80.8151 53.7791C80.1181 53.0455 79.788 51.7799 79.8247 49.9824L79.9347 42.4167H77.5962V40.6284L79.9898 40.1607L80.4024 36.0339H82.5759V40.1607H86.5651V42.4167H82.5759V49.955C82.5759 50.707 82.6768 51.2756 82.8785 51.6608C83.0803 52.0276 83.337 52.2844 83.6488 52.4311C83.9606 52.5595 84.2633 52.642 84.5567 52.6787L86.3726 52.8437V54.8797H84.1441ZM92.1782 54.8797L87.8864 40.1607H90.7201L93.9391 52.321L97.4056 40.1607H99.744L103.211 52.321L106.292 40.1607H109.126L104.889 54.8797H101.835L98.5335 43.9574L95.1771 54.8797H92.1782ZM116.97 55.0447C115.467 55.0447 114.237 54.8338 113.284 54.4119C112.33 53.9718 111.624 53.2106 111.165 52.1285C110.707 51.028 110.477 49.4873 110.477 47.5065C110.477 45.4522 110.707 43.8841 111.165 42.8019C111.642 41.7198 112.357 40.9769 113.311 40.5733C114.265 40.1699 115.485 39.9681 116.97 39.9681C118.437 39.9681 119.648 40.1791 120.602 40.6009C121.574 41.0044 122.289 41.7472 122.748 42.8293C123.225 43.9115 123.464 45.4705 123.464 47.5065C123.464 49.5239 123.234 51.0738 122.775 52.1559C122.317 53.2381 121.611 53.9901 120.657 54.4119C119.703 54.8338 118.474 55.0447 116.97 55.0447ZM116.97 52.7887C117.576 52.7887 118.108 52.7337 118.566 52.6236C119.043 52.5136 119.437 52.2844 119.749 51.9358C120.079 51.569 120.318 51.0372 120.464 50.3402C120.629 49.6248 120.712 48.671 120.712 47.4789C120.712 46.305 120.629 45.3696 120.464 44.6726C120.318 43.9574 120.079 43.4254 119.749 43.077C119.437 42.7285 119.043 42.4992 118.566 42.3892C118.108 42.2608 117.576 42.1965 116.97 42.1965C116.347 42.1965 115.796 42.2608 115.32 42.3892C114.861 42.4992 114.476 42.7285 114.164 43.077C113.852 43.4254 113.623 43.9574 113.477 44.6726C113.33 45.3696 113.256 46.305 113.256 47.4789C113.256 48.671 113.33 49.6248 113.477 50.3402C113.623 51.0372 113.852 51.569 114.164 51.9358C114.476 52.2844 114.861 52.5136 115.32 52.6236C115.796 52.7337 116.347 52.7887 116.97 52.7887ZM126.825 54.8797V40.1607H128.943L129.575 42.6368C130.199 41.8847 130.896 41.2521 131.666 40.7384C132.437 40.2249 133.335 39.9681 134.362 39.9681C134.876 39.9681 135.317 40.0232 135.683 40.1332V42.9669C135.426 42.9303 135.151 42.9027 134.857 42.8843C134.583 42.8477 134.307 42.8293 134.032 42.8293C133.097 42.8293 132.29 43.0036 131.612 43.352C130.951 43.6822 130.272 44.1775 129.575 44.8377V54.8797H126.825ZM138.27 54.8797V33.8879H141.021V45.8007H143.029L147.128 40.1607H149.99L145.065 47.0388L150.348 54.8797H147.486L142.947 48.2768H141.021V54.8797H138.27Z" fill="black"/>
<path d="M16.744 13.0125L21.0143 8.74219L16.744 13.0125Z" fill="black"/>
<path fill-rule="evenodd" clip-rule="evenodd" d="M22.2451 7.51178C22.9249 8.19154 22.9249 9.29365 22.2451 9.97342L17.9748 14.2437C17.295 14.9235 16.1929 14.9235 15.5131 14.2437C14.8334 13.564 14.8334 12.4619 15.5131 11.7821L19.7835 7.51177C20.4632 6.83201 21.5653 6.83201 22.2451 7.51178Z" fill="black"/>
<path d="M5.90558 23.851L10.1837 19.5806L5.90558 23.851Z" fill="black"/>
<path fill-rule="evenodd" clip-rule="evenodd" d="M11.4156 18.3508C12.0948 19.0311 12.0938 20.1333 11.4134 20.8124L7.13527 25.0829C6.4549 25.762 5.35279 25.761 4.67364 25.0806C3.99448 24.4003 3.99547 23.2982 4.67584 22.619L8.95396 18.3486C9.63434 17.6694 10.7365 17.6704 11.4156 18.3508Z" fill="black"/>
<path d="M13.4797 18.0257C14.441 18.0257 15.2204 17.2464 15.2204 16.2851C15.2204 15.3237 14.441 14.5444 13.4797 14.5444C12.5184 14.5444 11.7391 15.3237 11.7391 16.2851C11.7391 17.2464 12.5184 18.0257 13.4797 18.0257Z" fill="black"/>
<path d="M17.2623 21.0965L24.3176 14.041L17.2623 21.0965Z" fill="black"/>
<path fill-rule="evenodd" clip-rule="evenodd" d="M25.4117 12.9473C26.0159 13.5515 26.0159 14.5312 25.4117 15.1354L18.3563 22.1909C17.7521 22.7951 16.7725 22.7951 16.1682 22.1909C15.564 21.5867 15.564 20.607 16.1682 20.0028L23.2235 12.9473C23.8278 12.3431 24.8074 12.3431 25.4117 12.9473Z" fill="black"/>
<path d="M13.9823 25.9167C14.8368 25.9167 15.5295 25.224 15.5295 24.3694C15.5295 23.515 14.8368 22.8223 13.9823 22.8223C13.1278 22.8223 12.4351 23.515 12.4351 24.3694C12.4351 25.224 13.1278 25.9167 13.9823 25.9167Z" fill="black"/>
<path d="M27.6367 12.262C28.4911 12.262 29.184 11.5692 29.184 10.7147C29.184 9.8602 28.4911 9.16748 27.6367 9.16748C26.7821 9.16748 26.0894 9.8602 26.0894 10.7147C26.0894 11.5692 26.7821 12.262 27.6367 12.262Z" fill="black"/>
<path d="M20.1172 26.8292L23.8771 23.0693L20.1172 26.8292Z" fill="black"/>
<path fill-rule="evenodd" clip-rule="evenodd" d="M24.8344 22.1123C25.3631 22.6411 25.3631 23.4983 24.8344 24.027L21.0746 27.7868C20.5459 28.3155 19.6887 28.3155 19.16 27.7868C18.6313 27.2581 18.6313 26.4009 19.16 25.8722L22.9198 22.1123C23.4485 21.5836 24.3057 21.5836 24.8344 22.1123Z" fill="black"/>
<path d="M27.3275 20.9733C28.0752 20.9733 28.6813 20.3672 28.6813 19.6195C28.6813 18.8718 28.0752 18.2656 27.3275 18.2656C26.5798 18.2656 25.9736 18.8718 25.9736 19.6195C25.9736 20.3672 26.5798 20.9733 27.3275 20.9733Z" fill="black"/>
<path d="M9.92837 2.63818L6.16858 6.40572L9.92837 2.63818Z" fill="black"/>
<path fill-rule="evenodd" clip-rule="evenodd" d="M10.8847 1.67972C11.414 2.20789 11.4148 3.06509 10.8867 3.59433L7.12688 7.36187C6.59872 7.89112 5.74152 7.892 5.21227 7.36384C4.68302 6.83568 4.68214 5.97848 5.2103 5.44923L8.9701 1.68169C9.49826 1.15244 10.3555 1.15156 10.8847 1.67972Z" fill="black"/>
<path d="M2.71809 11.2101C3.4658 11.2101 4.07192 10.604 4.07192 9.85628C4.07192 9.10857 3.4658 8.50244 2.71809 8.50244C1.97039 8.50244 1.36426 9.10857 1.36426 9.85628C1.36426 10.604 1.97039 11.2101 2.71809 11.2101Z" fill="black"/>
<path d="M11.0115 28.8875C11.866 28.8875 12.5588 28.1948 12.5588 27.3402C12.5588 26.4857 11.866 25.793 11.0115 25.793C10.157 25.793 9.46423 26.4857 9.46423 27.3402C9.46423 28.1948 10.157 28.8875 11.0115 28.8875Z" fill="black"/>
<path d="M24.3874 7.11752C25.3487 7.11752 26.1281 6.33821 26.1281 5.37688C26.1281 4.41554 25.3487 3.63623 24.3874 3.63623C23.4261 3.63623 22.6468 4.41554 22.6468 5.37688C22.6468 6.33821 23.4261 7.11752 24.3874 7.11752Z" fill="black"/>
<path d="M19.0421 3.66724C19.8965 3.66724 20.5893 2.97451 20.5893 2.11999C20.5893 1.26548 19.8965 0.572754 19.0421 0.572754C18.1875 0.572754 17.4948 1.26548 17.4948 2.11999C17.4948 2.97451 18.1875 3.66724 19.0421 3.66724Z" fill="black"/>
<path d="M9.01616 12.146L5.97583 15.1941L9.01616 12.146Z" fill="black"/>
<path fill-rule="evenodd" clip-rule="evenodd" d="M10.1088 11.0504C10.7138 11.6539 10.7151 12.6335 10.1116 13.2385L7.07129 16.2866C6.46782 16.8916 5.48816 16.8929 4.88316 16.2894C4.27815 15.6859 4.27691 14.7063 4.88037 14.1013L7.9207 11.0532C8.52417 10.4482 9.50383 10.447 10.1088 11.0504Z" fill="black"/>
<path d="M15.6767 5.48535L12.6364 8.53341L15.6767 5.48535Z" fill="black"/>
<path fill-rule="evenodd" clip-rule="evenodd" d="M16.7694 4.38978C17.3744 4.99325 17.3756 5.97291 16.7722 6.57791L13.7318 9.62597C13.1283 10.231 12.1487 10.2322 11.5437 9.62873C10.9387 9.02526 10.9374 8.04561 11.5409 7.44061L14.5813 4.39255C15.1847 3.78755 16.1644 3.78631 16.7694 4.38978Z" fill="black"/>
<path d="M2.41674 20.2922C3.27127 20.2922 3.96399 19.5995 3.96399 18.7449C3.96399 17.8905 3.27127 17.1978 2.41674 17.1978C1.56223 17.1978 0.869507 17.8905 0.869507 18.7449C0.869507 19.5995 1.56223 20.2922 2.41674 20.2922Z" fill="black"/>
</g>
<defs>
<clipPath id="clip0_3538_33734">
<rect width="245.28" height="56" fill="white" transform="translate(0.869507)"/>
</clipPath>
</defs>
</svg>
