<svg width="655" height="200" viewBox="0 0 655 200" fill="none" xmlns="http://www.w3.org/2000/svg">
<path d="M224.85 98.7396C224.676 93.9719 225.473 89.2182 227.193 84.764C228.913 80.3098 231.521 76.2475 234.86 72.8208C238.198 69.3941 242.199 66.6734 246.622 64.8229C251.045 62.9719 255.798 62.0292 260.596 62.0507C278.676 62.0507 289.377 72.5986 292.605 84.9814L281.259 88.7876C280.261 84.1713 277.622 80.0671 273.827 77.2283C270.031 74.3895 265.334 73.0066 260.596 73.3324C248.881 73.3324 237.166 81.8167 237.166 98.9688C237.166 116.121 248.604 124.284 260.734 124.284C265.498 124.422 270.171 122.964 274.002 120.145C277.833 117.325 280.599 113.308 281.859 108.737L292.882 112.315C290.995 119.293 286.763 125.418 280.889 129.673C275.016 133.928 267.854 136.056 260.596 135.703C255.754 135.794 250.946 134.889 246.473 133.044C242 131.199 237.959 128.456 234.603 124.985C231.247 121.515 228.648 117.392 226.97 112.875C225.292 108.359 224.57 103.547 224.85 98.7396Z" fill="#2E317C"/>
<path d="M314.745 134.007H303.123V61.8667H314.745V90.1632C316.438 88.1726 318.563 86.59 320.959 85.5334C323.356 84.4769 325.963 83.9745 328.582 84.0636C340.621 84.0636 346.432 92.6396 346.432 103.326V134.007H335.132V105.297C335.344 103.901 335.237 102.475 334.818 101.125C334.399 99.7754 333.68 98.5369 332.714 97.5013C331.748 96.4663 330.56 95.6605 329.238 95.144C327.916 94.6281 326.494 94.4144 325.077 94.5202C323.671 94.5213 322.281 94.8128 320.995 95.3759C319.708 95.9396 318.554 96.7626 317.604 97.7933C316.654 98.8235 315.931 100.039 315.478 101.363C315.025 102.686 314.855 104.088 314.976 105.481L314.745 134.007Z" fill="#2E317C"/>
<path d="M372.399 106.214L384.898 104.288C387.712 103.92 388.496 102.499 388.496 100.802C388.496 96.7203 385.728 93.4182 379.271 93.4182C378.026 93.3119 376.772 93.4585 375.586 93.8482C374.399 94.2385 373.304 94.8639 372.368 95.6874C371.432 96.5109 370.675 97.5148 370.14 98.6385C369.607 99.7621 369.308 100.982 369.263 102.224L358.654 99.8388C359.53 91.4464 367.187 83.9708 379.179 83.9708C394.215 83.9708 399.934 92.4551 399.934 102.315V126.393C399.908 129.004 400.108 131.612 400.534 134.189H389.695C389.323 132.147 389.168 130.072 389.234 127.998C387.615 130.465 385.376 132.47 382.739 133.813C380.101 135.156 377.157 135.792 374.197 135.657C372.134 135.825 370.057 135.576 368.093 134.924C366.13 134.273 364.319 133.231 362.771 131.864C361.223 130.496 359.97 128.831 359.088 126.968C358.206 125.105 357.713 123.084 357.639 121.027C357.639 112.176 364.05 107.406 372.399 106.214ZM388.496 114.01V111.809L375.766 113.689C374.036 113.748 372.395 114.467 371.185 115.696C369.973 116.926 369.285 118.572 369.263 120.293C369.277 121.182 369.477 122.057 369.849 122.865C370.222 123.673 370.759 124.394 371.427 124.985C372.094 125.575 372.878 126.022 373.728 126.296C374.578 126.569 375.476 126.665 376.366 126.576C378.045 126.747 379.742 126.534 381.327 125.955C382.911 125.376 384.343 124.445 385.512 123.234C386.682 122.023 387.558 120.563 388.075 118.964C388.592 117.366 388.736 115.672 388.496 114.01Z" fill="#2E317C"/>
<path d="M419.674 60.8581C420.682 60.8458 421.681 61.0326 422.615 61.4078C423.549 61.7826 424.399 62.3377 425.115 63.042C425.832 63.7458 426.401 64.5838 426.789 65.5083C427.177 66.4322 427.377 67.4237 427.377 68.4255C427.377 70.4198 426.58 72.3332 425.161 73.7434C423.743 75.1543 421.819 75.9466 419.813 75.9466C417.807 75.9466 415.883 75.1543 414.464 73.7434C413.045 72.3332 412.249 70.4198 412.249 68.4255C412.248 66.4499 413.025 64.5521 414.412 63.1381C415.799 61.7246 417.688 60.9059 419.674 60.8581ZM414.002 134.236V85.4858H425.486V134.007L414.002 134.236Z" fill="#2E317C"/>
<path d="M452.146 134.007H440.522V85.4855H451.869V91.9518C453.341 89.4694 455.459 87.4267 457.999 86.039C460.539 84.6507 463.409 83.9684 466.305 84.0634C478.205 84.0634 483.924 92.6395 483.924 103.325V134.007H472.301V105.297C472.301 99.3355 469.58 94.5201 462.293 94.5201C460.842 94.5286 459.41 94.8427 458.09 95.4407C456.77 96.0388 455.592 96.9079 454.634 97.9902C453.676 99.073 452.958 100.345 452.53 101.723C452.101 103.101 451.97 104.554 452.146 105.985V134.007Z" fill="#2E317C"/>
<path d="M498.085 134.007V61.8667H509.708V134.007H498.085Z" fill="#2E317C"/>
<path d="M530.463 60.8575C532.482 60.8575 534.418 61.6548 535.845 63.0742C537.274 64.493 538.074 66.4176 538.074 68.4249C538.063 69.9082 537.612 71.3561 536.78 72.586C535.945 73.8159 534.763 74.7725 533.383 75.3362C532.002 75.8999 530.486 76.0448 529.022 75.7533C527.56 75.4613 526.216 74.7462 525.161 73.6967C524.106 72.6477 523.387 71.312 523.093 69.8572C522.8 68.4023 522.946 66.8944 523.512 65.5216C524.079 64.1495 525.042 62.9743 526.279 62.1444C527.516 61.3144 528.971 60.8667 530.463 60.8575ZM524.744 134.235V85.4852H536.275V134.006L524.744 134.235Z" fill="#2E317C"/>
<path d="M562.933 134.006H551.311V85.4853H562.611V91.9515C564.087 89.4756 566.208 87.4388 568.747 86.0516C571.287 84.6644 574.153 83.9783 577.047 84.0632C588.992 84.0632 594.709 92.6392 594.709 103.325V134.006H583.086V105.297C583.301 103.901 583.194 102.474 582.775 101.125C582.356 99.775 581.637 98.5365 580.671 97.5009C579.704 96.4659 578.518 95.6601 577.192 95.1436C575.871 94.6277 574.448 94.414 573.031 94.5198C571.587 94.5279 570.154 94.8414 568.838 95.44C567.518 96.0385 566.342 96.9082 565.387 97.9921C564.431 99.0755 563.722 100.348 563.298 101.726C562.874 103.104 562.751 104.556 562.933 105.985V134.006Z" fill="#2E317C"/>
<path d="M634.468 105.986L654.949 134.007H640.696L626.351 114.011L620.355 120.294V134.052H608.823V61.8667H620.355V105.114L639.085 85.4857H654.535L634.468 105.986Z" fill="#2E317C"/>
<path d="M87.1265 42.3756L137.401 71.0845V128.732L87.265 157.625L36.9908 128.962V71.3138L87.1265 42.3756ZM87.1265 0L68.6773 10.6398L18.4493 39.5782L0 50.218V71.4056V129.007V150.195L18.4493 160.743L68.7235 189.452L87.1727 200L105.622 189.36L155.758 160.422L174.207 149.828V128.641V70.9927V49.8051L155.758 39.2571L105.484 10.5481L87.0347 0H87.1265Z" fill="#2E317C"/>
</svg>
