<svg width="211" height="48" viewBox="0 0 211 48" fill="none" xmlns="http://www.w3.org/2000/svg">
<g opacity="0.35" clip-path="url(#clip0_1240_38213)">
<path d="M43.9201 21.2613C42.8825 21.2613 41.9785 21.1435 41.2082 20.9076C40.4379 20.6718 39.7933 20.2473 39.2744 19.6341C38.7557 19.0053 38.3705 18.1093 38.119 16.9459C37.8675 15.7668 37.7417 14.2418 37.7417 12.371C37.7417 10.6102 37.8675 9.15602 38.119 8.00838C38.3862 6.86073 38.7793 5.96463 39.2981 5.32006C39.8326 4.67549 40.4929 4.22744 41.2789 3.9759C42.065 3.72436 42.9768 3.59859 44.0144 3.59859C44.8948 3.59859 45.7988 3.66933 46.7263 3.81083C47.6695 3.9366 48.4792 4.09381 49.1552 4.28246V6.07467C48.7465 6.01179 48.1019 5.94105 47.2215 5.86243C46.3412 5.76811 45.4136 5.72095 44.4389 5.72095C43.6528 5.72095 42.9846 5.81528 42.4345 6.00393C41.8842 6.17686 41.4362 6.50701 41.0903 6.99436C40.7444 7.466 40.4929 8.14201 40.3356 9.0224C40.1785 9.88707 40.0998 11.0111 40.0998 12.3946C40.0998 13.8095 40.1706 14.9571 40.3121 15.8375C40.4692 16.718 40.713 17.4018 41.0431 17.8892C41.3733 18.3608 41.8134 18.6909 42.3637 18.8796C42.9139 19.0525 43.5978 19.139 44.4153 19.139C45.5944 19.139 46.5612 19.1075 47.3159 19.0446C48.0704 18.9817 48.6836 18.9188 49.1552 18.856V20.6718C48.4478 20.8447 47.6381 20.9862 46.7263 21.0962C45.8302 21.2063 44.8948 21.2613 43.9201 21.2613ZM51.8207 21.1198V8.5036H53.6365L54.1789 10.626C54.7134 9.98134 55.3109 9.43901 55.9711 8.99881C56.6314 8.55862 57.4017 8.33852 58.2822 8.33852C58.7223 8.33852 59.0996 8.38569 59.414 8.48002V10.9089C59.194 10.8775 58.9581 10.8539 58.7066 10.8381C58.4708 10.8068 58.2349 10.791 57.9991 10.791C57.1973 10.791 56.5056 10.9404 55.9239 11.239C55.358 11.522 54.7763 11.9466 54.1789 12.5125V21.1198H51.8207ZM65.1919 26.7087L66.7248 21.1198C65.9701 21.1198 65.2784 20.8918 64.6495 20.4359C64.0207 19.9643 63.5412 19.1626 63.2111 18.0307L60.3813 8.5036H62.8573L65.4042 17.5354C65.5928 18.1014 65.813 18.4944 66.0645 18.7145C66.316 18.9188 66.5518 19.0446 66.7719 19.0918C66.992 19.1232 67.1257 19.139 67.1728 19.139L70.1205 8.5036H72.5495L68.2104 24.3741L67.0784 26.7087H65.1919ZM74.5965 26.7087V8.5036H76.5301L76.9546 9.77706C77.3948 9.46259 77.9687 9.14817 78.6761 8.83374C79.3993 8.5036 80.1382 8.33852 80.8927 8.33852C81.9775 8.33852 82.8501 8.62937 83.5104 9.21105C84.1707 9.77706 84.6502 10.5552 84.9488 11.5457C85.2476 12.5204 85.3969 13.6052 85.3969 14.8C85.3969 16.8908 85.0511 18.4944 84.3593 19.6106C83.6675 20.7268 82.5121 21.285 80.8927 21.285C80.2325 21.285 79.5565 21.1906 78.8647 21.002C78.1731 20.7976 77.5363 20.5303 76.9546 20.2002V26.7087H74.5965ZM80.1853 19.304C80.7198 19.304 81.1994 19.1704 81.6238 18.9032C82.0483 18.6359 82.3863 18.1799 82.6378 17.5354C82.9051 16.8751 83.0387 15.9633 83.0387 14.8C83.0387 13.6837 82.9051 12.7955 82.6378 12.1352C82.3706 11.4749 82.0247 11.0033 81.6003 10.7203C81.1757 10.4216 80.712 10.2722 80.2089 10.2722C79.5486 10.2722 78.9434 10.3745 78.3931 10.5788C77.8586 10.7831 77.3791 10.9954 76.9546 11.2155V18.4079C77.4263 18.6752 77.9451 18.8953 78.511 19.0682C79.077 19.2255 79.635 19.304 80.1853 19.304ZM92.6383 21.1198C91.3493 21.1198 90.3981 20.8054 89.7849 20.1765C89.1875 19.5477 88.9046 18.4629 88.936 16.9222L89.0304 10.4373H87.0259V8.90448L89.0775 8.5036L89.4313 4.96633H91.2942V8.5036H94.7136V10.4373H91.2942V16.8987C91.2942 17.5433 91.3806 18.0307 91.5535 18.3608C91.7265 18.6752 91.9466 18.8953 92.2138 19.0211C92.4811 19.1311 92.7405 19.2019 92.9921 19.2333L94.5485 19.3748V21.1198H92.6383ZM102.237 21.2613C100.947 21.2613 99.8942 21.0806 99.0763 20.7189C98.2593 20.3417 97.6536 19.6892 97.2609 18.7617C96.8683 17.8184 96.6715 16.4978 96.6715 14.8C96.6715 13.0391 96.8683 11.695 97.2609 10.7675C97.6699 9.83994 98.2824 9.20319 99.1003 8.85732C99.9182 8.51146 100.964 8.33852 102.237 8.33852C103.494 8.33852 104.532 8.51932 105.35 8.88091C106.182 9.22677 106.796 9.86346 107.189 10.791C107.597 11.7186 107.802 13.0549 107.802 14.8C107.802 16.5292 107.606 17.8577 107.212 18.7852C106.82 19.7128 106.214 20.3574 105.397 20.7189C104.579 21.0806 103.526 21.2613 102.237 21.2613ZM102.237 19.3276C102.755 19.3276 103.211 19.2805 103.605 19.1861C104.014 19.0918 104.351 18.8953 104.618 18.5966C104.902 18.2822 105.106 17.8263 105.232 17.2289C105.373 16.6157 105.444 15.7982 105.444 14.7764C105.444 13.7702 105.373 12.9684 105.232 12.371C105.106 11.7579 104.902 11.3019 104.618 11.0033C104.351 10.7046 104.014 10.508 103.605 10.4137C103.211 10.3037 102.755 10.2486 102.237 10.2486C101.702 10.2486 101.231 10.3037 100.822 10.4137C100.429 10.508 100.099 10.7046 99.8318 11.0033C99.564 11.3019 99.3672 11.7579 99.2414 12.371C99.1157 12.9684 99.0533 13.7702 99.0533 14.7764C99.0533 15.7982 99.1157 16.6157 99.2414 17.2289C99.3672 17.8263 99.564 18.2822 99.8318 18.5966C100.099 18.8953 100.429 19.0918 100.822 19.1861C101.231 19.2805 101.702 19.3276 102.237 19.3276ZM110.754 21.1198V7.37167C110.754 6.44413 110.934 5.71309 111.296 5.17857C111.658 4.64405 112.114 4.2746 112.664 4.07022C113.214 3.85013 113.78 3.74008 114.361 3.74008C115.007 3.7558 115.737 3.77153 116.555 3.78724C117.372 3.78724 118.222 3.80297 119.102 3.83441C119.982 3.86585 120.847 3.92087 121.696 3.99948V5.93319H114.951C114.37 5.93319 113.922 6.0904 113.607 6.40482C113.293 6.71924 113.136 7.17516 113.136 7.77257V11.8051L120.634 11.9466V13.7859L113.136 13.9274V21.1198H110.754ZM128.72 21.2613C127.431 21.2613 126.378 21.0806 125.56 20.7189C124.743 20.3417 124.137 19.6892 123.744 18.7617C123.351 17.8184 123.155 16.4978 123.155 14.8C123.155 13.0391 123.351 11.695 123.744 10.7675C124.153 9.83994 124.766 9.20319 125.584 8.85732C126.401 8.51146 127.446 8.33852 128.72 8.33852C129.978 8.33852 131.015 8.51932 131.832 8.88091C132.666 9.22677 133.279 9.86346 133.672 10.791C134.081 11.7186 134.285 13.0549 134.285 14.8C134.285 16.5292 134.088 17.8577 133.696 18.7852C133.303 19.7128 132.697 20.3574 131.88 20.7189C131.063 21.0806 130.009 21.2613 128.72 21.2613ZM128.72 19.3276C129.239 19.3276 129.695 19.2805 130.088 19.1861C130.496 19.0918 130.835 18.8953 131.102 18.5966C131.385 18.2822 131.59 17.8263 131.715 17.2289C131.856 16.6157 131.928 15.7982 131.928 14.7764C131.928 13.7702 131.856 12.9684 131.715 12.371C131.59 11.7579 131.385 11.3019 131.102 11.0033C130.835 10.7046 130.496 10.508 130.088 10.4137C129.695 10.3037 129.239 10.2486 128.72 10.2486C128.185 10.2486 127.714 10.3037 127.305 10.4137C126.912 10.508 126.582 10.7046 126.314 11.0033C126.048 11.3019 125.851 11.7579 125.725 12.371C125.599 12.9684 125.537 13.7702 125.537 14.7764C125.537 15.7982 125.599 16.6157 125.725 17.2289C125.851 17.8263 126.048 18.2822 126.314 18.5966C126.582 18.8953 126.912 19.0918 127.305 19.1861C127.714 19.2805 128.185 19.3276 128.72 19.3276ZM140.869 21.2613C139.674 21.2613 138.754 20.9469 138.11 20.318C137.465 19.6735 137.143 18.6988 137.143 17.3939V8.5036H139.501V16.7572C139.501 17.7005 139.713 18.3372 140.137 18.6673C140.578 18.9975 141.191 19.1626 141.977 19.1626C142.606 19.1626 143.204 19.0682 143.769 18.8796C144.336 18.6909 144.901 18.4158 145.467 18.0542V8.5036H147.825V21.1198H145.939L145.467 19.7521C144.854 20.1609 144.146 20.5146 143.345 20.8133C142.559 21.112 141.734 21.2613 140.869 21.2613ZM151.076 21.1198V8.5036H152.962L153.434 9.87133C153.984 9.46259 154.653 9.101 155.439 8.78658C156.225 8.45643 157.034 8.29136 157.868 8.29136C158.81 8.29136 159.565 8.49573 160.131 8.90448C160.713 9.29752 161.13 9.82419 161.381 10.4845C161.633 11.1448 161.759 11.8601 161.759 12.6304V21.1198H159.401V12.9134C159.401 12.1745 159.188 11.5771 158.763 11.1212C158.339 10.6652 157.757 10.4373 157.019 10.4373C156.312 10.4373 155.683 10.5395 155.132 10.7439C154.582 10.9483 154.016 11.2234 153.434 11.5692V21.1198H151.076ZM169.089 21.2613C167.564 21.2613 166.424 20.7582 165.67 19.7521C164.93 18.746 164.561 17.1345 164.561 14.9179C164.561 13.3614 164.711 12.1037 165.009 11.1448C165.324 10.1701 165.827 9.46259 166.518 9.0224C167.21 8.56648 168.145 8.33852 169.324 8.33852C169.985 8.33852 170.638 8.40927 171.282 8.55076C171.927 8.69225 172.5 8.84947 173.003 9.0224V3.12695H175.362V21.1198H173.427L173.003 19.87C172.751 20.0901 172.406 20.3102 171.965 20.5303C171.526 20.7347 171.054 20.9076 170.551 21.0491C170.048 21.1906 169.56 21.2613 169.089 21.2613ZM169.844 19.3276C170.488 19.3276 171.07 19.2255 171.588 19.0211C172.123 18.8167 172.595 18.6044 173.003 18.3843V10.7203C172.516 10.5788 172.036 10.453 171.565 10.343C171.109 10.2172 170.598 10.1543 170.032 10.1543C169.277 10.1543 168.672 10.288 168.216 10.5552C167.776 10.8225 167.454 11.2941 167.25 11.9701C167.045 12.6461 166.943 13.5894 166.943 14.8C166.943 16.4821 167.163 17.6612 167.603 18.3372C168.044 18.9975 168.79 19.3276 169.844 19.3276ZM183.572 21.2613C182.235 21.2613 181.166 21.0648 180.364 20.6718C179.578 20.2788 179.013 19.6185 178.666 18.6909C178.337 17.7476 178.172 16.4507 178.172 14.8C178.172 13.1178 178.337 11.8129 178.666 10.8854C179.013 9.94208 179.578 9.28179 180.364 8.90448C181.151 8.52717 182.211 8.33852 183.548 8.33852C184.696 8.33852 185.631 8.46429 186.354 8.71583C187.078 8.96737 187.604 9.3997 187.934 10.0128C188.28 10.626 188.453 11.4749 188.453 12.5596C188.453 13.7388 188.115 14.5641 187.439 15.0357C186.763 15.4916 185.851 15.7196 184.704 15.7196H180.529C180.545 16.6315 180.648 17.3625 180.836 17.9128C181.04 18.4472 181.394 18.8402 181.897 19.0918C182.416 19.3276 183.17 19.4455 184.161 19.4455H188.099V20.8604C187.423 20.9547 186.731 21.0412 186.024 21.1198C185.332 21.2142 184.514 21.2613 183.572 21.2613ZM180.505 14.234H184.491C185.12 14.234 185.584 14.1161 185.882 13.8802C186.181 13.6287 186.331 13.1964 186.331 12.5832C186.331 11.6243 186.119 10.9718 185.694 10.626C185.269 10.2644 184.554 10.0836 183.548 10.0836C182.761 10.0836 182.149 10.2015 181.708 10.4373C181.269 10.6731 180.954 11.0976 180.766 11.7107C180.592 12.3081 180.505 13.1492 180.505 14.234ZM191.33 21.1198V8.5036H193.147L193.689 10.626C194.224 9.98134 194.821 9.43901 195.481 8.99881C196.142 8.55862 196.912 8.33852 197.792 8.33852C198.233 8.33852 198.61 8.38569 198.924 8.48002V10.9089C198.704 10.8775 198.468 10.8539 198.216 10.8381C197.981 10.8068 197.745 10.791 197.509 10.791C196.707 10.791 196.016 10.9404 195.434 11.239C194.868 11.522 194.286 11.9466 193.689 12.5125V21.1198H191.33ZM205.551 21.2613C205.111 21.2613 204.56 21.2456 203.901 21.2142C203.256 21.1827 202.634 21.1356 202.037 21.0727C201.44 21.0098 200.992 20.9391 200.693 20.8604V19.4455H205.999C206.675 19.4455 207.21 19.3512 207.602 19.1626C208.011 18.9739 208.216 18.5337 208.216 17.842V17.3231C208.216 16.8516 208.058 16.4821 207.744 16.2148C207.43 15.9476 206.911 15.8139 206.187 15.8139H204.348C203.61 15.8139 202.949 15.7196 202.368 15.531C201.801 15.3266 201.354 14.9886 201.024 14.517C200.709 14.0453 200.551 13.4086 200.551 12.6068V11.9229C200.551 10.7281 200.898 9.83994 201.589 9.25821C202.296 8.67653 203.492 8.38569 205.174 8.38569C205.645 8.38569 206.172 8.40927 206.754 8.45643C207.336 8.48787 207.893 8.53504 208.428 8.59793C208.978 8.66081 209.419 8.73156 209.749 8.81016V10.2251H204.749C204.057 10.2251 203.523 10.343 203.146 10.5788C202.784 10.8146 202.604 11.2627 202.604 11.9229V12.3946C202.604 13.0234 202.792 13.4243 203.169 13.5973C203.563 13.7702 204.089 13.8567 204.749 13.8567H206.636C207.815 13.8567 208.711 14.1397 209.324 14.7056C209.952 15.2559 210.267 16.034 210.267 17.0402V18.007C210.267 18.856 210.071 19.5163 209.678 19.9879C209.301 20.4596 208.758 20.7897 208.051 20.9783C207.343 21.167 206.51 21.2613 205.551 21.2613ZM38.4255 47.0398V29.6601H40.3592L48.8722 42.9837V29.6601H51.2305V47.0398H49.3203L40.8073 33.7162V47.0398H38.4255ZM59.3297 47.1813C57.9934 47.1813 56.9243 46.9848 56.1225 46.5918C55.3365 46.1988 54.7705 45.5385 54.4247 44.6109C54.0945 43.6676 53.9294 42.3707 53.9294 40.72C53.9294 39.0378 54.0945 37.7329 54.4247 36.8054C54.7705 35.8621 55.3365 35.2018 56.1225 34.8245C56.9086 34.4471 57.9698 34.2585 59.3061 34.2585C60.4538 34.2585 61.3891 34.3843 62.1123 34.6359C62.8355 34.8874 63.3622 35.3197 63.6923 35.9328C64.0381 36.546 64.2111 37.3949 64.2111 38.4796C64.2111 39.6588 63.8731 40.4841 63.1971 40.9557C62.521 41.4116 61.6092 41.6397 60.4615 41.6397H56.2877C56.3033 42.5515 56.4055 43.2825 56.5942 43.8328C56.7986 44.3672 57.1522 44.7602 57.6554 45.0118C58.1741 45.2476 58.9288 45.3655 59.9192 45.3655H63.8573V46.7804C63.1813 46.8747 62.4896 46.9612 61.7821 47.0398C61.0904 47.1342 60.2729 47.1813 59.3297 47.1813ZM56.264 40.154H60.2494C60.8782 40.154 61.342 40.0361 61.6407 39.8002C61.9394 39.5487 62.0887 39.1164 62.0887 38.5032C62.0887 37.5443 61.8765 36.8918 61.452 36.546C61.0276 36.1844 60.3123 36.0036 59.3061 36.0036C58.52 36.0036 57.9069 36.1215 57.4667 36.3573C57.0265 36.5931 56.7121 37.0176 56.5234 37.6307C56.3505 38.2281 56.264 39.0693 56.264 40.154ZM71.4516 47.0398C70.1624 47.0398 69.2114 46.7254 68.5982 46.0965C68.0008 45.4677 67.7178 44.3829 67.7493 42.8422L67.8436 36.3573H65.8392V34.8245L67.8908 34.4236L68.2445 30.8863H70.1074V34.4236H73.5268V36.3573H70.1074V42.8187C70.1074 43.4633 70.1939 43.9507 70.3668 44.2808C70.5398 44.5952 70.7598 44.8153 71.0271 44.9411C71.2944 45.0511 71.5538 45.1219 71.8053 45.1533L73.3617 45.2948V47.0398H71.4516ZM78.338 47.0398L74.6593 34.4236H77.0882L79.8473 44.8467L82.8186 34.4236H84.823L87.7943 44.8467L90.4354 34.4236H92.8644L89.2328 47.0398H86.6152L83.7854 37.6779L80.9085 47.0398H78.338ZM99.588 47.1813C98.2997 47.1813 97.2456 47.0006 96.4286 46.6389C95.6109 46.2617 95.0056 45.6092 94.6126 44.6817C94.2196 43.7384 94.023 42.4178 94.023 40.72C94.023 38.9591 94.2196 37.615 94.6126 36.6875C95.0214 35.7599 95.6345 35.1232 96.4517 34.7773C97.2696 34.4315 98.315 34.2585 99.588 34.2585C100.846 34.2585 101.883 34.4394 102.701 34.8009C103.535 35.1468 104.147 35.7835 104.541 36.711C104.95 37.6386 105.154 38.9749 105.154 40.72C105.154 42.4492 104.957 43.7777 104.564 44.7052C104.171 45.6328 103.566 46.2774 102.748 46.6389C101.93 47.0006 100.877 47.1813 99.588 47.1813ZM99.588 45.2476C100.107 45.2476 100.563 45.2005 100.956 45.1061C101.365 45.0118 101.703 44.8153 101.97 44.5166C102.253 44.2022 102.457 43.7463 102.583 43.1489C102.724 42.5357 102.795 41.7182 102.795 40.6963C102.795 39.6902 102.724 38.8884 102.583 38.291C102.457 37.6779 102.253 37.2219 101.97 36.9233C101.703 36.6246 101.365 36.428 100.956 36.3337C100.563 36.2237 100.107 36.1686 99.588 36.1686C99.0542 36.1686 98.5819 36.2237 98.1739 36.3337C97.7803 36.428 97.4501 36.6246 97.1832 36.9233C96.9153 37.2219 96.7195 37.6779 96.5937 38.291C96.468 38.8884 96.4046 39.6902 96.4046 40.6963C96.4046 41.7182 96.468 42.5357 96.5937 43.1489C96.7195 43.7463 96.9153 44.2022 97.1832 44.5166C97.4501 44.8153 97.7803 45.0118 98.1739 45.1061C98.5819 45.2005 99.0542 45.2476 99.588 45.2476ZM108.035 47.0398V34.4236H109.85L110.393 36.546C110.927 35.9013 111.525 35.359 112.185 34.9188C112.846 34.4786 113.616 34.2585 114.496 34.2585C114.936 34.2585 115.314 34.3057 115.628 34.4V36.8289C115.408 36.7975 115.172 36.7739 114.92 36.7581C114.685 36.7268 114.449 36.711 114.213 36.711C113.411 36.711 112.72 36.8604 112.138 37.159C111.572 37.442 110.99 37.8666 110.393 38.4325V47.0398H108.035ZM117.845 47.0398V29.0469H120.203V39.2579H121.924L125.438 34.4236H127.891L123.67 40.3191L128.198 47.0398H125.745L121.854 41.3803H120.203V47.0398H117.845Z" fill="black"/>
<path d="M13.6802 11.1539L17.3405 7.49365Z" fill="black"/>
<path fill-rule="evenodd" clip-rule="evenodd" d="M18.3962 6.43895C18.9789 7.0216 18.9789 7.96627 18.3962 8.54892L14.7359 12.2092C14.1533 12.7919 13.2086 12.7919 12.626 12.2092C12.0433 11.6265 12.0433 10.6819 12.626 10.0992L16.2862 6.43894C16.8689 5.85629 17.8136 5.85629 18.3962 6.43895Z" fill="black"/>
<path d="M4.39062 20.4441L8.05758 16.7837Z" fill="black"/>
<path fill-rule="evenodd" clip-rule="evenodd" d="M9.11331 15.7297C9.69544 16.3129 9.6946 17.2575 9.11142 17.8397L5.44446 21.5C4.86128 22.0822 3.91661 22.0813 3.33448 21.4982C2.75235 20.915 2.7532 19.9703 3.33638 19.3882L7.00334 15.7278C7.58651 15.1457 8.53118 15.1465 9.11331 15.7297Z" fill="black"/>
<path d="M10.8826 15.4508C11.7066 15.4508 12.3746 14.7828 12.3746 13.9588C12.3746 13.1348 11.7066 12.4668 10.8826 12.4668C10.0586 12.4668 9.39062 13.1348 9.39062 13.9588C9.39062 14.7828 10.0586 15.4508 10.8826 15.4508Z" fill="black"/>
<path d="M14.125 18.0832L20.1724 12.0356Z" fill="black"/>
<path fill-rule="evenodd" clip-rule="evenodd" d="M21.1097 11.0981C21.6277 11.6161 21.6277 12.4558 21.1098 12.9737L15.0623 19.0212C14.5444 19.5391 13.7047 19.5391 13.1868 19.0212C12.6689 18.5033 12.6689 17.6636 13.1868 17.1457L19.2342 11.0982C19.7521 10.5802 20.5918 10.5802 21.1097 11.0981Z" fill="black"/>
<path d="M11.3131 22.2144C12.0454 22.2144 12.6392 21.6206 12.6392 20.8882C12.6392 20.1558 12.0454 19.562 11.3131 19.562C10.5806 19.562 9.98682 20.1558 9.98682 20.8882C9.98682 21.6206 10.5806 22.2144 11.3131 22.2144Z" fill="black"/>
<path d="M23.0167 10.5108C23.7491 10.5108 24.3429 9.91705 24.3429 9.1846C24.3429 8.45216 23.7491 7.8584 23.0167 7.8584C22.2842 7.8584 21.6904 8.45216 21.6904 9.1846C21.6904 9.91705 22.2842 10.5108 23.0167 10.5108Z" fill="black"/>
<path d="M16.5718 22.9969L19.7945 19.7742Z" fill="black"/>
<path fill-rule="evenodd" clip-rule="evenodd" d="M20.6148 18.9537C21.068 19.4068 21.068 20.1416 20.6148 20.5947L17.3921 23.8175C16.9389 24.2706 16.2042 24.2706 15.751 23.8175C15.2978 23.3643 15.2978 22.6295 15.751 22.1764L18.9737 18.9537C19.4269 18.5005 20.1617 18.5005 20.6148 18.9537Z" fill="black"/>
<path d="M22.7522 17.9774C23.3931 17.9774 23.9127 17.4578 23.9127 16.8169C23.9127 16.176 23.3931 15.6565 22.7522 15.6565C22.1113 15.6565 21.5918 16.176 21.5918 16.8169C21.5918 17.4578 22.1113 17.9774 22.7522 17.9774Z" fill="black"/>
<path d="M7.8384 2.26172L4.61572 5.49103Z" fill="black"/>
<path fill-rule="evenodd" clip-rule="evenodd" d="M8.65838 1.44011C9.11202 1.89282 9.11278 2.62756 8.66007 3.08121L5.43739 6.31052C4.98468 6.76416 4.24993 6.76492 3.79629 6.31221C3.34265 5.8595 3.3419 5.12476 3.79461 4.67111L7.01729 1.4418C7.47 0.988159 8.20474 0.987403 8.65838 1.44011Z" fill="black"/>
<path d="M1.65847 9.60894C2.29937 9.60894 2.8189 9.08941 2.8189 8.44852C2.8189 7.80763 2.29937 7.28809 1.65847 7.28809C1.01759 7.28809 0.498047 7.80763 0.498047 8.44852C0.498047 9.08941 1.01759 9.60894 1.65847 9.60894Z" fill="black"/>
<path d="M8.76712 24.7609C9.49956 24.7609 10.0934 24.1671 10.0934 23.4346C10.0934 22.7022 9.49956 22.1084 8.76712 22.1084C8.03468 22.1084 7.44092 22.7022 7.44092 23.4346C7.44092 24.1671 8.03468 24.7609 8.76712 24.7609Z" fill="black"/>
<path d="M20.2317 6.10115C21.0556 6.10115 21.7237 5.43317 21.7237 4.60917C21.7237 3.78517 21.0556 3.11719 20.2317 3.11719C19.4077 3.11719 18.7397 3.78517 18.7397 4.60917C18.7397 5.43317 19.4077 6.10115 20.2317 6.10115Z" fill="black"/>
<path d="M15.6505 3.14363C16.3828 3.14363 16.9766 2.54986 16.9766 1.81742C16.9766 1.08497 16.3828 0.491211 15.6505 0.491211C14.918 0.491211 14.3242 1.08497 14.3242 1.81742C14.3242 2.54986 14.918 3.14363 15.6505 3.14363Z" fill="black"/>
<path d="M7.05668 10.4109L4.45068 13.0235Z" fill="black"/>
<path fill-rule="evenodd" clip-rule="evenodd" d="M7.99329 9.4722C8.51186 9.98946 8.51293 10.8292 7.99568 11.3477L5.38968 13.9604C4.87242 14.479 4.03272 14.48 3.51414 13.9628C2.99557 13.4455 2.9945 12.6058 3.51176 12.0872L6.11775 9.47459C6.63501 8.95602 7.47471 8.95495 7.99329 9.4722Z" fill="black"/>
<path d="M12.7652 4.7019L10.1592 7.31452Z" fill="black"/>
<path fill-rule="evenodd" clip-rule="evenodd" d="M13.7023 3.76323C14.2209 4.28049 14.2219 5.12019 13.7047 5.63876L11.0987 8.25139C10.5814 8.76996 9.74169 8.77102 9.22312 8.25376C8.70455 7.7365 8.70349 6.89679 9.22075 6.37822L11.8268 3.7656C12.344 3.24703 13.1837 3.24597 13.7023 3.76323Z" fill="black"/>
<path d="M1.39993 17.3938C2.13238 17.3938 2.72614 16.8001 2.72614 16.0676C2.72614 15.3352 2.13238 14.7415 1.39993 14.7415C0.667493 14.7415 0.0737305 15.3352 0.0737305 16.0676C0.0737305 16.8001 0.667493 17.3938 1.39993 17.3938Z" fill="black"/>
</g>
<defs>
<clipPath id="clip0_1240_38213">
<rect width="210.24" height="48" fill="white" transform="translate(0.0737305)"/>
</clipPath>
</defs>
</svg>
