<svg width="74" height="48" viewBox="0 0 74 48" fill="none" xmlns="http://www.w3.org/2000/svg">
<path d="M3.3643 39.563C3.83972 40.0457 4.41391 40.2871 5.08682 40.2871C5.75972 40.2871 6.33024 40.0457 6.79836 39.563C7.27378 39.0728 7.5115 38.4842 7.5115 37.7966C7.5115 37.1089 7.27378 36.5239 6.79836 36.0411C6.33024 35.551 5.75972 35.3061 5.08682 35.3061C4.41391 35.3061 3.83972 35.551 3.3643 36.0411C2.89619 36.5239 2.66213 37.1089 2.66213 37.7966C2.66213 38.4842 2.89619 39.0728 3.3643 39.563ZM7.92842 40.6491C7.1458 41.4317 6.19858 41.8231 5.08682 41.8231C3.97506 41.8231 3.02419 41.4317 2.23425 40.6491C1.45162 39.8592 1.0603 38.9083 1.0603 37.7966C1.0603 36.6849 1.45162 35.7375 2.23425 34.955C3.02419 34.165 3.97506 33.7701 5.08682 33.7701C6.19858 33.7701 7.1458 34.165 7.92842 34.955C8.71836 35.7375 9.11333 36.6849 9.11333 37.7966C9.11333 38.9083 8.71836 39.8592 7.92842 40.6491ZM10.1749 41.6914V33.6823H11.678V41.6914H10.1749ZM15.2827 43.8199H13.648L14.7232 41.3842L12.4192 36.2057H14.0649L15.535 39.7605L16.9942 36.2057H18.6509L15.2827 43.8199ZM26.2905 41.6914V38.795C26.2905 37.9099 25.976 37.4674 25.3469 37.4674C24.8715 37.4674 24.5204 37.6833 24.2937 38.1147C24.3229 38.239 24.3376 38.3781 24.3376 38.5317V41.6914H22.8345V38.795C22.8345 37.9099 22.52 37.4674 21.8909 37.4674C21.6788 37.4674 21.4813 37.5223 21.2985 37.632C21.1156 37.7343 20.9767 37.8734 20.8816 38.0489V41.6914H19.3785V36.2057H20.8816V36.6336C21.2034 36.268 21.6496 36.085 22.2201 36.085C22.8418 36.085 23.3575 36.3264 23.7671 36.8091C24.184 36.3264 24.7801 36.085 25.5554 36.085C26.2941 36.085 26.85 36.3119 27.2231 36.7653C27.6034 37.2186 27.7936 37.8075 27.7936 38.5317V41.6914H26.2905ZM29.1713 43.8199V36.2057H30.6744V36.6007C31.0329 36.257 31.5008 36.085 32.0787 36.085C32.8687 36.085 33.516 36.3667 34.0207 36.9298C34.5328 37.4858 34.7887 38.1586 34.7887 38.9486C34.7887 39.7385 34.5328 40.4152 34.0207 40.9783C33.516 41.5343 32.8687 41.8121 32.0787 41.8121C31.4937 41.8121 31.0255 41.6366 30.6744 41.2855V43.8199H29.1713ZM31.8593 40.4407C32.2688 40.4407 32.6018 40.2981 32.8577 40.0128C33.1136 39.7201 33.2417 39.3655 33.2417 38.9486C33.2417 38.5317 33.1136 38.1806 32.8577 37.8953C32.6018 37.6027 32.2688 37.4565 31.8593 37.4565C31.362 37.4565 30.9671 37.6539 30.6744 38.0489V39.8373C30.9671 40.2396 31.362 40.4407 31.8593 40.4407ZM40.9028 36.2057V41.6914H39.3997V41.2526C39.0415 41.6256 38.5917 41.8121 38.0502 41.8121C37.3554 41.8121 36.8104 41.5927 36.4155 41.1538C36.0279 40.7076 35.834 40.119 35.834 39.3874V36.2057H37.3371V39.1351C37.3371 40.0054 37.681 40.4407 38.3684 40.4407C38.7853 40.4407 39.1293 40.2322 39.3997 39.8153V36.2057H40.9028ZM44.1931 41.8121C43.1544 41.8121 42.4012 41.461 41.933 40.7589L42.9643 39.8811C43.2276 40.3055 43.6371 40.5175 44.1931 40.5175C44.3613 40.5175 44.5039 40.4846 44.621 40.4187C44.7381 40.3529 44.7965 40.2542 44.7965 40.1225C44.7965 40.0054 44.7453 39.9105 44.6429 39.8373C44.5478 39.7569 44.3541 39.6763 44.0615 39.5959L43.6555 39.4971C43.1508 39.3655 42.7668 39.1461 42.5035 38.8389C42.2476 38.5317 42.1269 38.166 42.1415 37.7417C42.156 37.2444 42.3535 36.8456 42.7339 36.5458C43.1215 36.2386 43.6116 36.085 44.2041 36.085C45.0453 36.085 45.6778 36.3922 46.1021 37.0066L45.1147 37.8075C44.8588 37.4858 44.5478 37.3248 44.1821 37.3248C44.036 37.3248 43.9079 37.3577 43.7981 37.4235C43.6884 37.4894 43.6336 37.5807 43.6336 37.6978C43.6336 37.9173 43.8127 38.0744 44.1712 38.1696L44.6868 38.3232C45.7475 38.6085 46.2777 39.1754 46.2777 40.0238C46.2777 40.543 46.0802 40.9709 45.6852 41.3074C45.2903 41.644 44.793 41.8121 44.1931 41.8121ZM53.8757 41.8231C52.6543 41.8231 51.6485 41.4391 50.8585 40.6711C50.076 39.9031 49.6846 38.945 49.6846 37.7966C49.6846 36.6555 50.0722 35.701 50.8476 34.933C51.6301 34.1576 52.5956 33.7701 53.744 33.7701C54.9144 33.7701 55.8651 34.1137 56.5966 34.8014L56.059 35.4158C55.4301 34.8453 54.6582 34.56 53.744 34.56C52.8224 34.56 52.0544 34.8708 51.44 35.4926C50.833 36.1144 50.5294 36.8824 50.5294 37.7966C50.5294 38.7256 50.8366 39.4971 51.451 40.1115C52.0728 40.7259 52.8808 41.0331 53.8757 41.0331C54.8192 41.0331 55.5543 40.8211 56.0809 40.3968V38.0928H53.7111V37.3029H56.9038V40.7369C56.1871 41.461 55.1777 41.8231 53.8757 41.8231ZM58.8858 34.7794C58.7176 34.7794 58.575 34.7246 58.4579 34.6149C58.3482 34.4977 58.2933 34.3589 58.2933 34.1979C58.2933 34.0369 58.3482 33.9017 58.4579 33.792C58.575 33.6749 58.7176 33.6165 58.8858 33.6165C59.0468 33.6165 59.182 33.6749 59.2917 33.792C59.4014 33.9017 59.4563 34.0369 59.4563 34.1979C59.4563 34.3589 59.4014 34.4977 59.2917 34.6149C59.182 34.7246 59.0468 34.7794 58.8858 34.7794ZM58.4908 41.6914V36.2057H59.2588V41.6914H58.4908ZM62.8594 41.6914L60.292 36.2057H61.1478L63.1556 40.5614L65.1634 36.2057H66.0301L63.4628 41.6914H62.8594ZM69.3355 41.8011C68.4946 41.8011 67.8143 41.5304 67.2948 40.9893C66.7756 40.4407 66.5159 39.7605 66.5159 38.9486C66.5159 38.1441 66.783 37.4674 67.3168 36.9189C67.8508 36.3703 68.531 36.096 69.3575 36.096C70.0964 36.096 70.7108 36.3448 71.2007 36.8421C71.6908 37.3393 71.9358 38.016 71.9358 38.8718V39.0802H67.3058C67.3058 39.6507 67.4962 40.1299 67.8763 40.5175C68.2568 40.8979 68.7431 41.088 69.3355 41.088C69.7744 41.088 70.1329 41.0038 70.4107 40.8357C70.696 40.6601 70.9412 40.4004 71.1458 40.0567L71.7712 40.4626C71.252 41.3549 70.4401 41.8011 69.3355 41.8011ZM67.3716 38.4H71.1348C71.0619 37.9099 70.8606 37.5223 70.5314 37.237C70.2023 36.9518 69.8002 36.8091 69.3246 36.8091C68.8492 36.8091 68.4249 36.9553 68.0519 37.248C67.6862 37.5333 67.4594 37.9173 67.3716 38.4Z" fill="#E5E7EB"/>
<path fill-rule="evenodd" clip-rule="evenodd" d="M33.8777 27.4541V27.3916V22.2545C29.9675 21.0236 27.1391 17.4475 27.1391 13.2278C27.1391 7.98989 31.4969 3.7437 36.8727 3.7437C42.2484 3.7437 46.6065 7.98989 46.6065 13.2278C46.6065 17.4476 43.7781 21.0237 39.8676 22.2545V26.0753V27.3916V27.4541H50.5996V23.5854H45.3001C48.4887 21.1696 50.5373 17.4142 50.5373 13.1966C50.5373 5.90833 44.4194 0 36.8727 0C29.326 0 23.2082 5.90833 23.2082 13.1966C23.2082 17.4142 25.2568 21.1696 28.4455 23.5854H23.1458V27.4541H33.8777Z" fill="#E5E7EB"/>
</svg>
