<svg width="675" height="200" viewBox="0 0 675 200" fill="none" xmlns="http://www.w3.org/2000/svg">
<path d="M549.274 106.198C546.253 104.981 544.495 101.542 545.073 97.9809C545.481 95.463 547.208 93.2291 554.064 86.3497C558.731 81.6666 562.55 77.2918 562.55 76.6284C562.55 75.9649 558.771 71.5819 554.153 66.8884C549.472 62.1325 545.499 57.3359 545.177 56.0531C543.796 50.5509 547.067 46.1368 552.524 46.1368C555.845 46.1368 556.52 46.6154 565.05 55.0203C570.008 59.9063 574.594 63.9039 575.241 63.9039C575.888 63.9039 580.474 59.9063 585.432 55.0203C593.898 46.6783 594.657 46.1368 597.883 46.1368C600.68 46.1368 601.725 46.6202 603.508 48.7398C607.623 53.6305 606.42 56.4528 595.384 67.7959L586.759 76.661L595.29 85.2999C604.945 95.0758 606.066 96.7925 605.337 100.68C604.436 105.48 599.81 107.988 595.136 106.211C593.784 105.697 588.761 101.423 583.974 96.7123L575.271 88.1478L566.424 96.7554C556.154 106.747 553.823 108.03 549.274 106.198ZM567.618 45.9254C563.408 43.0601 561.513 39.9659 561.056 35.2111C560.542 29.8612 561.808 26.6993 565.967 22.9414C575.865 13.9997 591.75 23.1134 589.274 36.3128C588.53 40.28 585.527 44.4 582.022 46.2624C577.808 48.5022 571.176 48.347 567.618 45.9254Z" fill="#2E317C"/>
<path d="M221.935 95.2511C212.947 89.6482 205.099 84.4133 204.495 83.6179C203.645 82.4994 203.39 75.6131 203.369 53.1949C203.343 25.3268 203.407 24.1529 205.034 22.5257C206.671 20.8888 207.854 20.8336 241.311 20.8336C272.433 20.8336 276.011 20.9735 277.056 22.2312C277.963 23.3223 278.31 29.3021 278.64 49.5019L279.064 75.3751L292.51 83.8499C307.536 93.3194 309.447 95.435 307.413 100.345C305.336 105.359 304.755 105.438 269.922 105.438H238.276L221.935 95.2511ZM266.373 50.8684V32.2553L241.94 32.0306C224.619 31.8713 217.169 32.0862 216.347 32.7687C215.436 33.5251 215.187 37.3237 215.187 50.4797C215.187 59.6912 215.42 67.8356 215.705 68.5786C216.167 69.7805 218.985 69.9046 241.298 69.7054L266.373 69.4814V50.8684Z" fill="#2E317C"/>
<path d="M416.465 98.3369C414.608 96.7393 414.111 95.5849 414.111 92.872C414.111 89.6617 414.673 88.8526 422.552 80.7261L430.993 72.0195L404.303 71.5965C380.453 71.2184 377.366 71.0112 375.288 69.6487C370.572 66.5553 370.436 60.2945 375.01 56.8766C377.28 55.1805 378.625 55.0789 404.191 54.6755L430.993 54.2525L422.321 45.2456C412.589 35.1377 411.856 33.2464 415.84 28.5129C417.644 26.3683 418.655 25.9099 421.578 25.9099C425.066 25.9099 425.412 26.1981 442.231 43.0895C457.729 58.6548 459.336 60.5383 459.336 63.136C459.336 65.7336 457.729 67.6172 442.231 83.1827C426.092 99.3909 424.947 100.362 421.973 100.362C419.867 100.362 418.038 99.6896 416.465 98.3369Z" fill="#2E317C"/>
<path d="M73.5149 105.946C69.7026 104.257 67.8423 101.098 68.523 97.47C69.4245 92.6641 72.3008 91.0842 80.1486 91.0842C84.7659 91.0842 86.9567 90.7526 87.2413 90.0107C87.468 89.4201 87.5512 79.6491 87.4263 68.2971L87.1994 47.6572L83.1292 51.1807C77.9789 55.6392 74.3496 55.9443 70.6364 52.2311C67.8906 49.4852 67.4903 46.5966 69.3616 43.0289C71.3686 39.2024 91.1895 20.2147 93.8824 19.539C97.1233 18.7255 100.168 19.9087 102.342 22.8263C104.059 25.1307 104.135 26.3476 104.543 57.9372L104.966 90.6613L111.735 91.0876C119.479 91.5756 121.652 92.5288 123.125 96.0851C124.469 99.3302 123.409 102.664 120.293 104.992C118.104 106.629 116.676 106.748 97.0805 106.936C80.6339 107.094 75.6305 106.884 73.5149 105.946Z" fill="#2E317C"/>
<path d="M497.436 0H493.273V126.018H497.436V0Z" fill="#2E317C"/>
<path d="M337.661 0.0100708H333.499V126.028H337.661V0.0100708Z" fill="#2E317C"/>
<path d="M177.902 0.0384521H173.739V126.056H177.902V0.0384521Z" fill="#2E317C"/>
<path d="M18.1628 0.0128784H14V126.031H18.1628V0.0128784Z" fill="#2E317C"/>
<path d="M657.247 0.0336304H653.084V126.052H657.247V0.0336304Z" fill="#2E317C"/>
<path d="M15.9287 175.517C15.9287 172.929 16.4414 170.601 17.4668 168.534C18.4922 166.451 19.9326 164.856 21.7881 163.749C23.6436 162.626 25.7757 162.065 28.1846 162.065C31.749 162.065 34.638 163.212 36.8516 165.507C39.0814 167.802 40.2858 170.845 40.4648 174.638L40.4893 176.029C40.4893 178.634 39.9847 180.961 38.9756 183.012C37.9827 185.063 36.5505 186.65 34.6787 187.773C32.8232 188.896 30.6748 189.457 28.2334 189.457C24.5062 189.457 21.5195 188.22 19.2734 185.746C17.0436 183.256 15.9287 179.944 15.9287 175.81V175.517ZM21.8613 176.029C21.8613 178.748 22.4229 180.88 23.5459 182.426C24.6689 183.956 26.2314 184.721 28.2334 184.721C30.2354 184.721 31.7897 183.94 32.8965 182.377C34.0195 180.815 34.5811 178.528 34.5811 175.517C34.5811 172.847 34.0033 170.732 32.8477 169.169C31.7083 167.607 30.154 166.825 28.1846 166.825C26.2477 166.825 24.7096 167.598 23.5703 169.145C22.431 170.675 21.8613 172.97 21.8613 176.029ZM61.5117 162.553L61.6826 165.605C63.6357 163.245 66.1992 162.065 69.373 162.065C74.8743 162.065 77.6738 165.214 77.7715 171.513V188.969H71.8389V171.855C71.8389 170.178 71.4727 168.941 70.7402 168.144C70.0241 167.33 68.8441 166.923 67.2002 166.923C64.8076 166.923 63.0254 168.005 61.8535 170.17V188.969H55.9209V162.553H61.5117ZM105.972 189.457C102.212 189.457 99.1602 188.277 96.8164 185.917C94.4889 183.541 93.3252 180.383 93.3252 176.444V175.712C93.3252 173.075 93.8298 170.723 94.8389 168.656C95.8643 166.573 97.2965 164.954 99.1357 163.798C100.975 162.642 103.026 162.065 105.288 162.065C108.885 162.065 111.66 163.212 113.613 165.507C115.583 167.802 116.567 171.049 116.567 175.248V177.641H99.3066C99.4857 179.822 100.21 181.547 101.479 182.817C102.765 184.086 104.377 184.721 106.313 184.721C109.032 184.721 111.245 183.622 112.954 181.425L116.152 184.477C115.094 186.055 113.678 187.284 111.904 188.163C110.146 189.026 108.169 189.457 105.972 189.457ZM105.264 166.825C103.636 166.825 102.318 167.395 101.309 168.534C100.316 169.674 99.681 171.261 99.4043 173.295H110.708V172.856C110.578 170.87 110.049 169.373 109.121 168.363C108.193 167.338 106.908 166.825 105.264 166.825ZM160.956 188.969H155.023V151.469H160.956V188.969ZM193.722 188.969C193.461 188.464 193.233 187.642 193.038 186.503C191.15 188.472 188.839 189.457 186.104 189.457C183.451 189.457 181.287 188.7 179.61 187.187C177.934 185.673 177.096 183.801 177.096 181.571C177.096 178.756 178.137 176.599 180.221 175.102C182.32 173.588 185.315 172.831 189.205 172.831H192.843V171.098C192.843 169.731 192.46 168.64 191.695 167.826C190.93 166.996 189.767 166.581 188.204 166.581C186.853 166.581 185.746 166.923 184.884 167.607C184.021 168.274 183.59 169.128 183.59 170.17H177.657C177.657 168.721 178.137 167.371 179.098 166.117C180.058 164.848 181.36 163.855 183.004 163.139C184.664 162.423 186.511 162.065 188.546 162.065C191.638 162.065 194.104 162.846 195.943 164.408C197.783 165.955 198.727 168.136 198.775 170.951V182.865C198.775 185.242 199.109 187.138 199.776 188.554V188.969H193.722ZM187.203 184.696C188.375 184.696 189.474 184.412 190.499 183.842C191.541 183.272 192.322 182.507 192.843 181.547V176.567H189.645C187.447 176.567 185.795 176.949 184.688 177.714C183.582 178.479 183.028 179.561 183.028 180.961C183.028 182.1 183.403 183.012 184.151 183.695C184.916 184.363 185.934 184.696 187.203 184.696ZM238.621 176.029C238.621 180.115 237.693 183.378 235.838 185.819C233.982 188.245 231.492 189.457 228.367 189.457C225.47 189.457 223.151 188.505 221.409 186.601V199.125H215.477V162.553H220.945L221.189 165.238C222.931 163.123 225.299 162.065 228.294 162.065C231.517 162.065 234.039 163.269 235.862 165.678C237.701 168.07 238.621 171.399 238.621 175.663V176.029ZM232.713 175.517C232.713 172.88 232.184 170.789 231.126 169.242C230.084 167.696 228.587 166.923 226.634 166.923C224.209 166.923 222.467 167.924 221.409 169.926V181.645C222.483 183.695 224.241 184.721 226.683 184.721C228.571 184.721 230.044 183.964 231.102 182.45C232.176 180.92 232.713 178.609 232.713 175.517ZM261.597 156.132V162.553H266.26V166.947H261.597V181.693C261.597 182.703 261.792 183.435 262.183 183.891C262.59 184.33 263.306 184.55 264.331 184.55C265.015 184.55 265.706 184.469 266.406 184.306V188.896C265.055 189.27 263.753 189.457 262.5 189.457C257.943 189.457 255.664 186.943 255.664 181.913V166.947H251.318V162.553H255.664V156.132H261.597ZM279.47 175.517C279.47 172.929 279.982 170.601 281.008 168.534C282.033 166.451 283.474 164.856 285.329 163.749C287.185 162.626 289.317 162.065 291.726 162.065C295.29 162.065 298.179 163.212 300.393 165.507C302.622 167.802 303.827 170.845 304.006 174.638L304.03 176.029C304.03 178.634 303.526 180.961 302.517 183.012C301.524 185.063 300.091 186.65 298.22 187.773C296.364 188.896 294.216 189.457 291.774 189.457C288.047 189.457 285.061 188.22 282.814 185.746C280.585 183.256 279.47 179.944 279.47 175.81V175.517ZM285.402 176.029C285.402 178.748 285.964 180.88 287.087 182.426C288.21 183.956 289.772 184.721 291.774 184.721C293.776 184.721 295.331 183.94 296.438 182.377C297.561 180.815 298.122 178.528 298.122 175.517C298.122 172.847 297.544 170.732 296.389 169.169C295.249 167.607 293.695 166.825 291.726 166.825C289.789 166.825 288.251 167.598 287.111 169.145C285.972 170.675 285.402 172.97 285.402 176.029ZM342.68 176.029C342.68 180.115 341.752 183.378 339.896 185.819C338.041 188.245 335.551 189.457 332.426 189.457C329.529 189.457 327.209 188.505 325.468 186.601V199.125H319.535V162.553H325.004L325.248 165.238C326.99 163.123 329.358 162.065 332.353 162.065C335.575 162.065 338.098 163.269 339.921 165.678C341.76 168.07 342.68 171.399 342.68 175.663V176.029ZM336.771 175.517C336.771 172.88 336.243 170.789 335.185 169.242C334.143 167.696 332.646 166.923 330.692 166.923C328.267 166.923 326.526 167.924 325.468 169.926V181.645C326.542 183.695 328.3 184.721 330.741 184.721C332.629 184.721 334.102 183.964 335.16 182.45C336.234 180.92 336.771 178.609 336.771 175.517ZM404.305 176.029C404.305 180.115 403.377 183.378 401.521 185.819C399.666 188.245 397.176 189.457 394.051 189.457C391.154 189.457 388.834 188.505 387.093 186.601V199.125H381.16V162.553H386.629L386.873 165.238C388.615 163.123 390.983 162.065 393.978 162.065C397.2 162.065 399.723 163.269 401.546 165.678C403.385 168.07 404.305 171.399 404.305 175.663V176.029ZM398.396 175.517C398.396 172.88 397.868 170.789 396.81 169.242C395.768 167.696 394.271 166.923 392.317 166.923C389.892 166.923 388.151 167.924 387.093 169.926V181.645C388.167 183.695 389.925 184.721 392.366 184.721C394.254 184.721 395.727 183.964 396.785 182.45C397.859 180.92 398.396 178.609 398.396 175.517ZM431.479 189.457C427.72 189.457 424.668 188.277 422.324 185.917C419.997 183.541 418.833 180.383 418.833 176.444V175.712C418.833 173.075 419.338 170.723 420.347 168.656C421.372 166.573 422.804 164.954 424.644 163.798C426.483 162.642 428.534 162.065 430.796 162.065C434.393 162.065 437.168 163.212 439.121 165.507C441.09 167.802 442.075 171.049 442.075 175.248V177.641H424.814C424.993 179.822 425.718 181.547 426.987 182.817C428.273 184.086 429.884 184.721 431.821 184.721C434.539 184.721 436.753 183.622 438.462 181.425L441.66 184.477C440.602 186.055 439.186 187.284 437.412 188.163C435.654 189.026 433.677 189.457 431.479 189.457ZM430.771 166.825C429.144 166.825 427.826 167.395 426.816 168.534C425.824 169.674 425.189 171.261 424.912 173.295H436.216V172.856C436.086 170.87 435.557 169.373 434.629 168.363C433.701 167.338 432.415 166.825 430.771 166.825ZM471.032 167.973C470.251 167.843 469.445 167.777 468.615 167.777C465.897 167.777 464.066 168.819 463.122 170.902V188.969H457.189V162.553H462.854L463 165.507C464.432 163.212 466.418 162.065 468.957 162.065C469.803 162.065 470.503 162.179 471.057 162.406L471.032 167.973ZM519.083 184.721C520.564 184.721 521.793 184.29 522.77 183.427C523.746 182.564 524.267 181.498 524.332 180.229H529.923C529.858 181.873 529.345 183.411 528.385 184.843C527.424 186.259 526.122 187.382 524.479 188.212C522.835 189.042 521.061 189.457 519.156 189.457C515.462 189.457 512.532 188.261 510.367 185.868C508.202 183.476 507.12 180.172 507.12 175.956V175.346C507.12 171.326 508.194 168.111 510.343 165.702C512.491 163.277 515.421 162.065 519.132 162.065C522.273 162.065 524.828 162.984 526.798 164.823C528.784 166.646 529.825 169.047 529.923 172.026H524.332C524.267 170.512 523.746 169.267 522.77 168.29C521.809 167.314 520.58 166.825 519.083 166.825C517.162 166.825 515.681 167.525 514.64 168.925C513.598 170.308 513.069 172.416 513.053 175.248V176.2C513.053 179.065 513.565 181.205 514.591 182.621C515.632 184.021 517.13 184.721 519.083 184.721ZM550.75 165.434C552.687 163.188 555.136 162.065 558.099 162.065C563.73 162.065 566.587 165.279 566.668 171.708V188.969H560.735V171.928C560.735 170.105 560.337 168.819 559.539 168.07C558.758 167.305 557.602 166.923 556.072 166.923C553.696 166.923 551.922 167.981 550.75 170.097V188.969H544.817V151.469H550.75V165.434ZM589.497 188.969H583.564V162.553H589.497V188.969ZM583.198 155.693C583.198 154.781 583.483 154.024 584.053 153.422C584.639 152.82 585.469 152.519 586.543 152.519C587.617 152.519 588.447 152.82 589.033 153.422C589.619 154.024 589.912 154.781 589.912 155.693C589.912 156.588 589.619 157.336 589.033 157.939C588.447 158.525 587.617 158.818 586.543 158.818C585.469 158.818 584.639 158.525 584.053 157.939C583.483 157.336 583.198 156.588 583.198 155.693ZM612.79 188.969H606.857V151.469H612.79V188.969ZM628.661 175.566C628.661 171.497 629.605 168.233 631.493 165.776C633.381 163.302 635.912 162.065 639.086 162.065C641.885 162.065 644.148 163.041 645.873 164.994V151.469H651.806V188.969H646.435L646.142 186.234C644.368 188.383 641.999 189.457 639.037 189.457C635.945 189.457 633.438 188.212 631.518 185.722C629.613 183.232 628.661 179.846 628.661 175.566ZM634.594 176.078C634.594 178.764 635.106 180.863 636.132 182.377C637.174 183.874 638.646 184.623 640.551 184.623C642.976 184.623 644.75 183.541 645.873 181.376V170.097C644.783 167.981 643.025 166.923 640.6 166.923C638.679 166.923 637.198 167.688 636.156 169.218C635.115 170.732 634.594 173.018 634.594 176.078Z" fill="#2E317C"/>
</svg>
