<svg width="550" height="200" viewBox="0 0 550 200" fill="none" xmlns="http://www.w3.org/2000/svg">
<path d="M320.204 92.2779V1.39722H373.986V8.48813H327.948V41.7224H373.199V48.8129H327.948V85.1951H374.246V92.2779H320.204Z" fill="#2E317C"/>
<path d="M78.8109 50.0737V1.98895H106.749V5.74287H82.9111V23.3243H106.332V27.0702H82.9111V46.3278H106.89V50.0737H78.8109V50.0737Z" fill="#2E317C"/>
<path d="M440.27 57.7433H403.101L389.58 92.276H381.954L417.416 1.40338H425.427L462.329 92.276H454.318L440.27 57.7433ZM405.863 50.7865H437.382L421.359 11.2483L405.863 50.7865Z" fill="#2E317C"/>
<path d="M478.006 14.6675V92.2798H470.262V1.39911H478.266L531.324 79.5386V1.39911H539.076V92.2798H531.057L478.006 14.6675Z" fill="#2E317C"/>
<path d="M88.3162 198.563V107.689H106.574V181.493H145.766V198.563H88.3162Z" fill="#2E317C"/>
<path d="M156.821 198.563V107.689H214.672V124.751H175.079V143.663H214.011V160.48H175.079V181.493H215.065V198.563H156.821Z" fill="#2E317C"/>
<path d="M281.375 173.614H250.25L241.317 198.561H223.319L256.16 107.688H275.331L309.738 198.561H290.433L281.375 173.614V173.614ZM255.892 158.11H275.732L265.745 130.794L255.892 158.11Z" fill="#2E317C"/>
<path d="M335.754 138.678V198.559H318.023V107.686H336.934L375.937 168.622V107.686H393.668V198.559H375.543L335.754 138.678Z" fill="#2E317C"/>
<path d="M178.522 92.8324C152.93 92.8324 132.106 72.0088 132.106 46.4162C132.106 20.8156 152.93 -3.63012e-05 178.522 -3.63012e-05C204.115 -3.63012e-05 224.938 20.8156 224.938 46.4162C224.938 72.0088 204.115 92.8324 178.522 92.8324ZM178.522 7.90913C157.289 7.90913 140.015 25.1834 140.015 46.4162C140.015 67.649 157.289 84.9154 178.522 84.9154C199.755 84.9154 217.021 67.649 217.021 46.4162C217.021 25.1834 199.755 7.90913 178.522 7.90913Z" fill="#2E317C"/>
<path d="M51.2199 182.116C35.0868 182.116 21.9599 168.989 21.9599 152.856C21.9599 136.723 35.0868 123.596 51.2199 123.596C62.1669 123.596 71.713 129.648 76.7339 138.572V114.129C69.4071 109.281 60.6401 106.44 51.2199 106.44C25.6273 106.44 4.80371 127.263 4.80371 152.864C4.80371 178.449 25.6273 199.272 51.2199 199.272C60.6401 199.272 69.4071 196.439 76.7339 191.591V167.14C71.713 176.072 62.1669 182.116 51.2199 182.116Z" fill="#2E317C"/>
<path d="M282.668 84.9189C261.436 84.9189 244.161 67.6525 244.161 46.4197C244.161 25.1869 261.436 7.91267 282.668 7.91267C292.797 7.91267 301.997 11.8712 308.875 18.2851V8.14877C301.414 3.01764 292.388 0.00350374 282.668 0.00350374C257.068 0.00350374 236.252 20.8192 236.252 46.4197C236.252 72.0124 257.068 92.8359 282.668 92.8359C292.388 92.8359 301.414 89.8218 308.875 84.6907V74.5465C301.997 80.9604 292.797 84.9189 282.668 84.9189Z" fill="#2E317C"/>
<path d="M405.34 162.839V107.419H423.598V162.839C423.598 174.793 429.24 182.938 441.714 182.938C453.668 182.938 459.578 174.525 459.578 162.705V107.419H477.836V162.705C477.836 184.245 465.229 200 441.454 200C416.767 200 405.34 185.165 405.34 162.839Z" fill="#2E317C"/>
<path d="M517.502 160.21H507.523V198.3H489.399V107.42H517.502C535.627 107.42 545.346 116.745 545.346 133.555C545.346 149.972 534.312 160.21 517.502 160.21ZM507.523 123.175V144.447H516.054C522.759 144.447 526.435 140.127 526.435 133.681C526.435 127.252 522.759 123.175 516.054 123.175H507.523Z" fill="#2E317C"/>
<path d="M18.8739 5.7433V50.0741H14.7816V5.7433H4V1.98938H29.8523V5.7433H18.8739V5.7433Z" fill="#2E317C"/>
<path d="M71.4696 50.0737H67.3694V26.8657H40.8245V50.0737H36.7244V1.98895H40.8245V23.0488H67.3694V1.98895H71.4696V50.0737Z" fill="#2E317C"/>
</svg>
