<svg width="833" height="200" viewBox="0 0 833 200" fill="none" xmlns="http://www.w3.org/2000/svg">
<path d="M716.53 0C673.185 0 637.912 35.29 637.912 78.6525C637.912 122.035 673.185 157.31 716.53 157.31C759.895 157.31 795.167 122.035 795.167 78.6525C795.167 35.29 759.895 0 716.53 0ZM777.877 34.765C773.826 37.4867 769.598 39.9363 765.222 42.0975C762.626 36.8746 759.478 31.9448 755.832 27.3925C759.051 25.4481 762.113 23.2565 764.992 20.8375C769.855 24.9202 774.185 29.5995 777.877 34.765V34.765ZM744.802 8.67248C751.106 11.2292 757.032 14.6303 762.42 18.7825C759.685 21.0342 756.788 23.0806 753.752 24.905C749.883 20.4588 745.543 16.4461 740.807 12.9375C742.241 11.6151 743.576 10.1897 744.802 8.67248V8.67248ZM750.895 26.525C746.67 28.7969 742.233 30.6507 737.647 32.06C735.726 27.6558 733.538 23.3728 731.095 19.235C733.636 18.115 736.039 16.7057 738.257 15.035C742.869 18.401 747.106 22.2531 750.895 26.525V26.525ZM741.597 7.47749C740.527 8.73999 739.357 9.92501 738.115 11.015C733.955 8.18567 729.544 5.74378 724.937 3.72002C730.665 4.33752 736.242 5.59249 741.597 7.47749V7.47749ZM735.435 13.1025C733.545 14.4375 731.525 15.57 729.395 16.465C727.059 12.8127 724.529 9.2877 721.817 5.905C726.58 7.85426 731.141 10.2649 735.435 13.1025V13.1025ZM718.16 6.465C721.086 10.0033 723.798 13.7141 726.28 17.5775C723.645 18.3985 720.916 18.8774 718.16 19.0025V6.465ZM718.16 22.2625C721.523 22.1039 724.85 21.4882 728.047 20.4325C730.465 24.4589 732.62 28.6376 734.497 32.9425C729.145 34.3175 723.657 35.0875 718.16 35.2V22.2625V22.2625ZM714.88 6.59248V19.0025C712.161 18.8689 709.47 18.3901 706.872 17.5775C709.329 13.7653 712.002 10.0975 714.88 6.59248V6.59248ZM703.78 16.475C701.654 15.5724 699.632 14.4416 697.75 13.1025C702.02 10.2683 706.563 7.86722 711.31 5.93498C708.604 9.30447 706.09 12.8234 703.78 16.475V16.475ZM708.322 3.69251C703.681 5.71885 699.236 8.16657 695.042 11.005C693.802 9.89986 692.638 8.71128 691.56 7.44751C696.983 5.54949 702.608 4.28934 708.322 3.69251V3.69251ZM762.185 138.687C751.735 132.96 751.53 124.99 752.072 122.07C752.64 119.092 754.685 120.387 755.977 120.387C762.852 120.387 770.092 118.355 778.995 109.252C789.045 99 792.202 76.1975 776.757 61.3525C760.117 45.3275 742.422 48.13 731.01 62.535C728.662 65.4825 722.962 67.6475 718.022 67.4725C710.707 67.195 715.312 72.96 715.312 74.155C715.312 75.37 714.21 76.2 713.56 76.0175C711.075 75.3125 712.07 78.99 712.07 80.1C712.07 81.2175 711.055 81.78 710.497 81.78C707.422 81.78 708.27 84.56 708.36 85.2975C708.452 86.04 708.185 87.335 707.155 87.9C706.177 88.455 705.017 90.875 705.017 92.7375C705.017 96.07 708.08 98.3975 713.2 102.2C718.287 106.017 718.947 109.622 719.035 112.225C719.137 114.827 719.372 119.017 720.535 121.795C721.907 125.14 721.727 131.267 714.67 131.537C706.052 131.885 690.74 138.782 689.435 139.245C684.577 140.98 678.145 141.597 673.117 140.34C670.407 138.432 667.827 136.344 665.397 134.09C664.392 130.63 666.14 126.897 667.902 124.385C670.777 127.262 675.06 127.08 677.452 127.162C679.865 127.262 691.647 125.407 693.327 124.852C695.002 124.287 695.745 124.487 696.755 124.852C701.262 126.49 707.432 126.98 709.932 118.352C712.442 109.722 706.505 112.137 705.762 112.497C705.015 112.875 703.995 112.787 704.375 112.045C705.47 109.845 703.817 110.072 702.885 109.992C700.472 109.75 697.31 112.317 696.297 113.252C695.267 114.182 694.242 114.08 693.875 113.897C690.682 112.297 681.145 114.607 678.2 109.435C678.472 108.05 675.772 87.07 674.382 83.445C674.155 82.8884 674.07 82.2838 674.135 81.6862C674.201 81.0885 674.415 80.5166 674.757 80.0225C677.18 76.3725 683.86 80.2825 687.477 80.195C691.812 80.0875 692.507 78.275 693.692 76.8075C694.84 75.39 695.68 76.18 696.295 75.785C697.085 75.28 696.34 74.2575 696.612 73.7025C696.9 73.1425 697.227 73.4175 697.96 72.7775C698.707 72.11 697.862 70.7325 698.232 70.1675C699.302 68.55 702.227 69.855 700.47 65.6275C699.517 63.3175 700.85 60.805 702.145 59.1275C704.25 56.4125 712.365 44.9975 698.057 33.1275C684.4 21.815 670.577 22.74 661.665 32.375C652.76 42.0325 657.212 56.15 658.145 59.86C659.077 63.5825 656.402 66.9525 653.325 68.41C650.877 69.5625 645.317 73.2675 641.112 76.9375C641.79 46.6275 660.17 19.99 688.362 8.6425C689.555 10.1525 690.892 11.5675 692.337 12.9125C689.197 15.1975 682.347 21.33 682.347 21.33C682.347 21.33 683.285 21.4675 684.155 21.6775C684.76 21.8325 686.035 22.21 686.035 22.21C686.035 22.21 692.07 17.065 694.907 15.03C697.115 16.7075 699.527 18.105 702.085 19.23C700.702 21.57 697.265 28.02 697.265 28.02C697.265 28.02 698.06 28.5025 698.787 28.975C699.485 29.4475 699.93 29.8625 699.93 29.8625C699.93 29.8625 703.685 22.795 705.11 20.435C708.265 21.485 711.545 22.0925 714.87 22.2475V35.205C713.03 35.1425 708.277 34.9475 706.355 34.76L705.15 34.635L705.82 35.635C706.337 36.3825 706.717 37.1275 707.08 37.81L707.212 38.0725L707.53 38.1175C708.927 38.225 713.257 38.3775 714.875 38.4175V61.9925H718.155V56.59C722.94 56.3625 726.935 56.0375 731.752 55.615L731.967 55.595L736.2 51.8425L733.885 52.045C729.36 52.6304 724.814 53.034 720.257 53.255L718.152 53.365V38.4175C724.108 38.2819 730.027 37.4504 735.79 35.94C737.362 39.835 740.35 49.27 740.35 49.27L743.435 48.315C743.435 48.315 740.452 38.9375 738.885 35.035C743.785 33.5229 748.518 31.5142 753.01 29.04C756.632 33.4956 759.752 38.3374 762.312 43.4775C759.987 44.5725 755.76 46.0675 755.775 46.0675C759.16 46.4325 761.732 47.2425 761.732 47.2425C761.732 47.2425 762.93 46.7275 763.7 46.385C764.007 47.06 764.587 48.4375 764.587 48.4375L768.807 50.3075L768.325 49.14C768.325 49.14 766.922 45.795 766.587 45.015C771.122 42.7748 775.505 40.2385 779.707 37.4225C787.73 49.6758 791.996 64.0065 791.982 78.6525C791.99 103.125 780.285 124.897 762.185 138.687V138.687ZM630.792 20.9025L629.567 21.9975C624.947 26.075 614.43 36.845 616.027 48.6775C616.042 48.7275 616.202 49.5175 616.202 49.5175L616.725 51.86L618.195 50.51C624.655 44.62 629.49 34.6025 631.467 23.055L632.025 19.805L630.792 20.9025V20.9025ZM609.392 41.345L608.865 42.7675C608.127 44.74 606.805 48.89 606.087 54.405C605.092 62.21 605.32 73.255 612.107 81.515C612.092 81.505 612.855 82.495 612.855 82.495L613.64 83.4875L614.64 78.4675C615.762 69.61 614.287 51.04 611.027 42.7475L609.915 39.9175L609.392 41.345V41.345ZM601.58 73.285L601.487 74.75C600.915 82.6975 601.322 102.312 617.2 112.72L619.09 113.935L619.007 111.697C618.735 104.25 610.047 82.0425 603.535 74.0825L601.695 71.8275L601.58 73.285ZM604.312 108.392L604.585 109.732C606.9 120.995 617.582 139.262 634.097 144.547L636.352 145.29L635.532 143.06C632.465 134.63 616.552 114.99 606.332 108.517L604.027 107.047L604.312 108.392V108.392ZM637.462 37.89L636.16 38.67C623.88 46.1825 618.122 55.27 618.557 66.475L618.67 69.0425L620.452 67.5575C627.107 62.0475 635.417 47.9925 637.87 40.0125L638.767 37.1025L637.462 37.89V37.89ZM630.23 62.4425L629.307 63.325C626.162 66.31 615.992 77.1475 616.865 90.5425C616.997 92.6 617.475 94.8225 618.262 97.1225L618.98 99.2575L620.287 97.4275C625.15 90.585 631.6 72.515 631.255 64.1125L631.157 61.565L630.23 62.4425V62.4425ZM630.762 85.69L630.07 86.7275C624.937 94.345 622.325 102.17 622.482 109.377C622.625 114.71 624.322 119.815 627.54 124.557L628.61 126.15L629.517 124.457C631.73 120.297 633.497 106.772 633.227 96.0675C633.135 92.29 632.762 89.1675 632.132 87.0325L631.445 84.68L630.762 85.69ZM636.725 110.562L636.397 111.642C634.85 116.585 634.127 121.425 634.255 126.015C634.552 136.417 639.152 144.537 647.952 150.182L649.437 151.127L649.765 149.122C649.765 149.072 649.882 147.52 649.882 147.52C649.642 139.057 643.34 117.797 638.422 111.285L637.06 109.485L636.725 110.562V110.562ZM619.4 143.545L620.03 144.605C626.65 155.69 637.877 170.012 658.882 166.337L660.64 166.045L659.645 164.565C655.715 158.73 630.22 144.345 621.217 142.867L618.767 142.465L619.4 143.545V143.545ZM650.46 171.712L647.17 172.61L650.335 173.892C663.68 179.362 680.422 180.975 690.12 177.715C693.777 176.48 695.985 174.475 698.695 171.832C715.785 173.6 731.78 187.815 741.102 199.412L741.607 200L742.33 199.767C743.375 199.405 744.99 198.162 745.67 197.422L746.32 196.722L745.73 195.945C736.007 183.212 720.78 175.32 720.095 175.012C706.397 168.31 682.195 163.107 650.46 171.712" fill="#2E317C"/>
<path d="M651.167 136.195L651.352 137.317C653.355 149.9 658.467 166.41 679.707 164.587L681.075 164.465L680.732 163.145C679.287 157.422 659.83 140.795 653.037 136.122L650.997 135.06L651.167 136.195V136.195ZM801.36 19.805L801.927 23.055C803.91 34.6025 808.745 44.62 815.205 50.51L816.68 51.86L817.187 49.5175C817.187 49.5175 817.347 48.7275 817.352 48.6775C818.977 36.8475 808.442 26.075 803.842 21.9975L802.602 20.9025L801.36 19.805V19.805ZM823.487 39.92L822.365 42.75C819.102 51.0425 817.627 69.6125 818.747 78.47L819.762 83.49L820.542 82.4974L821.295 81.5174C828.072 73.2575 828.302 62.2125 827.29 54.4075C826.592 48.8925 825.262 44.7425 824.53 42.77L824.002 41.3475L823.487 39.92V39.92ZM831.71 71.83L829.865 74.085C823.355 82.045 814.66 104.25 814.4 111.7L814.312 113.937L816.182 112.722C832.057 102.315 832.477 82.6975 831.91 74.7525L831.802 73.2875L831.71 71.83ZM829.362 107.047L827.057 108.517C816.842 114.992 800.925 134.63 797.852 143.06L797.037 145.29L799.292 144.547C815.787 139.262 826.49 120.995 828.8 109.732L829.082 108.392L829.362 107.047V107.047ZM795.255 36.7175L796.105 39.6375C798.385 47.675 806.417 61.8925 812.955 67.5225L814.727 69.04L814.875 66.4825C815.54 55.285 809.962 46.08 797.835 38.345L796.535 37.525L795.255 36.7175V36.7175ZM802.237 61.565L802.135 64.1125C801.797 72.515 808.232 90.5849 813.097 97.4274L814.42 99.2575L815.142 97.1225C815.922 94.8225 816.392 92.5999 816.53 90.5424C817.415 77.15 807.227 66.3125 804.087 63.325L803.16 62.4425L802.237 61.565V61.565ZM801.945 84.6775L801.262 87.03C800.632 89.165 800.262 92.2899 800.167 96.0649C799.895 106.77 801.662 120.295 803.867 124.455L804.77 126.147L805.855 124.555C809.072 119.812 810.757 114.707 810.9 109.375C811.075 102.167 808.457 94.3425 803.327 86.725L802.635 85.6874L801.945 84.6775ZM796.33 109.487L794.977 111.287C790.045 117.8 783.752 139.06 783.512 147.522C783.512 147.522 783.635 149.075 783.645 149.125L783.962 151.13C783.962 151.13 785.452 150.185 785.457 150.185C794.247 144.54 798.845 136.42 799.145 126.017C799.272 121.427 798.56 116.587 797.002 111.645L796.66 110.565L796.33 109.487ZM814.63 142.465L812.175 142.867C803.162 144.345 777.677 158.73 773.747 164.565L772.757 166.045L774.515 166.337C795.53 170.012 806.747 155.687 813.367 144.61L813.997 143.545L814.63 142.465V142.465ZM713.297 175.012C712.622 175.32 697.38 183.212 687.672 195.945L687.072 196.722L687.737 197.422C688.415 198.165 690.027 199.407 691.087 199.767L691.795 200L692.297 199.417C701.605 187.817 717.61 173.605 734.695 171.837C737.405 174.48 739.612 176.477 743.275 177.72C752.982 180.98 769.71 179.367 783.07 173.897L786.23 172.615L782.935 171.717C751.202 163.107 726.997 168.31 713.297 175.012V175.012ZM782.405 135.062L780.377 136.125C773.555 140.795 754.097 157.425 752.657 163.147L752.325 164.467L753.682 164.59C774.927 166.412 780.045 149.902 782.042 137.32L782.227 136.197L782.405 135.062V135.062ZM245.597 7.73748H272.15V31.95H245.597V7.73748ZM247.707 59.4575H270.042V177.45H247.707V59.4575ZM79.195 59.57H101.515V177.552H79.655V160.167H79.195C70.26 174.982 55.225 181.075 38.77 181.075C14.1075 181.075 0 162.277 0 138.542V59.5675H22.335V129.372C22.335 149.81 27.0275 164.86 48.405 164.86C57.575 164.86 70.03 160.165 74.7175 147.942C78.945 136.892 79.195 123.035 79.195 120.195V59.57V59.57ZM146.085 76.96H146.555C154.07 62.1425 170.535 56.045 182.272 56.045C190.5 56.045 226.915 58.1525 226.915 95.9975V177.552H204.6V103.282C204.6 83.77 196.377 73.2125 177.572 73.2125C177.572 73.2125 165.34 72.505 155.957 81.9025C152.667 85.1825 146.552 90.355 146.552 113.39V177.555H124.227V59.5725H146.082V76.96H146.085ZM363.507 97.4075C362.335 82.6975 355.352 72.4375 339.46 72.4375C318.245 72.4375 310.06 90.8549 310.06 118.435C310.06 145.985 318.242 164.437 339.46 164.437C354.152 164.437 363.262 154.887 364.42 138.047H386.622C384.732 164.437 365.147 180.54 339.22 180.54C301.642 180.54 286.71 153.94 286.71 119.355C286.71 84.995 303.97 56.2975 341.115 56.2975C365.87 56.2975 384.522 71.9525 385.655 97.4025H363.507V97.4075ZM419.962 122.625C418.317 143.18 426.73 164.44 449.362 164.44C466.642 164.44 475.27 157.687 477.825 140.595H501.205C497.675 167.262 477.132 180.542 449.145 180.542C411.552 180.542 396.582 153.942 396.582 119.357C396.582 84.9975 413.892 56.3 451.007 56.3C486.012 57.0275 502.58 79.18 502.58 111.67V122.622H419.962V122.625ZM479.26 107.23C479.72 87.6125 470.827 72.435 449.362 72.435C430.9 72.435 419.962 88.0275 419.962 107.23H479.26ZM527.697 177.035V75.2275H507.542V59.77H527.697V34.59C528.425 8.89247 547.785 2.12 564.362 2.12C569.72 2.12 574.88 3.50997 580.27 4.44997V22.88C576.49 22.6875 572.78 22.1825 569.02 22.1825C556.442 22.1825 549.18 25.4775 549.875 38.3075V59.7725H576.975V75.23H549.875V177.037H527.697V177.035Z" fill="#2E317C"/>
</svg>
